<?xml version="1.0" encoding="utf-8"?>
<!-- Generator: Adobe Illustrator 22.1.0, SVG Export Plug-In . SVG Version: 6.00 Build 0)  -->
<svg version="1.1" id="Layer_1" xmlns="http://www.w3.org/2000/svg" xmlns:xlink="http://www.w3.org/1999/xlink" x="0px" y="0px"
	 viewBox="0 0 36 36" style="enable-background:new 0 0 36 36;" xml:space="preserve">
<style type="text/css">
	.st0{fill:#282B3A;}
</style>
<g>
	<g>
		<path class="st0" d="M21.5,9.7c-0.5,0-0.8-0.4-0.8-0.8V1H5.4C3.9,1,3.3,1.2,3.3,2.1v30.7C3.3,34.3,4,35,5.4,35h23.2
			c1.1,0,1.2-1.1,1.2-2.2V9.7H21.5z M28.6,33.3c0,0.3-0.3,0.6-0.6,0.6H5c-0.3,0-0.5-0.2-0.5-0.5V2.5c0-0.2,0.2-0.4,0.4-0.4h14.7v7
			c0,0.9,0.8,1.7,1.7,1.7h7.4V33.3z"/>
	</g>
	<g>
		<polygon class="st0" points="20.7,1 29.8,9.7 29.2,10.7 19.8,1.6 		"/>
	</g>
	<g>
		<g>
			<rect x="6.8" y="9.8" class="st0" width="11.1" height="0.8"/>
		</g>
	</g>
	<g>
		<g>
			<rect x="6.8" y="6.7" class="st0" width="11.1" height="0.8"/>
		</g>
	</g>
	<g>
		<rect x="6.8" y="3.7" class="st0" width="11.1" height="0.8"/>
	</g>
	<g>
		<g>
			<rect x="6.8" y="12.9" class="st0" width="19.5" height="0.8"/>
		</g>
	</g>
	<g>
		<g>
			<rect x="6.8" y="28.2" class="st0" width="19.5" height="0.8"/>
		</g>
	</g>
	<g>
		<g>
			<rect x="6.8" y="31.3" class="st0" width="19.5" height="0.8"/>
		</g>
	</g>
	<path class="st0" d="M14.7,15.9H6.8v0.8h7c0,0,0.1-0.1,0.1-0.1C14.2,16.4,14.4,16.1,14.7,15.9z"/>
	<path class="st0" d="M23,16.7h3.3v-0.8h-4.1c0.2,0.1,0.3,0.3,0.5,0.4C22.8,16.5,22.9,16.6,23,16.7z"/>
	<path class="st0" d="M26.3,19.8V19h-2c0.1,0.3,0.1,0.5,0.2,0.8H26.3z"/>
	<path class="st0" d="M6.8,19v0.8h5.6c0-0.3,0.1-0.5,0.2-0.8H6.8z"/>
	<path class="st0" d="M26.3,22.9v-0.8h-1.8c-0.1,0.3-0.1,0.5-0.2,0.8H26.3z"/>
	<path class="st0" d="M6.8,22.1v0.8h5.8c-0.1-0.3-0.2-0.5-0.2-0.8H6.8z"/>
	<path class="st0" d="M14,25.1H6.8v0.8H15c-0.3-0.2-0.5-0.4-0.8-0.6C14.1,25.3,14.1,25.2,14,25.1z"/>
	<path class="st0" d="M26.3,25.9v-0.8h-3.5c-0.3,0.3-0.6,0.6-1,0.8H26.3z"/>
	<path class="st0" d="M18.4,27.8c-1.8,0-3.4-0.7-4.7-1.9l0,0c-2.8-2.6-2.9-7-0.3-9.8c1.3-1.3,3-2.1,4.8-2.2c1.9-0.1,3.6,0.6,5,1.9
		c1.3,1.3,2.1,3,2.2,4.8c0.1,1.8-0.6,3.6-1.9,5c-1.3,1.3-3,2.1-4.8,2.2C18.6,27.8,18.5,27.8,18.4,27.8z M18.4,15.4
		c-0.1,0-0.1,0-0.2,0c-1.4,0-2.8,0.7-3.8,1.7c-2,2.2-1.9,5.6,0.2,7.7l0,0c1.1,1,2.4,1.5,3.9,1.5c1.4,0,2.8-0.7,3.8-1.7
		c2-2.2,1.9-5.6-0.2-7.7C21.1,15.9,19.8,15.4,18.4,15.4z"/>
	<g>
		<rect x="24.6" y="23.8" transform="matrix(0.6845 -0.729 0.729 0.6845 -11.9231 27.0639)" class="st0" width="1.5" height="6.9"/>
	</g>
	<g>
		<path class="st0" d="M32.5,33.1l-1,1c-0.3,0.3-0.8,0.3-1.1,0l-6-5.6c-0.3-0.3-0.3-0.8,0-1.1l1-1c0.3-0.3,0.8-0.3,1.1,0l6,5.6
			C32.8,32.2,32.8,32.7,32.5,33.1z"/>
	</g>
	<g>
		<g>
			<path class="st0" d="M16.9,19.3c-0.4,0-0.6,0.1-0.8,0.4c-0.2,0.3-0.3,0.6-0.3,1.1c0,1,0.4,1.5,1.1,1.5c0.3,0,0.7-0.1,1.1-0.2v0.8
				c-0.4,0.2-0.8,0.2-1.2,0.2c-0.7,0-1.1-0.2-1.5-0.6c-0.3-0.4-0.5-1-0.5-1.7c0-0.5,0.1-0.9,0.3-1.2c0.2-0.4,0.4-0.6,0.7-0.8
				c0.3-0.2,0.7-0.3,1.1-0.3c0.4,0,0.9,0.1,1.3,0.3L18,19.6c-0.2-0.1-0.3-0.1-0.5-0.2S17.1,19.3,16.9,19.3z"/>
		</g>
		<g>
			<path class="st0" d="M22,21.8c0,0.4-0.1,0.7-0.4,1c-0.3,0.2-0.7,0.3-1.2,0.3c-0.5,0-0.9-0.1-1.3-0.3V22c0.3,0.1,0.6,0.2,0.8,0.3
				c0.2,0.1,0.4,0.1,0.6,0.1c0.2,0,0.4,0,0.5-0.1c0.1-0.1,0.2-0.2,0.2-0.4c0-0.1,0-0.2-0.1-0.2c0-0.1-0.1-0.1-0.2-0.2
				c-0.1-0.1-0.3-0.2-0.6-0.3c-0.3-0.1-0.5-0.3-0.6-0.4s-0.2-0.3-0.3-0.4c-0.1-0.2-0.1-0.3-0.1-0.6c0-0.4,0.1-0.7,0.4-0.9
				c0.3-0.2,0.6-0.3,1.1-0.3c0.2,0,0.5,0,0.7,0.1c0.2,0.1,0.4,0.1,0.7,0.2l-0.3,0.7c-0.2-0.1-0.4-0.2-0.6-0.2
				c-0.2,0-0.3-0.1-0.5-0.1c-0.2,0-0.3,0-0.4,0.1s-0.1,0.2-0.1,0.3c0,0.1,0,0.2,0.1,0.2c0,0.1,0.1,0.1,0.2,0.2
				c0.1,0.1,0.3,0.2,0.6,0.3c0.4,0.2,0.7,0.4,0.9,0.6C21.9,21.3,22,21.5,22,21.8z"/>
		</g>
	</g>
</g>
</svg>
