<?xml version="1.0" encoding="utf-8"?>
<!-- Generator: Adobe Illustrator 22.1.0, SVG Export Plug-In . SVG Version: 6.00 Build 0)  -->
<svg version="1.1" id="Layer_1" xmlns="http://www.w3.org/2000/svg" xmlns:xlink="http://www.w3.org/1999/xlink" x="0px" y="0px"
	 viewBox="0 0 36 36" style="enable-background:new 0 0 36 36;" xml:space="preserve">
<style type="text/css">
	.st0{fill:#282B3A;}
</style>
<g>
	<g>
		<path class="st0" d="M13.1,14.6l-5,3.5l5,3.5l-1.4,1.6L6,19.1v-1.9l5.8-4.2L13.1,14.6z"/>
		<path class="st0" d="M19.3,10.8h2.1l-4.5,14.3h-2.1L19.3,10.8z"/>
		<path class="st0" d="M24.2,13.1l5.8,4.2v1.9l-5.8,4.2l-1.4-1.6l5-3.5l-5-3.5L24.2,13.1z"/>
	</g>
	<path class="st0" d="M18,3c8.3,0,15,6.7,15,15s-6.7,15-15,15S3,26.3,3,18S9.7,3,18,3 M18,0.5C8.4,0.5,0.5,8.4,0.5,18
		S8.4,35.5,18,35.5S35.5,27.6,35.5,18S27.6,0.5,18,0.5L18,0.5z"/>
</g>
</svg>
