<?xml version="1.0" encoding="utf-8"?>
<!-- Generator: Adobe Illustrator 22.1.0, SVG Export Plug-In . SVG Version: 6.00 Build 0)  -->
<svg version="1.1" id="Layer_1" xmlns="http://www.w3.org/2000/svg" xmlns:xlink="http://www.w3.org/1999/xlink" x="0px" y="0px"
	 viewBox="0 0 36 36" style="enable-background:new 0 0 36 36;" xml:space="preserve">
<style type="text/css">
	.st0{fill:#282B3A;}
</style>
<g>
	<path class="st0" d="M23.1,9.8c-0.4,0-1-0.7-1-1.1V1H6.7C5.8,1,4.9,1.5,4.9,2.4v30.5c0,0.9,0.9,2.1,1.9,2.1h23
		c1.4,0,1.5-1.2,1.5-2.1V9.8H23.1z M30.1,32.9c0,0.4-0.2,1-0.7,1H6.7c-0.4,0-0.8-0.6-0.8-1V2.4c0-0.4,0.4-0.4,0.8-0.4h14.3v6.9
		c0,0.9,0.9,1.9,1.8,1.9h7.2V32.9z"/>
	<polygon class="st0" points="22.1,1 31.1,9.8 30.7,10.5 21.3,1.5 	"/>
	<g>
		<rect x="7.8" y="4.8" class="st0" width="11.6" height="0.8"/>
	</g>
	<g>
		<rect x="7.8" y="8.4" class="st0" width="11.6" height="0.8"/>
	</g>
	<g>
		<rect x="7.8" y="12.1" class="st0" width="20.4" height="0.8"/>
	</g>
	<g>
		<rect x="7.8" y="15.7" class="st0" width="20.4" height="0.8"/>
	</g>
	<g>
		<rect x="7.8" y="19.3" class="st0" width="20.4" height="0.8"/>
	</g>
	<g>
		<rect x="7.8" y="23" class="st0" width="20.4" height="0.8"/>
	</g>
	<g>
		<rect x="7.8" y="26.6" class="st0" width="20.4" height="0.8"/>
	</g>
	<g>
		<rect x="7.8" y="30.2" class="st0" width="20.4" height="0.8"/>
	</g>
</g>
</svg>
