<?xml version="1.0" encoding="utf-8"?>
<!-- Generator: Adobe Illustrator 22.1.0, SVG Export Plug-In . SVG Version: 6.00 Build 0)  -->
<svg version="1.1" id="Layer_1" xmlns="http://www.w3.org/2000/svg" xmlns:xlink="http://www.w3.org/1999/xlink" x="0px" y="0px"
	 viewBox="0 0 36 36" style="enable-background:new 0 0 36 36;" xml:space="preserve">
<style type="text/css">
	.st0{fill:#282B3A;}
</style>
<path class="st0" d="M35,20c0-0.6-0.2-1.2-0.6-1.7c0.4-0.5,0.6-1.1,0.6-1.7c0-1.1-0.7-2.2-1.7-2.6c0.1-0.3,0.1-0.5,0.1-0.8
	c0-1.5-1.2-2.8-2.8-2.8c0-0.1,0-0.1,0-0.2c0-1.7-1.4-3-3.1-2.8c-0.4-1.2-1.4-2-2.7-2c-0.5,0-0.9,0.1-1.3,0.3C23,4.6,22,3.9,20.8,3.9
	c-0.9,0-1.7,0.4-2.3,1.1c-0.5-0.5-1.2-0.8-2-0.8c-1,0-1.9,0.5-2.4,1.3c-0.5-0.4-1.2-0.7-1.8-0.7C11,4.8,9.9,5.7,9.6,7
	c-0.1,0-0.8,0-1,0C7,7,5.1,8.3,5.1,9.8c0,0,0,0,0,0C4.3,9.6,2.5,11,2.5,12.7c0,0.4,0.5,0.8,0.6,1.2c-1.2,0.4-1.9,1.4-1.9,2.7
	c0,0.6,0.3,1.2,0.6,1.7C1.3,18.8,1,19.8,1,20.6c0,1.5,1.2,2.9,2.9,2.9c0,0,8.7,0.1,8.7,0.1c0,1.3,1,2.7,2.3,2.9c0,0,0.9,0,2.3,0
	l3.5,5.5l4.4-0.1l-1.3-2.4c0.6,0.1,1.3,0.2,2,0.2c2.4,0,4.5-1.3,5.7-3.2c1.2-0.2,2.5-1.4,2.5-2.9c0-0.4-0.1-0.8-0.3-1.2
	C34.5,22,35,21,35,20z"/>
</svg>
