<?xml version="1.0" encoding="utf-8"?>
<!-- Generator: Adobe Illustrator 22.1.0, SVG Export Plug-In . SVG Version: 6.00 Build 0)  -->
<svg version="1.1" id="Layer_1" xmlns="http://www.w3.org/2000/svg" xmlns:xlink="http://www.w3.org/1999/xlink" x="0px" y="0px"
	 viewBox="0 0 36 36" style="enable-background:new 0 0 36 36;" xml:space="preserve">
<style type="text/css">
	.st0{fill:#282B3A;}
</style>
<g>
	<path class="st0" d="M18,3c8.3,0,15,6.7,15,15s-6.7,15-15,15S3,26.3,3,18S9.7,3,18,3 M18,0.5C8.4,0.5,0.5,8.4,0.5,18
		S8.4,35.5,18,35.5S35.5,27.6,35.5,18S27.6,0.5,18,0.5L18,0.5z"/>
	<g>
		<g>
			<circle class="st0" cx="18" cy="13.5" r="4.9"/>
			<path class="st0" d="M26.6,22.8c-0.5-1.8-1.6-3.4-3.1-4.5c-0.4-0.3-0.7-0.5-1.1-0.8c-1.1,1.1-2.7,1.8-4.4,1.8s-3.3-0.7-4.4-1.8
				C10.9,19.1,9,22,9,25.4h18C27,24.5,26.9,23.6,26.6,22.8z"/>
		</g>
	</g>
</g>
</svg>
