<?xml version="1.0" encoding="utf-8"?>
<!-- Generator: Adobe Illustrator 22.1.0, SVG Export Plug-In . SVG Version: 6.00 Build 0)  -->
<svg version="1.1" id="Layer_1" xmlns="http://www.w3.org/2000/svg" xmlns:xlink="http://www.w3.org/1999/xlink" x="0px" y="0px"
	 viewBox="0 0 36 36" style="enable-background:new 0 0 36 36;" xml:space="preserve">
<style type="text/css">
	.st0{fill:#282B3A;}
	.st1{fill:#FFFFFF;}
</style>
<g>
	<path class="st0" d="M35,24.1V10.8c-1.5,0-2.6-1.2-2.6-2.7c0,0,0,0,0,0h-5.1v2.5H26V8.1H6.5c0,0,0,0,0,0c0,1.5-1.2,2.7-2.7,2.7
		c0,0,0,0-0.1,0V19h1.9v-3.8c0-1,0.8-1.9,1.9-1.9h2.4c1,0,1.9,0.8,1.9,1.9V19h3.8c1,0,1.9,0.8,1.9,1.9v2.4c0,1-0.8,1.9-1.9,1.9h-3.8
		v1.7H26v-2.5h1.2v2.5h5.1C32.4,25.3,33.5,24.1,35,24.1z M27.2,22.6H26v-4.4h1.2V22.6z M27.2,16.6H26v-4.4h1.2V16.6z"/>
	<rect x="26" y="6.2" class="st1" width="1.2" height="1.9"/>
	<rect x="26" y="26.8" class="st1" width="1.2" height="1.9"/>
	<path class="st0" d="M15.6,19.9h-4.7v-4.7c0-0.5-0.4-0.9-0.9-0.9H7.5c-0.5,0-0.9,0.4-0.9,0.9v4.7H3.8H1.9c-0.5,0-0.9,0.4-0.9,0.9
		v2.4c0,0.5,0.4,0.9,0.9,0.9h1.7c0.1,0,0.1,0,0.2,0c0,0,0,0,0.1,0c0.1,0,0.2,0,0.3,0h2.5v2.6v2.1c0,0.5,0.4,0.9,0.9,0.9h2.4
		c0.5,0,0.9-0.4,0.9-0.9v-2.1v-2.6h4.7c0.5,0,0.9-0.4,0.9-0.9v-2.4C16.5,20.4,16,19.9,15.6,19.9z"/>
</g>
</svg>
