<?xml version="1.0" encoding="utf-8"?>
<!-- Generator: Adobe Illustrator 22.1.0, SVG Export Plug-In . SVG Version: 6.00 Build 0)  -->
<svg version="1.1" id="Layer_1" xmlns="http://www.w3.org/2000/svg" xmlns:xlink="http://www.w3.org/1999/xlink" x="0px" y="0px"
	 viewBox="0 0 36 36" style="enable-background:new 0 0 36 36;" xml:space="preserve">
<style type="text/css">
	.st0{fill:#282B3A;}
</style>
<g>
	<path class="st0" d="M18,3c8.3,0,15,6.7,15,15s-6.7,15-15,15S3,26.3,3,18S9.7,3,18,3 M18,0.5C8.4,0.5,0.5,8.4,0.5,18
		S8.4,35.5,18,35.5S35.5,27.6,35.5,18S27.6,0.5,18,0.5L18,0.5z"/>
	<path class="st0" d="M11,11.9c-3.3,0-6.1,2.7-6.1,6.1s2.7,6.1,6.1,6.1S17,21.3,17,18S14.3,11.9,11,11.9z M12.5,21.9h-1.6v-4.5
		l0-0.7l0-0.8c-0.3,0.3-0.5,0.4-0.6,0.5l-0.9,0.7l-0.8-1l2.5-2h1.3V21.9z"/>
	<path class="st0" d="M24.9,11.9c-3.3,0-6.1,2.7-6.1,6.1s2.7,6.1,6.1,6.1S31,21.3,31,18S28.3,11.9,24.9,11.9z M27.7,21.9h-5.4v-1.1
		l1.9-2c0.6-0.6,0.9-1,1.1-1.2c0.2-0.2,0.3-0.4,0.4-0.6c0.1-0.2,0.1-0.4,0.1-0.6c0-0.3-0.1-0.5-0.3-0.7c-0.2-0.2-0.4-0.2-0.7-0.2
		c-0.3,0-0.6,0.1-0.9,0.2c-0.3,0.1-0.6,0.3-0.9,0.6l-0.9-1c0.4-0.3,0.7-0.6,0.9-0.7c0.2-0.1,0.5-0.2,0.8-0.3c0.3-0.1,0.6-0.1,1-0.1
		c0.5,0,0.9,0.1,1.3,0.3c0.4,0.2,0.7,0.4,0.9,0.7s0.3,0.7,0.3,1.1c0,0.4-0.1,0.7-0.2,1c-0.1,0.3-0.3,0.6-0.6,1
		c-0.3,0.3-0.7,0.8-1.4,1.4l-1,0.9v0.1h3.4V21.9z"/>
</g>
</svg>
