<?xml version="1.0" encoding="utf-8"?>
<!-- Generator: Adobe Illustrator 22.1.0, SVG Export Plug-In . SVG Version: 6.00 Build 0)  -->
<svg version="1.1" id="Layer_1" xmlns="http://www.w3.org/2000/svg" xmlns:xlink="http://www.w3.org/1999/xlink" x="0px" y="0px"
	 viewBox="0 0 36 36" style="enable-background:new 0 0 36 36;" xml:space="preserve">
<style type="text/css">
	.st0{fill:#282B3A;}
</style>
<g>
	<path class="st0" d="M18,3c8.3,0,15,6.7,15,15s-6.7,15-15,15S3,26.3,3,18S9.7,3,18,3 M18,0.5C8.4,0.5,0.5,8.4,0.5,18
		S8.4,35.5,18,35.5S35.5,27.6,35.5,18S27.6,0.5,18,0.5L18,0.5z"/>
	<path class="st0" d="M27.1,16.5L13.6,8.7C12.4,8,11,8.8,11,10.2v15.7c0,1.3,1.4,2.1,2.6,1.5l13.6-7.8
		C28.3,18.8,28.3,17.2,27.1,16.5z"/>
</g>
</svg>
