<?xml version="1.0" encoding="utf-8"?>
<!-- Generator: Adobe Illustrator 22.1.0, SVG Export Plug-In . SVG Version: 6.00 Build 0)  -->
<svg version="1.1" id="Layer_1" xmlns="http://www.w3.org/2000/svg" xmlns:xlink="http://www.w3.org/1999/xlink" x="0px" y="0px"
	 viewBox="0 0 100 100" style="enable-background:new 0 0 100 100;" xml:space="preserve">
<style type="text/css">
	.st0{fill:#282B3A;}
	.st1{fill:#FFFFFF;}
</style>
<g>
	<g>
		<g>
			<path class="st0" d="M13.4,58.5c0.6,0.2,1.3,0.3,1.9,0.3c2.4,0,4.6-1.5,5.5-3.9c0.1-0.2,0.4-1.2,1.2-2.6
				c2.4,13.4,14,23.6,28,23.6c14.1,0,25.7-10.2,28.1-23.6c0.8,1.5,1.2,2.6,1.2,2.6c1,3,4.3,4.6,7.4,3.6c3-1,4.6-4.3,3.6-7.4
				c-3.2-9.4-15.8-27-40.2-27c-24.4,0-37,17.7-40.2,27C8.8,54.1,10.4,57.4,13.4,58.5z M26.2,46.1c2.8-3.2,6.9-6.5,12.5-8.5
				c-2.3,2.6-3.7,6-3.7,9.7c0,8.3,6.7,14.9,14.9,14.9s14.9-6.7,14.9-14.9c0-3.7-1.4-7.1-3.7-9.7c5.4,1.9,9.4,5.1,12.2,8.3
				C72.5,63,63,71.1,50,71.1C37,71.1,27.3,64,26.2,46.1z"/>
		</g>
	</g>
	<g>
		<g>
			<path class="st1" d="M58.6,44.6c0-0.8-0.4-1.6-1.1-2.2l-0.1-0.1l-5.5-2.8C51.3,39.2,50.6,39,50,39c-0.7,0-1.3,0.2-1.8,0.5
				l-5.5,2.8l-0.1,0.1c-0.7,0.5-1.1,1.3-1.1,2.2l0,6.9c0,0.8,0.4,1.6,1.1,2.2l0.1,0.1l5.5,2.8c0.5,0.3,1.2,0.5,1.8,0.5
				c0.7,0,1.3-0.2,1.8-0.5l5.5-2.8l0.1-0.1c0.7-0.5,1.1-1.3,1.1-2.2L58.6,44.6z"/>
			<g>
				<path class="st0" d="M56.3,44l-5.5-2.8c-0.5-0.4-1.2-0.4-1.7,0L43.6,44c-0.5,0.4-0.5,0.9,0,1.3l5.5,2.8c0.5,0.4,1.2,0.4,1.7,0
					l5.5-2.8C56.8,44.9,56.8,44.3,56.3,44z"/>
				<path class="st0" d="M50,49c-0.5,0-1.1-0.1-1.5-0.4l-3.6-1.8l-1.3,0.7c-0.5,0.4-0.5,0.9,0,1.3l5.5,2.8c0.5,0.4,1.2,0.4,1.7,0
					l5.5-2.8c0.5-0.4,0.5-0.9,0-1.3L55,46.8l-3.6,1.8C51,48.9,50.5,49,50,49z"/>
				<path class="st0" d="M50,52.5c-0.5,0-1.1-0.1-1.5-0.4l-3.6-1.8l-1.3,0.7c-0.5,0.4-0.5,0.9,0,1.3l5.5,2.8c0.5,0.4,1.2,0.4,1.7,0
					l5.5-2.8c0.5-0.4,0.5-0.9,0-1.3L55,50.2l-3.6,1.8C51,52.3,50.5,52.5,50,52.5z"/>
			</g>
		</g>
	</g>
</g>
</svg>
