<?xml version="1.0" encoding="utf-8"?>
<!-- Generator: Adobe Illustrator 22.1.0, SVG Export Plug-In . SVG Version: 6.00 Build 0)  -->
<svg version="1.1" id="Layer_1" xmlns="http://www.w3.org/2000/svg" xmlns:xlink="http://www.w3.org/1999/xlink" x="0px" y="0px"
	 viewBox="0 0 100 100" style="enable-background:new 0 0 100 100;" xml:space="preserve">
<style type="text/css">
	.st0{fill:#FFFFFF;}
	.st1{fill:#282B3A;}
</style>
<g>
	<g>
		<path class="st0" d="M94.8,65.8c0-2-1-3.8-2.7-5l-0.3-0.2L79,54c-1.2-0.8-2.7-1.2-4.2-1.2c-1.5,0-3,0.4-4.2,1.2l-12.8,6.5
			l-0.3,0.2c-1.6,1.2-2.6,3.1-2.6,5l0,16c0,2,0.9,3.8,2.6,5l0.3,0.2l12.8,6.5c1.2,0.8,2.7,1.2,4.2,1.2c1.5,0,3-0.4,4.2-1.2L91.8,87
			l0.3-0.2c1.6-1.2,2.6-3.1,2.6-5L94.8,65.8z"/>
		<path class="st1" d="M74.7,96c-1.8,0-3.5-0.5-4.9-1.4l-13.1-6.8c-2-1.5-3.1-3.6-3.1-6v-16c0-2.3,1.1-4.5,3.1-6l0.3-0.2l13-6.7
			c2.6-1.7,6.9-1.8,9.7,0.1l13.1,6.8c2,1.5,3.2,3.7,3.2,6l-0.1,16c0,2.3-1.1,4.5-3.1,6L92.5,88l-13,6.7C78.2,95.5,76.5,96,74.7,96z
			 M74.7,54c-1.3,0-2.5,0.4-3.6,1l-13,6.7c-1.3,1-2.1,2.5-2.1,4v16c0,1.6,0.8,3,2.1,4l0.3,0.2l12.6,6.4c2.3,1.4,5.2,1.4,7.2,0.1
			l13-6.7c1.3-1,2.1-2.5,2.1-4l0.1-16c0-1.5-0.8-3-2.2-4l-0.3-0.2l-12.7-6.5C77.3,54.4,76,54,74.7,54z"/>
	</g>
	<g>
		<g>
			<path class="st1" d="M89.5,64.3l-12.7-6.5c-1.1-0.8-2.9-0.8-4,0l-12.7,6.5c-1.1,0.8-1.1,2.1,0,3l12.7,6.5c1.1,0.8,2.9,0.8,4,0
				l12.7-6.5C90.6,66.4,90.6,65.1,89.5,64.3z"/>
		</g>
		<g>
			<path class="st1" d="M74.8,76c-1.3,0-2.5-0.3-3.4-1l-8.3-4.3l-3,1.5c-1.1,0.8-1.1,2.1,0,3l12.7,6.5c1.1,0.8,2.9,0.8,4,0l12.7-6.5
				c1.1-0.8,1.1-2.1,0-3l-3-1.5l-8.3,4.3C77.2,75.7,76.1,76,74.8,76z"/>
		</g>
		<g>
			<path class="st1" d="M74.8,84c-1.3,0-2.5-0.3-3.4-1l-8.3-4.3l-3,1.5c-1.1,0.8-1.1,2.1,0,3l12.7,6.5c1.1,0.8,2.9,0.8,4,0l12.7-6.5
				c1.1-0.8,1.1-2.1,0-3l-3-1.5L78.2,83C77.2,83.7,76.1,84,74.8,84z"/>
		</g>
	</g>
</g>
<circle class="st0" cx="61" cy="39" r="31.3"/>
<g>
	<g>
		<path class="st1" d="M60.8,4C41.4,4,25.7,19.7,25.7,39.2c0,7.1,2.1,13.8,5.8,19.3h-2.4v5.2c-2.3-0.7-4.9-0.2-6.7,1.6L5.9,81.7
			c-2.6,2.6-2.6,6.7,0,9.3L9,94.1c2.6,2.6,6.7,2.6,9.3,0l16.5-16.5c0.7-0.7,1.2-1.6,1.5-2.5h1v-9.9c6.2,5.6,14.5,9.1,23.5,9.1
			C80.3,74.3,96,58.6,96,39.2S80.3,4,60.8,4z M60.8,67.8C45,67.8,32.2,55,32.2,39.2S45,10.5,60.8,10.5s28.7,12.8,28.7,28.7
			S76.7,67.8,60.8,67.8z"/>
	</g>
</g>
<g>
	<g>
		<g>
			<g>
				<polygon class="st1" points="43.4,36.9 37.1,38.3 37.1,35.9 43.4,32.7 				"/>
				<polygon class="st1" points="43.4,42.2 37.1,41.3 37.1,38.9 43.4,38 				"/>
				<polygon class="st1" points="43.4,47.6 37.1,44.2 37.1,41.8 43.4,43.3 				"/>
			</g>
			<g>
				<polygon class="st1" points="50,38.4 43.6,37 43.6,32.7 50,36 				"/>
				<polygon class="st1" points="50,41.3 43.6,42.3 43.6,38 50,38.9 				"/>
				<polygon class="st1" points="50,44.2 43.6,47.5 43.6,43.3 50,41.8 				"/>
			</g>
		</g>
	</g>
</g>
<g>
	<circle class="st1" cx="61" cy="49.6" r="7.6"/>
	<path class="st1" d="M67.8,55.9c-1.7,1.8-4.1,2.9-6.8,2.9c-2.7,0-5.1-1.1-6.8-2.9c-0.6,0.3-1.2,0.7-1.8,1.2c-2.2,1.7-3.9,4.2-4.8,7
		c-0.4,1.3-0.6,2.6-0.6,4h27.8C74.9,62.8,72.1,58.3,67.8,55.9z"/>
</g>
<g>
	<path class="st1" d="M77.7,44.3c-0.5,0-0.9-0.2-1.2-0.5l-2.6-2.6c-0.7-0.7-0.7-1.8,0-2.5c0.3-0.3,0.8-0.5,1.2-0.5
		c0.5,0,0.9,0.2,1.2,0.5l1.4,1.4l5.1-5.1c0.3-0.3,0.8-0.5,1.2-0.5s0.9,0.2,1.2,0.5c0.3,0.3,0.5,0.8,0.5,1.2c0,0.5-0.2,0.9-0.5,1.2
		L79,43.8c-0.3,0.3-0.6,0.4-1,0.5C77.9,44.3,77.8,44.3,77.7,44.3z"/>
	<path class="st1" d="M85.5,37.8l-0.8,0.8c0.1,0.5,0.2,1,0.2,1.5c0,3.6-2.9,6.4-6.4,6.4s-6.4-2.9-6.4-6.4c0-3.6,2.9-6.4,6.4-6.4
		c1.5,0,2.8,0.5,3.9,1.3l0.2-0.2c0.2-0.2,0.5-0.4,0.8-0.5c-1.3-1.1-3-1.7-4.8-1.7c-4.1,0-7.5,3.4-7.5,7.5s3.4,7.5,7.5,7.5
		s7.5-3.4,7.5-7.5C86,39.3,85.9,38.5,85.5,37.8C85.6,37.8,85.6,37.8,85.5,37.8z"/>
</g>
<g>
	<path class="st1" d="M68.2,21.2l-4.7-3.7c-0.1-0.1-0.3-0.1-0.4-0.1h-9c-0.4,0-0.6,0.3-0.6,0.6V32c0,0.4,0.3,0.6,0.6,0.6h13.7
		c0.4,0,0.6-0.3,0.6-0.6V21.7C68.5,21.5,68.4,21.3,68.2,21.2z M63.8,19.3l2.9,2.3h-2.9V19.3z M54.7,31.3V18.6h7.8v3.5
		c0,0.4,0.3,0.6,0.6,0.6h4.1v8.5L54.7,31.3L54.7,31.3z"/>
	<g>
		<g>
			<g>
				<path class="st1" d="M56.3,27.5l2.6,1.2c0.1,0,0.1,0,0.2,0c0.1,0,0.2,0,0.3-0.1c0.1-0.1,0.2-0.3,0.2-0.4v0
					c0-0.2-0.1-0.4-0.3-0.5L57.7,27l1.7-0.8c0.2-0.1,0.3-0.3,0.3-0.5v0c0-0.2-0.1-0.3-0.2-0.4c-0.1-0.1-0.2-0.1-0.3-0.1
					c-0.1,0-0.1,0-0.2,0l-2.6,1.2C56.1,26.6,56,26.8,56,27v0C56,27.3,56.1,27.4,56.3,27.5z"/>
				<path class="st1" d="M59.7,30c0.1,0.1,0.3,0.2,0.4,0.2h0c0.2,0,0.4-0.1,0.5-0.4l1.7-5.4c0-0.2,0-0.3-0.1-0.5
					c-0.1-0.1-0.3-0.2-0.4-0.2h0c-0.2,0-0.4,0.1-0.5,0.4l-1.7,5.4C59.6,29.7,59.6,29.9,59.7,30z"/>
				<path class="st1" d="M62.3,25.8c0,0.2,0.1,0.4,0.3,0.5l1.7,0.8l-1.7,0.8c-0.2,0.1-0.3,0.3-0.3,0.5v0c0,0.2,0.1,0.3,0.2,0.4
					c0.1,0.1,0.2,0.1,0.3,0.1c0.1,0,0.1,0,0.2,0l2.6-1.2c0.2-0.1,0.3-0.3,0.3-0.5v0c0-0.2-0.1-0.4-0.3-0.5L63,25.3
					c-0.1,0-0.1,0-0.2,0c-0.1,0-0.2,0-0.3,0.1C62.4,25.5,62.3,25.6,62.3,25.8L62.3,25.8L62.3,25.8L62.3,25.8z"/>
			</g>
		</g>
	</g>
</g>
</svg>
