<?xml version="1.0" encoding="utf-8"?>
<!-- Generator: Adobe Illustrator 22.1.0, SVG Export Plug-In . SVG Version: 6.00 Build 0)  -->
<svg version="1.1" id="Layer_1" xmlns="http://www.w3.org/2000/svg" xmlns:xlink="http://www.w3.org/1999/xlink" x="0px" y="0px"
	 viewBox="0 0 100 100" style="enable-background:new 0 0 100 100;" xml:space="preserve">
<style type="text/css">
	.st0{fill:#282B3A;}
</style>
<g>
	<g>
		<path class="st0" d="M59.6,41.4l1-1l-1.8-1.8l-1,1c-0.4-0.2-0.8-0.4-1.3-0.5v-1.4H54l0,1.4c-0.5,0.1-0.9,0.3-1.3,0.5l-1-1
			l-1.8,1.8l1,1c-0.2,0.4-0.4,0.8-0.5,1.3h-1.4v2.5l1.4,0c0.1,0.5,0.3,0.9,0.5,1.3l-1,1l1.8,1.8l1-1c0.4,0.2,0.8,0.4,1.3,0.5l0,1.4
			h2.5v-1.4c0.5-0.1,0.9-0.3,1.3-0.5l1,1l1.8-1.8l-1-1c0.2-0.4,0.4-0.8,0.5-1.3l1.4,0v-2.5h-1.4C60.1,42.3,59.9,41.8,59.6,41.4z
			 M55.3,46.1c-1.2,0-2.1-0.9-2.1-2.1c0-1.2,0.9-2.1,2.1-2.1c1.2,0,2.1,0.9,2.1,2.1C57.4,45.2,56.4,46.1,55.3,46.1z"/>
		<path class="st0" d="M61.6,45.3v-2.5h-1.4c-0.1-0.5-0.3-0.9-0.5-1.3l1-1l-1.8-1.8l-1,1c-0.4-0.2-0.8-0.4-1.3-0.5v-1.4h-1.3v4.2
			c0,0,0,0,0,0c1.2,0,2.1,0.9,2.1,2.1c0,1.2-0.9,2.1-2.1,2.1c0,0,0,0,0,0v4.2h1.3v-1.4c0.5-0.1,0.9-0.3,1.3-0.5l1,1l1.8-1.8l-1-1
			c0.2-0.4,0.4-0.8,0.5-1.3L61.6,45.3z"/>
		<path class="st0" d="M77.4,33.2l0-3.8l-2.1,0c-0.2-0.7-0.5-1.4-0.8-2L76,26l-2.7-2.7l-1.5,1.5c-0.6-0.4-1.3-0.6-2-0.8v-2.1H66V24
			c-0.7,0.2-1.4,0.5-2,0.8l-1.5-1.5L59.9,26l1.5,1.5c-0.4,0.6-0.6,1.3-0.8,2h-2.1v3.8h2.1c0.2,0.7,0.5,1.4,0.8,2l-1.5,1.5l2.7,2.7
			l1.5-1.5c0.6,0.4,1.3,0.6,2,0.8v2.1h3.8v-2.1c0.7-0.2,1.4-0.5,2-0.8l1.5,1.5l2.7-2.7l-1.5-1.5c0.4-0.6,0.6-1.3,0.8-2L77.4,33.2
			L77.4,33.2z M67.9,34.5c-1.7,0-3.2-1.4-3.2-3.2c0-1.7,1.4-3.2,3.2-3.2s3.2,1.4,3.2,3.2C71.1,33.1,69.7,34.5,67.9,34.5z"/>
		<path class="st0" d="M77.4,33.2l0-3.8l-2.1,0c-0.2-0.7-0.5-1.4-0.8-2L76,26l-2.7-2.7l-1.5,1.5c-0.6-0.4-1.3-0.6-2-0.8v-2.1h-1.9
			v6.3c1.7,0,3.2,1.4,3.2,3.2c0,1.7-1.4,3.2-3.2,3.2v6.3h1.9v-2.1c0.7-0.2,1.4-0.5,2-0.8l1.5,1.5l2.7-2.7l-1.5-1.5
			c0.4-0.6,0.6-1.3,0.8-2L77.4,33.2L77.4,33.2z"/>
	</g>
	<path class="st0" d="M8,31.5V89c0,2,1.6,3.6,3.6,3.6h76.8c2,0,3.6-1.6,3.6-3.6V11c0-2-1.6-3.6-3.6-3.6H38c-0.7,0-1.6,0.2-2.1,0.7
		L9.4,28.8C8.5,29.6,8,30.5,8,31.5z M34.4,30.8H18.2l16.3-12.7V30.8z M85,85.6H15V37.8H38c2,0,3.6-1.6,3.6-3.6V14.4H85V85.6L85,85.6
		z"/>
	
		<rect x="21.9" y="44.5" transform="matrix(-1 -4.494328e-11 4.494328e-11 -1 63.5103 95.8043)" class="st0" width="19.7" height="6.9"/>
	
		<rect x="21.9" y="58.2" transform="matrix(-1 -4.489532e-11 4.489532e-11 -1 99.3479 123.2611)" class="st0" width="55.5" height="6.9"/>
	
		<rect x="21.9" y="71.9" transform="matrix(-1 -4.489532e-11 4.489532e-11 -1 99.3479 150.718)" class="st0" width="55.5" height="6.9"/>
</g>
</svg>
