<?xml version="1.0" encoding="utf-8"?>
<!-- Generator: Adobe Illustrator 22.1.0, SVG Export Plug-In . SVG Version: 6.00 Build 0)  -->
<svg version="1.1" id="Layer_1" xmlns="http://www.w3.org/2000/svg" xmlns:xlink="http://www.w3.org/1999/xlink" x="0px" y="0px"
	 viewBox="0 0 100 100" style="enable-background:new 0 0 100 100;" xml:space="preserve">
<style type="text/css">
	.st0{fill:#FFFFFF;stroke:#282B3A;stroke-miterlimit:10;}
	.st1{fill:#282B3A;}
	.st2{fill:#FFFFFF;}
</style>
<g>
	<path class="st0" d="M-87.5-61.7c0-1.1-0.6-2.1-1.5-2.8l-0.2-0.1l-7.2-3.7c-0.7-0.4-1.5-0.7-2.4-0.7c-0.9,0-1.7,0.2-2.4,0.7
		l-7.2,3.7l-0.2,0.1c-0.9,0.7-1.5,1.7-1.5,2.8l0,9c0,1.1,0.5,2.1,1.5,2.8l0.2,0.1l7.2,3.7c0.7,0.4,1.5,0.7,2.4,0.7
		c0.9,0,1.7-0.2,2.4-0.7l7.2-3.7l0.2-0.1c0.9-0.7,1.5-1.7,1.5-2.8L-87.5-61.7z"/>
	<g>
		<path class="st1" d="M-90.5-62.6l-7.2-3.7c-0.6-0.5-1.6-0.5-2.2,0l-7.2,3.7c-0.6,0.5-0.6,1.2,0,1.7l7.2,3.7c0.6,0.5,1.6,0.5,2.2,0
			l7.2-3.7C-89.9-61.4-89.9-62.1-90.5-62.6z"/>
		<path class="st1" d="M-98.8-55.9c-0.7,0-1.4-0.2-1.9-0.6l-4.7-2.4l-1.7,0.9c-0.6,0.5-0.6,1.2,0,1.7l7.2,3.7c0.6,0.5,1.6,0.5,2.2,0
			l7.2-3.7c0.6-0.5,0.6-1.2,0-1.7l-1.7-0.9l-4.7,2.4C-97.4-56.1-98.1-55.9-98.8-55.9z"/>
		<path class="st1" d="M-98.8-51.4c-0.7,0-1.4-0.2-1.9-0.6l-4.7-2.4l-1.7,0.9c-0.6,0.5-0.6,1.2,0,1.7l7.2,3.7c0.6,0.5,1.6,0.5,2.2,0
			l7.2-3.7c0.6-0.5,0.6-1.2,0-1.7l-1.7-0.9l-4.7,2.4C-97.4-51.6-98.1-51.4-98.8-51.4z"/>
	</g>
</g>
<g>
	<path class="st0" d="M-87.5-8.5c0-1.1-0.6-2.1-1.5-2.8l-0.2-0.1l-7.2-3.7c-0.7-0.4-1.5-0.7-2.4-0.7c-0.9,0-1.7,0.2-2.4,0.7
		l-7.2,3.7l-0.2,0.1c-0.9,0.7-1.5,1.7-1.5,2.8l0,9c0,1.1,0.5,2.1,1.5,2.8l0.2,0.1l7.2,3.7c0.7,0.4,1.5,0.7,2.4,0.7
		c0.9,0,1.7-0.2,2.4-0.7l7.2-3.7l0.2-0.1c0.9-0.7,1.5-1.7,1.5-2.8L-87.5-8.5z"/>
	<g>
		<path class="st1" d="M-90.5-9.4l-7.2-3.7c-0.6-0.5-1.6-0.5-2.2,0l-7.2,3.7c-0.6,0.5-0.6,1.2,0,1.7l7.2,3.7c0.6,0.5,1.6,0.5,2.2,0
			l7.2-3.7C-89.9-8.2-89.9-8.9-90.5-9.4z"/>
		<path class="st1" d="M-98.8-2.8c-0.7,0-1.4-0.2-1.9-0.6l-4.7-2.4l-1.7,0.9c-0.6,0.5-0.6,1.2,0,1.7l7.2,3.7c0.6,0.5,1.6,0.5,2.2,0
			l7.2-3.7c0.6-0.5,0.6-1.2,0-1.7l-1.7-0.9l-4.7,2.4C-97.4-2.9-98.1-2.8-98.8-2.8z"/>
		<path class="st1" d="M-98.8,1.8c-0.7,0-1.4-0.2-1.9-0.6l-4.7-2.4l-1.7,0.9c-0.6,0.5-0.6,1.2,0,1.7l7.2,3.7c0.6,0.5,1.6,0.5,2.2,0
			l7.2-3.7c0.6-0.5,0.6-1.2,0-1.7l-1.7-0.9l-4.7,2.4C-97.4,1.6-98.1,1.8-98.8,1.8z"/>
	</g>
</g>
<g>
	<g>
		<path class="st1" d="M-166,91.1L-166,91.1C-166,91.1-166,91.1-166,91.1l-2.7,10.8c0,0,0,0-0.1,0.1c0,0-0.1,0-0.1,0l-10.6-3.2
			c-0.1,0-0.1-0.2-0.1-0.2c0-0.1,0-0.1,0.1-0.1l2.3-1.3l0.9-0.5l-0.5-0.9l-6.1-10.8l6.9-3.9l6.1,10.8l0.5,0.9l0.9-0.5l2.3-1.3
			c0,0,0.1,0,0.1,0C-166,90.9-166,91-166,91.1 M-165,91.1c0-0.8-0.9-1.5-1.7-1l-2.3,1.3l-6.6-11.6l-8.6,4.9l6.6,11.6l-2.3,1.3
			c-0.4,0.2-0.6,0.6-0.6,1c0,0.5,0.3,1,0.8,1.1l10.6,3.2c0.6,0.2,1.3-0.2,1.4-0.8l2.6-10.7C-165,91.2-165,91.1-165,91.1L-165,91.1z"
			/>
	</g>
	<g>
		<path class="st1" d="M-119.2,86.1l-6.4,10.6l-0.5,0.9l0.9,0.5l2.2,1.3c0,0,0.1,0,0.1,0.1c0,0,0,0.1-0.1,0.2l-10.6,3c0,0,0,0-0.1,0
			c0,0-0.1,0-0.1-0.1l-2.4-10.8c0,0,0,0,0,0c0-0.1,0.1-0.1,0.1-0.1c0.1,0,0.1,0,0.1,0l2.3,1.4l0.9,0.5l0.5-0.9L-126,82L-119.2,86.1
			 M-117.8,85.8l-8.5-5.1l-6.9,11.5l-2.3-1.4c-0.8-0.5-1.7,0.2-1.7,1c0,0.1,0,0.2,0,0.3l2.4,10.8c0.1,0.6,0.8,1,1.4,0.9l10.6-3
			c0.5-0.2,0.8-0.6,0.8-1.1c0-0.4-0.2-0.7-0.5-1l-2.2-1.3L-117.8,85.8L-117.8,85.8z"/>
	</g>
	<path class="st1" d="M-142.6,86L-142.6,86c0,0.1,0,0.1-0.1,0.2l-8.4,8.9c0,0-0.1,0.1-0.2,0.1c0,0-0.1,0-0.2-0.1l-8.4-8.9
		c0,0-0.1-0.1-0.1-0.2c0-0.1,0.1-0.3,0.3-0.3h2.9h1v-1V76h9v8.7v1h1h2.9c0,0,0.1,0,0.2,0.1C-142.7,85.8-142.6,85.9-142.6,86
		 M-141.6,86c0-0.7-0.5-1.3-1.3-1.3h-2.9V75h-11.1v9.7h-2.9c-0.8,0-1.3,0.6-1.3,1.3c0,0.3,0.1,0.6,0.3,0.9l8.4,8.9
		c0.5,0.5,1.3,0.5,1.8,0l8.4-8.9C-141.7,86.6-141.6,86.3-141.6,86L-141.6,86z"/>
</g>
<g>
	<path class="st0" d="M-104.4-35.1c0-1.1-0.6-2.1-1.5-2.8l-0.2-0.1l-7.2-3.7c-0.7-0.4-1.5-0.7-2.4-0.7c-0.9,0-1.7,0.2-2.4,0.7
		l-7.2,3.7l-0.2,0.1c-0.9,0.7-1.5,1.7-1.5,2.8l0,9c0,1.1,0.5,2.1,1.5,2.8l0.2,0.1l7.2,3.7c0.7,0.4,1.5,0.7,2.4,0.7
		c0.9,0,1.7-0.2,2.4-0.7l7.2-3.7l0.2-0.1c0.9-0.7,1.5-1.7,1.5-2.8L-104.4-35.1z"/>
	<g>
		<path class="st1" d="M-107.4-35.9l-7.2-3.7c-0.6-0.5-1.6-0.5-2.2,0l-7.2,3.7c-0.6,0.5-0.6,1.2,0,1.7l7.2,3.7
			c0.6,0.5,1.6,0.5,2.2,0l7.2-3.7C-106.8-34.7-106.8-35.5-107.4-35.9z"/>
		<path class="st1" d="M-115.7-29.3c-0.7,0-1.4-0.2-1.9-0.6l-4.7-2.4l-1.7,0.9c-0.6,0.5-0.6,1.2,0,1.7l7.2,3.7
			c0.6,0.5,1.6,0.5,2.2,0l7.2-3.7c0.6-0.5,0.6-1.2,0-1.7l-1.7-0.9l-4.7,2.4C-114.3-29.5-115-29.3-115.7-29.3z"/>
		<path class="st1" d="M-115.7-24.8c-0.7,0-1.4-0.2-1.9-0.6l-4.7-2.4l-1.7,0.9c-0.6,0.5-0.6,1.2,0,1.7l7.2,3.7
			c0.6,0.5,1.6,0.5,2.2,0l7.2-3.7c0.6-0.5,0.6-1.2,0-1.7l-1.7-0.9l-4.7,2.4C-114.3-25-115-24.8-115.7-24.8z"/>
	</g>
</g>
<g>
	<g>
		<path class="st2" d="M-128.4,116c0-2.2-1.1-4.3-3-5.7l-0.4-0.3l-14.5-7.4c-1.4-0.9-3.1-1.4-4.8-1.4c-1.7,0-3.4,0.5-4.8,1.4
			l-14.5,7.4l-0.3,0.3c-1.9,1.4-2.9,3.5-2.9,5.7l0,18.1c0,2.2,1.1,4.3,2.9,5.7l0.3,0.3l14.5,7.4c1.4,0.9,3.1,1.4,4.8,1.4
			c1.7,0,3.4-0.5,4.8-1.4l14.5-7.4l0.3-0.3c1.9-1.4,2.9-3.5,2.9-5.7L-128.4,116z"/>
		<path class="st1" d="M-151.1,150.2c-2,0-4-0.6-5.6-1.6l-14.9-7.7c-2.2-1.7-3.5-4.1-3.5-6.8V116c0-2.7,1.3-5.1,3.5-6.8l0.3-0.3
			l14.7-7.5c3-1.9,7.8-2,11,0.1l14.9,7.7c2.3,1.7,3.6,4.2,3.6,6.8l-0.1,18.1c0,2.6-1.3,5.1-3.5,6.8l-0.3,0.2l-14.7,7.5
			C-147.1,149.7-149.1,150.2-151.1,150.2z M-151.1,102.7c-1.5,0-2.9,0.4-4,1.2l-14.7,7.6c-1.5,1.1-2.4,2.8-2.4,4.5v18.1
			c0,1.8,0.9,3.4,2.4,4.5l0.3,0.3l14.3,7.3c2.6,1.6,5.9,1.6,8.2,0.1l14.7-7.6c1.5-1.1,2.4-2.8,2.4-4.5l0.1-18.1
			c0-1.7-0.9-3.4-2.4-4.5l-0.3-0.2l-14.3-7.3C-148.2,103.1-149.6,102.7-151.1,102.7z"/>
	</g>
	<g>
		<g>
			<path class="st1" d="M-134.4,114.4l-14.4-7.4c-1.2-0.9-3.3-0.9-4.5,0l-14.4,7.4c-1.2,0.9-1.2,2.4,0,3.4l14.4,7.4
				c1.2,0.9,3.3,0.9,4.5,0l14.4-7.4C-133.1,116.8-133.1,115.3-134.4,114.4z"/>
		</g>
		<g>
			<path class="st1" d="M-151,127.6c-1.4,0-2.8-0.4-3.8-1.1l-9.5-4.8l-3.3,1.7c-1.2,0.9-1.2,2.4,0,3.4l14.4,7.4
				c1.2,0.9,3.3,0.9,4.5,0l14.4-7.4c1.2-0.9,1.2-2.4,0-3.4l-3.3-1.7l-9.5,4.8C-148.2,127.2-149.6,127.6-151,127.6z"/>
		</g>
		<g>
			<path class="st1" d="M-151,136.7c-1.4,0-2.8-0.4-3.8-1.1l-9.5-4.8l-3.3,1.7c-1.2,0.9-1.2,2.4,0,3.4l14.4,7.4
				c1.2,0.9,3.3,0.9,4.5,0l14.4-7.4c1.2-0.9,1.2-2.4,0-3.4l-3.3-1.7l-9.5,4.8C-148.2,136.3-149.6,136.7-151,136.7z"/>
		</g>
	</g>
</g>
<g>
	<g>
		<path class="st1" d="M-179.4,60.6l-6.9-5.4c-0.1-0.1-0.4-0.2-0.6-0.2h-13.2c-0.5,0-0.9,0.4-0.9,0.9v20.4c0,0.5,0.4,0.9,0.9,0.9
			h20.1c0.5,0,0.9-0.4,0.9-0.9V61.3C-179,61-179.1,60.8-179.4,60.6z M-185.9,57.8l4.3,3.3h-4.3V57.8z M-199.2,75.5V56.8h11.4V62
			c0,0.5,0.4,0.9,0.9,0.9h6v12.5L-199.2,75.5L-199.2,75.5z"/>
		<rect x="-197.2" y="68.3" class="st1" width="14.5" height="1.8"/>
		<rect x="-197.2" y="64.7" class="st1" width="14.5" height="1.8"/>
		<rect x="-197.2" y="71.9" class="st1" width="14.5" height="1.8"/>
		<rect x="-197.2" y="61.2" class="st1" width="7.4" height="1.8"/>
	</g>
</g>
<g>
	<g>
		<path class="st1" d="M-140.4,60.6l-6.9-5.4c-0.1-0.1-0.4-0.2-0.6-0.2h-13.2c-0.5,0-0.9,0.4-0.9,0.9v20.4c0,0.5,0.4,0.9,0.9,0.9
			h20.1c0.5,0,0.9-0.4,0.9-0.9V61.3C-140,61-140.1,60.8-140.4,60.6z M-146.9,57.8l4.3,3.3h-4.3V57.8z M-160.2,75.5V56.8h11.4V62
			c0,0.5,0.4,0.9,0.9,0.9h6v12.5L-160.2,75.5L-160.2,75.5z"/>
	</g>
	<g>
		<path class="st1" d="M-158.1,64.4v-2.1l6.9,2.8v1.7l-6.9,2.8v-2.1l4.4-1.5l0.5-0.2l-0.5-0.2L-158.1,64.4z"/>
		<path class="st1" d="M-143.9,71.6h-7v-1.7h7V71.6z"/>
	</g>
</g>
<g>
	<path class="st1" d="M-101.4,60.6l-6.9-5.4c-0.1-0.1-0.4-0.2-0.6-0.2h-13.2c-0.5,0-0.9,0.4-0.9,0.9v20.4c0,0.5,0.4,0.9,0.9,0.9
		h20.1c0.5,0,0.9-0.4,0.9-0.9V61.3C-101,61-101.1,60.8-101.4,60.6z M-107.9,57.8l4.3,3.3h-4.3V57.8z M-121.2,75.5V56.8h11.4V62
		c0,0.5,0.4,0.9,0.9,0.9h6v12.5L-121.2,75.5L-121.2,75.5z"/>
	<g>
		<path class="st1" d="M-112.5,62.7c-0.4,0-0.8,0.4-0.8,0.8v1.2h-1.2c-0.4,0-0.8,0.4-0.8,0.8c0,0.4,0.4,0.8,0.8,0.8h2
			c0.4,0,0.8-0.4,0.8-0.8v-2C-111.8,63.1-112.1,62.7-112.5,62.7z"/>
		<path class="st1" d="M-117.7,61.5v-1.2h1.2c0.4,0,0.8-0.4,0.8-0.8c0-0.4-0.4-0.8-0.8-0.8h-2c-0.4,0-0.8,0.4-0.8,0.8v2
			c0,0.4,0.4,0.8,0.8,0.8C-118,62.3-117.7,62-117.7,61.5z"/>
		<path class="st1" d="M-112.4,59.4c-0.3-0.3-0.8-0.3-1.1,0l-5.1,5.1c-0.3,0.3-0.3,0.8,0,1.1c0.4,0.4,0.9,0.2,1.1,0l5.1-5.1
			C-112.1,60.2-112.1,59.7-112.4,59.4z"/>
	</g>
	<rect x="-109.8" y="64.7" class="st1" width="5.2" height="1.8"/>
	<rect x="-119.2" y="68.3" class="st1" width="14.5" height="1.8"/>
	<rect x="-119.2" y="71.9" class="st1" width="14.5" height="1.8"/>
</g>
<path class="st1" d="M274.5,56.2c-1.2,0-2.5-0.3-3.5-0.9l-23.2-13c-2.3-1.3-3.7-3.7-3.7-6.3v-5.9c0-2.6,1.4-5.1,3.7-6.3l23.2-13
	c1.1-0.6,2.3-0.9,3.5-0.9c1.2,0,2.5,0.3,3.5,0.9l23.2,13c2.3,1.3,3.7,3.7,3.7,6.3V36c0,2.6-1.4,5.1-3.7,6.3l-23.2,13
	C277,55.9,275.7,56.2,274.5,56.2z"/>
<path class="st1" d="M274.5,53.2c-0.7,0-1.4-0.2-2.1-0.5l-23.2-13c-1.3-0.8-2.2-2.2-2.2-3.7v-5.9c0-1.5,0.8-3,2.2-3.7l23.2-13
	c0.6-0.4,1.4-0.5,2.1-0.5c0.7,0,1.4,0.2,2.1,0.5l23.2,13c1.3,0.8,2.2,2.2,2.2,3.7V36c0,1.5-0.8,3-2.2,3.7l-23.2,13
	C275.9,53,275.2,53.2,274.5,53.2z"/>
<path class="st1" d="M277,53.5c-0.8,0.4-1.7,0.7-2.5,0.7c-0.9,0-1.8-0.2-2.5-0.7L257,45.1l-1.9-1.1l-5.4,3c-1,0.6-1.7,1.7-1.7,2.9
	v5.9c0,1.2,0.6,2.3,1.7,2.9l8.2,4.6l14.9,8.4c1,0.6,2.2,0.6,3.2,0l14.9-8.4l8.2-4.6c1-0.6,1.7-1.7,1.7-2.9V50c0-1.2-0.6-2.3-1.7-2.9
	l-5.4-3l-1.9,1.1L277,53.5z"/>
<g>
	<g>
		<polygon class="st2" points="274.5,49.7 275.1,49.4 275.1,49.9 273.6,50.7 273.6,50.2 274.2,49.9 274.2,47.2 273.7,47.5 273.7,47 
			274.5,46.5 		"/>
	</g>
	<g>
		<polygon class="st2" points="274.2,46 274.1,45.9 274.1,45.7 274.1,45.5 274.2,45.3 274.2,45.2 274.3,45.1 274.4,45.1 274.5,45.2 
			274.6,45.3 274.6,45.5 274.6,45.7 274.5,45.9 274.4,46 274.3,46.1 274.2,46.1 		"/>
	</g>
	<g>
		<path class="st2" d="M276.7,45.3c0.2-0.1,0.3-0.1,0.4,0.1c0.1,0.2,0.1,0.5,0.1,0.9l0,2.4l-0.3,0.2l0-2.4c0-0.3,0-0.5-0.1-0.6
			c-0.1-0.1-0.1-0.1-0.2-0.1l-0.1,0.1l-0.1,0.2l-0.1,0.3c0,0.1-0.1,0.3-0.2,0.4l0,2.4l-0.3,0.2l0-3.7l0.3-0.1l0,0.6l0.1-0.4l0.1-0.3
			l0.1-0.2L276.7,45.3z"/>
	</g>
	<g>
		<path class="st2" d="M278.7,44.2c0.1,0,0.2-0.1,0.2-0.1c0.1,0,0.2,0,0.3-0.1l0,0.6c-0.1,0-0.2,0-0.3,0c-0.1,0-0.2,0.1-0.2,0.1
			c-0.1,0-0.1,0.1-0.2,0.1l-0.1,0.2l-0.1,0.2l0,0.2l0,0.2l0.1,0.1l0.1,0.1c0.1,0,0.1,0,0.2,0c0.1,0,0.2,0,0.3,0.1
			c0.1,0,0.1,0.1,0.2,0.1l0.1,0.2c0,0.1,0,0.2,0,0.4c0,0.1,0,0.2,0,0.4l-0.1,0.3l-0.1,0.3l-0.2,0.2l-0.2,0.2l-0.2,0.1
			c-0.1,0.1-0.2,0.1-0.3,0.2c-0.1,0-0.2,0-0.3,0l0-0.6c0.1,0,0.2,0,0.3,0c0.1,0,0.2-0.1,0.3-0.1c0.1-0.1,0.3-0.2,0.3-0.3
			c0.1-0.1,0.1-0.3,0.1-0.4l0-0.2l-0.1-0.1c0,0-0.1-0.1-0.1-0.1c-0.1,0-0.1,0-0.3,0c-0.1,0-0.2,0-0.2,0c-0.1,0-0.1-0.1-0.2-0.1
			L278,46c0-0.1,0-0.2,0-0.4l0-0.4l0.1-0.4c0.1-0.1,0.1-0.3,0.2-0.4C278.5,44.4,278.6,44.3,278.7,44.2z"/>
	</g>
	<g>
		<path class="st2" d="M280.7,42l0,1.2l0.8-0.4l0,0.5l-0.8,0.4l0,1.9c0,0.3,0,0.5,0.1,0.5c0.1,0.1,0.2,0.1,0.3,0
			c0.1,0,0.1-0.1,0.2-0.1c0.1,0,0.1-0.1,0.2-0.2l0,0.6c-0.1,0.1-0.1,0.1-0.2,0.2c-0.1,0.1-0.1,0.1-0.2,0.1c-0.2,0.1-0.4,0.1-0.5-0.1
			c-0.1-0.1-0.2-0.4-0.2-0.9l0-1.9l-0.5,0.3l0-0.5l0.5-0.3l0-1L280.7,42z"/>
	</g>
	<g>
		<path class="st2" d="M283.6,42.3c0,0.1,0,0.3,0,0.5l0,2.5l-0.3,0.1l0-0.5c-0.1,0.3-0.2,0.4-0.3,0.6c-0.1,0.1-0.2,0.2-0.3,0.3
			c-0.1,0.1-0.2,0.1-0.3,0.1c-0.1,0-0.1-0.1-0.2-0.1c0-0.1-0.1-0.2-0.1-0.3c0-0.1,0-0.2,0-0.4c0-0.4,0.1-0.7,0.2-1
			c0.1-0.3,0.3-0.5,0.6-0.6l0.4-0.2l0-0.3c0-0.2,0-0.4-0.1-0.5c-0.1-0.1-0.2-0.1-0.3,0c-0.1,0.1-0.2,0.1-0.3,0.2
			c-0.1,0.1-0.2,0.2-0.3,0.4l0-0.6l0.1-0.2l0.2-0.2l0.2-0.1l0.2-0.1c0.1-0.1,0.2-0.1,0.3-0.1c0.1,0,0.2,0,0.2,0.1
			C283.5,42,283.6,42.1,283.6,42.3z M283.4,44.5l0-0.7L283,44c-0.1,0-0.1,0.1-0.2,0.2l-0.1,0.2l-0.1,0.3l0,0.3l0,0.2l0,0.1l0.1,0.1
			l0.1,0c0.1,0,0.2-0.1,0.2-0.3C283.2,44.9,283.3,44.7,283.4,44.5"/>
	</g>
	<g>
		<polygon class="st2" points="285.3,39.2 285.3,43.9 285.8,43.6 285.8,44.2 284.4,44.9 284.4,44.4 285,44.1 285,39.9 284.5,40.2 
			284.5,39.7 		"/>
	</g>
	<g>
		<polygon class="st2" points="287.5,38.1 287.5,42.8 288,42.5 288,43 286.6,43.8 286.6,43.2 287.2,42.9 287.2,38.8 286.7,39.1 
			286.7,38.5 		"/>
	</g>
	<g>
		<polygon class="st2" points="289.4,41.1 289.5,41.1 289.6,41.2 289.7,41.3 289.7,41.5 289.7,41.8 289.6,42 289.5,42.2 289.4,42.3 
			289.3,42.3 289.2,42.2 289.2,42.1 289.1,41.9 289.2,41.6 289.2,41.4 289.3,41.2 		"/>
	</g>
	<g>
		<path class="st2" d="M292.4,38c0,0.2,0.1,0.5,0.1,0.8c0,0.3,0,0.6-0.1,0.8c0,0.3-0.1,0.5-0.2,0.7c-0.1,0.2-0.2,0.4-0.3,0.5
			c-0.1,0.2-0.2,0.3-0.4,0.3c-0.1,0.1-0.2,0.1-0.3,0.1c-0.1,0-0.2-0.1-0.3-0.2c-0.1-0.1-0.1-0.3-0.2-0.5c0-0.2-0.1-0.5-0.1-0.8
			c0-0.3,0-0.6,0.1-0.8c0-0.2,0.1-0.5,0.2-0.7c0.1-0.2,0.2-0.4,0.3-0.5c0.1-0.2,0.2-0.3,0.4-0.3c0.1-0.1,0.2-0.1,0.3-0.1
			c0.1,0,0.2,0.1,0.3,0.2C292.3,37.6,292.3,37.8,292.4,38z M292.1,39.5c0-0.2,0-0.4,0-0.5c0-0.2,0-0.4,0-0.6c0-0.2-0.1-0.3-0.1-0.4
			c0-0.1-0.1-0.2-0.2-0.2c-0.1,0-0.1,0-0.2,0c-0.1,0-0.2,0.1-0.2,0.2c-0.1,0.1-0.1,0.2-0.2,0.4c0,0.1-0.1,0.3-0.1,0.5
			c0,0.2,0,0.4,0,0.5c0,0.2,0,0.4,0,0.6c0,0.2,0.1,0.3,0.1,0.4c0,0.1,0.1,0.1,0.2,0.2c0.1,0,0.1,0,0.2,0c0.1,0,0.2-0.1,0.2-0.2
			c0.1-0.1,0.1-0.2,0.2-0.4C292,39.8,292.1,39.7,292.1,39.5"/>
	</g>
	<g>
		<path class="st2" d="M293.7,35.1l0,1.2l0.8-0.4l0,0.5l-0.8,0.4l0,1.9c0,0.3,0,0.4,0.1,0.5c0.1,0.1,0.2,0.1,0.3,0
			c0.1,0,0.1-0.1,0.2-0.1c0.1,0,0.1-0.1,0.2-0.2l0,0.6c-0.1,0.1-0.1,0.1-0.2,0.2c-0.1,0.1-0.2,0.1-0.2,0.1c-0.2,0.1-0.4,0.1-0.5-0.1
			c-0.1-0.1-0.2-0.4-0.2-0.9l0-1.9l-0.5,0.3l0-0.5l0.5-0.3l0-1L293.7,35.1z"/>
	</g>
	<g>
		<path class="st2" d="M295.8,33.9l0,1.2l0.8-0.4l0,0.5l-0.8,0.4l0,1.9c0,0.3,0,0.4,0.1,0.5c0.1,0.1,0.2,0.1,0.3,0
			c0.1,0,0.1-0.1,0.2-0.1c0.1,0,0.1-0.1,0.2-0.2l0,0.6c-0.1,0.1-0.1,0.1-0.2,0.2c-0.1,0.1-0.2,0.1-0.2,0.1c-0.2,0.1-0.4,0.1-0.5-0.1
			c-0.1-0.1-0.2-0.4-0.2-0.9l0-1.9l-0.5,0.3l0-0.5l0.5-0.3l0-1L295.8,33.9z"/>
	</g>
	<g>
		<path class="st2" d="M298.8,34.5c0,0.2,0,0.4,0,0.7l0,0.2l0,0.2l-1.2,0.7c0,0.4,0,0.6,0.1,0.8c0.1,0.1,0.2,0.2,0.4,0.1l0.2-0.1
			l0.1-0.1l0.1-0.1l0.1-0.1l0,0.5c-0.1,0.1-0.2,0.2-0.3,0.3c-0.1,0.1-0.2,0.2-0.3,0.2c-0.2,0.1-0.3,0.1-0.4,0.1
			c-0.1,0-0.2-0.1-0.3-0.2c-0.1-0.1-0.1-0.3-0.2-0.5c0-0.2-0.1-0.5-0.1-0.8c0-0.3,0-0.5,0.1-0.8c0-0.3,0.1-0.5,0.2-0.7
			c0.1-0.2,0.2-0.4,0.3-0.6c0.1-0.2,0.2-0.3,0.3-0.3c0.1-0.1,0.2-0.1,0.3,0c0.1,0,0.2,0.1,0.2,0.2C298.7,34.1,298.8,34.3,298.8,34.5
			z M298.5,35.2c0-0.2,0-0.3,0-0.4c0-0.1,0-0.2-0.1-0.3l-0.1-0.2c-0.1,0-0.1,0-0.2,0c-0.1,0-0.1,0.1-0.2,0.2l-0.1,0.3
			c0,0.1-0.1,0.3-0.1,0.4c0,0.2,0,0.3,0,0.5L298.5,35.2"/>
	</g>
	<g>
		<path class="st2" d="M300.5,32.5c0.2-0.1,0.3,0,0.4,0.2c0.1,0.2,0.1,0.5,0.1,1l-0.3,0.2c0-0.3,0-0.5-0.1-0.7
			c0-0.1-0.1-0.2-0.2-0.1l-0.1,0.1l-0.1,0.2l-0.1,0.3c0,0.1-0.1,0.3-0.2,0.5l0,2.4l-0.3,0.2l0-3.7l0.3-0.1l0,0.7
			c0.1-0.3,0.2-0.6,0.3-0.7C300.3,32.7,300.4,32.6,300.5,32.5z"/>
	</g>
</g>
<g>
	<g>
		<path class="st2" d="M276.8,64.1l0,4.4l-0.3,0.2l0-0.7l-0.2,0.5l-0.2,0.3l-0.2,0.2l-0.2,0.1c-0.2,0.1-0.4,0.1-0.5-0.1
			c-0.1-0.2-0.2-0.6-0.2-1.1l0-2.9l0.4-0.2l0,2.8c0,0.7,0.1,0.9,0.4,0.8l0.1-0.1l0.1-0.2l0.1-0.4c0-0.1,0.1-0.3,0.2-0.5l0-2.9
			L276.8,64.1z"/>
	</g>
	<g>
		<path class="st2" d="M279.4,63.9c0,0.3,0.1,0.5,0.1,0.9c0,0.4,0,0.7-0.1,1.1c0,0.3-0.1,0.6-0.2,0.8c-0.1,0.2-0.2,0.4-0.3,0.6
			c-0.1,0.2-0.3,0.3-0.4,0.4l-0.2,0.1l-0.2,0l0,1.8l-0.4,0.2l-0.1-6.2l0.3-0.2l0,0.7c0.1-0.4,0.2-0.6,0.3-0.8
			c0.1-0.2,0.2-0.3,0.4-0.4c0.1-0.1,0.2-0.1,0.3,0c0.1,0,0.2,0.1,0.2,0.3C279.3,63.4,279.4,63.6,279.4,63.9z M278.9,66.3
			c0.1-0.3,0.2-0.8,0.2-1.3c0-0.2,0-0.4,0-0.6s0-0.3-0.1-0.5l-0.1-0.2c-0.1,0-0.1-0.1-0.2,0l-0.1,0.1l-0.1,0.2l-0.2,0.4
			c-0.1,0.2-0.1,0.3-0.2,0.5l0,2.1c0.1,0,0.1,0,0.2,0c0.1,0,0.1,0,0.2-0.1C278.7,66.9,278.8,66.6,278.9,66.3"/>
	</g>
	<g>
		<path class="st2" d="M281.8,62c0,0.2,0.1,0.4,0.1,0.6l0,3l-0.3,0.2l0-0.6c-0.1,0.3-0.2,0.5-0.3,0.7c-0.1,0.2-0.2,0.3-0.4,0.3
			c-0.1,0.1-0.2,0.1-0.3,0.1c-0.1,0-0.2-0.1-0.2-0.2c-0.1-0.1-0.1-0.2-0.1-0.3c0-0.1,0-0.3,0-0.5c0-0.4,0.1-0.8,0.2-1.2
			c0.2-0.3,0.4-0.6,0.7-0.7l0.4-0.2l0-0.4c0-0.3,0-0.4-0.1-0.5c-0.1-0.1-0.2-0.1-0.4,0c-0.1,0.1-0.2,0.2-0.3,0.3
			c-0.1,0.1-0.2,0.3-0.3,0.4l0-0.7l0.1-0.2l0.2-0.2l0.2-0.2l0.2-0.1c0.1-0.1,0.2-0.1,0.3-0.1c0.1,0,0.2,0,0.3,0.1
			C281.7,61.8,281.8,61.9,281.8,62z M281.5,64.6l0-0.8l-0.5,0.3c-0.1,0.1-0.2,0.1-0.2,0.2l-0.2,0.3l-0.1,0.3l0,0.3l0,0.2l0.1,0.2
			l0.1,0.1l0.2,0c0.1,0,0.2-0.2,0.3-0.3C281.3,65.2,281.4,64.9,281.5,64.6"/>
	</g>
	<g>
		<path class="st2" d="M283.8,60.2c0.1-0.1,0.2-0.1,0.3-0.1c0.1,0,0.2,0,0.3,0l0,0.7c-0.1,0-0.2-0.1-0.3-0.1c-0.1,0-0.2,0-0.3,0.1
			c-0.1,0.1-0.2,0.1-0.3,0.3c-0.1,0.1-0.2,0.3-0.2,0.4c-0.1,0.2-0.1,0.4-0.1,0.6s-0.1,0.5-0.1,0.7c0,0.5,0.1,0.9,0.2,1.1
			c0.1,0.2,0.3,0.2,0.5,0.1c0.1-0.1,0.2-0.1,0.3-0.2c0.1-0.1,0.2-0.2,0.3-0.4l0,0.7c-0.1,0.1-0.2,0.2-0.3,0.3
			c-0.1,0.1-0.2,0.2-0.3,0.2c-0.3,0.2-0.6,0.1-0.8-0.2c-0.2-0.3-0.3-0.8-0.3-1.5c0-0.3,0-0.7,0.1-1c0-0.3,0.1-0.6,0.2-0.8
			c0.1-0.2,0.2-0.5,0.3-0.6C283.5,60.4,283.6,60.2,283.8,60.2z"/>
	</g>
	<g>
		<polygon class="st2" points="285.7,57.4 285.7,61.2 286.6,58.7 287.1,58.4 286.1,61 287.2,62.7 286.7,63 285.7,61.2 285.7,63.6 
			285.4,63.7 285.3,57.6 		"/>
	</g>
	<g>
		<polygon class="st2" points="288.7,60.5 288.8,60.5 288.9,60.6 289,60.8 289,61.1 289,61.4 288.9,61.7 288.8,61.9 288.7,62 
			288.5,62 288.4,61.9 288.3,61.7 288.3,61.5 288.3,61.2 288.4,60.9 288.5,60.7 		"/>
	</g>
	<g>
		<polygon class="st2" points="291.8,54.3 291.8,54.6 291.8,54.8 291.7,55 291.6,55.2 291.5,55.3 291.4,55.3 291.3,55.2 291.3,55.1 
			291.2,54.9 291.3,54.6 291.3,54.4 291.4,54.2 291.5,54.1 291.6,54.1 291.7,54.2 		"/>
	</g>
	<g>
		<path class="st2" d="M290.4,57.2l0-0.6l1.4-0.8l0,4.3c0,0.3,0,0.6-0.1,0.8c0,0.2-0.1,0.5-0.2,0.7c-0.1,0.2-0.2,0.4-0.3,0.5
			c-0.1,0.1-0.2,0.3-0.4,0.3c-0.1,0.1-0.2,0.1-0.3,0.1c-0.1,0-0.2,0-0.3,0l0-0.7l0.1,0l0.2,0l0.2,0l0.1-0.1c0.2-0.1,0.3-0.3,0.4-0.5
			c0.1-0.3,0.1-0.6,0.1-1l0-3.7L290.4,57.2z"/>
	</g>
	<g>
		<path class="st2" d="M293.8,54.6c0.1,0,0.2-0.1,0.3-0.1c0.1,0,0.2-0.1,0.3-0.1l0,0.7c-0.1,0-0.2,0-0.3,0.1c-0.1,0-0.2,0.1-0.3,0.1
			c-0.1,0.1-0.2,0.1-0.2,0.2l-0.1,0.2l-0.1,0.2l0,0.2l0,0.2l0.1,0.1l0.2,0.1c0.1,0,0.2,0,0.3,0c0.1,0,0.2,0,0.3,0.1
			c0.1,0,0.2,0.1,0.2,0.2l0.1,0.3c0,0.1,0,0.3,0,0.4c0,0.2,0,0.3,0,0.4l-0.1,0.4l-0.1,0.3l-0.2,0.3l-0.2,0.2l-0.2,0.1
			c-0.1,0.1-0.3,0.1-0.4,0.2c-0.1,0-0.2,0.1-0.3,0.1l0-0.7c0.1,0,0.2,0,0.4,0c0.1,0,0.2-0.1,0.4-0.2c0.2-0.1,0.3-0.2,0.4-0.4
			c0.1-0.1,0.1-0.3,0.1-0.5l0-0.2l-0.1-0.1c0,0-0.1-0.1-0.2-0.1c-0.1,0-0.2,0-0.3,0c-0.1,0-0.2,0-0.3-0.1c-0.1,0-0.2-0.1-0.2-0.1
			l-0.1-0.3c0-0.1,0-0.3,0-0.5l0-0.4l0.1-0.5c0.1-0.2,0.2-0.3,0.3-0.5C293.5,54.8,293.6,54.7,293.8,54.6z"/>
	</g>
	<g>
		<path class="st2" d="M297.2,54c0.1,0.2,0.1,0.6,0.1,0.9c0,0.3,0,0.7-0.1,1c0,0.3-0.1,0.6-0.2,0.8c-0.1,0.3-0.2,0.5-0.3,0.6
			c-0.1,0.2-0.3,0.3-0.4,0.4c-0.1,0.1-0.3,0.1-0.4,0.1c-0.1,0-0.2-0.1-0.3-0.3c-0.1-0.1-0.2-0.4-0.2-0.6c0-0.3-0.1-0.6-0.1-0.9
			c0-0.3,0-0.7,0.1-1c0-0.3,0.1-0.6,0.2-0.8c0.1-0.3,0.2-0.5,0.3-0.7c0.1-0.2,0.3-0.3,0.4-0.4c0.1-0.1,0.3-0.1,0.4-0.1
			c0.1,0,0.2,0.1,0.3,0.3C297.1,53.6,297.1,53.8,297.2,54z M296.8,55.8c0-0.2,0-0.4,0-0.6c0-0.3,0-0.5,0-0.7c0-0.2-0.1-0.3-0.1-0.4
			c-0.1-0.1-0.1-0.2-0.2-0.2c-0.1,0-0.2,0-0.2,0c-0.1,0.1-0.2,0.2-0.3,0.3c-0.1,0.1-0.1,0.3-0.2,0.5c0,0.2-0.1,0.4-0.1,0.6
			c0,0.2,0,0.4,0,0.6c0,0.3,0,0.5,0,0.7c0,0.2,0.1,0.3,0.1,0.4c0.1,0.1,0.1,0.2,0.2,0.2c0.1,0,0.2,0,0.3,0c0.1-0.1,0.2-0.2,0.3-0.3
			c0.1-0.1,0.1-0.3,0.2-0.4C296.8,56.2,296.8,56.1,296.8,55.8"/>
	</g>
	<g>
		<path class="st2" d="M299,51.8c0.2-0.1,0.4-0.1,0.5,0.1c0.1,0.2,0.2,0.6,0.2,1.1l0,2.8l-0.4,0.2l0-2.8c0-0.3,0-0.6-0.1-0.7
			c-0.1-0.1-0.2-0.2-0.3-0.1l-0.1,0.1l-0.1,0.2l-0.1,0.4c0,0.1-0.1,0.3-0.2,0.5l0,2.9l-0.4,0.2l0-4.4l0.3-0.2l0,0.7l0.2-0.5l0.2-0.3
			l0.2-0.2L299,51.8z"/>
	</g>
</g>
<g>
	<path class="st1" d="M371,60.6c-0.7,0-1.4-0.2-2.1-0.5l-23.2-13c-1.3-0.8-2.2-2.2-2.2-3.7v-6.9c0-1.5,0.8-3,2.2-3.7l23.2-12
		c0.6-0.4,1.4-0.5,2.1-0.5c0.7,0,1.4,0.2,2.1,0.5l23.2,12c1.3,0.8,2.2,2.2,2.2,3.7v6.9c0,1.5-0.8,3-2.2,3.7l-23.2,13
		C372.4,60.4,371.7,60.6,371,60.6z"/>
	<path class="st1" d="M371,63.6c-1.2,0-2.5-0.3-3.5-0.9l-17.9-10l-3.3,1.8c-1,0.6-1.7,1.7-1.7,2.9v6.9c0,1.2,0.6,2.3,1.7,2.9
		l8.2,4.6l14.9,7.4c1,0.6,2.2,0.6,3.2,0l14.9-7.4l8.2-4.6c1-0.6,1.7-1.7,1.7-2.9v-6.9c0-1.2-0.6-2.3-1.7-2.9l-3.3-1.8l-17.9,10
		C373.5,63.3,372.2,63.6,371,63.6z"/>
	<g>
		<g>
			<polygon class="st2" points="371,57.1 371.6,56.9 371.6,57.4 370.1,58.1 370.1,57.6 370.7,57.3 370.7,54.7 370.2,54.9 
				370.2,54.4 371,54 			"/>
		</g>
		<g>
			<polygon class="st2" points="370.7,53.5 370.6,53.4 370.6,53.2 370.6,53 370.7,52.8 370.7,52.6 370.8,52.5 370.9,52.5 371,52.6 
				371.1,52.7 371.1,52.9 371.1,53.1 371,53.3 370.9,53.5 370.8,53.5 370.7,53.6 			"/>
		</g>
		<g>
			<path class="st2" d="M373.2,52.8c0.2-0.1,0.3-0.1,0.4,0.1c0.1,0.2,0.1,0.5,0.1,0.9l0,2.4l-0.3,0.2l0-2.4c0-0.3,0-0.5-0.1-0.6
				c-0.1-0.1-0.1-0.1-0.2-0.1l-0.1,0.1l-0.1,0.2l-0.1,0.3c0,0.1-0.1,0.3-0.2,0.4l0,2.4l-0.3,0.2l0-3.7l0.3-0.1l0,0.6l0.1-0.4
				l0.1-0.3l0.1-0.2L373.2,52.8z"/>
		</g>
		<g>
			<path class="st2" d="M375.2,51.7c0.1,0,0.2-0.1,0.2-0.1c0.1,0,0.2,0,0.3-0.1l0,0.6c-0.1,0-0.2,0-0.3,0c-0.1,0-0.2,0.1-0.2,0.1
				c-0.1,0-0.1,0.1-0.2,0.1l-0.1,0.2l-0.1,0.2l0,0.2l0,0.2l0.1,0.1l0.1,0.1c0.1,0,0.1,0,0.2,0c0.1,0,0.2,0,0.3,0.1
				c0.1,0,0.1,0.1,0.2,0.1l0.1,0.2c0,0.1,0,0.2,0,0.4c0,0.1,0,0.2,0,0.4l-0.1,0.3l-0.1,0.3l-0.2,0.2l-0.2,0.2l-0.2,0.1
				c-0.1,0.1-0.2,0.1-0.3,0.2c-0.1,0-0.2,0-0.3,0l0-0.6c0.1,0,0.2,0,0.3,0c0.1,0,0.2-0.1,0.3-0.1c0.1-0.1,0.3-0.2,0.3-0.3
				c0.1-0.1,0.1-0.3,0.1-0.4l0-0.2l-0.1-0.1c0,0-0.1-0.1-0.1-0.1c-0.1,0-0.1,0-0.3,0c-0.1,0-0.2,0-0.2,0c-0.1,0-0.1-0.1-0.2-0.1
				l-0.1-0.2c0-0.1,0-0.2,0-0.4l0-0.4l0.1-0.4c0.1-0.1,0.1-0.3,0.2-0.4C375,51.8,375.1,51.7,375.2,51.7z"/>
		</g>
		<g>
			<path class="st2" d="M377.2,49.5l0,1.2l0.8-0.4l0,0.5l-0.8,0.4l0,1.9c0,0.3,0,0.5,0.1,0.5c0.1,0.1,0.2,0.1,0.3,0
				c0.1,0,0.1-0.1,0.2-0.1c0.1,0,0.1-0.1,0.2-0.2l0,0.6c-0.1,0.1-0.1,0.1-0.2,0.2c-0.1,0.1-0.1,0.1-0.2,0.1
				c-0.2,0.1-0.4,0.1-0.5-0.1c-0.1-0.1-0.2-0.4-0.2-0.9l0-1.9l-0.5,0.3l0-0.5l0.5-0.3l0-1L377.2,49.5z"/>
		</g>
		<g>
			<path class="st2" d="M380.1,49.7c0,0.1,0,0.3,0,0.5l0,2.5l-0.3,0.1l0-0.5c-0.1,0.3-0.2,0.4-0.3,0.6c-0.1,0.1-0.2,0.2-0.3,0.3
				c-0.1,0.1-0.2,0.1-0.3,0.1c-0.1,0-0.1-0.1-0.2-0.1c0-0.1-0.1-0.2-0.1-0.3c0-0.1,0-0.2,0-0.4c0-0.4,0.1-0.7,0.2-1
				c0.1-0.3,0.3-0.5,0.6-0.6l0.4-0.2l0-0.3c0-0.2,0-0.4-0.1-0.5c-0.1-0.1-0.2-0.1-0.3,0c-0.1,0.1-0.2,0.1-0.3,0.2
				c-0.1,0.1-0.2,0.2-0.3,0.4l0-0.6l0.1-0.2l0.2-0.2l0.2-0.1l0.2-0.1c0.1-0.1,0.2-0.1,0.3-0.1c0.1,0,0.2,0,0.2,0.1
				C380,49.5,380.1,49.6,380.1,49.7z M379.9,51.9l0-0.7l-0.4,0.2c-0.1,0-0.1,0.1-0.2,0.2l-0.1,0.2l-0.1,0.3l0,0.3l0,0.2l0,0.1
				l0.1,0.1l0.1,0c0.1,0,0.2-0.1,0.2-0.3C379.7,52.4,379.8,52.2,379.9,51.9"/>
		</g>
		<g>
			<polygon class="st2" points="381.8,46.7 381.8,51.4 382.3,51.1 382.3,51.6 380.9,52.4 380.9,51.8 381.5,51.5 381.5,47.4 
				381,47.7 381,47.1 			"/>
		</g>
		<g>
			<polygon class="st2" points="384,45.5 384,50.2 384.5,49.9 384.5,50.4 383.1,51.2 383.1,50.7 383.7,50.4 383.7,46.2 383.2,46.5 
				383.2,46 			"/>
		</g>
		<g>
			<polygon class="st2" points="385.9,48.5 386,48.5 386.1,48.6 386.2,48.8 386.2,49 386.2,49.2 386.1,49.5 386,49.7 385.9,49.8 
				385.8,49.8 385.7,49.7 385.7,49.5 385.6,49.3 385.7,49 385.7,48.8 385.8,48.6 			"/>
		</g>
		<g>
			<path class="st2" d="M388.9,45.4c0,0.2,0.1,0.5,0.1,0.8c0,0.3,0,0.6-0.1,0.8c0,0.3-0.1,0.5-0.2,0.7c-0.1,0.2-0.2,0.4-0.3,0.5
				c-0.1,0.2-0.2,0.3-0.4,0.3c-0.1,0.1-0.2,0.1-0.3,0.1c-0.1,0-0.2-0.1-0.3-0.2c-0.1-0.1-0.1-0.3-0.2-0.5c0-0.2-0.1-0.5-0.1-0.8
				c0-0.3,0-0.6,0.1-0.8c0-0.2,0.1-0.5,0.2-0.7c0.1-0.2,0.2-0.4,0.3-0.5c0.1-0.2,0.2-0.3,0.4-0.3c0.1-0.1,0.2-0.1,0.3-0.1
				c0.1,0,0.2,0.1,0.3,0.2C388.8,45,388.8,45.2,388.9,45.4z M388.6,46.9c0-0.2,0-0.4,0-0.5c0-0.2,0-0.4,0-0.6c0-0.2-0.1-0.3-0.1-0.4
				c0-0.1-0.1-0.2-0.2-0.2c-0.1,0-0.1,0-0.2,0c-0.1,0-0.2,0.1-0.2,0.2c-0.1,0.1-0.1,0.2-0.2,0.4c0,0.1-0.1,0.3-0.1,0.5
				c0,0.2,0,0.4,0,0.5c0,0.2,0,0.4,0,0.6c0,0.2,0.1,0.3,0.1,0.4c0,0.1,0.1,0.1,0.2,0.2c0.1,0,0.1,0,0.2,0c0.1,0,0.2-0.1,0.2-0.2
				c0.1-0.1,0.1-0.2,0.2-0.4C388.5,47.3,388.6,47.1,388.6,46.9"/>
		</g>
		<g>
			<path class="st2" d="M390.2,42.5l0,1.2l0.8-0.4l0,0.5l-0.8,0.4l0,1.9c0,0.3,0,0.4,0.1,0.5c0.1,0.1,0.2,0.1,0.3,0
				c0.1,0,0.1-0.1,0.2-0.1c0.1,0,0.1-0.1,0.2-0.2l0,0.6c-0.1,0.1-0.1,0.1-0.2,0.2c-0.1,0.1-0.2,0.1-0.2,0.1
				c-0.2,0.1-0.4,0.1-0.5-0.1c-0.1-0.1-0.2-0.4-0.2-0.9l0-1.9l-0.5,0.3l0-0.5l0.5-0.3l0-1L390.2,42.5z"/>
		</g>
		<g>
			<path class="st2" d="M392.3,41.4l0,1.2l0.8-0.4l0,0.5l-0.8,0.4l0,1.9c0,0.3,0,0.4,0.1,0.5c0.1,0.1,0.2,0.1,0.3,0
				c0.1,0,0.1-0.1,0.2-0.1c0.1,0,0.1-0.1,0.2-0.2l0,0.6c-0.1,0.1-0.1,0.1-0.2,0.2c-0.1,0.1-0.2,0.1-0.2,0.1
				c-0.2,0.1-0.4,0.1-0.5-0.1c-0.1-0.1-0.2-0.4-0.2-0.9l0-1.9l-0.5,0.3l0-0.5l0.5-0.3l0-1L392.3,41.4z"/>
		</g>
		<g>
			<path class="st2" d="M395.3,41.9c0,0.2,0,0.4,0,0.7l0,0.2l0,0.2l-1.2,0.7c0,0.4,0,0.6,0.1,0.8c0.1,0.1,0.2,0.2,0.4,0.1l0.2-0.1
				l0.1-0.1l0.1-0.1l0.1-0.1l0,0.5c-0.1,0.1-0.2,0.2-0.3,0.3c-0.1,0.1-0.2,0.2-0.3,0.2c-0.2,0.1-0.3,0.1-0.4,0.1
				c-0.1,0-0.2-0.1-0.3-0.2c-0.1-0.1-0.1-0.3-0.2-0.5c0-0.2-0.1-0.5-0.1-0.8c0-0.3,0-0.5,0.1-0.8c0-0.3,0.1-0.5,0.2-0.7
				c0.1-0.2,0.2-0.4,0.3-0.6c0.1-0.2,0.2-0.3,0.3-0.3c0.1-0.1,0.2-0.1,0.3,0c0.1,0,0.2,0.1,0.2,0.2
				C395.2,41.6,395.3,41.7,395.3,41.9z M395,42.7c0-0.2,0-0.3,0-0.4c0-0.1,0-0.2-0.1-0.3l-0.1-0.2c-0.1,0-0.1,0-0.2,0
				c-0.1,0-0.1,0.1-0.2,0.2l-0.1,0.3c0,0.1-0.1,0.3-0.1,0.4c0,0.2,0,0.3,0,0.5L395,42.7"/>
		</g>
		<g>
			<path class="st2" d="M397,40c0.2-0.1,0.3,0,0.4,0.2c0.1,0.2,0.1,0.5,0.1,1l-0.3,0.2c0-0.3,0-0.5-0.1-0.7c0-0.1-0.1-0.2-0.2-0.1
				l-0.1,0.1l-0.1,0.2l-0.1,0.3c0,0.1-0.1,0.3-0.2,0.5l0,2.4l-0.3,0.2l0-3.7l0.3-0.1l0,0.7c0.1-0.3,0.2-0.6,0.3-0.7
				C396.8,40.2,396.9,40,397,40z"/>
		</g>
	</g>
	<g>
		<g>
			<path class="st2" d="M373.3,71.5l0,4.4l-0.3,0.2l0-0.7l-0.2,0.5l-0.2,0.3l-0.2,0.2l-0.2,0.1c-0.2,0.1-0.4,0.1-0.5-0.1
				c-0.1-0.2-0.2-0.6-0.2-1.1l0-2.9l0.4-0.2l0,2.8c0,0.7,0.1,0.9,0.4,0.8l0.1-0.1l0.1-0.2l0.1-0.4c0-0.1,0.1-0.3,0.2-0.5l0-2.9
				L373.3,71.5z"/>
		</g>
		<g>
			<path class="st2" d="M375.9,71.3c0,0.3,0.1,0.5,0.1,0.9c0,0.4,0,0.7-0.1,1.1c0,0.3-0.1,0.6-0.2,0.8c-0.1,0.2-0.2,0.4-0.3,0.6
				c-0.1,0.2-0.3,0.3-0.4,0.4l-0.2,0.1l-0.2,0l0,1.8l-0.4,0.2l-0.1-6.2l0.3-0.2l0,0.7c0.1-0.4,0.2-0.6,0.3-0.8
				c0.1-0.2,0.2-0.3,0.4-0.4c0.1-0.1,0.2-0.1,0.3,0c0.1,0,0.2,0.1,0.2,0.3C375.8,70.8,375.9,71,375.9,71.3z M375.4,73.8
				c0.1-0.3,0.2-0.8,0.2-1.3c0-0.2,0-0.4,0-0.6s0-0.3-0.1-0.5l-0.1-0.2c-0.1,0-0.1-0.1-0.2,0l-0.1,0.1l-0.1,0.2l-0.2,0.4
				c-0.1,0.2-0.1,0.3-0.2,0.5l0,2.1c0.1,0,0.1,0,0.2,0c0.1,0,0.1,0,0.2-0.1C375.2,74.3,375.3,74.1,375.4,73.8"/>
		</g>
		<g>
			<path class="st2" d="M378.3,69.5c0,0.2,0.1,0.4,0.1,0.6l0,3l-0.3,0.2l0-0.6c-0.1,0.3-0.2,0.5-0.3,0.7c-0.1,0.2-0.2,0.3-0.4,0.3
				c-0.1,0.1-0.2,0.1-0.3,0.1c-0.1,0-0.2-0.1-0.2-0.2c-0.1-0.1-0.1-0.2-0.1-0.3c0-0.1,0-0.3,0-0.5c0-0.4,0.1-0.8,0.2-1.2
				c0.2-0.3,0.4-0.6,0.7-0.7l0.4-0.2l0-0.4c0-0.3,0-0.4-0.1-0.5c-0.1-0.1-0.2-0.1-0.4,0c-0.1,0.1-0.2,0.2-0.3,0.3
				c-0.1,0.1-0.2,0.3-0.3,0.4l0-0.7l0.1-0.2l0.2-0.2l0.2-0.2l0.2-0.1c0.1-0.1,0.2-0.1,0.3-0.1c0.1,0,0.2,0,0.3,0.1
				C378.2,69.2,378.3,69.3,378.3,69.5z M378,72.1l0-0.8l-0.5,0.3c-0.1,0.1-0.2,0.1-0.2,0.2l-0.2,0.3l-0.1,0.3l0,0.3l0,0.2l0.1,0.2
				l0.1,0.1l0.2,0c0.1,0,0.2-0.2,0.3-0.3C377.8,72.6,377.9,72.4,378,72.1"/>
		</g>
		<g>
			<path class="st2" d="M380.3,67.6c0.1-0.1,0.2-0.1,0.3-0.1c0.1,0,0.2,0,0.3,0l0,0.7c-0.1,0-0.2-0.1-0.3-0.1c-0.1,0-0.2,0-0.3,0.1
				c-0.1,0.1-0.2,0.1-0.3,0.3c-0.1,0.1-0.2,0.3-0.2,0.4c-0.1,0.2-0.1,0.4-0.1,0.6c0,0.2-0.1,0.5-0.1,0.7c0,0.5,0.1,0.9,0.2,1.1
				c0.1,0.2,0.3,0.2,0.5,0.1c0.1-0.1,0.2-0.1,0.3-0.2c0.1-0.1,0.2-0.2,0.3-0.4l0,0.7c-0.1,0.1-0.2,0.2-0.3,0.3
				c-0.1,0.1-0.2,0.2-0.3,0.2c-0.3,0.2-0.6,0.1-0.8-0.2c-0.2-0.3-0.3-0.8-0.3-1.5c0-0.3,0-0.7,0.1-1c0-0.3,0.1-0.6,0.2-0.8
				c0.1-0.2,0.2-0.5,0.3-0.6C380,67.8,380.1,67.7,380.3,67.6z"/>
		</g>
		<g>
			<polygon class="st2" points="382.2,64.9 382.2,68.6 383.1,66.1 383.6,65.8 382.6,68.4 383.7,70.2 383.2,70.5 382.2,68.7 
				382.2,71 381.9,71.2 381.8,65 			"/>
		</g>
		<g>
			<polygon class="st2" points="385.1,68 385.3,68 385.4,68.1 385.5,68.3 385.5,68.5 385.5,68.8 385.4,69.1 385.3,69.3 385.2,69.4 
				385,69.5 384.9,69.4 384.8,69.2 384.8,68.9 384.8,68.6 384.9,68.3 385,68.1 			"/>
		</g>
		<g>
			<polygon class="st2" points="388.3,61.8 388.3,62 388.3,62.2 388.2,62.5 388.1,62.7 388,62.8 387.9,62.8 387.8,62.7 387.8,62.5 
				387.7,62.3 387.8,62.1 387.8,61.9 387.9,61.7 388,61.6 388.1,61.5 388.2,61.6 			"/>
		</g>
		<g>
			<path class="st2" d="M386.9,64.7l0-0.6l1.4-0.8l0,4.3c0,0.3,0,0.6-0.1,0.8c0,0.2-0.1,0.5-0.2,0.7c-0.1,0.2-0.2,0.4-0.3,0.5
				c-0.1,0.1-0.2,0.3-0.4,0.3c-0.1,0.1-0.2,0.1-0.3,0.1c-0.1,0-0.2,0-0.3,0l0-0.7l0.1,0l0.2,0l0.2,0l0.1-0.1
				c0.2-0.1,0.3-0.3,0.4-0.5c0.1-0.3,0.1-0.6,0.1-1l0-3.7L386.9,64.7z"/>
		</g>
		<g>
			<path class="st2" d="M390.3,62.1c0.1,0,0.2-0.1,0.3-0.1c0.1,0,0.2-0.1,0.3-0.1l0,0.7c-0.1,0-0.2,0-0.3,0.1
				c-0.1,0-0.2,0.1-0.3,0.1c-0.1,0.1-0.2,0.1-0.2,0.2l-0.1,0.2l-0.1,0.2l0,0.2l0,0.2l0.1,0.1l0.2,0.1c0.1,0,0.2,0,0.3,0
				c0.1,0,0.2,0,0.3,0.1c0.1,0,0.2,0.1,0.2,0.2l0.1,0.3c0,0.1,0,0.3,0,0.4c0,0.2,0,0.3,0,0.4l-0.1,0.4l-0.1,0.3l-0.2,0.3l-0.2,0.2
				l-0.2,0.1c-0.1,0.1-0.3,0.1-0.4,0.2c-0.1,0-0.2,0.1-0.3,0.1l0-0.7c0.1,0,0.2,0,0.4,0c0.1,0,0.2-0.1,0.4-0.2
				c0.2-0.1,0.3-0.2,0.4-0.4c0.1-0.1,0.1-0.3,0.1-0.5l0-0.2l-0.1-0.1c0,0-0.1-0.1-0.2-0.1c-0.1,0-0.2,0-0.3,0c-0.1,0-0.2,0-0.3-0.1
				c-0.1,0-0.2-0.1-0.2-0.1l-0.1-0.3c0-0.1,0-0.3,0-0.5l0-0.4l0.1-0.5c0.1-0.2,0.2-0.3,0.3-0.5C390,62.3,390.1,62.2,390.3,62.1z"/>
		</g>
		<g>
			<path class="st2" d="M393.7,61.5c0.1,0.2,0.1,0.6,0.1,0.9c0,0.3,0,0.7-0.1,1c0,0.3-0.1,0.6-0.2,0.8c-0.1,0.3-0.2,0.5-0.3,0.6
				c-0.1,0.2-0.3,0.3-0.4,0.4c-0.1,0.1-0.3,0.1-0.4,0.1c-0.1,0-0.2-0.1-0.3-0.3c-0.1-0.1-0.2-0.4-0.2-0.6c0-0.3-0.1-0.6-0.1-0.9
				c0-0.3,0-0.7,0.1-1c0-0.3,0.1-0.6,0.2-0.8c0.1-0.3,0.2-0.5,0.3-0.7c0.1-0.2,0.3-0.3,0.4-0.4c0.1-0.1,0.3-0.1,0.4-0.1
				c0.1,0,0.2,0.1,0.3,0.3C393.6,61,393.6,61.2,393.7,61.5z M393.3,63.3c0-0.2,0-0.4,0-0.6c0-0.3,0-0.5,0-0.7c0-0.2-0.1-0.3-0.1-0.4
				c-0.1-0.1-0.1-0.2-0.2-0.2c-0.1,0-0.2,0-0.2,0c-0.1,0.1-0.2,0.2-0.3,0.3c-0.1,0.1-0.1,0.3-0.2,0.5c0,0.2-0.1,0.4-0.1,0.6
				c0,0.2,0,0.4,0,0.6c0,0.3,0,0.5,0,0.7c0,0.2,0.1,0.3,0.1,0.4c0.1,0.1,0.1,0.2,0.2,0.2c0.1,0,0.2,0,0.3,0c0.1-0.1,0.2-0.2,0.3-0.3
				c0.1-0.1,0.1-0.3,0.2-0.4C393.3,63.7,393.3,63.5,393.3,63.3"/>
		</g>
		<g>
			<path class="st2" d="M395.5,59.2c0.2-0.1,0.4-0.1,0.5,0.1c0.1,0.2,0.2,0.6,0.2,1.1l0,2.8l-0.4,0.2l0-2.8c0-0.3,0-0.6-0.1-0.7
				c-0.1-0.1-0.2-0.2-0.3-0.1l-0.1,0.1l-0.1,0.2l-0.1,0.4c0,0.1-0.1,0.3-0.2,0.5l0,2.9l-0.4,0.2l0-4.4l0.3-0.2l0,0.7l0.2-0.5
				l0.2-0.3l0.2-0.2L395.5,59.2z"/>
		</g>
	</g>
</g>
<g>
	<path class="st1" d="M19.9,59.4L19.9,59.4C19.9,59.4,19.9,59.4,19.9,59.4l2.5-10.3c0,0,0,0,0-0.1c0,0,0.1,0,0.1,0l10.1,3.1
		c0.1,0,0.1,0.2,0.1,0.2c0,0.1,0,0.1,0,0.1l-2.2,1.2l-0.8,0.5l0.5,0.8L36,65.2l-6.6,3.7l-5.8-10.3l-0.5-0.8l-0.8,0.5l-2.2,1.2
		c0,0,0,0-0.1,0C20,59.5,19.9,59.5,19.9,59.4 M19,59.4c0,0.8,0.9,1.4,1.6,1l2.2-1.2l6.3,11.1l8.2-4.7L31,54.5l2.2-1.2
		c0.4-0.2,0.5-0.6,0.5-0.9c0-0.5-0.3-0.9-0.8-1.1l-10.1-3.1c-0.6-0.2-1.2,0.2-1.4,0.8L19,59.1C19,59.2,19,59.3,19,59.4L19,59.4z"/>
</g>
<g>
	<path class="st1" d="M62.6,64.9l6.1-10.1l0.5-0.8l-0.8-0.5l-2.1-1.3c0,0,0,0,0-0.1c0,0,0-0.1,0.1-0.2l10.1-2.8c0,0,0,0,0.1,0
		c0,0,0.1,0,0.1,0.1l2.3,10.3c0,0,0,0,0,0c0,0.1-0.1,0.1-0.1,0.1c-0.1,0-0.1,0-0.1,0l-2.2-1.3l-0.8-0.5l-0.5,0.8l-6.1,10.1
		L62.6,64.9 M61.3,65.2l8.1,4.9L76,59.1l2.2,1.3c0.7,0.4,1.7-0.2,1.7-1c0-0.1,0-0.2,0-0.2L77.5,49c-0.1-0.6-0.7-1-1.3-0.8L66,51
		c-0.5,0.1-0.8,0.6-0.8,1.1c0,0.4,0.2,0.7,0.5,0.9l2.1,1.3L61.3,65.2L61.3,65.2z"/>
</g>
<path class="st1" d="M41.1,44.1L41.1,44.1c0-0.1,0-0.1,0.1-0.2l8.1-8.5c0,0,0.1-0.1,0.2-0.1c0,0,0.1,0,0.2,0.1l8.1,8.5
	c0,0,0.1,0.1,0.1,0.2c0,0.1-0.1,0.3-0.2,0.3h-2.8h-1v1v17.4h-8.6V45.3v-1h-1h-2.8c0,0-0.1,0-0.2-0.1C41.1,44.3,41.1,44.2,41.1,44.1
	 M40.1,44.1c0,0.6,0.5,1.2,1.2,1.2h2.8v18.4h10.5V45.3h2.8c0.7,0,1.2-0.6,1.2-1.3c0-0.3-0.1-0.6-0.3-0.8l-8.1-8.5
	c-0.5-0.5-1.3-0.5-1.7,0l-8.1,8.5C40.2,43.5,40.1,43.8,40.1,44.1L40.1,44.1z"/>
<g>
	<g>
		<g>
			<g>
				<polygon class="st1" points="49.2,13.6 39.4,15.8 39.4,12.1 49.2,7 				"/>
				<polygon class="st1" points="49.2,21.8 39.4,20.3 39.4,16.6 49.2,15.2 				"/>
				<polygon class="st1" points="49.2,30 39.4,24.9 39.4,21.2 49.2,23.4 				"/>
			</g>
			<g>
				<polygon class="st1" points="59.4,15.8 49.5,13.7 49.5,7.1 59.4,12.1 				"/>
				<polygon class="st1" points="59.4,20.3 49.5,21.8 49.5,15.2 59.4,16.7 				"/>
				<polygon class="st1" points="59.4,24.8 49.5,30 49.5,23.4 59.4,21.2 				"/>
			</g>
		</g>
	</g>
</g>
<g>
	<g>
		<g>
			<g>
				<polygon class="st1" points="14.8,30.7 5,32.9 5,29.2 14.8,24.1 				"/>
				<polygon class="st1" points="14.8,38.9 5,37.4 5,33.7 14.8,32.3 				"/>
				<polygon class="st1" points="14.8,47.2 5,42 5,38.3 14.8,40.5 				"/>
			</g>
			<g>
				<polygon class="st1" points="25,32.9 15.1,30.8 15.1,24.2 25,29.3 				"/>
				<polygon class="st1" points="25,37.4 15.1,38.9 15.1,32.3 25,33.8 				"/>
				<polygon class="st1" points="25,42 15.1,47.1 15.1,40.5 25,38.3 				"/>
			</g>
		</g>
	</g>
</g>
<g>
	<g>
		<g>
			<g>
				<polygon class="st1" points="84.8,30.7 75,32.9 75,29.2 84.8,24.1 				"/>
				<polygon class="st1" points="84.8,38.9 75,37.4 75,33.7 84.8,32.3 				"/>
				<polygon class="st1" points="84.8,47.2 75,42 75,38.3 84.8,40.5 				"/>
			</g>
			<g>
				<polygon class="st1" points="95,32.9 85.1,30.8 85.1,24.2 95,29.3 				"/>
				<polygon class="st1" points="95,37.4 85.1,38.9 85.1,32.3 95,33.8 				"/>
				<polygon class="st1" points="95,42 85.1,47.1 85.1,40.5 95,38.3 				"/>
			</g>
		</g>
	</g>
</g>
<g>
	<g>
		<path class="st1" d="M35.9,93h2.5h23.3h2.5c1.4,0,2.6-1.2,2.6-2.6v-1.6h-2.1h-0.1V72.4c0-1.3-1.1-2.4-2.4-2.4H37.8
			c-1.3,0-2.4,1.1-2.4,2.4v16.5h-0.1h-2.1v1.6C33.3,91.8,34.4,93,35.9,93z M38.7,73.2h22.7v15.6h-8.2V89c0,0.5-0.4,0.9-0.9,0.9h-4.5
			c-0.5,0-0.9-0.4-0.9-0.9v-0.2h-8.2V73.2z"/>
	</g>
</g>
</svg>
