<?xml version="1.0" encoding="utf-8"?>
<!-- Generator: Adobe Illustrator 22.1.0, SVG Export Plug-In . SVG Version: 6.00 Build 0)  -->
<svg version="1.1" id="Layer_1" xmlns="http://www.w3.org/2000/svg" xmlns:xlink="http://www.w3.org/1999/xlink" x="0px" y="0px"
	 viewBox="0 0 100 100" style="enable-background:new 0 0 100 100;" xml:space="preserve">
<style type="text/css">
	.st0{fill:#282B3A;}
	.st1{fill:#FFFFFF;}
</style>
<g>
	<rect x="8" y="14.7" class="st0" width="84" height="70.6"/>
	<rect x="24" y="17.2" transform="matrix(-1.836970e-16 1 -1 -1.836970e-16 104.76 4.76)" class="st1" width="52.1" height="75"/>
</g>
<g>
	<g>
		<path class="st1" d="M73.6,46.8c0-0.9-0.5-1.8-1.3-2.4l-0.2-0.1L66,41.2c-0.6-0.4-1.3-0.6-2-0.6c-0.7,0-1.5,0.2-2,0.6l-6.2,3.2
			l-0.1,0.1c-0.8,0.6-1.3,1.5-1.3,2.4l0,7.7c0,0.9,0.5,1.8,1.3,2.4l0.1,0.1l6.2,3.2c0.6,0.4,1.3,0.6,2,0.6c0.7,0,1.5-0.2,2-0.6
			l6.2-3.2l0.1-0.1c0.8-0.6,1.3-1.5,1.3-2.4L73.6,46.8z"/>
		<path class="st0" d="M64,61.4c-0.8,0-1.7-0.2-2.4-0.7l-6.3-3.3c-0.9-0.7-1.5-1.8-1.5-2.9v-7.7c0-1.1,0.5-2.2,1.5-2.9l0.1-0.1
			l6.3-3.2c1.3-0.8,3.3-0.9,4.7,0l6.3,3.3c1,0.7,1.5,1.8,1.5,2.9l-0.1,7.7c0,1.1-0.5,2.2-1.5,2.9l-0.1,0.1l-6.3,3.2
			C65.6,61.2,64.8,61.4,64,61.4z M64,41.2c-0.6,0-1.2,0.2-1.7,0.5L56,44.9c-0.6,0.5-1,1.2-1,1.9v7.7c0,0.8,0.4,1.5,1,1.9l0.1,0.1
			l6.1,3.1c1.1,0.7,2.5,0.7,3.5,0l6.3-3.2c0.6-0.5,1-1.2,1-1.9l0.1-7.7c0-0.7-0.4-1.4-1-1.9l-0.1-0.1l-6.1-3.1
			C65.2,41.3,64.6,41.2,64,41.2z"/>
	</g>
	<g>
		<g>
			<path class="st0" d="M71.1,46.1L65,43c-0.5-0.4-1.4-0.4-1.9,0l-6.1,3.1c-0.5,0.4-0.5,1,0,1.4l6.1,3.1c0.5,0.4,1.4,0.4,1.9,0
				l6.1-3.1C71.6,47.2,71.6,46.5,71.1,46.1z"/>
		</g>
		<g>
			<path class="st0" d="M64,51.8c-0.6,0-1.2-0.2-1.6-0.5l-4-2.1L56.9,50c-0.5,0.4-0.5,1,0,1.4l6.1,3.1c0.5,0.4,1.4,0.4,1.9,0
				l6.1-3.1c0.5-0.4,0.5-1,0-1.4l-1.4-0.7l-4,2.1C65.2,51.6,64.6,51.8,64,51.8z"/>
		</g>
		<g>
			<path class="st0" d="M64,55.6c-0.6,0-1.2-0.2-1.6-0.5l-4-2.1l-1.4,0.7c-0.5,0.4-0.5,1,0,1.4l6.1,3.1c0.5,0.4,1.4,0.4,1.9,0
				l6.1-3.1c0.5-0.4,0.5-1,0-1.4l-1.4-0.7l-4,2.1C65.2,55.5,64.6,55.6,64,55.6z"/>
		</g>
	</g>
</g>
<g>
	<path class="st0" d="M21.9,44.5v-8.2l27.4,11.2v6.9L21.9,65.6v-8.2l17.5-5.9l1.9-0.6l-1.8-0.6L21.9,44.5z"/>
	<path class="st0" d="M78,73H50.1v-6.6H78V73z"/>
</g>
</svg>
