<?xml version="1.0" encoding="utf-8"?>
<!-- Generator: Adobe Illustrator 22.1.0, SVG Export Plug-In . SVG Version: 6.00 Build 0)  -->
<svg version="1.1" id="Layer_1" xmlns="http://www.w3.org/2000/svg" xmlns:xlink="http://www.w3.org/1999/xlink" x="0px" y="0px"
	 viewBox="0 0 100 100" style="enable-background:new 0 0 100 100;" xml:space="preserve">
<style type="text/css">
	.st0{fill:#FFFFFF;stroke:#282B3A;stroke-miterlimit:10;}
	.st1{fill:#282B3A;}
	.st2{fill:none;stroke:#282B3A;stroke-width:2;stroke-miterlimit:10;stroke-dasharray:4.0596,4.0596;}
</style>
<g>
	<g>
		<g>
			<path class="st0" d="M58.1,46.7c0-0.8-0.4-1.5-1.1-2l-0.1-0.1l-5.2-2.7c-0.5-0.3-1.1-0.5-1.7-0.5c-0.6,0-1.2,0.2-1.7,0.5L43,44.6
				l-0.1,0.1c-0.7,0.5-1.1,1.2-1.1,2l0,6.5c0,0.8,0.4,1.5,1.1,2l0.1,0.1l5.2,2.7c0.5,0.3,1.1,0.5,1.7,0.5c0.6,0,1.2-0.2,1.7-0.5
				l5.2-2.7l0.1-0.1c0.7-0.5,1.1-1.2,1.1-2L58.1,46.7z"/>
			<g>
				<path class="st1" d="M56,46.1l-5.2-2.6c-0.4-0.3-1.2-0.3-1.6,0L44,46.1c-0.4,0.3-0.4,0.9,0,1.2l5.2,2.6c0.4,0.3,1.2,0.3,1.6,0
					l5.2-2.6C56.4,47,56.4,46.4,56,46.1z"/>
				<path class="st1" d="M50,50.9c-0.5,0-1-0.1-1.4-0.4l-3.4-1.7L44,49.4c-0.4,0.3-0.4,0.9,0,1.2l5.2,2.6c0.4,0.3,1.2,0.3,1.6,0
					l5.2-2.6c0.4-0.3,0.4-0.9,0-1.2l-1.2-0.6l-3.4,1.7C51,50.7,50.5,50.9,50,50.9z"/>
				<path class="st1" d="M50,54.1c-0.5,0-1-0.1-1.4-0.4L45.2,52L44,52.6c-0.4,0.3-0.4,0.9,0,1.2l5.2,2.6c0.4,0.3,1.2,0.3,1.6,0
					l5.2-2.6c0.4-0.3,0.4-0.9,0-1.2L54.8,52l-3.4,1.7C51,54,50.5,54.1,50,54.1z"/>
			</g>
		</g>
		<g>
			<path class="st0" d="M68.1,30.7c0-0.8-0.4-1.5-1.1-2l-0.1-0.1l-5.2-2.7c-0.5-0.3-1.1-0.5-1.7-0.5c-0.6,0-1.2,0.2-1.7,0.5L53,28.6
				l-0.1,0.1c-0.7,0.5-1.1,1.2-1.1,2l0,6.5c0,0.8,0.4,1.5,1.1,2l0.1,0.1l5.2,2.7c0.5,0.3,1.1,0.5,1.7,0.5c0.6,0,1.2-0.2,1.7-0.5
				l5.2-2.7l0.1-0.1c0.7-0.5,1.1-1.2,1.1-2L68.1,30.7z"/>
			<g>
				<path class="st1" d="M66,30.1l-5.2-2.6c-0.4-0.3-1.2-0.3-1.6,0L54,30.1c-0.4,0.3-0.4,0.9,0,1.2l5.2,2.6c0.4,0.3,1.2,0.3,1.6,0
					l5.2-2.6C66.4,31,66.4,30.4,66,30.1z"/>
				<path class="st1" d="M60,34.9c-0.5,0-1-0.1-1.4-0.4l-3.4-1.7L54,33.4c-0.4,0.3-0.4,0.9,0,1.2l5.2,2.6c0.4,0.3,1.2,0.3,1.6,0
					l5.2-2.6c0.4-0.3,0.4-0.9,0-1.2l-1.2-0.6l-3.4,1.7C61,34.7,60.5,34.9,60,34.9z"/>
				<path class="st1" d="M60,38.1c-0.5,0-1-0.1-1.4-0.4L55.2,36L54,36.6c-0.4,0.3-0.4,0.9,0,1.2l5.2,2.6c0.4,0.3,1.2,0.3,1.6,0
					l5.2-2.6c0.4-0.3,0.4-0.9,0-1.2L64.8,36l-3.4,1.7C61,38,60.5,38.1,60,38.1z"/>
			</g>
		</g>
		<g>
			<path class="st0" d="M48.1,30.7c0-0.8-0.4-1.5-1.1-2l-0.1-0.1l-5.2-2.7c-0.5-0.3-1.1-0.5-1.7-0.5c-0.6,0-1.2,0.2-1.7,0.5L33,28.6
				l-0.1,0.1c-0.7,0.5-1.1,1.2-1.1,2l0,6.5c0,0.8,0.4,1.5,1.1,2l0.1,0.1l5.2,2.7c0.5,0.3,1.1,0.5,1.7,0.5c0.6,0,1.2-0.2,1.7-0.5
				l5.2-2.7l0.1-0.1c0.7-0.5,1.1-1.2,1.1-2L48.1,30.7z"/>
			<g>
				<path class="st1" d="M46,30.1l-5.2-2.6c-0.4-0.3-1.2-0.3-1.6,0L34,30.1c-0.4,0.3-0.4,0.9,0,1.2l5.2,2.6c0.4,0.3,1.2,0.3,1.6,0
					l5.2-2.6C46.4,31,46.4,30.4,46,30.1z"/>
				<path class="st1" d="M40,34.9c-0.5,0-1-0.1-1.4-0.4l-3.4-1.7L34,33.4c-0.4,0.3-0.4,0.9,0,1.2l5.2,2.6c0.4,0.3,1.2,0.3,1.6,0
					l5.2-2.6c0.4-0.3,0.4-0.9,0-1.2l-1.2-0.6l-3.4,1.7C41,34.7,40.5,34.9,40,34.9z"/>
				<path class="st1" d="M40,38.1c-0.5,0-1-0.1-1.4-0.4L35.2,36L34,36.6c-0.4,0.3-0.4,0.9,0,1.2l5.2,2.6c0.4,0.3,1.2,0.3,1.6,0
					l5.2-2.6c0.4-0.3,0.4-0.9,0-1.2L44.8,36l-3.4,1.7C41,38,40.5,38.1,40,38.1z"/>
			</g>
		</g>
		<g>
			<path class="st0" d="M77.4,46.7c0-0.8-0.4-1.5-1.1-2l-0.1-0.1L71,41.9c-0.5-0.3-1.1-0.5-1.7-0.5c-0.6,0-1.2,0.2-1.7,0.5l-5.2,2.7
				l-0.1,0.1c-0.7,0.5-1.1,1.2-1.1,2l0,6.5c0,0.8,0.4,1.5,1.1,2l0.1,0.1l5.2,2.7c0.5,0.3,1.1,0.5,1.7,0.5c0.6,0,1.2-0.2,1.7-0.5
				l5.2-2.7l0.1-0.1c0.7-0.5,1.1-1.2,1.1-2L77.4,46.7z"/>
			<g>
				<path class="st1" d="M75.2,46.1l-5.2-2.6c-0.4-0.3-1.2-0.3-1.6,0l-5.2,2.6c-0.4,0.3-0.4,0.9,0,1.2l5.2,2.6
					c0.4,0.3,1.2,0.3,1.6,0l5.2-2.6C75.7,47,75.7,46.4,75.2,46.1z"/>
				<path class="st1" d="M69.3,50.9c-0.5,0-1-0.1-1.4-0.4l-3.4-1.7l-1.2,0.6c-0.4,0.3-0.4,0.9,0,1.2l5.2,2.6c0.4,0.3,1.2,0.3,1.6,0
					l5.2-2.6c0.4-0.3,0.4-0.9,0-1.2L74,48.7l-3.4,1.7C70.3,50.7,69.8,50.9,69.3,50.9z"/>
				<path class="st1" d="M69.3,54.1c-0.5,0-1-0.1-1.4-0.4L64.5,52l-1.2,0.6c-0.4,0.3-0.4,0.9,0,1.2l5.2,2.6c0.4,0.3,1.2,0.3,1.6,0
					l5.2-2.6c0.4-0.3,0.4-0.9,0-1.2L74,52l-3.4,1.7C70.3,54,69.8,54.1,69.3,54.1z"/>
			</g>
		</g>
		<g>
			<path class="st0" d="M38.9,46.7c0-0.8-0.4-1.5-1.1-2l-0.1-0.1l-5.2-2.7c-0.5-0.3-1.1-0.5-1.7-0.5c-0.6,0-1.2,0.2-1.7,0.5
				l-5.2,2.7l-0.1,0.1c-0.7,0.5-1.1,1.2-1.1,2l0,6.5c0,0.8,0.4,1.5,1.1,2l0.1,0.1L29,58c0.5,0.3,1.1,0.5,1.7,0.5
				c0.6,0,1.2-0.2,1.7-0.5l5.2-2.7l0.1-0.1c0.7-0.5,1.1-1.2,1.1-2L38.9,46.7z"/>
			<g>
				<path class="st1" d="M36.7,46.1l-5.2-2.6c-0.4-0.3-1.2-0.3-1.6,0l-5.2,2.6c-0.4,0.3-0.4,0.9,0,1.2l5.2,2.6
					c0.4,0.3,1.2,0.3,1.6,0l5.2-2.6C37.2,47,37.2,46.4,36.7,46.1z"/>
				<path class="st1" d="M30.7,50.9c-0.5,0-1-0.1-1.4-0.4L26,48.7l-1.2,0.6c-0.4,0.3-0.4,0.9,0,1.2l5.2,2.6c0.4,0.3,1.2,0.3,1.6,0
					l5.2-2.6c0.4-0.3,0.4-0.9,0-1.2l-1.2-0.6l-3.4,1.7C31.7,50.7,31.3,50.9,30.7,50.9z"/>
				<path class="st1" d="M30.7,54.1c-0.5,0-1-0.1-1.4-0.4L26,52l-1.2,0.6c-0.4,0.3-0.4,0.9,0,1.2l5.2,2.6c0.4,0.3,1.2,0.3,1.6,0
					l5.2-2.6c0.4-0.3,0.4-0.9,0-1.2L35.5,52l-3.4,1.7C31.7,54,31.3,54.1,30.7,54.1z"/>
			</g>
		</g>
		<g>
			<path class="st0" d="M68.1,62.8c0-0.8-0.4-1.5-1.1-2l-0.1-0.1L61.7,58c-0.5-0.3-1.1-0.5-1.7-0.5c-0.6,0-1.2,0.2-1.7,0.5L53,60.7
				l-0.1,0.1c-0.7,0.5-1.1,1.2-1.1,2l0,6.5c0,0.8,0.4,1.5,1.1,2l0.1,0.1l5.2,2.7c0.5,0.3,1.1,0.5,1.7,0.5c0.6,0,1.2-0.2,1.7-0.5
				l5.2-2.7l0.1-0.1c0.7-0.5,1.1-1.2,1.1-2L68.1,62.8z"/>
			<g>
				<path class="st1" d="M66,62.2l-5.2-2.6c-0.4-0.3-1.2-0.3-1.6,0L54,62.2c-0.4,0.3-0.4,0.9,0,1.2l5.2,2.6c0.4,0.3,1.2,0.3,1.6,0
					l5.2-2.6C66.4,63.1,66.4,62.5,66,62.2z"/>
				<path class="st1" d="M60,67c-0.5,0-1-0.1-1.4-0.4l-3.4-1.7L54,65.4c-0.4,0.3-0.4,0.9,0,1.2l5.2,2.6c0.4,0.3,1.2,0.3,1.6,0
					l5.2-2.6c0.4-0.3,0.4-0.9,0-1.2l-1.2-0.6l-3.4,1.7C61,66.8,60.5,67,60,67z"/>
				<path class="st1" d="M60,70.2c-0.5,0-1-0.1-1.4-0.4l-3.4-1.7L54,68.7c-0.4,0.3-0.4,0.9,0,1.2l5.2,2.6c0.4,0.3,1.2,0.3,1.6,0
					l5.2-2.6c0.4-0.3,0.4-0.9,0-1.2l-1.2-0.6l-3.4,1.7C61,70.1,60.5,70.2,60,70.2z"/>
			</g>
		</g>
		<g>
			<path class="st0" d="M48.1,62.8c0-0.8-0.4-1.5-1.1-2l-0.1-0.1L41.7,58c-0.5-0.3-1.1-0.5-1.7-0.5c-0.6,0-1.2,0.2-1.7,0.5L33,60.7
				l-0.1,0.1c-0.7,0.5-1.1,1.2-1.1,2l0,6.5c0,0.8,0.4,1.5,1.1,2l0.1,0.1l5.2,2.7c0.5,0.3,1.1,0.5,1.7,0.5c0.6,0,1.2-0.2,1.7-0.5
				l5.2-2.7l0.1-0.1c0.7-0.5,1.1-1.2,1.1-2L48.1,62.8z"/>
			<g>
				<path class="st1" d="M46,62.2l-5.2-2.6c-0.4-0.3-1.2-0.3-1.6,0L34,62.2c-0.4,0.3-0.4,0.9,0,1.2l5.2,2.6c0.4,0.3,1.2,0.3,1.6,0
					l5.2-2.6C46.4,63.1,46.4,62.5,46,62.2z"/>
				<path class="st1" d="M40,67c-0.5,0-1-0.1-1.4-0.4l-3.4-1.7L34,65.4c-0.4,0.3-0.4,0.9,0,1.2l5.2,2.6c0.4,0.3,1.2,0.3,1.6,0
					l5.2-2.6c0.4-0.3,0.4-0.9,0-1.2l-1.2-0.6l-3.4,1.7C41,66.8,40.5,67,40,67z"/>
				<path class="st1" d="M40,70.2c-0.5,0-1-0.1-1.4-0.4l-3.4-1.7L34,68.7c-0.4,0.3-0.4,0.9,0,1.2l5.2,2.6c0.4,0.3,1.2,0.3,1.6,0
					l5.2-2.6c0.4-0.3,0.4-0.9,0-1.2l-1.2-0.6l-3.4,1.7C41,70.1,40.5,70.2,40,70.2z"/>
			</g>
		</g>
	</g>
	<g>
		<g>
			<path class="st2" d="M36.8,16.9c-3.2,0-6.3,1.7-8.3,4.4l-0.4,0.5L17.2,43c-1.3,2-2,4.5-2,7c0,2.5,0.7,5,2,7l10.8,21.2l0.4,0.5
				c2,2.7,5.1,4.3,8.3,4.3l26.5,0c3.2,0,6.3-1.6,8.3-4.3l0.4-0.5l10.8-21.2c1.3-2,2-4.5,2-7c0-2.5-0.7-5-2-7L71.9,21.9l-0.4-0.5
				c-2-2.7-5.1-4.3-8.3-4.3L36.8,16.9z"/>
		</g>
	</g>
</g>
</svg>
