<?xml version="1.0" encoding="utf-8"?>
<!-- Generator: Adobe Illustrator 22.1.0, SVG Export Plug-In . SVG Version: 6.00 Build 0)  -->
<svg version="1.1" id="Layer_1" xmlns="http://www.w3.org/2000/svg" xmlns:xlink="http://www.w3.org/1999/xlink" x="0px" y="0px"
	 viewBox="0 0 100 100" style="enable-background:new 0 0 100 100;" xml:space="preserve">
<style type="text/css">
	.st0{fill:#282B3A;}
	.st1{fill:#FFFFFF;stroke:#282B3A;stroke-miterlimit:10;}
</style>
<g>
	<path class="st0" d="M24.1,59.1L24.1,59.1C24.1,59.1,24.1,59.1,24.1,59.1l2.7-10.9c0,0,0,0,0.1-0.1c0,0,0.1,0,0.1,0l10.7,3.2
		c0.1,0,0.1,0.2,0.1,0.2c0,0.1,0,0.1-0.1,0.1L35.4,53l-0.9,0.5l0.5,0.9l6.2,10.9l-7,4L28,58.4l-0.5-0.9L26.6,58l-2.3,1.3
		c0,0-0.1,0-0.1,0C24.2,59.2,24.1,59.2,24.1,59.1 M23.1,59.1c0,0.8,0.9,1.5,1.7,1l2.3-1.3l6.7,11.8l8.7-5l-6.7-11.8l2.3-1.3
		c0.4-0.2,0.6-0.6,0.6-1c0-0.5-0.3-1-0.8-1.2l-10.7-3.2C26.6,47,26,47.4,25.8,48l-2.7,10.9C23.1,58.9,23.1,59,23.1,59.1L23.1,59.1z"
		/>
</g>
<g>
	<path class="st0" d="M60.5,65.9l6.4-10.7l0.5-0.9l-0.9-0.5l-2.3-1.4c0,0-0.1,0-0.1-0.1c0,0,0-0.1,0.1-0.2l10.8-3c0,0,0,0,0.1,0
		c0,0,0.1,0,0.1,0.1l2.4,10.9c0,0,0,0,0,0c0,0.1-0.1,0.1-0.1,0.1c-0.1,0-0.1,0-0.1,0l-2.3-1.4l-0.9-0.5l-0.5,0.9L67.3,70L60.5,65.9
		 M59.1,66.3l8.6,5.2l7-11.6l2.3,1.4c0.8,0.5,1.8-0.2,1.8-1c0-0.1,0-0.2,0-0.3L76.2,49c-0.1-0.6-0.8-1-1.4-0.9l-10.8,3
		c-0.6,0.2-0.9,0.7-0.9,1.2c0,0.4,0.2,0.8,0.5,1l2.3,1.4L59.1,66.3L59.1,66.3z"/>
</g>
<g>
	<path class="st1" d="M48.2,68.5c0-0.8-0.4-1.5-1.1-2L47,66.4l-5.2-2.6c-0.5-0.3-1.1-0.5-1.7-0.5c-0.6,0-1.2,0.2-1.7,0.5l-5.2,2.6
		l-0.1,0.1c-0.7,0.5-1,1.2-1,2l0,6.5c0,0.8,0.4,1.5,1,2l0.1,0.1l5.2,2.6c0.5,0.3,1.1,0.5,1.7,0.5c0.6,0,1.2-0.2,1.7-0.5l5.2-2.6
		l0.1-0.1c0.7-0.5,1-1.2,1-2L48.2,68.5z"/>
	<g>
		<path class="st0" d="M46,67.9l-5.1-2.6c-0.4-0.3-1.2-0.3-1.6,0l-5.1,2.6c-0.4,0.3-0.4,0.9,0,1.2l5.1,2.6c0.4,0.3,1.2,0.3,1.6,0
			l5.1-2.6C46.5,68.8,46.5,68.2,46,67.9z"/>
		<path class="st0" d="M40.1,72.6c-0.5,0-1-0.1-1.4-0.4l-3.4-1.7l-1.2,0.6c-0.4,0.3-0.4,0.9,0,1.2l5.1,2.6c0.4,0.3,1.2,0.3,1.6,0
			l5.1-2.6c0.4-0.3,0.4-0.9,0-1.2l-1.2-0.6l-3.4,1.7C41.1,72.5,40.6,72.6,40.1,72.6z"/>
		<path class="st0" d="M40.1,75.9c-0.5,0-1-0.1-1.4-0.4l-3.4-1.7l-1.2,0.6c-0.4,0.3-0.4,0.9,0,1.2l5.1,2.6c0.4,0.3,1.2,0.3,1.6,0
			l5.1-2.6c0.4-0.3,0.4-0.9,0-1.2l-1.2-0.6l-3.4,1.7C41.1,75.7,40.6,75.9,40.1,75.9z"/>
	</g>
</g>
<g>
	<path class="st1" d="M69.6,68.5c0-0.8-0.4-1.5-1.1-2l-0.1-0.1l-5.2-2.6c-0.5-0.3-1.1-0.5-1.7-0.5c-0.6,0-1.2,0.2-1.7,0.5l-5.2,2.6
		l-0.1,0.1c-0.7,0.5-1,1.2-1,2l0,6.5c0,0.8,0.4,1.5,1,2l0.1,0.1l5.2,2.6c0.5,0.3,1.1,0.5,1.7,0.5c0.6,0,1.2-0.2,1.7-0.5l5.2-2.6
		l0.1-0.1c0.7-0.5,1-1.2,1-2L69.6,68.5z"/>
	<g>
		<path class="st0" d="M67.5,67.9l-5.1-2.6c-0.4-0.3-1.2-0.3-1.6,0l-5.1,2.6c-0.4,0.3-0.4,0.9,0,1.2l5.1,2.6c0.4,0.3,1.2,0.3,1.6,0
			l5.1-2.6C67.9,68.8,67.9,68.2,67.5,67.9z"/>
		<path class="st0" d="M61.5,72.6c-0.5,0-1-0.1-1.4-0.4l-3.4-1.7l-1.2,0.6c-0.4,0.3-0.4,0.9,0,1.2l5.1,2.6c0.4,0.3,1.2,0.3,1.6,0
			l5.1-2.6c0.4-0.3,0.4-0.9,0-1.2l-1.2-0.6l-3.4,1.7C62.5,72.5,62,72.6,61.5,72.6z"/>
		<path class="st0" d="M61.5,75.9c-0.5,0-1-0.1-1.4-0.4l-3.4-1.7l-1.2,0.6c-0.4,0.3-0.4,0.9,0,1.2l5.1,2.6c0.4,0.3,1.2,0.3,1.6,0
			l5.1-2.6c0.4-0.3,0.4-0.9,0-1.2l-1.2-0.6l-3.4,1.7C62.5,75.7,62,75.9,61.5,75.9z"/>
	</g>
</g>
<g>
	<g>
		<g>
			<g>
				<polygon class="st0" points="81.8,26.7 71.6,28.9 71.6,25.1 81.8,19.8 				"/>
				<polygon class="st0" points="81.8,35.3 71.6,33.7 71.6,29.9 81.8,28.3 				"/>
				<polygon class="st0" points="81.8,43.8 71.6,38.5 71.6,34.6 81.8,36.9 				"/>
			</g>
			<g>
				<polygon class="st0" points="92.4,29 82.1,26.8 82.1,19.9 92.4,25.2 				"/>
				<polygon class="st0" points="92.4,33.7 82.1,35.3 82.1,28.4 92.4,29.9 				"/>
				<polygon class="st0" points="92.4,38.4 82.1,43.8 82.1,36.9 92.4,34.6 				"/>
			</g>
		</g>
	</g>
</g>
<g>
	<path class="st0" d="M36.4,35.5c0-2.5-1.8-4.5-4.3-4.5c0,0,0.1,0,0.1,0c-0.4-4.1-3.9-7.4-8.1-7.4c-3,0-5.6,1.6-7,4
		c-0.3-0.1-0.5-0.1-0.8-0.1c-1.8,0-3.3,1.5-3.3,3.3c0,0.1,0,0.1,0,0.2c-0.1,0-0.2,0-0.3,0c-2.5,0-5,2-5,4.5c0,2.4,1.6,4.4,3.7,4.5
		l20.1,0C34,40,36.4,38,36.4,35.5z"/>
</g>
</svg>
