<?xml version="1.0" encoding="utf-8"?>
<!-- Generator: Adobe Illustrator 22.1.0, SVG Export Plug-In . SVG Version: 6.00 Build 0)  -->
<svg version="1.1" id="Layer_1" xmlns="http://www.w3.org/2000/svg" xmlns:xlink="http://www.w3.org/1999/xlink" x="0px" y="0px"
	 viewBox="0 0 100 100" style="enable-background:new 0 0 100 100;" xml:space="preserve">
<style type="text/css">
	.st0{fill:#FFFFFF;stroke:#282B3A;stroke-miterlimit:10;}
	.st1{fill:#282B3A;}
	.st2{fill:#45B886;}
	.st3{fill:#43B3AB;}
	.st4{fill:#4FB864;}
	.st5{fill:#3FA9F5;}
	.st6{fill:#1696F0;}
	.st7{fill:#37BBF7;}
	.st8{fill:#79BFF2;}
</style>
<g>
	<path class="st0" d="M32.1,47.4c0-0.6-0.3-1.2-0.9-1.6l-0.1-0.1L27,43.7c-0.4-0.3-0.9-0.4-1.4-0.4c-0.5,0-1,0.1-1.4,0.4l-4.1,2.1
		l-0.1,0.1c-0.5,0.4-0.8,1-0.8,1.6l0,5.1c0,0.6,0.3,1.2,0.8,1.6l0.1,0.1l4.1,2.1c0.4,0.3,0.9,0.4,1.4,0.4c0.5,0,1-0.1,1.4-0.4
		l4.1-2.1l0.1-0.1c0.5-0.4,0.8-1,0.8-1.6L32.1,47.4z"/>
	<g>
		<path class="st1" d="M30.4,47l-4.1-2.1c-0.4-0.3-0.9-0.3-1.3,0L20.9,47c-0.4,0.3-0.4,0.7,0,1L25,50c0.4,0.3,0.9,0.3,1.3,0l4.1-2.1
			C30.7,47.6,30.7,47.2,30.4,47z"/>
		<path class="st1" d="M25.6,50.7c-0.4,0-0.8-0.1-1.1-0.3L21.9,49l-1,0.5c-0.4,0.3-0.4,0.7,0,1l4.1,2.1c0.4,0.3,0.9,0.3,1.3,0
			l4.1-2.1c0.4-0.3,0.4-0.7,0-1l-1-0.5l-2.7,1.4C26.4,50.6,26,50.7,25.6,50.7z"/>
		<path class="st1" d="M25.6,53.3c-0.4,0-0.8-0.1-1.1-0.3l-2.7-1.4l-1,0.5c-0.4,0.3-0.4,0.7,0,1l4.1,2.1c0.4,0.3,0.9,0.3,1.3,0
			l4.1-2.1c0.4-0.3,0.4-0.7,0-1l-1-0.5L26.7,53C26.4,53.2,26,53.3,25.6,53.3z"/>
	</g>
</g>
<g>
	<path class="st0" d="M99.1,46.6c0-0.8-0.4-1.6-1.1-2.1l-0.1-0.1l-5.5-2.8c-0.5-0.3-1.2-0.5-1.8-0.5c-0.7,0-1.3,0.2-1.8,0.5
		l-5.5,2.8l-0.1,0.1C82.4,45,82,45.8,82,46.6l0,6.8c0,0.8,0.4,1.6,1.1,2.1l0.1,0.1l5.5,2.8c0.5,0.3,1.2,0.5,1.8,0.5
		c0.7,0,1.3-0.2,1.8-0.5l5.5-2.8l0.1-0.1c0.7-0.5,1.1-1.3,1.1-2.1L99.1,46.6z"/>
	<g>
		<path class="st1" d="M96.8,46l-5.4-2.8c-0.5-0.3-1.2-0.3-1.7,0L84.3,46c-0.5,0.3-0.5,0.9,0,1.3l5.4,2.8c0.5,0.3,1.2,0.3,1.7,0
			l5.4-2.8C97.3,46.9,97.3,46.3,96.8,46z"/>
		<path class="st1" d="M90.5,51c-0.5,0-1-0.1-1.4-0.4l-3.6-1.8l-1.3,0.6c-0.5,0.3-0.5,0.9,0,1.3l5.4,2.8c0.5,0.3,1.2,0.3,1.7,0
			l5.4-2.8c0.5-0.3,0.5-0.9,0-1.3l-1.3-0.6L92,50.5C91.6,50.8,91.1,51,90.5,51z"/>
		<path class="st1" d="M90.5,54.4c-0.5,0-1-0.1-1.4-0.4l-3.6-1.8l-1.3,0.6c-0.5,0.3-0.5,0.9,0,1.3l5.4,2.8c0.5,0.3,1.2,0.3,1.7,0
			l5.4-2.8c0.5-0.3,0.5-0.9,0-1.3l-1.3-0.6L92,54C91.6,54.2,91.1,54.4,90.5,54.4z"/>
	</g>
</g>
<g>
	<path class="st0" d="M82.1,13.6c0-0.8-0.4-1.6-1.1-2.1l-0.1-0.1l-5.5-2.8C74.8,8.2,74.2,8,73.5,8c-0.7,0-1.3,0.2-1.8,0.5l-5.5,2.8
		l-0.1,0.1C65.4,12,65,12.8,65,13.6l0,6.8c0,0.8,0.4,1.6,1.1,2.1l0.1,0.1l5.5,2.8c0.5,0.3,1.2,0.5,1.8,0.5c0.7,0,1.3-0.2,1.8-0.5
		l5.5-2.8l0.1-0.1c0.7-0.5,1.1-1.3,1.1-2.1L82.1,13.6z"/>
	<g>
		<path class="st1" d="M79.8,13l-5.4-2.8c-0.5-0.3-1.2-0.3-1.7,0L67.3,13c-0.5,0.3-0.5,0.9,0,1.3l5.4,2.8c0.5,0.3,1.2,0.3,1.7,0
			l5.4-2.8C80.3,13.9,80.3,13.3,79.8,13z"/>
		<path class="st1" d="M73.5,18c-0.5,0-1-0.1-1.4-0.4l-3.6-1.8l-1.3,0.6c-0.5,0.3-0.5,0.9,0,1.3l5.4,2.8c0.5,0.3,1.2,0.3,1.7,0
			l5.4-2.8c0.5-0.3,0.5-0.9,0-1.3l-1.3-0.6L75,17.5C74.6,17.8,74.1,18,73.5,18z"/>
		<path class="st1" d="M73.5,21.4c-0.5,0-1-0.1-1.4-0.4l-3.6-1.8l-1.3,0.6c-0.5,0.3-0.5,0.9,0,1.3l5.4,2.8c0.5,0.3,1.2,0.3,1.7,0
			l5.4-2.8c0.5-0.3,0.5-0.9,0-1.3l-1.3-0.6L75,21C74.6,21.2,74.1,21.4,73.5,21.4z"/>
	</g>
</g>
<g>
	<path class="st0" d="M82.1,79.6c0-0.8-0.4-1.6-1.1-2.1l-0.1-0.1l-5.5-2.8c-0.5-0.3-1.2-0.5-1.8-0.5c-0.7,0-1.3,0.2-1.8,0.5
		l-5.5,2.8l-0.1,0.1C65.4,78,65,78.8,65,79.6l0,6.8c0,0.8,0.4,1.6,1.1,2.1l0.1,0.1l5.5,2.8c0.5,0.3,1.2,0.5,1.8,0.5
		c0.7,0,1.3-0.2,1.8-0.5l5.5-2.8l0.1-0.1c0.7-0.5,1.1-1.3,1.1-2.1L82.1,79.6z"/>
	<g>
		<path class="st1" d="M79.8,79l-5.4-2.8c-0.5-0.3-1.2-0.3-1.7,0L67.3,79c-0.5,0.3-0.5,0.9,0,1.3l5.4,2.8c0.5,0.3,1.2,0.3,1.7,0
			l5.4-2.8C80.3,79.9,80.3,79.3,79.8,79z"/>
		<path class="st1" d="M73.5,84c-0.5,0-1-0.1-1.4-0.4l-3.6-1.8l-1.3,0.6c-0.5,0.3-0.5,0.9,0,1.3l5.4,2.8c0.5,0.3,1.2,0.3,1.7,0
			l5.4-2.8c0.5-0.3,0.5-0.9,0-1.3l-1.3-0.6L75,83.5C74.6,83.8,74.1,84,73.5,84z"/>
		<path class="st1" d="M73.5,87.4c-0.5,0-1-0.1-1.4-0.4l-3.6-1.8l-1.3,0.6c-0.5,0.3-0.5,0.9,0,1.3l5.4,2.8c0.5,0.3,1.2,0.3,1.7,0
			l5.4-2.8c0.5-0.3,0.5-0.9,0-1.3l-1.3-0.6L75,87C74.6,87.2,74.1,87.4,73.5,87.4z"/>
	</g>
</g>
<path class="st1" d="M15.4,48.2L15.4,48.2C15.4,48.2,15.5,48.2,15.4,48.2l2.3,2.2c0,0,0,0,0,0c0,0,0,0,0,0l-2.3,2.1c0,0,0,0,0,0
	c0,0-0.1,0-0.1-0.1v-0.7v-0.3h-0.3h-2.2v-2.3h2.2h0.3V49L15.4,48.2C15.3,48.3,15.3,48.2,15.4,48.2C15.4,48.2,15.4,48.2,15.4,48.2
	 M15.4,48c-0.2,0-0.3,0.1-0.3,0.3V49h-2.5v2.8h2.5v0.7c0,0.2,0.2,0.3,0.3,0.3c0.1,0,0.2,0,0.2-0.1l2.3-2.1c0.1-0.1,0.1-0.3,0-0.5
	L15.6,48C15.6,48,15.5,48,15.4,48L15.4,48z"/>
<path class="st1" d="M38.6,46.6L38.6,46.6C38.6,46.6,38.7,46.6,38.6,46.6l3.9,3.7c0,0,0,0,0,0.1c0,0,0,0.1,0,0.1l-3.9,3.7
	c0,0,0,0-0.1,0c0,0-0.1,0-0.1-0.1v-1.3v-0.4H38h-3.8v-3.9H38h0.4V48v-1.3c0,0,0,0,0-0.1C38.5,46.6,38.6,46.6,38.6,46.6 M38.6,46.2
	c-0.3,0-0.6,0.2-0.6,0.5V48h-4.2v4.8H38v1.3c0,0.3,0.3,0.5,0.6,0.5c0.1,0,0.3,0,0.4-0.2l3.9-3.7c0.2-0.2,0.2-0.6,0-0.8L39,46.3
	C38.9,46.2,38.7,46.2,38.6,46.2L38.6,46.2z"/>
<g>
	<path class="st1" d="M63.1,44.1l-7.9-4.4c-0.5-0.3-1.2-0.3-1.7,0l-7.9,4.4c-0.6,0.3-0.9,0.9-0.9,1.5v8.7c0,0.6,0.3,1.2,0.9,1.5
		l7.9,4.4c0.5,0.3,1.2,0.3,1.7,0l7.9-4.4c0.6-0.3,0.9-0.9,0.9-1.5v-8.7C64,45,63.7,44.4,63.1,44.1z"/>
	<path class="st2" d="M59.8,49.6l-5.2-2.9c-0.1-0.1-0.3-0.1-0.4,0l-5.2,2.9c-0.3,0.2-0.3,0.6,0,0.8l5.2,2.9c0.1,0.1,0.3,0.1,0.4,0
		l5.2-2.9C60.1,50.2,60.1,49.8,59.8,49.6z"/>
	<path class="st3" d="M54.8,42.4c-0.3-0.1-0.6-0.1-0.9,0l-6,3.3l2.7,1.5l3.7-2.1l3.7,2.1l2.6-1.5L54.8,42.4z"/>
	<path class="st4" d="M53.9,57.6c0.3,0.1,0.6,0.1,0.9,0l6-3.3l-2.7-1.5l-3.7,2.1l-3.7-2.1l-2.6,1.5L53.9,57.6z"/>
</g>
<g>
	<path class="st1" d="M10.4,47.3l-3.6-2c-0.2-0.1-0.5-0.1-0.8,0l-3.6,2C2.2,47.4,2,47.7,2,48v4c0,0.3,0.2,0.6,0.4,0.7l3.6,2
		c0.2,0.1,0.5,0.1,0.8,0l3.6-2c0.3-0.1,0.4-0.4,0.4-0.7v-4C10.8,47.7,10.7,47.4,10.4,47.3z"/>
	<path class="st5" d="M7.7,49.2l-1.2-0.7c-0.1,0-0.1,0-0.2,0l-1.2,0.7C5,49.2,5,49.3,5,49.3v1.3c0,0.1,0,0.1,0.1,0.2l1.2,0.7
		c0.1,0,0.1,0,0.2,0l1.2-0.7c0.1,0,0.1-0.1,0.1-0.2v-1.3C7.8,49.3,7.8,49.2,7.7,49.2z"/>
	<path class="st6" d="M4.4,51.1v-0.2v-1.6l-1.2-0.7v3c0,0.1,0.1,0.3,0.2,0.4l2.7,1.5v-1.3L4.4,51.1z"/>
	<path class="st7" d="M6.6,46.5c-0.1-0.1-0.3-0.1-0.4,0L3.5,48l1.2,0.7l1.7-1l1.7,0.9L9.3,48L6.6,46.5z"/>
	<path class="st8" d="M8.4,49.2v1.7v0.2l-1.7,1v1.3l2.7-1.5c0.1-0.1,0.2-0.2,0.2-0.4v-3L8.4,49.2z"/>
</g>
<g>
	<path class="st1" d="M60.7,29.7L60.7,29.7C60.7,29.7,60.7,29.7,60.7,29.7l6.6-2c0,0,0,0,0.1,0c0,0,0,0,0,0.1l1.7,6.7
		c0,0.1-0.1,0.1-0.1,0.1c0,0-0.1,0-0.1,0l-1.4-0.8L67,33.4l-0.3,0.5l-3.8,6.8l-4.3-2.5l3.8-6.8l0.3-0.5l-0.5-0.3l-1.4-0.8
		C60.7,29.8,60.7,29.8,60.7,29.7C60.7,29.7,60.7,29.7,60.7,29.7 M60.4,29.1c-0.4,0.3-0.5,1,0,1.3l1.4,0.8l-4.1,7.3l5.4,3.1l4.1-7.3
		l1.4,0.8c0.2,0.1,0.5,0.1,0.7,0c0.3-0.2,0.4-0.5,0.3-0.8l-1.7-6.7c-0.1-0.4-0.5-0.6-0.9-0.5l-6.6,2C60.5,29.1,60.5,29.1,60.4,29.1
		L60.4,29.1z"/>
</g>
<g>
	<path class="st1" d="M60.7,70.9C60.7,70.9,60.7,70.8,60.7,70.9c0-0.1,0-0.2,0-0.2l1.4-0.8l0.5-0.3L62.4,69l-3.8-6.8l4.3-2.5
		l3.8,6.8l0.3,0.5l0.5-0.3L69,66c0,0,0,0,0.1,0c0,0,0.1,0,0.1,0.1l-1.7,6.7c0,0,0,0,0,0.1c0,0,0,0-0.1,0L60.7,70.9
		C60.7,70.9,60.7,70.9,60.7,70.9L60.7,70.9 M60.4,71.4c0,0,0.1,0.1,0.2,0.1l6.6,2c0.4,0.1,0.8-0.1,0.9-0.5l1.7-6.7
		c0.1-0.3-0.1-0.7-0.3-0.8c-0.2-0.1-0.5-0.1-0.7,0l-1.4,0.8L63.1,59l-5.4,3.1l4.1,7.3l-1.4,0.8C59.9,70.4,60,71.1,60.4,71.4
		L60.4,71.4z"/>
</g>
<path class="st1" d="M72.6,44.5L72.6,44.5c0.1,0,0.1,0,0.1,0l5.6,5.3c0,0,0,0.1,0,0.1c0,0,0,0.1-0.1,0.1l-5.6,5.3c0,0-0.1,0-0.1,0
	c-0.1,0-0.2,0-0.2-0.2v-1.8v-0.6h-0.6h-4.5v-5.7h4.5h0.6v-0.6v-1.8c0,0,0-0.1,0-0.1C72.5,44.6,72.5,44.5,72.6,44.5 M72.6,43.9
	c-0.4,0-0.8,0.3-0.8,0.8v1.8h-5.1v6.9h5.1v1.8c0,0.5,0.4,0.8,0.8,0.8c0.2,0,0.4-0.1,0.5-0.2l5.6-5.3c0.3-0.3,0.3-0.8,0-1.1l-5.6-5.3
	C73,44,72.8,43.9,72.6,43.9L72.6,43.9z"/>
</svg>
