<?xml version="1.0" encoding="utf-8"?>
<!-- Generator: Adobe Illustrator 22.0.1, SVG Export Plug-In . SVG Version: 6.00 Build 0)  -->
<svg version="1.1" id="Layer_1" xmlns="http://www.w3.org/2000/svg" xmlns:xlink="http://www.w3.org/1999/xlink" x="0px" y="0px"
	 viewBox="0 0 287 150" style="enable-background:new 0 0 287 150;" xml:space="preserve">
<style type="text/css">
	.st0{fill:#A7C5D4;}
	.st1{opacity:0.1;}
	.st2{fill:#939598;}
	.st3{fill:#E6E7E8;}
	.st4{fill:none;}
	.st5{fill:#FFFFFF;}
	.st6{fill:#F1F2F2;}
	.st7{fill:#F0D0B4;}
	.st8{fill:#5FB3AB;}
	.st9{fill:#4E4D4F;}
	.st10{fill:#58595B;}
	.st11{fill:#6B271C;}
</style>
<rect x="-2.1" y="-1" class="st0" width="289.1" height="152"/>
<g>
	<path class="st1" d="M57.9,134.5c0,2.5,37.8,4.5,84.5,4.5c46.7,0,84.5-2,84.5-4.5c0-2.5-37.8-4.5-84.5-4.5
		C95.8,130.1,57.9,132.1,57.9,134.5z"/>
	<path class="st2" d="M86.2,135.2c0.3,0,0.5-0.1,0.8-0.3l67.4-67.4c0.4-0.4,0.4-1.1,0-1.5c-0.4-0.4-1.1-0.4-1.5,0l-67.4,67.4
		c-0.4,0.4-0.4,1.1,0,1.5C85.7,135.1,86,135.2,86.2,135.2z"/>
	
		<rect x="101.2" y="65.1" transform="matrix(0.9506 -0.3104 0.3104 0.9506 -12.8801 51.3329)" class="st2" width="107.2" height="2.1"/>
	<path class="st2" d="M220.5,135.2c0.3,0,0.5-0.1,0.8-0.3c0.4-0.4,0.4-1.1,0-1.5L153.8,66c-0.4-0.4-1.1-0.4-1.5,0
		c-0.4,0.4-0.4,1.1,0,1.5l67.4,67.4C219.9,135.1,220.2,135.2,220.5,135.2z"/>
	<g>
		<rect x="111.9" y="109.7" class="st3" width="20.7" height="2.1"/>
		<rect x="96.3" y="99.6" class="st3" width="20.7" height="2.1"/>
		<rect x="87.6" y="89.5" class="st3" width="20.7" height="2.1"/>
		<rect x="82.3" y="79.4" class="st3" width="20.4" height="2.1"/>
		<rect x="79.2" y="69.3" class="st3" width="21.2" height="2.1"/>
		<rect x="78.4" y="59.2" class="st3" width="21" height="2.1"/>
		<rect x="79.3" y="49" class="st3" width="21.2" height="2.1"/>
		<rect x="82.6" y="38.9" class="st3" width="20.7" height="2.1"/>
		<rect x="88.1" y="28.8" class="st3" width="20.8" height="2.1"/>
		<rect x="97.8" y="18.7" class="st3" width="20.4" height="2.1"/>
		<rect x="109.9" y="10.9" class="st3" width="20.5" height="2.1"/>
		<ellipse class="st4" cx="142.6" cy="60.9" rx="42.5" ry="51.8"/>
		<path class="st4" d="M187.2,60.9c0-24.8-16.6-45.8-39.2-52.6c1.6-0.2,3.3-0.2,4.9-0.2c29.1,0,52.9,23.7,52.9,52.9
			c0,29.1-23.7,52.9-52.9,52.9c-1.7,0-3.3-0.1-4.9-0.2C170.6,106.8,187.2,85.7,187.2,60.9z"/>
		<path class="st4" d="M98,60.9c0,24.8,16.6,45.8,39.2,52.6c-1.6,0.2-3.3,0.2-4.9,0.2c-29.1,0-52.9-23.7-52.9-52.9
			c0-29.1,23.7-52.9,52.9-52.9c1.7,0,3.3,0.1,4.9,0.2C114.6,15.1,98,36.1,98,60.9z"/>
		<path class="st5" d="M152.9,113.8c29.1,0,52.9-23.7,52.9-52.9c0-29.1-23.7-52.9-52.9-52.9c-1.7,0-3.3,0.1-4.9,0.2
			c-1.8-0.5-3.6-1-5.4-1.3c3.3-0.6,6.8-1,10.3-1c30.3,0,54.9,24.6,54.9,54.9c0,30.3-24.6,54.9-54.9,54.9c-3.5,0-7-0.3-10.3-1
			c1.8-0.3,3.6-0.8,5.4-1.3C149.6,113.7,151.3,113.8,152.9,113.8z"/>
		<path class="st3" d="M100.1,60.9c0,25.6,18.3,47,42.5,51.8c-1.8,0.4-3.6,0.6-5.4,0.8C114.6,106.8,98,85.7,98,60.9
			c0-24.8,16.6-45.8,39.2-52.6c1.8,0.2,3.6,0.4,5.4,0.8C118.4,13.9,100.1,35.3,100.1,60.9z"/>
		<g>
			<g>
				<path class="st6" d="M108.9,78.1c0.9,1.2,1.8,2.4,2.6,3.5c1.7-1.2,3.5-2.2,5.4-2.7c5.1-1.5,10.8-0.6,15.2,2.7
					c0.9-1.2,1.8-2.4,2.7-3.5c-5.3-4-11.9-5.2-18-3.7C114,75,111.3,76.3,108.9,78.1z"/>
				<path class="st7" d="M108.9,78.1c0,0-3.9,2-2,4.5c1.9,2.5,3.7,0.2,3.7,0.2s0.3,0.9,1.1,0.3c0.8-0.6-0.1-1.4-0.1-1.4L108.9,78.1z
					"/>
			</g>
			<path class="st1" d="M116.9,78.9c5.1-1.5,10.8-0.6,15.2,2.7c0.9-1.2,1.8-2.4,2.7-3.5c-5.3-4-11.9-5.2-18-3.7L116.9,78.9z"/>
			<polygon class="st6" points="117.4,75.8 118.3,98.4 151.3,98.4 151.9,83.1 152.2,76.6 152.2,75.8 			"/>
			<g>
				<polygon class="st8" points="142.6,75.8 139.6,75.8 140.3,77.1 138.7,90 141.1,92.3 143.4,90 141.8,77.1 				"/>
				<g>
					<polygon class="st1" points="143.7,78.1 142.6,75.8 148,75.8 					"/>
					<polygon class="st6" points="142.6,75.8 148,75.8 143.7,77.6 					"/>
				</g>
				<g>
					<polygon class="st1" points="138.5,78.1 139.6,75.8 134.2,75.8 					"/>
					<polygon class="st6" points="139.6,75.8 134.2,75.8 138.5,77.6 					"/>
				</g>
			</g>
			<path class="st7" d="M152.2,55.9v19.9h-34.8V55.9c0-0.1,0-0.2,0-0.3c0.2-1.8,1.7-3.3,3.6-3.3h27.6
				C150.6,52.3,152.2,53.9,152.2,55.9z"/>
			<g>
				<path class="st9" d="M136.9,66.1c0,0.8-0.6,1.4-1.4,1.4c-0.8,0-1.4-0.6-1.4-1.4c0-0.8,0.6-1.4,1.4-1.4
					C136.3,64.7,136.9,65.3,136.9,66.1z"/>
				<path class="st9" d="M148.1,66.1c0,0.8-0.6,1.4-1.4,1.4c-0.8,0-1.4-0.6-1.4-1.4c0-0.8,0.6-1.4,1.4-1.4
					C147.5,64.7,148.1,65.3,148.1,66.1z"/>
			</g>
			<path class="st10" d="M130.2,59.4c0,0,31.8,7.8,31.8-9.3c0,0-4.8,2.8-8.3-4.5c0,0-12.6-26-35.5-6.3c0,0-12.8,1.6-0.7,33.3
				c0,0,6.5-0.3,7.6-3.3c0,0-1.8-5.3,1.6-3.7C126.6,65.6,129.3,64.3,130.2,59.4z"/>
			<path class="st11" d="M138,71.7c0,0.4,0.3,0.8,0.8,0.8h4.7c0.4,0,0.8-0.3,0.8-0.8l0,0c0-0.4-0.3-0.8-0.8-0.8h-4.7
				C138.3,71,138,71.3,138,71.7L138,71.7z"/>
			<path class="st10" d="M109.3,106.1c1.1-5.6,2.9-1.8,2.9-1.8s4.5-2.1,5.1-2.6c0.6-0.5,1-3.3,1-3.3v0v0h0h0h32.9v0l0,0v0
				c0,0,7.7,0.7,8.2,5.3c0.3,2.8,0.1,6.4,0.1,6.4s5,3.8-0.6,2.6c-5.6-1.1-1.8-2.9-1.8-2.9s-2.1-4.5-2.6-5.1c-0.5-0.6-3.3-1-3.3-1
				s-10.3-1.2-29.1-0.2c-0.8,1.6-2,3-3.9,3.2c-2.8,0.3-6.4,0.1-6.4,0.1S108.2,111.7,109.3,106.1z"/>
			<path class="st1" d="M128.4,81.9c7,5.2,16.1,5.5,23.5,1.2l0.3-6.5c-0.2-0.1-0.4-0.2-0.8,0.1c-0.8,0.6,0.1,1.4,0.1,1.4
				c-6.1,4.6-14.5,5.2-20.6,0.6C129.9,79.9,129.3,80.7,128.4,81.9z"/>
			<g>
				<path class="st6" d="M130.8,78.7c-0.9,1.2-1.8,2.4-2.7,3.5c7.7,5.8,18.2,5.8,25.9,0c-0.9-1.2-1.8-2.4-2.7-3.5
					C145.3,83.3,136.9,83.3,130.8,78.7z"/>
				<path class="st7" d="M154,82.3c0,0,3.9-2,2-4.5c-1.9-2.5-3.7-0.2-3.7-0.2s-0.3-0.9-1.1-0.3c-0.8,0.6,0.1,1.4,0.1,1.4L154,82.3z"
					/>
			</g>
			<path class="st5" d="M130.1,65.4c0,0,2.4,4.3,0,4.3C127.7,69.7,130.1,65.4,130.1,65.4z"/>
			<path class="st5" d="M115.9,39.3c0,0-3.6-1-2.3-2.3C114.8,35.6,115.9,39.3,115.9,39.3z"/>
			<path class="st5" d="M116.1,36.7c0,0-2.5-2.8-0.7-3.2C117.2,33.1,116.1,36.7,116.1,36.7z"/>
		</g>
		<path class="st5" d="M77.3,60.9c0,30.3,24.6,54.9,54.9,54.9c3.5,0,7-0.3,10.3-1c1.8-0.3,3.6-0.8,5.4-1.3
			c22.6-6.8,39.2-27.8,39.2-52.6c0-24.8-16.6-45.8-39.2-52.6c-1.8-0.5-3.6-1-5.4-1.3c-3.3-0.6-6.8-1-10.3-1
			C102,6,77.3,30.6,77.3,60.9z M79.4,60.9c0-29.1,23.7-52.9,52.9-52.9c1.7,0,3.3,0.1,4.9,0.2c1.8,0.2,3.6,0.4,5.4,0.8
			c24.2,4.8,42.5,26.2,42.5,51.8c0,25.6-18.3,47-42.5,51.8c-1.8,0.4-3.6,0.6-5.4,0.8c-1.6,0.2-3.3,0.2-4.9,0.2
			C103.1,113.8,79.4,90.1,79.4,60.9z"/>
		<rect x="154.9" y="10.9" class="st5" width="20.4" height="2.1"/>
		<rect x="169.5" y="21" class="st5" width="20.7" height="2.1"/>
		<rect x="177.6" y="31.1" class="st5" width="21.3" height="2.1"/>
		<rect x="182.8" y="41.2" class="st5" width="20.7" height="2.1"/>
		<rect x="185.5" y="51.3" class="st5" width="20.8" height="2.1"/>
		<rect x="186.1" y="61.4" class="st5" width="20.7" height="2.1"/>
		<rect x="184.3" y="71.5" class="st5" width="21.4" height="2.1"/>
		<rect x="181.6" y="81.7" class="st5" width="20.7" height="2.1"/>
		<rect x="175.7" y="91.8" class="st5" width="20.8" height="2.1"/>
		<rect x="166" y="101.9" class="st5" width="20.7" height="2.1"/>
		<rect x="153.1" y="109.7" class="st5" width="20.4" height="2.1"/>
	</g>
	<path class="st2" d="M199.7,134.8h20.7c0.4,0,0.7-0.3,0.7-0.7c0-0.4-0.3-0.7-0.7-0.7h-20.7c-0.4,0-0.7,0.3-0.7,0.7
		C199.1,134.5,199.4,134.8,199.7,134.8z"/>
	<path class="st2" d="M65.5,134.8h20.7c0.4,0,0.7-0.3,0.7-0.7c0-0.4-0.3-0.7-0.7-0.7H65.5c-0.4,0-0.7,0.3-0.7,0.7
		C64.8,134.5,65.1,134.8,65.5,134.8z"/>
</g>
</svg>
