<?xml version="1.0" encoding="utf-8"?>
<!-- Generator: Adobe Illustrator 22.1.0, SVG Export Plug-In . SVG Version: 6.00 Build 0)  -->
<svg version="1.1" id="Layer_1" xmlns="http://www.w3.org/2000/svg" xmlns:xlink="http://www.w3.org/1999/xlink" x="0px" y="0px"
	 viewBox="0 0 241 169.5" style="enable-background:new 0 0 241 169.5;" xml:space="preserve">
<style type="text/css">
	.st0{fill:#A7C5D4;}
	.st1{opacity:0.1;enable-background:new    ;}
	.st2{fill:#939598;}
	.st3{fill:#E6E7E8;}
	.st4{fill:none;}
	.st5{fill:#FFFFFF;}
	.st6{fill:#F1F2F2;}
	.st7{fill:#F0D0B4;}
	.st8{fill:#5FB3AB;}
	.st9{fill:#4E4D4F;}
	.st10{fill:#58595B;}
	.st11{fill:#6B271C;}
</style>
<rect class="st0" width="241" height="169.5"/>
<g>
	<path class="st1" d="M34.9,148c0,2.5,37.8,4.5,84.5,4.5s84.5-2,84.5-4.5s-37.8-4.5-84.5-4.5C72.8,143.6,34.9,145.6,34.9,148z"/>
	<path class="st2" d="M63.2,148.7c0.3,0,0.5-0.1,0.8-0.3L131.4,81c0.4-0.4,0.4-1.1,0-1.5s-1.1-0.4-1.5,0l-67.4,67.4
		c-0.4,0.4-0.4,1.1,0,1.5C62.7,148.6,63,148.7,63.2,148.7z"/>
	
		<rect x="78.2" y="78.6" transform="matrix(0.9506 -0.3104 0.3104 0.9506 -18.2177 44.8478)" class="st2" width="107.2" height="2.1"/>
	<path class="st2" d="M197.5,148.7c0.3,0,0.5-0.1,0.8-0.3c0.4-0.4,0.4-1.1,0-1.5l-67.5-67.4c-0.4-0.4-1.1-0.4-1.5,0s-0.4,1.1,0,1.5
		l67.4,67.4C196.9,148.6,197.2,148.7,197.5,148.7z"/>
	<g>
		<rect x="88.9" y="123.2" class="st3" width="20.7" height="2.1"/>
		<rect x="73.3" y="113.1" class="st3" width="20.7" height="2.1"/>
		<rect x="64.6" y="103" class="st3" width="20.7" height="2.1"/>
		<rect x="59.3" y="92.9" class="st3" width="20.4" height="2.1"/>
		<rect x="56.2" y="82.8" class="st3" width="21.2" height="2.1"/>
		<rect x="55.4" y="72.7" class="st3" width="21" height="2.1"/>
		<rect x="56.3" y="62.5" class="st3" width="21.2" height="2.1"/>
		<rect x="59.6" y="52.4" class="st3" width="20.7" height="2.1"/>
		<rect x="65.1" y="42.3" class="st3" width="20.8" height="2.1"/>
		<rect x="74.8" y="32.2" class="st3" width="20.4" height="2.1"/>
		<rect x="86.9" y="24.4" class="st3" width="20.5" height="2.1"/>
		<ellipse class="st4" cx="119.6" cy="74.4" rx="42.5" ry="51.8"/>
		<path class="st4" d="M164.2,74.4c0-24.8-16.6-45.8-39.2-52.6c1.6-0.2,3.3-0.2,4.9-0.2c29.1,0,52.9,23.7,52.9,52.9
			c0,29.1-23.7,52.9-52.9,52.9c-1.7,0-3.3-0.1-4.9-0.2C147.6,120.3,164.2,99.2,164.2,74.4z"/>
		<path class="st4" d="M75,74.4c0,24.8,16.6,45.8,39.2,52.6c-1.6,0.2-3.3,0.2-4.9,0.2c-29.1,0-52.9-23.7-52.9-52.9
			c0-29.1,23.7-52.9,52.9-52.9c1.7,0,3.3,0.1,4.9,0.2C91.6,28.6,75,49.6,75,74.4z"/>
		<path class="st5" d="M129.9,127.3c29.1,0,52.9-23.7,52.9-52.9c0-29.1-23.7-52.9-52.9-52.9c-1.7,0-3.3,0.1-4.9,0.2
			c-1.8-0.5-3.6-1-5.4-1.3c3.3-0.6,6.8-1,10.3-1c30.3,0,54.9,24.6,54.9,54.9s-24.6,54.9-54.9,54.9c-3.5,0-7-0.3-10.3-1
			c1.8-0.3,3.6-0.8,5.4-1.3C126.6,127.2,128.3,127.3,129.9,127.3z"/>
		<path class="st3" d="M77.1,74.4c0,25.6,18.3,47,42.5,51.8c-1.8,0.4-3.6,0.6-5.4,0.8C91.6,120.3,75,99.2,75,74.4
			s16.6-45.8,39.2-52.6c1.8,0.2,3.6,0.4,5.4,0.8C95.4,27.4,77.1,48.8,77.1,74.4z"/>
		<g>
			<g>
				<path class="st6" d="M85.9,91.6c0.9,1.2,1.8,2.4,2.6,3.5c1.7-1.2,3.5-2.2,5.4-2.7c5.1-1.5,10.8-0.6,15.2,2.7
					c0.9-1.2,1.8-2.4,2.7-3.5c-5.3-4-11.9-5.2-18-3.7C91,88.5,88.3,89.8,85.9,91.6z"/>
				<path class="st7" d="M85.9,91.6c0,0-3.9,2-2,4.5s3.7,0.2,3.7,0.2s0.3,0.9,1.1,0.3c0.8-0.6-0.1-1.4-0.1-1.4L85.9,91.6z"/>
			</g>
			<path class="st1" d="M93.9,92.4c5.1-1.5,10.8-0.6,15.2,2.7c0.9-1.2,1.8-2.4,2.7-3.5c-5.3-4-11.9-5.2-18-3.7L93.9,92.4z"/>
			<polygon class="st6" points="94.4,89.3 95.3,111.9 128.3,111.9 128.9,96.6 129.2,90.1 129.2,89.3 			"/>
			<g>
				<polygon class="st8" points="119.6,89.3 116.6,89.3 117.3,90.6 115.7,103.5 118.1,105.8 120.4,103.5 118.8,90.6 				"/>
				<g>
					<polygon class="st1" points="120.7,91.6 119.6,89.3 125,89.3 					"/>
					<polygon class="st6" points="119.6,89.3 125,89.3 120.7,91.1 					"/>
				</g>
				<g>
					<polygon class="st1" points="115.5,91.6 116.6,89.3 111.2,89.3 					"/>
					<polygon class="st6" points="116.6,89.3 111.2,89.3 115.5,91.1 					"/>
				</g>
			</g>
			<path class="st7" d="M129.2,69.4v19.9H94.4V69.4c0-0.1,0-0.2,0-0.3c0.2-1.8,1.7-3.3,3.6-3.3h27.6
				C127.6,65.8,129.2,67.4,129.2,69.4z"/>
			<g>
				<path class="st9" d="M113.9,79.6c0,0.8-0.6,1.4-1.4,1.4c-0.8,0-1.4-0.6-1.4-1.4s0.6-1.4,1.4-1.4
					C113.3,78.2,113.9,78.8,113.9,79.6z"/>
				<path class="st9" d="M125.1,79.6c0,0.8-0.6,1.4-1.4,1.4c-0.8,0-1.4-0.6-1.4-1.4s0.6-1.4,1.4-1.4S125.1,78.8,125.1,79.6z"/>
			</g>
			<path class="st10" d="M107.2,72.9c0,0,31.8,7.8,31.8-9.3c0,0-4.8,2.8-8.3-4.5c0,0-12.6-26-35.5-6.3c0,0-12.8,1.6-0.7,33.3
				c0,0,6.5-0.3,7.6-3.3c0,0-1.8-5.3,1.6-3.7C103.6,79.1,106.3,77.8,107.2,72.9z"/>
			<path class="st11" d="M115,85.2c0,0.4,0.3,0.8,0.8,0.8h4.7c0.4,0,0.8-0.3,0.8-0.8l0,0c0-0.4-0.3-0.8-0.8-0.8h-4.7
				C115.3,84.5,115,84.8,115,85.2L115,85.2z"/>
			<path class="st10" d="M86.3,119.6c1.1-5.6,2.9-1.8,2.9-1.8s4.5-2.1,5.1-2.6s1-3.3,1-3.3l0,0l0,0l0,0l0,0h32.9l0,0l0,0l0,0
				c0,0,7.7,0.7,8.2,5.3c0.3,2.8,0.1,6.4,0.1,6.4s5,3.8-0.6,2.6c-5.6-1.1-1.8-2.9-1.8-2.9s-2.1-4.5-2.6-5.1s-3.3-1-3.3-1
				s-10.3-1.2-29.1-0.2c-0.8,1.6-2,3-3.9,3.2c-2.8,0.3-6.4,0.1-6.4,0.1S85.2,125.2,86.3,119.6z"/>
			<path class="st1" d="M105.4,95.4c7,5.2,16.1,5.5,23.5,1.2l0.3-6.5c-0.2-0.1-0.4-0.2-0.8,0.1c-0.8,0.6,0.1,1.4,0.1,1.4
				c-6.1,4.6-14.5,5.2-20.6,0.6C106.9,93.4,106.3,94.2,105.4,95.4z"/>
			<g>
				<path class="st6" d="M107.8,92.2c-0.9,1.2-1.8,2.4-2.7,3.5c7.7,5.8,18.2,5.8,25.9,0c-0.9-1.2-1.8-2.4-2.7-3.5
					C122.3,96.8,113.9,96.8,107.8,92.2z"/>
				<path class="st7" d="M131,95.8c0,0,3.9-2,2-4.5s-3.7-0.2-3.7-0.2s-0.3-0.9-1.1-0.3s0.1,1.4,0.1,1.4L131,95.8z"/>
			</g>
			<path class="st5" d="M107.1,78.9c0,0,2.4,4.3,0,4.3C104.7,83.2,107.1,78.9,107.1,78.9z"/>
			<path class="st5" d="M92.9,52.8c0,0-3.6-1-2.3-2.3C91.8,49.1,92.9,52.8,92.9,52.8z"/>
			<path class="st5" d="M93.1,50.2c0,0-2.5-2.8-0.7-3.2C94.2,46.6,93.1,50.2,93.1,50.2z"/>
		</g>
		<path class="st5" d="M54.3,74.4c0,30.3,24.6,54.9,54.9,54.9c3.5,0,7-0.3,10.3-1c1.8-0.3,3.6-0.8,5.4-1.3
			c22.6-6.8,39.2-27.8,39.2-52.6s-16.6-45.8-39.2-52.6c-1.8-0.5-3.6-1-5.4-1.3c-3.3-0.6-6.8-1-10.3-1C79,19.5,54.3,44.1,54.3,74.4z
			 M56.4,74.4c0-29.1,23.7-52.9,52.9-52.9c1.7,0,3.3,0.1,4.9,0.2c1.8,0.2,3.6,0.4,5.4,0.8c24.2,4.8,42.5,26.2,42.5,51.8
			s-18.3,47-42.5,51.8c-1.8,0.4-3.6,0.6-5.4,0.8c-1.6,0.2-3.3,0.2-4.9,0.2C80.1,127.3,56.4,103.6,56.4,74.4z"/>
		<rect x="131.9" y="24.4" class="st5" width="20.4" height="2.1"/>
		<rect x="146.5" y="34.5" class="st5" width="20.7" height="2.1"/>
		<rect x="154.6" y="44.6" class="st5" width="21.3" height="2.1"/>
		<rect x="159.8" y="54.7" class="st5" width="20.7" height="2.1"/>
		<rect x="162.5" y="64.8" class="st5" width="20.8" height="2.1"/>
		<rect x="163.1" y="74.9" class="st5" width="20.7" height="2.1"/>
		<rect x="161.3" y="85" class="st5" width="21.4" height="2.1"/>
		<rect x="158.6" y="95.2" class="st5" width="20.7" height="2.1"/>
		<rect x="152.7" y="105.3" class="st5" width="20.8" height="2.1"/>
		<rect x="143" y="115.4" class="st5" width="20.7" height="2.1"/>
		<rect x="130.1" y="123.2" class="st5" width="20.4" height="2.1"/>
	</g>
	<path class="st2" d="M176.7,148.3h20.7c0.4,0,0.7-0.3,0.7-0.7s-0.3-0.7-0.7-0.7h-20.7c-0.4,0-0.7,0.3-0.7,0.7
		C176.1,148,176.4,148.3,176.7,148.3z"/>
	<path class="st2" d="M42.5,148.3h20.7c0.4,0,0.7-0.3,0.7-0.7s-0.3-0.7-0.7-0.7H42.5c-0.4,0-0.7,0.3-0.7,0.7S42.1,148.3,42.5,148.3z
		"/>
</g>
</svg>
