<?xml version="1.0" encoding="utf-8"?>
<!-- Generator: Adobe Illustrator 18.1.1, SVG Export Plug-In . SVG Version: 6.00 Build 0)  -->
<svg version="1.1" id="Layer_1" xmlns="http://www.w3.org/2000/svg" xmlns:xlink="http://www.w3.org/1999/xlink" x="0px" y="0px"
	 viewBox="0 0 146.9 152.8" enable-background="new 0 0 146.9 152.8" xml:space="preserve">
<g>
	<g>
		<polygon fill="#436437" points="121.8,146.8 54.5,95.9 74.6,60.6 142,111.5 		"/>
	</g>
	<g>
		<polygon fill="#6FA85C" points="118.8,140.1 59.7,95.4 76.3,66.4 135.4,111.1 		"/>
	</g>
	<g>
		<path fill="#436437" d="M83,91.1c-3.5,7.4-2,17.1,3.4,21.7c5.4,4.6,12.7,2.3,16.2-5.1s2-17.1-3.4-21.7
			C93.9,81.4,86.6,83.7,83,91.1z"/>
	</g>
</g>
<g>
	<polygon fill="#436437" points="97.2,63.2 7,108.3 10.1,152.8 100.3,107.7 	"/>
</g>
<g>
	<polygon fill="#6FA85C" points="94.4,69.1 10.7,111.8 12,145.5 97.1,102.1 	"/>
</g>
<g>
	<path fill="#436437" d="M39.5,100.9c-4.6,7-4.2,16.4,0.9,21c5.1,4.6,13,2.7,17.6-4.3s4.2-16.4-0.9-21C52,92,44.1,93.9,39.5,100.9z"
		/>
</g>
<g>
	<polygon fill="#436437" points="124.7,90.6 31.5,86.2 25.7,41.4 118.9,45.8 	"/>
</g>
<g>
	<polygon fill="#6FA85C" points="120.1,84.5 35.9,80.5 31.2,47 114.6,50.9 	"/>
</g>
<g>
	<path fill="#436437" d="M68.2,64.5c1.3-7.4,4.3-11.7,9.2-11.8c4.9-0.1,11.1,8,9.9,15.4C86,75.5,81,81.5,76,81.6
		C71.1,81.7,66.9,71.9,68.2,64.5z"/>
</g>
<g>
	<polygon fill="#436437" points="89.3,74.5 0,47.5 5.3,2.7 94.6,29.7 	"/>
</g>
<g>
	<polygon fill="#6FA85C" points="86.3,67.5 5.6,43 9.3,9.4 89.2,33.6 	"/>
</g>
<g>
	<path fill="#436437" d="M40.9,35.4c3-6.8,7-10.3,11.8-9.2s8.8,10.5,5.8,17.3S49.1,55.1,44.3,54C39.5,52.8,37.9,42.3,40.9,35.4z"/>
</g>
</svg>
