<?xml version="1.0" encoding="utf-8"?>
<!-- Generator: Adobe Illustrator 18.1.1, SVG Export Plug-In . SVG Version: 6.00 Build 0)  -->
<svg version="1.1" id="Layer_1" xmlns="http://www.w3.org/2000/svg" xmlns:xlink="http://www.w3.org/1999/xlink" x="0px" y="0px"
	 viewBox="85.2 13.2 71.6 84.8" enable-background="new 85.2 13.2 71.6 84.8" xml:space="preserve">
<g>
	<polygon fill="#7C848F" points="110.9,35.8 103.9,36.1 102.9,35 102.9,34.5 104,34.3 104.7,32.7 108.7,32.1 109.2,34 109.4,34 
		110.2,34.1 111.1,35.4 	"/>
	<polygon fill="#7C848F" points="94.9,33.3 93,15.9 94.2,14.7 120.9,14.1 123,15 118.5,32.2 	"/>
	<polygon fill="#9197A0" points="123,15 118.5,32.2 94.9,33.3 93,15.9 	"/>
	<polygon fill="#7C848F" points="96.4,31.5 96.4,31.5 96.4,31.5 96.1,32.1 96.1,32.1 96.1,32.1 96.1,32.1 	"/>
	<path fill="#7C848F" d="M124.8,17.1L124.8,17.1l-0.9,0.3L124.8,17.1L124.8,17.1C124.7,17.1,124.8,17.1,124.8,17.1z"/>
	<path fill="#7C848F" d="M119.7,16.8l0.7-0.3l-3.1,14.7l-21.2,0.9l0.3-0.6l0,0h0l-0.3,0.6l-0.8-15c0,0,8.9-0.1,11.5-0.2
		c2.6-0.1,12.8-0.3,13.6-0.3L119.7,16.8z"/>
	<polygon fill="#7C848F" points="96.4,31.5 96.4,31.5 96.4,31.5 96.1,32.1 96.1,32.1 96.1,32.1 96.1,32.1 	"/>
	<polygon fill="#7C848F" points="124.7,17.1 124.7,17.1 124.7,17.1 123.9,17.4 	"/>
	<polygon fill="#00979A" points="96.6,31.8 96,17.1 119.7,16.5 117,30.7 	"/>
	<polygon fill="#9197A0" points="111.1,35.4 104.1,35.7 102.9,34.5 104,34.3 104.5,35.1 104.9,34.3 105.4,33 108.9,32.7 109.2,34 
		109.4,34.1 109.6,34.1 110.3,34.1 	"/>
</g>
<polygon fill="#556B76" points="123.1,46.7 152.8,32.1 105.1,22.3 156.5,31.5 124.6,49.8 "/>
<g>
	<polygon fill="#E0D545" points="105.3,36.5 118.3,37 116.8,29.9 124.8,34.6 123.3,20.8 130.2,31.8 138.5,21.9 136.9,35.2 148.7,31 
		140,40.5 150.7,43.9 140,47.4 148.7,57.2 136.3,53.1 138.4,66 130.1,55.8 123.1,68 123.4,54.7 117,56.9 118.3,50.1 105.2,48.7 
		116.4,43.5 	"/>
	<polygon fill="#F0532C" points="112.4,38.9 121.8,39.3 120.7,34.2 125.4,35.9 126.2,29.6 130.3,35.5 136.4,28.4 135.4,37 143.8,35 
		138.5,41.2 146.1,44.1 138.3,46.9 144.6,54.6 135.1,51.8 136.5,61.7 130,54.3 125.4,60.8 124.9,52.8 119.7,54 121,49.1 113.8,47 
		119.6,43.9 	"/>
</g>
<polygon fill="#556B76" points="142.7,75.9 98.2,65 130.8,46.3 128.1,44.2 85.2,65.2 141.4,84.6 "/>
<g>
	<polygon fill="#7C848F" points="138,96.7 136.6,94.4 135.3,94.3 135,94.1 134.2,90.9 127.9,92 126.8,94.8 125,95 125,95.9 
		126.6,97.9 137.7,97.3 	"/>
	<polygon fill="#7C848F" points="149.7,91 156.8,60.9 153.5,59.4 111.3,60.4 109.4,62.6 112.3,93 	"/>
	<polygon fill="#9197A0" points="109.4,62.6 112.3,93 149.7,91 156.8,60.9 	"/>
	<polygon fill="#7C848F" points="114.3,90.8 114.3,90.9 114.3,90.9 114.3,90.9 114.8,89.8 114.8,89.8 114.8,89.8 	"/>
	<path fill="#7C848F" d="M152.7,63.6L152.7,63.6l-1.1,0.5L152.7,63.6L152.7,63.6C152.8,63.6,152.8,63.6,152.7,63.6z"/>
	<path fill="#7C848F" d="M152.7,63.5c-1.3,0-17.4,0.4-21.6,0.6c-4.1,0.2-18.2,0.4-18.2,0.4l1.3,26.3l0.5-1h0l0,0l-0.5,1.1l33.6-1.6
		L152.7,63.5l-1.1,0.5L152.7,63.5z"/>
	<polygon fill="#7C848F" points="114.3,90.8 114.2,90.9 114.3,90.9 114.3,90.9 114.8,89.8 114.8,89.8 114.8,89.8 	"/>
	<polygon fill="#7C848F" points="151.6,64.1 152.7,63.6 152.7,63.6 152.7,63.6 	"/>
	<polygon fill="#00979A" points="147.3,88.5 151.6,63.6 114.1,64.7 115,90.4 	"/>
	<polygon fill="#9197A0" points="136.7,94.4 135.7,94.4 135.3,94.4 135,94.1 134.5,92 129,92.4 128.1,94.8 127.6,96.1 126.8,94.8 
		125,95 126.9,97.2 138,96.7 	"/>
</g>
</svg>
