<?xml version="1.0" encoding="utf-8"?>
<!-- Generator: Adobe Illustrator 18.1.1, SVG Export Plug-In . SVG Version: 6.00 Build 0)  -->
<svg version="1.1" id="Layer_1" xmlns="http://www.w3.org/2000/svg" xmlns:xlink="http://www.w3.org/1999/xlink" x="0px" y="0px"
	 viewBox="0 0 544.2 321" enable-background="new 0 0 544.2 321" xml:space="preserve">
<g>
	<g>
		<path fill="#556B76" d="M147.5,321"/>
	</g>
	<path fill="#556B76" d="M501.7,291c-0.5,0.5-1.1,1-1.6,1.5c-5.1,1.3-95.5,21.6-98.3,22.1c-9.1,1.8-18,4.9-27.5,4.4
		c-4.8-0.3-9.6-1-14.4-1.5l0.2,0.1c-7.1-1.4-38.1-7-46.6-8.4c0,0-106.4-19.4-112-20.5c-2.4-0.8-4.8-1.5-7.1-2.5
		c-5.8-2.6-6.7-5-4.5-10.9l66.8,12.6l0,1.4c-0.1,1.5,1,2.8,2.5,3l19.7,3.4c1.9,0.3,3.6-1.1,3.6-3l0-0.5l84.2,14.1
		c4.5,0.8,9.1,0.7,13.6-0.2l121-24.8c0.4,0.5,0.7,1.1,0.7,1.5C502.4,285.5,501.9,288.2,501.7,291z"/>
	<polygon fill="#F0532C" points="501.4,276.8 327,253.3 358.1,123.9 530.6,124.8 	"/>
	<path fill="#5E5E5E" stroke="#000000" stroke-width="0.6022" stroke-miterlimit="10" d="M359.9,133.2l0.3-0.8
		C360,132.7,360,132.9,359.9,133.2z M359.9,133.2l0.3-0.8C360,132.7,360,132.9,359.9,133.2z M360.1,132.4c-0.1,0.2-0.2,0.5-0.3,0.8
		L360.1,132.4z"/>
	<path fill="#5E5E5E" stroke="#000000" stroke-width="0.6022" stroke-miterlimit="10" d="M360.1,132.4l-0.3,0.8
		C360,132.9,360,132.7,360.1,132.4z"/>
	<g>
		<g>
			<polygon fill="#436437" points="92.9,181.3 42.1,217.7 25.3,217.3 13.1,198.5 78.3,155.8 			"/>
		</g>
		<g>
			<g>
				<path d="M63.1,184.8c2.9,4.7,2.6,11.2-1.9,14.8c-4.9,3.9-12.2,1.6-15.5-3.3c-2.9-4.5-2.6-11,1.7-14.6
					C52.4,177.4,59.7,179.9,63.1,184.8c0,0,0.5-0.3,0.5-0.3c-3.4-4.9-9.6-6.9-14.9-3.8c-5.6,3.2-7,10.5-3.5,15.8
					c3.2,4.9,9.7,6.8,14.9,3.8c5.7-3.3,6.8-10.4,3.5-15.8C63.6,184.5,63.1,184.8,63.1,184.8z"/>
			</g>
		</g>
		<g>
			<polygon fill="#6FA85C" points="89.6,180.1 39.8,215.7 30.2,207.6 26.9,214.2 17,199.2 77.3,159.7 			"/>
		</g>
		<g>
			<polyline fill="#6FA85C" points="26.7,217.3 30.3,210.3 32,211.9 38.2,217.6 			"/>
		</g>
	</g>
	<g>
		<g>
			<polygon fill="#436437" points="30.8,72.4 104,84 98.7,121.6 25.6,110 			"/>
		</g>
		<g>
			<polygon fill="#6FA85C" points="35.5,76.6 99.8,86.8 95.5,117.7 31.2,107.4 			"/>
		</g>
		<g>
			<path fill="#436437" d="M81.6,100.6c0.5-7.6-4-14.8-10-16.1c-6.1-1.3-11.4,3.8-11.9,11.3c-0.5,7.6,4,14.8,10,16.1
				C75.8,113.2,81.1,108.1,81.6,100.6z"/>
		</g>
	</g>
	<g>
		<g>
			<polygon fill="#436437" points="58.5,142.9 0.5,99.6 18,69.7 76,113 			"/>
		</g>
		<g>
			<polygon fill="#6FA85C" points="56,137.2 5,99.2 19.4,74.6 70.3,112.6 			"/>
		</g>
		<g>
			<path fill="#436437" d="M25.2,95.6c-3.1,6.3-1.8,14.5,2.9,18.4c4.7,3.9,11,1.9,14-4.3s1.8-14.5-2.9-18.4
				C34.5,87.4,28.3,89.3,25.2,95.6z"/>
		</g>
	</g>
	<g>
		<g>
			<polygon fill="#436437" points="243.7,110.8 193.4,141.4 195,172 245.2,141.4 			"/>
		</g>
		<g>
			<polygon fill="#6FA85C" points="240.2,115.7 196.1,142.5 197.4,167.7 241.5,140.8 			"/>
		</g>
		<g>
			<path fill="#436437" d="M207.7,149.2c0.1-6.3,3.5-13.7,7.7-16.5s7.5,0,7.5,6.3c-0.1,6.3-3.5,13.7-7.7,16.5
				C211,158.3,207.6,155.5,207.7,149.2z"/>
		</g>
	</g>
	<g>
		<g>
			<polygon fill="#436437" points="224.3,77.8 261.7,128 240.6,146.9 203.2,96.6 			"/>
		</g>
		<g>
			<polygon fill="#6FA85C" points="225.1,83 257.9,127.1 240.5,142.6 207.7,98.5 			"/>
		</g>
		<g>
			<g>
				<path d="M240.9,124.3c4.2-4.6,5.6-13.8-0.5-17.7c-3.5-2.2-7.9-0.6-10.6,2.2c-4.3,4.5-5.5,13.9,0.5,17.7
					C233.9,128.7,238.1,127,240.9,124.3c-0.1,0.1-0.4,0.2-0.5,0.3c-4.2,4-10.3,3.2-12.7-2.2c-2-4.5-0.8-10.3,2.6-13.9
					c3.9-4.1,10.1-3.1,12.6,1.9c2.3,4.7,0.9,10.4-2.5,14.2C240.5,124.4,240.8,124.4,240.9,124.3z"/>
			</g>
		</g>
	</g>
	<g>
		<g>
			<polygon fill="#436437" points="153.6,191.3 194.9,144.7 214.1,165.7 172.7,212.3 			"/>
		</g>
		<g>
			<polygon fill="#6FA85C" points="158.2,189.9 194.5,149 210.2,166.2 173.9,207.1 			"/>
		</g>
		<g>
			<g>
				<path d="M194.1,168c-3.6-3.2-8.7-4-12.9-1.3c-5.3,3.4-5.1,10.8-0.7,14.9c3.5,3.3,8.8,3.9,12.9,1.3
					C198.8,179.5,198.4,172.3,194.1,168c0,0-0.5,0.3-0.5,0.3c3.4,3.4,4.7,8.8,1.5,12.9c-3.5,4.5-10.3,3.8-14.1,0.2
					c-3.4-3.2-4.6-8.7-1.7-12.6c3.5-4.9,10.3-4,14.3-0.4C193.6,168.4,194.1,168,194.1,168z"/>
			</g>
		</g>
	</g>
	<g>
		<g>
			<polygon fill="#436437" points="78,150.1 139.7,186.2 125.2,218 63.4,182 			"/>
		</g>
		<g>
			<polygon fill="#6FA85C" points="81,155.5 135.3,187.2 123.3,213.4 69.1,181.7 			"/>
		</g>
		<g>
			<path fill="#436437" d="M115.6,193.2c2.5-6.6,0.4-14.6-4.6-17.9c-5-3.3-11.1-0.6-13.5,6c-2.5,6.6-0.4,14.6,4.6,17.9
				S113.1,199.8,115.6,193.2z"/>
		</g>
	</g>
	<g>
		<g>
			<polygon fill="#436437" points="149.9,41.3 206.5,86.8 188.2,116.1 131.5,70.6 			"/>
		</g>
		<g>
			<polygon fill="#6FA85C" points="152.2,47.2 202,87.1 186.9,111.1 137.1,71.2 			"/>
		</g>
		<g>
			<g>
				<path d="M182,89.8c2.7-5.4,2.7-12.6-1.3-17.3c-2.8-3.4-7.1-4.3-10.9-2.1c-4.6,2.6-6.7,7.9-6.7,13c0,5.4,3,12.3,9.2,12.7
					C176.5,96.4,180.1,93.2,182,89.8c-0.1,0.1-0.4,0.1-0.5,0.3c-1.7,2.9-4.2,5.5-7.8,5.7c-2.8,0.1-5.4-1.4-7.1-3.6
					c-3.7-4.7-3.8-11.9-1.1-17.1c3-5.7,9.9-7.8,14.5-2.6c4.2,4.7,4.2,12.1,1.5,17.6C181.6,89.9,181.9,89.9,182,89.8z"/>
			</g>
		</g>
	</g>
	<g>
		<g>
			<polygon fill="#436437" points="159.4,61.3 95.7,92.7 83,59.8 146.8,28.5 			"/>
		</g>
		<g>
			<polygon fill="#6FA85C" points="153.8,60.6 97.8,88.2 87.4,61.2 143.4,33.6 			"/>
		</g>
		<g>
			<path fill="#436437" d="M106.2,67.1c3,6.3,9.8,9.6,15.2,7.2s7.4-9.3,4.5-15.6s-9.8-9.6-15.2-7.2
				C105.2,53.8,103.2,60.8,106.2,67.1z"/>
		</g>
	</g>
	<g>
		<g>
			<polygon fill="#436437" points="142.1,133.1 172.8,159.3 163,175.9 132.3,149.7 			"/>
		</g>
		<g>
			<g>
				<path d="M143.2,136.6c5.4,4.6,10.7,9.2,16.1,13.7c3,2.6,6.1,5.2,9.1,7.8c0.3,0.2,1.6,1.1,1.7,1.5c0.1,0.6-1.3,2.3-1.6,2.8
					c-2.1,3.6-4.3,7.2-6.4,10.8c0.2-0.1,0.3-0.2,0.5-0.3c-5.4-4.6-10.7-9.2-16.1-13.7c-3-2.6-6.1-5.2-9.1-7.8
					c-0.3-0.2-1.6-1.1-1.7-1.5c-0.1-0.6,1.3-2.3,1.6-2.8c2.1-3.6,4.3-7.2,6.4-10.8C143.6,136.5,143.3,136.5,143.2,136.6
					c-1.8,3.1-3.7,6.2-5.5,9.3c-0.5,0.9-1,1.8-1.6,2.6c-0.2,0.3-0.9,1.2-0.9,1.6c0,0.4,0.6,0.7,1,1c6.5,5.5,13,11.1,19.5,16.6
					c2.1,1.8,4.3,3.7,6.4,5.5c0,0,0.5-0.3,0.5-0.3c1.8-3.1,3.7-6.2,5.5-9.3c0.5-0.9,1-1.8,1.6-2.6c0.2-0.3,0.9-1.2,0.9-1.6
					c0-0.4-0.6-0.7-1-1c-6.5-5.5-13-11.1-19.5-16.6c-2.1-1.8-4.3-3.7-6.4-5.5C143.6,136.3,143.2,136.7,143.2,136.6z"/>
			</g>
		</g>
		<g>
			<g>
				<path d="M159.7,160.8c1.6-3.7,1.3-11.7-4.3-11.8c-2.2,0-4.2,1.8-5.2,3.7c-1.8,3.6-1.2,11.4,4,11.8
					C156.7,164.7,158.7,162.7,159.7,160.8c-0.1,0.1-0.4,0.1-0.5,0.3c-1.9,3.4-5.5,4.2-7.9,0.8c-1.9-2.7-2-6.7-0.5-9.6
					c1.6-3.1,5.1-4.1,7.5-1.3c2.4,2.7,2.3,6.9,0.9,10.1C159.3,161,159.7,161,159.7,160.8z"/>
			</g>
		</g>
	</g>
	<g>
		<g>
			<polygon fill="#436437" points="244,194.5 178.6,167.7 189.5,134 254.8,160.8 			"/>
		</g>
		<g>
			<polygon fill="#6FA85C" points="240.3,189.6 182.9,166 191.8,138.3 249.2,161.9 			"/>
		</g>
		<g>
			<path fill="#436437" d="M199.1,159.7c-2.2,8.1,1.1,16.9,7.4,19.6s13.2-1.5,15.4-9.6c2.2-8.1-1.1-16.9-7.4-19.6
				C208.2,147.3,201.3,151.6,199.1,159.7z"/>
		</g>
	</g>
	<g>
		<g>
			<polygon fill="#436437" points="36.8,145 92,200.5 69.2,228.5 14,173 			"/>
		</g>
		<g>
			<polygon fill="#6FA85C" points="38.6,151.4 87.1,200.1 68.5,223.2 19.9,174.5 			"/>
		</g>
		<g>
			<path fill="#436437" d="M65.3,200.3c4.1-6,3.9-14.8-0.5-19.6s-11.3-4-15.5,2s-3.9,14.8,0.5,19.6
				C54.2,207.1,61.2,206.2,65.3,200.3z"/>
		</g>
	</g>
	<g>
		<g>
			<polygon fill="#436437" points="173.8,141.9 112.2,178.4 97.5,146.6 159.1,110.2 			"/>
		</g>
		<g>
			<polygon fill="#6FA85C" points="168.1,141.7 114.1,173.7 102,147.6 156.1,115.6 			"/>
		</g>
		<g>
			<path fill="#436437" d="M121,152c3.4,6.1,10.4,8.8,15.6,6c5.3-2.8,6.8-9.9,3.5-16c-3.4-6.1-10.4-8.8-15.6-6
				C119.2,138.8,117.7,145.9,121,152z"/>
		</g>
	</g>
	<g>
		<polygon fill="#436437" points="208.3,121 143,94.2 153.8,60.5 219.2,87.3 		"/>
	</g>
	<g>
		<polygon fill="#6FA85C" points="204.7,116.1 147.3,92.5 156.2,64.9 213.6,88.4 		"/>
	</g>
	<g>
		<path fill="#5E5E5E" d="M375,253.5l124.2,14.9h0l6.4-29.3c-2.4-30.4-25.7-55.7-57-59.5c-35.9-4.3-68.8,21.5-73.5,57.7
			C374.4,242.7,374.4,248.2,375,253.5z"/>
		<g>
			<path d="M374.7,253.6c14,1.7,28.1,3.4,42.1,5c22.3,2.7,44.6,5.3,66.9,8c3.7,0.4,7.4,0.9,11,1.3c1.3,0.2,2.8,0.5,4.1,0.5
				c0.1,0,0.5-0.3,0.5-0.3c2-9.3,4-18.6,6.1-28c0.5-2.3,0-4.6-0.4-6.9c-0.7-4.4-1.9-8.7-3.5-12.8c-3.2-8.2-8-15.8-14.2-22.1
				c-12.7-13-30.6-20.1-48.7-19.5c-15.1,0.5-29.7,6.5-41.2,16.3C380.8,209.6,372.3,231.7,374.7,253.6c0-0.1,0.5-0.2,0.5-0.3
				c-2.1-18.7,3.7-37.7,16.2-51.9c12.1-13.7,29.5-21.9,47.8-22.2c17.5-0.3,34.6,6.5,47,18.8c5.9,5.9,10.7,13,14,20.7
				c1.7,4,3,8.1,3.9,12.3c0.6,2.7,1.4,5.9,1.1,8.6c-0.7,5.2-2.3,10.5-3.4,15.7c-1,4.4-1.9,8.8-2.9,13.2c0.2-0.1,0.3-0.2,0.5-0.3
				c-4,0-8.3-1-12.2-1.5c-9.8-1.2-19.6-2.3-29.4-3.5c-22.4-2.7-44.7-5.4-67.1-8c-5.2-0.6-10.3-1.2-15.5-1.9
				C375.1,253.3,374.9,253.7,374.7,253.6z"/>
		</g>
	</g>
	<g>
		<path fill="#F37043" d="M345.5,250l29.6,3.5l124.2,14.9h0l6.4-29.3l9.2-42.3c-13.3-24.3-38.7-42.2-69.7-46
			c-49.6-5.9-94.6,26.8-100.5,73C343.3,232.8,343.7,241.6,345.5,250z"/>
	</g>
	<g>
		<path fill="none" d="M444.8,280.9"/>
		<g>
			<path fill="#7C848F" d="M364.4,119.7c-0.1,0-0.3,0-0.4,0c-0.1,0-0.2,0-0.3,0l-43.5,136.8c0,0,0,0,0.1,0c0,0,0.1,0,0.1,0
				c7.1,1.1,126.2,16.7,166.3,21.7c0,0,0,0,0,0c0.9,0.1,1.8,0.2,2.6,0.3c0.1,0,0.3,0,0.4,0.1c0.5,0.1,1,0.1,1.4,0.2
				c0.6,0.1,1.2,0.1,1.7,0.2c0.3,0,0.6,0.1,0.8,0.1c0.7,0.1,1.3,0.2,1.9,0.2c0.6,0.1,1.1,0.1,1.5,0.2c0.1,0,0.1,0,0.2,0
				c0.2,0,0.4,0.1,0.6,0.1c0.1,0,0.2,0,0.3,0c0.5,0.1,0.9,0.1,1.1,0.1c0.6,0.1,1.4,0.7,1.9,1.3l1.9-0.4l0.1-0.4l36.5-164.1
				C536.5,116.4,388.2,119,364.4,119.7z M499.1,268.4c-55.8-6.7-111.2-13.4-166.9-20.1c0.2-1,0.3-1.7,0.5-2.4
				c9.1-37.3,18.2-74.5,27.1-111.8c0-0.1,0-0.2,0.1-0.3l0.2-0.7c0.6-1.5,1.6-2,3.6-2.1c21.8-0.3,119.2-1.9,146-2.3
				c6.5-0.1,12.9,0,19.8,0C519.3,175.4,509.2,221.8,499.1,268.4z M364,119.7c-0.1,0-0.2,0-0.3,0c-6.6,0.2-9.3,0.4-10.9,8.6
				c-1.5,6.1-31.5,124.5-32.6,128.2l39.6-122.8l0.2-0.7l4.3-13.3C364.3,119.7,364.2,119.7,364,119.7z M359.9,133.8l0.2-0.7
				C360,133.3,360,133.5,359.9,133.8z"/>
			<path fill="#9197A0" d="M499.5,279.9c-0.2,0-0.6-0.1-1.1-0.1c-0.1,0-0.2,0-0.3,0c-0.2,0-0.4,0-0.6-0.1c-0.1,0-0.1,0-0.2,0
				c-0.5-0.1-1-0.1-1.5-0.2c-0.6-0.1-1.2-0.1-1.9-0.2c-0.3,0-0.5-0.1-0.8-0.1c-32.3-4.1-167.9-21.9-172.6-22.5c-0.1,0-0.1,0-0.1,0
				S196.1,274.2,190,275.3l66.8,12.6l0,1.4c-0.1,1.5,1,2.8,2.5,3l19.7,3.4c1.9,0.3,3.6-1.1,3.6-3l0-0.5l84.2,14.1
				c4.5,0.8,9.1,0.7,13.6-0.2l121-24.8C500.9,280.6,500.1,280,499.5,279.9z M473.2,280.8c-0.9,0.2-1.9,0.5-2.8,0.7
				c-17.9,3.7-35.8,7.5-53.7,11.1c-2.6,0.5-5.5,0.7-8.1,0.3c-37.7-5.8-75.4-11.8-113-17.8c-13.6-2.1-27.2-4.3-41.7-6.6
				c1.6-0.5,2.2-0.7,3-0.9c10.1-1.5,20.3-3.1,30.4-4.5c12.3-1.7,24.3-3.8,37.1-2.1c41.5,5.8,83.1,10.8,124.7,16.1
				c8.1,1,16.1,2.1,24.2,3.1C473.2,280.5,473.2,280.6,473.2,280.8z"/>
			<path fill="none" stroke="#000000" stroke-width="0.6022" stroke-miterlimit="10" d="M352.9,128.3"/>
			<path fill="none" stroke="#000000" stroke-width="0.6022" stroke-miterlimit="10" d="M479.3,298.1"/>
			<path fill="none" stroke="#000000" stroke-width="0.6022" stroke-miterlimit="10" d="M201.5,288.7"/>
			<path fill="none" stroke="#000000" stroke-width="0.6022" stroke-miterlimit="10" d="M500.1,292.5"/>
			<path fill="#7C848F" d="M473.2,280.3c-8.1-1-16.1-2.1-24.2-3.1c-41.6-5.3-83.2-10.3-124.7-16.1c-12.7-1.8-24.8,0.4-37.1,2.1
				c-10.2,1.4-20.3,3-30.4,4.5c-0.7,0.1-1.4,0.4-3,0.9c14.5,2.3,28.1,4.4,41.7,6.6c37.7,5.9,75.3,11.9,113,17.8
				c2.6,0.4,5.5,0.2,8.1-0.3c17.9-3.6,35.8-7.4,53.7-11.1c0.9-0.2,1.9-0.5,2.8-0.7C473.2,280.6,473.2,280.5,473.2,280.3z"/>
			<path fill="#7C848F" d="M346.6,285.7c0,0.3,0,0.2,0,0.5c-1,0.2-2,0.5-3,0.7c-9.2,1.6-18.4,3.2-27.6,4.8c-5.5,0.9-10.9,2.1-16.7,1
				c-9.3-1.9-18.6-3.2-28-4.7c-4.5-0.8-9-1.5-13.5-2.3c-1-0.2-1.1-1.6,0-1.8c8.2-1.6,16.3-2.8,24.5-4.1c4.3-0.6,8.8-2.2,13-1.6
				C312.5,280.3,329.5,283.1,346.6,285.7z"/>
		</g>
	</g>
	<path fill="#556B76" d="M543.4,124.8c0,0-24.2,116.8-34.7,157c-2.2,8.6-6.8,9-7,9.2c0.2-2.8,0.7-5.5,0.5-8.2c0-0.4-0.3-1-0.7-1.5
		l1.9-0.4l0.1-0.4l36.5-164.1c0,0,0.1,0,0.1,0S546.3,116.4,543.4,124.8z"/>
	<g>
		<path fill="#D14C2B" d="M401.3,241.3c-0.7,5.3-0.6,10.5,0.2,15.4l80.8,9.7c2-4.6,3.4-9.6,4.1-14.9c3.3-25.7-11.7-48.8-33.9-52.9
			c0.1,0,0.1,0,0.2,0c0.5,0.1,0.2,5.7,0.4,5.8c1.6,1.1,2.6,2.9,2.3,4.7c-0.4,2.8-3.2,4.8-6.4,4.4c-3.2-0.4-5.4-3-5.1-5.8
			c0.2-1.9,1.7-3.5,3.6-4.1c0.3-0.1,1.8-5.5,2.6-5.4c0.1,0,0.2,0,0.3,0c-0.1,0-0.2,0-0.4,0C426.5,195.3,404.7,214.6,401.3,241.3z"/>
	</g>
	<g>
		<g>
			<polygon fill="#436437" points="461,233.8 418.9,197.5 403.8,198.4 391,218 445.5,260.5 			"/>
		</g>
		<g>
			<polygon fill="#6FA85C" points="458,235.1 416.6,199.7 407.2,208.3 404.9,201.5 394.6,217.3 444.9,256.5 			"/>
		</g>
		<g>
			<path fill="#436437" d="M434.8,231.1c3.6-5.5,3.1-12.6-1-15.8c-4.1-3.2-10.4-1.4-14,4.1s-3.1,12.6,1,15.8
				C425,238.4,431.2,236.6,434.8,231.1z"/>
		</g>
		<g>
			<g>
				<path d="M404.7,198.5c0.9,2.4,1.7,4.8,2.6,7.1c0,0,0.5-0.3,0.5-0.3c-0.9-2.4-1.7-4.8-2.6-7.1
					C405.3,198.2,404.7,198.4,404.7,198.5L404.7,198.5z"/>
			</g>
		</g>
		<g>
			<g>
				<path d="M407.8,205.3c2.6-2.6,5.2-5.1,7.8-7.7c-0.1,0.1-0.4,0.2-0.5,0.3c-2.6,2.6-5.2,5.1-7.8,7.7
					C407.4,205.5,407.7,205.4,407.8,205.3L407.8,205.3z"/>
			</g>
		</g>
		<g>
			<g>
				<path d="M403.5,198.5c1.1,3.3,2.3,6.6,3.4,9.9c0,0,0.5-0.3,0.5-0.3c-1.1-3.3-2.3-6.6-3.4-9.9
					C404.1,198.3,403.5,198.5,403.5,198.5L403.5,198.5z"/>
			</g>
		</g>
		<g>
			<g>
				<path d="M407.5,208.1c3.9-3.6,7.8-7.2,11.7-10.7c-0.1,0.1-0.4,0.2-0.5,0.3c-3.9,3.6-7.8,7.2-11.7,10.7
					C407.1,208.3,407.3,208.2,407.5,208.1L407.5,208.1z"/>
			</g>
		</g>
	</g>
	<g>
		<polygon fill="#E0D545" points="368.5,159.6 385.9,136.7 398.5,156.7 414.7,137.4 424,158.3 441.3,137.8 452.1,159.9 466.2,137.8 
			474.9,161.2 488,137.8 496.1,164.4 509.2,137.8 514.7,165.1 529.5,128.3 361.6,131.4 		"/>
	</g>
	<g>
		<polygon fill="#E0D545" points="342.5,220.7 357.3,245.4 372,226.8 386,247.7 397.6,227.9 412.4,250.1 425.7,229.3 437.1,252.8 
			448.5,230.5 458.9,255.2 469.9,229.6 479.9,257.4 488.5,230.9 499,269 332.4,248.1 		"/>
	</g>
	<g>
		<g>
			<polygon fill="#436437" points="349.1,189.2 413.4,215.2 433,212.8 445,194.7 363.1,164.9 			"/>
		</g>
		<g>
			<polygon fill="#6FA85C" points="352.8,187.7 415.9,213.1 426.1,204.8 430.8,210.2 440.4,195.7 364.8,168.2 			"/>
		</g>
		<g>
			<path fill="#436437" d="M384.2,188.6c-3.4,5.1-1,11,5.2,13.3c6.2,2.3,14,0,17.3-5.1s1-11-5.2-13.3
				C395.3,181.2,387.6,183.5,384.2,188.6z"/>
		</g>
		<g>
			<polyline fill="#6FA85C" points="431.4,213 426.3,207.2 418,214.6 			"/>
		</g>
		<g>
			<g>
				<path d="M425.8,204.9c0.2,0,0.4-0.3,0.5-0.3C426.2,204.6,426,204.9,425.8,204.9L425.8,204.9z"/>
			</g>
		</g>
		<g>
			<g>
				<path d="M432.7,212.9c0.2,0,0.4-0.3,0.5-0.3C433.1,212.6,432.9,212.9,432.7,212.9L432.7,212.9z"/>
			</g>
		</g>
		<g>
			<g>
				<path d="M413.1,215.3c0.2,0,0.4-0.3,0.5-0.3C413.5,215,413.3,215.3,413.1,215.3L413.1,215.3z"/>
			</g>
		</g>
		<g>
			<g>
				<path d="M425.8,204.9c0.2,0,0.4-0.3,0.5-0.3C426.2,204.6,426,204.9,425.8,204.9L425.8,204.9z"/>
			</g>
		</g>
	</g>
	<g>
		<polygon fill="#436437" points="295.3,204.8 378.9,211 391,182.2 307.4,176 		"/>
	</g>
	<g>
		<polygon fill="#6FA85C" points="300.4,201.3 375.9,206.8 385.2,185.3 310.4,179.8 		"/>
	</g>
	<g>
		<path fill="#436437" d="M336.8,192.7c-1.2,4.8,0,8.3,4.2,9.8c4.1,1.5,11.8-1.6,13-6.4s-1.2-10-5.3-11.5
			C344.5,183.1,338,187.8,336.8,192.7z"/>
	</g>
	<g>
		<polygon fill="#436437" points="358.9,182.9 274.7,156.6 254.4,184.6 338.6,211 		"/>
	</g>
	<g>
		<polygon fill="#6FA85C" points="352.8,185.5 276.7,161.7 261.2,182.6 336.6,206.2 		"/>
	</g>
	<g>
		<path fill="#436437" d="M300,182.6c-1.4,5.3-0.1,9.2,4.2,10.8c4.3,1.6,12.6-1.8,14-7.2c1.4-5.3-1.1-11-5.4-12.6
			C308.4,172,301.3,177.2,300,182.6z"/>
	</g>
	<g>
		<g>
			<polygon fill="#436437" points="311.7,187.8 328,183.5 363.4,206.7 377.7,166.2 345.6,141 337,148.4 319.4,163.6 310.5,171.3 			
				"/>
		</g>
		<g>
			<polygon fill="#6FA85C" points="374.3,168.6 346.9,147.9 352.5,177 334.3,182.3 362.1,201.1 			"/>
		</g>
		<g>
			<g>
				<path d="M312.2,132.4c0.2,0,0.4-0.3,0.5-0.3C312.5,132.1,312.4,132.4,312.2,132.4L312.2,132.4z"/>
			</g>
		</g>
	</g>
	<g>
		<path fill="#436437" d="M342.1,167.9c1.9-6,4.8-9.1,8.7-8.1c3.8,1,7.6,9.2,5.7,15.2c-1.9,6-6.6,10.2-10.4,9.2
			C342.1,183.3,340.2,174,342.1,167.9z"/>
	</g>
	<g>
		<polyline fill="#6FA85C" points="342.4,143.2 345.7,170.6 312.5,182.6 308.8,168.2 		"/>
	</g>
	<g>
		<path fill="#436437" d="M269.4,145.7c1.3,0,2.7-0.1,4.1-0.3c8.4-1.4,14.9-6.8,14.9-12.4L269.4,145.7z"/>
	</g>
	<g>
		<path fill="#436437" d="M164.1,84.8c-3,7.7-0.6,16.9,5.4,20.5c6,3.6,13.3,0.2,16.2-7.6c3-7.7,0.6-16.9-5.4-20.5
			C174.4,73.7,167.1,77,164.1,84.8z"/>
	</g>
	<g>
		<path fill="#436437" d="M299.1,143.8l1.2,13.6C301.8,152.4,301.3,147.1,299.1,143.8z"/>
	</g>
	<g>
		<polyline fill="#436437" points="183.5,169.2 180.3,212.1 265.3,183.3 268.5,140.5 183.5,169.2 		"/>
	</g>
	<g>
		<polygon fill="#6FA85C" points="184.2,205.2 261,179.2 263.7,147.1 187.7,172.8 		"/>
	</g>
	<g>
		<polygon fill="#436437" points="101.6,109.4 154.4,141.7 181.2,134.9 189.8,95.8 106.4,83.1 		"/>
	</g>
	<g>
		<polygon fill="#6FA85C" points="103.9,109.1 157.1,137.2 168.2,119 175.2,128.8 184.2,98.6 109,85.8 		"/>
	</g>
	<g>
		<path fill="#436437" d="M126.2,103.1c-2.2,8.1,1.1,16.9,7.4,19.6c6.3,2.8,13.2-1.5,15.4-9.6s-1.1-16.9-7.4-19.6
			C135.2,90.7,128.4,95,126.2,103.1z"/>
	</g>
	<g>
		<path fill="#436437" d="M218.3,178.5c0.5,6.9,2.5,11,6.5,11.3c3.9,0.3,9.5-6.9,9-13.8c-0.5-6.9-4-12.7-8-13
			C221.9,162.7,217.8,171.6,218.3,178.5z"/>
	</g>
	<g>
		<polyline fill="#436437" points="248.9,134.7 255,95.2 330.3,147.8 324.2,187.3 248.9,134.7 		"/>
	</g>
	<g>
		<polygon fill="#6FA85C" points="257.3,102.6 325.3,150.2 321,179.9 253.6,132.7 		"/>
	</g>
	<g>
		<polygon fill="#436437" points="263.6,145.9 172.7,129.1 167.1,85.7 258.1,102.5 		"/>
	</g>
	<g>
		<polygon fill="#6FA85C" points="258.7,139.6 176.5,124.5 172,92 253.4,107 		"/>
	</g>
	<g>
		<path fill="#436437" d="M208.1,113.6c1.3-6.9,4.2-10.6,9-10s10.8,9.1,9.6,16c-1.3,6.9-6.2,11.9-11,11.4
			C210.9,130.4,206.8,120.5,208.1,113.6z"/>
	</g>
	<g>
		<path fill="#436437" d="M284.2,137.3c1.9-6,4.8-9.1,8.7-8.1s7.6,9.2,5.7,15.2c-1.9,6-6.6,10.2-10.4,9.2S282.3,143.3,284.2,137.3z"
			/>
	</g>
	<g>
		<polyline fill="#436437" points="181.2,134.9 168.2,119 154.4,141.7 		"/>
	</g>
	<g>
		<polyline fill="#6FA85C" points="176,135.8 169.1,124.6 159.6,140.5 		"/>
	</g>
	<g>
		<g>
			<g>
				<polygon fill="#436437" points="2.9,37.4 45.4,42.6 90.2,33.4 112.1,75.5 57.1,90.7 43.2,81.5 14.6,62.4 0,52.7 				"/>
			</g>
			<g>
				<polygon fill="#6FA85C" points="106.5,72.3 59.6,84.6 69.6,45.3 59.3,44.6 87.8,38.4 				"/>
			</g>
			<g>
				<polyline fill="#436437" points="0,52.7 2.9,37.4 45.4,42.6 69.6,45.3 60.4,82.7 57.1,90.7 				"/>
			</g>
			<g>
				<g>
					<path d="M1,90.2c0.2,0,0.4-0.3,0.5-0.3C1.4,89.9,1.2,90.2,1,90.2L1,90.2z"/>
				</g>
			</g>
		</g>
		<g>
			<polyline fill="#6FA85C" points="53.8,88.6 63.5,48.9 6.9,41.6 3.5,55 			"/>
		</g>
		<g>
			<path fill="#436437" d="M14.6,62.4c2.2,0.5,4.5,1.2,6.8,1.9c13.6,4.6,23,12.1,21.8,17.2L14.6,62.4z"/>
		</g>
		<g>
			<path fill="#436437" d="M67.3,55.6l-5,18.9C67.6,76.7,73.3,58.5,67.3,55.6z"/>
		</g>
	</g>
	<path fill="none" stroke="#000000" stroke-width="0.6022" stroke-miterlimit="10" d="M181.2,134.9"/>
	<path fill="none" stroke="#000000" stroke-width="0.6022" stroke-miterlimit="10" d="M154.4,141.7"/>
	<g>
		<g>
			<polygon fill="#436437" points="84.8,176 4.3,161.4 3.3,108.2 83.7,122.9 			"/>
		</g>
		<g>
			<polygon fill="#6FA85C" points="81.3,168.4 8.6,155.2 7.6,115.4 79.6,128.4 			"/>
		</g>
		<g>
			<path fill="#436437" d="M33.6,137.6c0.9-8.7,3.4-13.9,7.7-14.1c4.3-0.2,9.9,9.2,8.9,18s-5.2,16-9.4,16.2S32.7,146.4,33.6,137.6z"
				/>
		</g>
	</g>
	<ellipse fill="#7C848F" cx="437.3" cy="123.9" rx="3.4" ry="4.1"/>
	<g>
		<polygon fill="#436437" points="201.1,184.7 111.3,209.9 91.7,169.3 181.5,144.1 		"/>
	</g>
	<g>
		<polygon fill="#6FA85C" points="194.8,180.4 113.7,203.1 98.7,172.8 179.1,150.3 		"/>
	</g>
	<g>
		<path fill="#436437" d="M139.3,177.8c-1.1-7.4,0.4-12.4,5-14.1s13.1,4.1,14.2,11.5c1.1,7.4-1.8,14.7-6.4,16.4
			C147.5,193.2,140.4,185.2,139.3,177.8z"/>
	</g>
	<g>
		<polygon fill="#436437" points="129.5,59.4 58.1,130.7 75.1,172 146.5,100.7 		"/>
	</g>
	<g>
		<polygon fill="#6FA85C" points="128.8,65.9 62.7,132.8 74.6,164.4 141.7,96.4 		"/>
	</g>
	<g>
		<path fill="#436437" d="M86.6,113.4c-2.2,8.1,1.1,16.9,7.4,19.6c6.3,2.8,13.2-1.5,15.4-9.6s-1.1-16.9-7.4-19.6
			S88.8,105.4,86.6,113.4z"/>
	</g>
	<g>
		<g>
			<polygon fill="#436437" points="69.2,0 145.4,30.4 131.3,67.3 55.1,36.9 			"/>
		</g>
		<g>
			<polygon fill="#6FA85C" points="73.3,5.4 140.2,32.1 128.6,62.4 61.8,35.7 			"/>
		</g>
		<g>
			<path fill="#436437" d="M117.6,41.5c2.3-7.6-0.9-16-7.2-18.9s-13.1,0.9-15.4,8.5c-2.3,7.6,0.9,16,7.2,18.9S115.3,49.1,117.6,41.5
				z"/>
		</g>
	</g>
	<g>
		<g>
			<polygon fill="#436437" points="126,223.3 46.1,196.2 54.1,156.3 134,183.4 			"/>
		</g>
		<g>
			<polygon fill="#6FA85C" points="121.1,217.8 50.9,194 57.5,161.3 127.7,185 			"/>
		</g>
		<g>
			<path fill="#436437" d="M71.7,182.6c-1,8.1,3.5,16.8,10.1,19.5s12.8-1.9,13.8-10c1-8.1-3.5-16.8-10.1-19.5S72.7,174.5,71.7,182.6
				z"/>
		</g>
	</g>
</g>
</svg>
