<?xml version="1.0" encoding="utf-8"?>
<!-- Generator: Adobe Illustrator 18.1.1, SVG Export Plug-In . SVG Version: 6.00 Build 0)  -->
<svg version="1.1" id="Layer_1" xmlns="http://www.w3.org/2000/svg" xmlns:xlink="http://www.w3.org/1999/xlink" x="0px" y="0px"
	 viewBox="0 0 375 275.7" enable-background="new 0 0 375 275.7" xml:space="preserve">
<g>
	<polygon fill-rule="evenodd" clip-rule="evenodd" fill="#75C2CE" points="131.7,22.9 187.5,0 187.5,55.7 131.7,55.7 131.7,22.9 	
		"/>
	<polygon fill-rule="evenodd" clip-rule="evenodd" fill="#34ABB7" points="243.3,22.9 187.5,0 187.5,55.7 243.3,55.7 243.3,22.9 	
		"/>
	<path fill-rule="evenodd" clip-rule="evenodd" fill="#34ABB7" d="M112.9,54c24.9-7.7,49.7-15.4,74.6-23.2c0,18.8,0,37.5,0,56.3
		c-24.9,0-49.7,0-74.6,0C112.9,76.1,112.9,65,112.9,54L112.9,54z"/>
	<path fill-rule="evenodd" clip-rule="evenodd" fill="#00979A" d="M262.1,54c-24.9-7.7-49.7-15.4-74.6-23.2c0,18.8,0,37.5,0,56.3
		c24.9,0,49.7,0,74.6,0C262.1,76.1,262.1,65,262.1,54L262.1,54z"/>
	<path fill-rule="evenodd" clip-rule="evenodd" fill="#75C2CE" d="M94.1,85c31.1-7.8,62.3-15.6,93.4-23.4c0,19,0,37.9,0,56.9
		c-31.1,0-62.3,0-93.4,0C94.1,107.4,94.1,96.2,94.1,85L94.1,85z"/>
	<path fill-rule="evenodd" clip-rule="evenodd" fill="#34ABB7" d="M280.9,85c-31.1-7.8-62.3-15.6-93.4-23.4c0,19,0,37.9,0,56.9
		c31.1,0,62.3,0,93.4,0C280.9,107.4,280.9,96.2,280.9,85L280.9,85z"/>
	<path fill-rule="evenodd" clip-rule="evenodd" fill="#CBC237" d="M75.3,116.1c37.4-7.9,74.8-15.8,112.2-23.7c0,19.2,0,38.4,0,57.5
		c-37.4,0-74.8,0-112.2,0C75.3,138.7,75.3,127.4,75.3,116.1L75.3,116.1z"/>
	<path fill-rule="evenodd" clip-rule="evenodd" fill="#B9B035" d="M299.7,116.1c-37.4-7.9-74.8-15.8-112.2-23.7
		c0,19.2,0,38.4,0,57.5c37.4,0,74.8,0,112.2,0C299.7,138.7,299.7,127.4,299.7,116.1L299.7,116.1z"/>
	<path fill-rule="evenodd" clip-rule="evenodd" fill="#E0D545" d="M56.4,147.2c43.7-8,87.4-15.9,131.1-23.9c0,19.4,0,38.8,0,58.1
		c-43.7,0-87.4,0-131.1,0C56.4,170,56.4,158.6,56.4,147.2L56.4,147.2z"/>
	<path fill-rule="evenodd" clip-rule="evenodd" fill="#CBC237" d="M318.6,147.2c-43.7-8-87.4-15.9-131.1-23.9c0,19.4,0,38.8,0,58.1
		c43.7,0,87.4,0,131.1,0C318.6,170,318.6,158.6,318.6,147.2L318.6,147.2z"/>
	<path fill-rule="evenodd" clip-rule="evenodd" fill="#CBC237" d="M37.6,178.3c50-8.1,99.9-16.1,149.9-24.2c0,19.6,0,39.2,0,58.7
		c-50,0-99.9,0-149.9,0C37.6,201.3,37.6,189.8,37.6,178.3L37.6,178.3z"/>
	<path fill-rule="evenodd" clip-rule="evenodd" fill="#B9B035" d="M337.4,178.3c-50-8.1-99.9-16.1-149.9-24.2c0,19.6,0,39.2,0,58.7
		c50,0,99.9,0,149.9,0C337.4,201.3,337.4,189.8,337.4,178.3L337.4,178.3z"/>
	<path fill-rule="evenodd" clip-rule="evenodd" fill="#9197A0" d="M18.8,209.3c56.2-8.1,112.5-16.3,168.7-24.4c0,19.8,0,39.6,0,59.4
		c-56.2,0-112.5,0-168.7,0C18.8,232.6,18.8,221,18.8,209.3L18.8,209.3z"/>
	<path fill-rule="evenodd" clip-rule="evenodd" fill="#7C848F" d="M356.2,209.3c-56.2-8.1-112.5-16.3-168.7-24.4
		c0,19.8,0,39.6,0,59.4c56.2,0,112.5,0,168.7,0C356.2,232.6,356.2,221,356.2,209.3L356.2,209.3z"/>
	<polygon fill-rule="evenodd" clip-rule="evenodd" fill="#7C848F" points="0,240.4 187.5,215.7 187.5,275.7 0,275.7 0,240.4 	"/>
	<polygon fill-rule="evenodd" clip-rule="evenodd" fill="#556B76" points="375,240.4 187.5,215.7 187.5,275.7 375,275.7 375,240.4 	
		"/>
</g>
</svg>
