<?xml version="1.0" encoding="utf-8"?>
<!-- Generator: Adobe Illustrator 18.1.1, SVG Export Plug-In . SVG Version: 6.00 Build 0)  -->
<svg version="1.1" id="Layer_1" xmlns="http://www.w3.org/2000/svg" xmlns:xlink="http://www.w3.org/1999/xlink" x="0px" y="0px"
	 viewBox="0 0 97.3 63.2" enable-background="new 0 0 97.3 63.2" xml:space="preserve">
<g id="Picture_Accent_Logo_6_">
	<g>
		<g>
			<path fill="#FFFFFF" d="M64.8,8.4L69.2,0h-8.8l-2.3,4.4c-2.9-1.2-6.1-1.9-9.4-1.9C34,2.5,22,15.4,22,31.2c0,9,3.9,17.1,10,22.4
				l-4.7,8.8h8.8l2.4-4.6c3.1,1.4,6.5,2.1,10.1,2.1c14.7,0,26.7-12.9,26.7-28.7C75.3,21.9,71.1,13.6,64.8,8.4z M35.8,46.3
				c-3.8-3.8-6.2-9.1-6.2-15.1c0-11.3,8.5-20.5,19-20.5c2,0,3.8,0.3,5.6,0.9L35.8,46.3z M48.6,51.6c-2.2,0-4.3-0.4-6.3-1.1
				l18.6-34.9c4.1,3.8,6.8,9.4,6.8,15.6C67.7,42.4,59.1,51.6,48.6,51.6z"/>
		</g>
	</g>
	<g>
		<path fill="#FFFFFF" d="M23.6,49.4l0,13.9L0,31.5L23.6,0l0,13.9L11.2,31.4L23.6,49.4z"/>
	</g>
	<g>
		<path fill="#FFFFFF" d="M73.7,13.9l0-13.9l23.6,31.7L73.7,63.2l0-13.9l12.4-17.5L73.7,13.9z"/>
	</g>
</g>
</svg>
