<?xml version="1.0" encoding="utf-8"?>
<!-- Generator: Adobe Illustrator 22.0.1, SVG Export Plug-In . SVG Version: 6.00 Build 0)  -->
<svg version="1.1" id="Layer_1" xmlns="http://www.w3.org/2000/svg" xmlns:xlink="http://www.w3.org/1999/xlink" x="0px" y="0px"
	 viewBox="0 0 120.1 25" style="enable-background:new 0 0 120.1 25;" xml:space="preserve">
<style type="text/css">
	.st0{fill:#282B3A;}
	.st1{fill:#F37326;}
	.st2{fill:#F15A24;}
	.st3{fill:#F48C29;}
	.st4{fill:#F6A52B;}
</style>
<g>
	<path class="st0" d="M21.5,5.8l-9-5c-0.6-0.3-1.3-0.3-2,0l-9,5c-0.6,0.4-1,1-1,1.7v10c0,0.7,0.4,1.4,1,1.7l9,5c0.6,0.3,1.3,0.3,2,0
		l9-5c0.6-0.4,1-1,1-1.7v-10C22.5,6.8,22.2,6.1,21.5,5.8z"/>
	<path class="st1" d="M5.1,7.1L4.1,7.7C3.7,7.9,3.5,8.3,3.5,8.6v7.8c0,0.4,0.2,0.7,0.5,0.9l1.1,0.6l5.4-5.4L5.1,7.1z"/>
	<path class="st2" d="M12,3.8c-0.3-0.2-0.7-0.2-1,0L6.5,6.4l5.1,5.1l5.1-5.1L12,3.8z"/>
	<path class="st3" d="M19,7.7L18,7.1l-5.4,5.4l5.4,5.4l1.1-0.6c0.3-0.2,0.5-0.5,0.5-0.9V8.6C19.5,8.3,19.4,7.9,19,7.7z"/>
	<path class="st4" d="M11.5,13.6l-5.1,5.1l4.6,2.6c0.3,0.2,0.7,0.2,1,0l4.6-2.6L11.5,13.6z"/>
	<g>
		<path class="st0" d="M27.9,20.5V4.3h4c0.7,0,1.4,0.1,2,0.2s1.1,0.4,1.5,0.7s0.8,0.7,1,1.3s0.3,1.2,0.3,2c0,2-0.8,3.1-2.4,3.3
			c1,0.2,1.7,0.6,2.1,1.3s0.7,1.6,0.7,2.8c0,1.5-0.4,2.7-1.2,3.5s-1.9,1.2-3.4,1.2H27.9z M30.8,10.9h0.9c0.9,0,1.5-0.2,1.8-0.6
			s0.5-1,0.5-1.9c0-0.5-0.1-0.8-0.2-1.1s-0.3-0.5-0.5-0.6s-0.5-0.2-0.8-0.3s-0.7-0.1-1.2-0.1h-0.4V10.9z M30.8,18.4h1.1
			c0.9,0,1.5-0.2,1.8-0.6s0.5-1.1,0.5-2c0-1-0.2-1.7-0.6-2.1s-1-0.7-1.9-0.7h-0.9V18.4z"/>
		<path class="st0" d="M40.6,20.7c-0.7,0-1.1-0.2-1.4-0.7s-0.5-1.1-0.5-1.8V8.9h2.7v8.7c0,0.4,0.1,0.6,0.2,0.8s0.3,0.3,0.6,0.3
			c0.3,0,0.7-0.2,1.2-0.5V8.9h2.7v11.6h-2.7v-1.1C42.5,20.3,41.5,20.7,40.6,20.7z"/>
		<path class="st0" d="M48.3,7.1V4.8h2.7v2.3H48.3z M48.3,20.5V8.9H51v11.6H48.3z"/>
		<path class="st0" d="M53.4,20.5V4.3h2.7v16.2H53.4z"/>
		<path class="st0" d="M60.9,20.7c-0.9,0-1.7-0.3-2.1-1s-0.7-1.7-0.7-3.2v-3.4c0-0.6,0-1.2,0.1-1.7s0.2-1,0.4-1.4s0.5-0.7,0.9-1
			s0.8-0.3,1.3-0.3c0.7,0,1.4,0.3,2.1,0.9V4.3h2.7v16.2h-2.7v-0.8C62.3,20.4,61.6,20.7,60.9,20.7z M61.8,18.7c0.3,0,0.7-0.1,1.1-0.3
			V11c-0.4-0.2-0.7-0.4-1.1-0.4c-0.4,0-0.6,0.2-0.8,0.5s-0.2,0.8-0.2,1.3v4.2c0,0.4,0,0.8,0.1,1s0.1,0.5,0.3,0.7
			C61.3,18.6,61.6,18.7,61.8,18.7z"/>
		<path class="st0" d="M67.9,20.5l0.3-16.2h3l2.3,11.4l2.4-11.4h3l0.3,16.2h-2.2L76.7,9.4l-2.3,11.2h-1.7L70.3,9.3l-0.2,11.2H67.9z"
			/>
		<path class="st0" d="M83.6,20.7c-0.7,0-1.3-0.3-1.8-0.9s-0.7-1.2-0.7-1.9c0-0.7,0.1-1.3,0.3-1.8s0.6-0.9,1.1-1.3s0.9-0.6,1.3-0.8
			s0.8-0.4,1.5-0.6c0.2-0.1,0.3-0.1,0.4-0.2v-1c0-0.5-0.1-0.9-0.2-1.1s-0.4-0.4-0.7-0.4c-0.6,0-0.9,0.4-0.9,1.3l0,0.7l-2.6-0.1
			c0,0,0-0.1,0-0.2s0-0.2,0-0.2c0.1-1.2,0.4-2.1,1.1-2.7s1.5-0.8,2.7-0.8c1.1,0,2,0.3,2.5,0.9s0.8,1.5,0.8,2.6v5.3
			c0,0.9,0.1,1.9,0.2,2.9h-2.5c-0.1-0.8-0.2-1.3-0.3-1.7c-0.2,0.5-0.4,1-0.8,1.3S84.2,20.7,83.6,20.7z M84.6,18.6
			c0.2,0,0.4-0.1,0.6-0.2s0.4-0.3,0.5-0.5v-3.2c-1.4,0.7-2,1.6-2,2.5c0,0.4,0.1,0.7,0.2,1S84.3,18.6,84.6,18.6z"/>
		<path class="st0" d="M93.4,20.7c-1,0-1.7-0.3-2.4-0.8s-1-1.3-1.3-2.3l2.1-0.8c0.1,0.6,0.3,1.1,0.6,1.5s0.6,0.5,1,0.5
			c0.3,0,0.5-0.1,0.7-0.3s0.3-0.4,0.3-0.7c0-0.4-0.4-0.9-1.1-1.6l-1.6-1.3c-1.1-1-1.7-2-1.6-3c0-0.9,0.3-1.7,0.9-2.2
			s1.4-0.8,2.3-0.8c0.9,0,1.6,0.3,2.2,0.8s0.9,1.3,1.1,2.2l-1.8,0.8c-0.2-1.2-0.7-1.8-1.4-1.8c-0.3,0-0.5,0.1-0.7,0.3
			s-0.3,0.4-0.3,0.7c0,0.4,0.3,0.8,1,1.4l1.6,1.4c0.3,0.2,0.5,0.4,0.7,0.6s0.4,0.4,0.6,0.7s0.3,0.6,0.4,0.9s0.1,0.6,0.1,1
			c0,1-0.3,1.7-1,2.3S94.4,20.7,93.4,20.7z"/>
		<path class="st0" d="M101.6,20.7c-0.5,0-1-0.1-1.3-0.3s-0.7-0.4-0.8-0.7S99,19,98.9,18.6s-0.1-0.8-0.1-1.4v-6.5h-1.1V8.9h1.1V5.5
			h2.7v3.4h1.8v1.8h-1.8v6.7c0,0.4,0.1,0.6,0.2,0.8s0.4,0.3,0.8,0.3c0.3,0,0.5,0,0.8-0.1v2.1C102.7,20.6,102,20.7,101.6,20.7z"/>
		<path class="st0" d="M108.5,20.7c-1.3,0-2.3-0.4-2.9-1.1s-0.9-1.8-0.9-3.2v-3.3c0-1.4,0.3-2.5,0.9-3.2s1.5-1.1,2.8-1.1
			c0.7,0,1.3,0.1,1.7,0.3s0.8,0.5,1.1,0.9s0.5,0.9,0.6,1.4s0.2,1.2,0.2,1.9v1.5h-4.6v1.7c0,0.2,0,0.4,0,0.6s0,0.3,0,0.5
			s0.1,0.3,0.1,0.4s0.1,0.2,0.2,0.3s0.2,0.2,0.3,0.2s0.3,0.1,0.4,0.1c0.4,0,0.6-0.1,0.8-0.4s0.2-0.6,0.2-1.1v-0.7h2.6V17
			c0,1.2-0.3,2.1-0.9,2.7S109.7,20.7,108.5,20.7z M107.5,13.5h2v-1.1c0-0.6-0.1-1-0.2-1.3s-0.4-0.4-0.8-0.4c-0.4,0-0.6,0.1-0.8,0.4
			s-0.2,0.8-0.2,1.6V13.5z"/>
		<path class="st0" d="M114,20.5V8.9h2.7v1.8c0.4-0.7,0.8-1.2,1.2-1.5s0.8-0.4,1.3-0.4c0.1,0,0.3,0,0.4,0v2.7
			c-0.3-0.1-0.6-0.2-0.9-0.2c-0.4,0-0.7,0.1-1,0.3s-0.6,0.5-0.9,0.9v7.9H114z"/>
	</g>
</g>
</svg>
