<?xml version="1.0" encoding="utf-8"?>
<!-- Generator: Adobe Illustrator 22.0.1, SVG Export Plug-In . SVG Version: 6.00 Build 0)  -->
<svg version="1.1" id="Layer_1" xmlns="http://www.w3.org/2000/svg" xmlns:xlink="http://www.w3.org/1999/xlink" x="0px" y="0px"
	 viewBox="0 0 104 25" style="enable-background:new 0 0 104 25;" xml:space="preserve">
<style type="text/css">
	.st0{fill:#282B3A;}
	.st1{fill:#45B886;}
	.st2{fill:#43B3AB;}
	.st3{fill:#4FB864;}
</style>
<g>
	<g>
		<path class="st0" d="M21.7,5.8l-9-5c-0.6-0.3-1.3-0.3-2,0l-9,5c-0.6,0.4-1,1-1,1.7v10c0,0.7,0.4,1.4,1,1.7l9,5
			c0.6,0.3,1.3,0.3,2,0l9-5c0.6-0.4,1-1,1-1.7v-10C22.7,6.8,22.3,6.1,21.7,5.8z"/>
		<path class="st1" d="M17.9,12.1l-6-3.3c-0.2-0.1-0.3-0.1-0.5,0l-6,3.3c-0.3,0.2-0.3,0.7,0,0.9l6,3.3c0.2,0.1,0.3,0.1,0.5,0l6-3.3
			C18.3,12.7,18.3,12.3,17.9,12.1z"/>
		<path class="st2" d="M12.2,3.8c-0.3-0.2-0.7-0.2-1,0L4.4,7.6l3,1.7l4.3-2.4l4.2,2.3l3-1.7L12.2,3.8z"/>
		<path class="st3" d="M11.2,21.2c0.3,0.2,0.7,0.2,1,0l6.8-3.8l-3-1.7l-4.3,2.4l-4.2-2.3l-3,1.7L11.2,21.2z"/>
	</g>
	<g>
		<path class="st0" d="M28.1,20.6V4.4H31v6.8h3.3V4.4h2.9v16.2h-2.9v-7.3H31v7.3H28.1z"/>
		<path class="st0" d="M43,20.8c-1.3,0-2.3-0.4-2.9-1.1s-0.9-1.8-0.9-3.2v-3.3c0-1.4,0.3-2.5,0.9-3.2s1.5-1.1,2.8-1.1
			c0.7,0,1.3,0.1,1.7,0.3s0.8,0.5,1.1,0.9s0.5,0.9,0.6,1.4s0.2,1.2,0.2,1.9V15H42v1.7c0,0.2,0,0.4,0,0.6s0,0.3,0,0.5
			s0.1,0.3,0.1,0.4s0.1,0.2,0.2,0.3s0.2,0.2,0.3,0.2s0.3,0.1,0.4,0.1c0.4,0,0.6-0.1,0.8-0.4s0.2-0.6,0.2-1.1v-0.7h2.6v0.5
			c0,1.2-0.3,2.1-0.9,2.7S44.2,20.8,43,20.8z M42,13.6h2v-1.1c0-0.6-0.1-1-0.2-1.3s-0.4-0.4-0.8-0.4c-0.4,0-0.6,0.1-0.8,0.4
			S42,12.1,42,12.8V13.6z"/>
		<path class="st0" d="M51.1,20.8c-0.9,0-1.7-0.3-2.1-1s-0.7-1.7-0.7-3.2v-3.4c0-0.6,0-1.2,0.1-1.7s0.2-1,0.4-1.4s0.5-0.7,0.9-1
			s0.8-0.3,1.3-0.3c0.7,0,1.4,0.3,2.1,0.9V4.4h2.7v16.2h-2.7v-0.8C52.5,20.4,51.8,20.8,51.1,20.8z M52.1,18.8c0.3,0,0.7-0.1,1.1-0.3
			v-7.4c-0.4-0.2-0.7-0.4-1.1-0.4c-0.4,0-0.6,0.2-0.8,0.5S51,12,51,12.5v4.2c0,0.4,0,0.8,0.1,1s0.1,0.5,0.3,0.7S51.8,18.8,52.1,18.8
			z"/>
		<path class="st0" d="M61.9,24.1c-0.3,0-0.6,0-0.9,0s-0.6,0-0.9-0.1s-0.6-0.1-0.9-0.1s-0.5-0.1-0.8-0.2s-0.5-0.2-0.6-0.3
			s-0.3-0.3-0.4-0.5s-0.2-0.4-0.2-0.7c0-1,0.5-1.8,1.6-2.5c-0.8-0.3-1.2-0.7-1.2-1.3c0-0.4,0.1-0.8,0.3-1.1s0.6-0.7,1.1-1.1
			c-0.4-0.3-0.8-0.7-1-1.2s-0.3-1.1-0.3-2c0-1.4,0.3-2.5,0.9-3.2s1.5-1,2.7-1c1.2,0,2,0.4,2.5,1.1c0.1-0.2,0.4-0.4,0.6-0.6
			s0.6-0.4,0.9-0.6l0.4-0.2l0.6,1.5c-0.2,0.1-0.6,0.2-1,0.4s-0.8,0.3-0.9,0.4c0.1,0.2,0.2,0.5,0.3,1s0.1,0.8,0.1,1.2
			c0,2.6-1.2,4-3.5,4c-0.2,0-0.4,0-0.8-0.1s-0.5-0.1-0.6-0.1c-0.2,0.3-0.3,0.6-0.3,0.8c0,0.3,0.4,0.4,1,0.5c0.1,0,0.4,0.1,1,0.1
			c0.6,0.1,1,0.1,1.1,0.1c1,0.1,1.7,0.4,2.1,0.8s0.7,1.1,0.7,2c0,1-0.3,1.8-0.9,2.3S63.3,24.1,61.9,24.1z M61.9,22.2
			c0.6,0,1-0.1,1.2-0.2s0.4-0.4,0.4-0.7c0-0.3-0.1-0.6-0.3-0.8s-0.5-0.3-1.1-0.3L60.4,20c-0.4,0.5-0.6,0.9-0.6,1.3
			c0,0.2,0.1,0.4,0.2,0.5s0.3,0.2,0.6,0.3S61.3,22.2,61.9,22.2z M61.4,15.3c0.5,0,0.8-0.2,0.9-0.5s0.2-0.9,0.2-1.8
			c0-0.9-0.1-1.5-0.2-1.8c-0.1-0.3-0.4-0.5-0.9-0.5c-0.5,0-0.8,0.2-0.9,0.5s-0.2,1-0.2,1.8c0,0.3,0,0.6,0,0.8s0,0.4,0.1,0.6
			s0.1,0.4,0.2,0.5s0.2,0.2,0.3,0.3S61.2,15.3,61.4,15.3z"/>
		<path class="st0" d="M70.7,20.8c-1.3,0-2.3-0.4-2.9-1.1S67,17.9,67,16.5v-3.3c0-1.4,0.3-2.5,0.9-3.2s1.5-1.1,2.8-1.1
			c0.7,0,1.3,0.1,1.7,0.3s0.8,0.5,1.1,0.9s0.5,0.9,0.6,1.4s0.2,1.2,0.2,1.9V15h-4.6v1.7c0,0.2,0,0.4,0,0.6s0,0.3,0,0.5
			s0.1,0.3,0.1,0.4s0.1,0.2,0.2,0.3s0.2,0.2,0.3,0.2s0.3,0.1,0.4,0.1c0.4,0,0.6-0.1,0.8-0.4s0.2-0.6,0.2-1.1v-0.7h2.6v0.5
			c0,1.2-0.3,2.1-0.9,2.7S71.9,20.8,70.7,20.8z M69.7,13.6h2v-1.1c0-0.6-0.1-1-0.2-1.3s-0.4-0.4-0.8-0.4c-0.4,0-0.6,0.1-0.8,0.4
			s-0.2,0.8-0.2,1.6V13.6z"/>
		<path class="st0" d="M76.2,20.6V4.4h2.7v5.8c0.9-0.9,1.9-1.3,2.9-1.3c0.3,0,0.5,0,0.7,0.1s0.4,0.2,0.5,0.4s0.3,0.3,0.4,0.6
			s0.2,0.4,0.2,0.7s0.1,0.5,0.1,0.7v9.2H81V12c0-0.4-0.1-0.6-0.2-0.8s-0.3-0.3-0.6-0.3c-0.4,0-0.8,0.2-1.3,0.6v9.1H76.2z"/>
		<path class="st0" d="M89.2,20.8c-1.2,0-2.2-0.4-2.8-1s-0.9-1.7-0.9-3v-3.8c0-1.3,0.3-2.3,0.9-3s1.5-1,2.8-1c1.3,0,2.2,0.4,2.8,1
			s0.9,1.7,0.9,3v3.8c0,1.3-0.3,2.3-0.9,3S90.4,20.8,89.2,20.8z M89.2,18.9c0.2,0,0.4,0,0.5-0.1s0.2-0.2,0.3-0.5s0.1-0.4,0.1-0.6
			s0-0.4,0-0.7v-4.2c0-0.2,0-0.4,0-0.6s0-0.3-0.1-0.5S90,11.3,90,11.2s-0.2-0.2-0.3-0.3s-0.3-0.1-0.5-0.1c-0.2,0-0.4,0.1-0.5,0.2
			s-0.2,0.3-0.3,0.5s-0.1,0.4-0.1,0.6s0,0.4,0,0.7v4.2c0,0.2,0,0.4,0,0.6s0,0.3,0.1,0.5s0.1,0.3,0.2,0.4s0.2,0.2,0.3,0.3
			S89,18.9,89.2,18.9z"/>
		<path class="st0" d="M98.8,24.1c-0.3,0-0.6,0-0.9,0s-0.6,0-0.9-0.1s-0.6-0.1-0.9-0.1s-0.5-0.1-0.8-0.2s-0.5-0.2-0.6-0.3
			s-0.3-0.3-0.4-0.5s-0.2-0.4-0.2-0.7c0-1,0.5-1.8,1.6-2.5c-0.8-0.3-1.2-0.7-1.2-1.3c0-0.4,0.1-0.8,0.3-1.1s0.6-0.7,1.1-1.1
			c-0.4-0.3-0.8-0.7-1-1.2s-0.3-1.1-0.3-2c0-1.4,0.3-2.5,0.9-3.2s1.5-1,2.7-1c1.2,0,2,0.4,2.5,1.1c0.1-0.2,0.4-0.4,0.6-0.6
			s0.6-0.4,0.9-0.6l0.4-0.2l0.6,1.5c-0.2,0.1-0.6,0.2-1,0.4s-0.8,0.3-0.9,0.4c0.1,0.2,0.2,0.5,0.3,1s0.1,0.8,0.1,1.2
			c0,2.6-1.2,4-3.5,4c-0.2,0-0.4,0-0.8-0.1s-0.5-0.1-0.6-0.1c-0.2,0.3-0.3,0.6-0.3,0.8c0,0.3,0.4,0.4,1,0.5c0.1,0,0.4,0.1,1,0.1
			s1,0.1,1.1,0.1c1,0.1,1.7,0.4,2.1,0.8s0.7,1.1,0.7,2c0,1-0.3,1.8-0.9,2.3S100.1,24.1,98.8,24.1z M98.8,22.2c0.6,0,1-0.1,1.2-0.2
			s0.4-0.4,0.4-0.7c0-0.3-0.1-0.6-0.3-0.8s-0.5-0.3-1.1-0.3L97.2,20c-0.4,0.5-0.6,0.9-0.6,1.3c0,0.2,0.1,0.4,0.2,0.5
			s0.3,0.2,0.6,0.3S98.2,22.2,98.8,22.2z M98.2,15.3c0.5,0,0.8-0.2,0.9-0.5s0.2-0.9,0.2-1.8c0-0.9-0.1-1.5-0.2-1.8s-0.4-0.5-0.9-0.5
			c-0.5,0-0.8,0.2-0.9,0.5s-0.2,1-0.2,1.8c0,0.3,0,0.6,0,0.8s0,0.4,0.1,0.6s0.1,0.4,0.2,0.5s0.2,0.2,0.3,0.3S98,15.3,98.2,15.3z"/>
	</g>
</g>
</svg>
