<?xml version="1.0" encoding="utf-8"?>
<!-- Generator: Adobe Illustrator 22.0.1, SVG Export Plug-In . SVG Version: 6.00 Build 0)  -->
<svg version="1.1" id="Layer_1" xmlns="http://www.w3.org/2000/svg" xmlns:xlink="http://www.w3.org/1999/xlink" x="0px" y="0px"
	 viewBox="0 0 80 25" style="enable-background:new 0 0 80 25;" xml:space="preserve">
<style type="text/css">
	.st0{fill:#152C53;}
	.st1{fill:#194073;}
	.st2{fill:#025291;}
	.st3{fill:#282B3A;}
</style>
<g>
	<g>
		<path class="st0" d="M2,8.4l9.3,5c0.4,0.2,0.9,0.2,1.3,0l9.3-5c0.8-0.5,0.8-1.7,0-2.2l-9.3-5c-0.4-0.2-0.9-0.2-1.3,0L2,6.2
			C1.2,6.7,1.2,7.9,2,8.4z"/>
		<path class="st1" d="M21.9,11.4l-1.6-0.9l-7.7,4.1c-0.4,0.2-0.9,0.2-1.3,0l-7.7-4.1L2,11.4c-0.8,0.5-0.8,1.7,0,2.2l9.3,5
			c0.4,0.2,0.9,0.2,1.3,0l9.3-5C22.7,13.1,22.7,11.9,21.9,11.4z"/>
		<path class="st2" d="M21.9,16.6l-1.6-0.9l-7.7,4.1c-0.4,0.2-0.9,0.2-1.3,0l-7.7-4.1L2,16.6c-0.8,0.5-0.8,1.7,0,2.2l9.3,5
			c0.4,0.2,0.9,0.2,1.3,0l9.3-5C22.7,18.3,22.7,17.1,21.9,16.6z"/>
	</g>
	<g>
		<g>
			<path class="st3" d="M29.1,4.5V1.6h3.4v2.9H29.1z M29.1,21V6.7h3.4V21H29.1z"/>
			<path class="st3" d="M35.2,21V6.7h3.4v1.4c1.2-1.1,2.3-1.6,3.5-1.6c0.8,0,1.4,0.3,1.8,0.9s0.6,1.3,0.6,2.2V21H41V10.4
				c0-0.5-0.1-0.8-0.2-1C40.7,9.1,40.5,9,40.1,9c-0.4,0-0.9,0.2-1.5,0.7V21H35.2z"/>
			<path class="st3" d="M51.3,21.3c-1.6,0-2.8-0.5-3.5-1.4c-0.7-0.9-1.1-2.2-1.1-4v-4.1c0-1.8,0.4-3.1,1.1-4
				c0.7-0.9,1.9-1.4,3.5-1.4c0.9,0,1.6,0.1,2.2,0.4c0.6,0.2,1,0.6,1.4,1.1c0.3,0.5,0.6,1.1,0.7,1.8c0.1,0.7,0.2,1.5,0.2,2.4v1.9H50
				v2.2c0,0.3,0,0.5,0,0.7c0,0.2,0,0.4,0,0.6c0,0.2,0.1,0.4,0.1,0.5c0.1,0.1,0.1,0.3,0.2,0.4c0.1,0.1,0.2,0.2,0.4,0.3
				c0.1,0.1,0.3,0.1,0.5,0.1c0.5,0,0.8-0.2,0.9-0.5c0.2-0.3,0.3-0.8,0.3-1.4v-0.8h3.2v0.6c0,1.5-0.4,2.6-1.1,3.4
				C53.8,20.9,52.7,21.3,51.3,21.3z M50,12.4h2.4V11c0-0.7-0.1-1.2-0.3-1.6C52,9.1,51.7,9,51.2,9c-0.5,0-0.8,0.2-1,0.5
				c-0.2,0.4-0.3,1-0.3,1.9V12.4z"/>
			<path class="st3" d="M61.2,21.3c-1.2,0-2-0.4-2.6-1.2c-0.6-0.8-0.9-2.1-0.9-4v-4.2c0-0.8,0.1-1.5,0.2-2.1
				c0.1-0.6,0.3-1.2,0.6-1.7c0.3-0.5,0.6-0.9,1.1-1.2c0.5-0.3,1-0.4,1.6-0.4c0.9,0,1.7,0.4,2.5,1.1V1h3.4v20h-3.4v-1
				C63,20.9,62.1,21.3,61.2,21.3z M62.4,18.9c0.4,0,0.8-0.1,1.3-0.4V9.3c-0.5-0.3-0.9-0.4-1.3-0.4c-0.5,0-0.8,0.2-1,0.6
				c-0.2,0.4-0.3,0.9-0.3,1.6v5.2c0,0.5,0,0.9,0.1,1.3c0.1,0.3,0.2,0.6,0.4,0.9C61.8,18.7,62.1,18.9,62.4,18.9z"/>
			<path class="st3" d="M74,21.3c-1.5,0-2.7-0.4-3.4-1.3c-0.8-0.9-1.1-2.1-1.1-3.7v-4.7c0-1.6,0.4-2.9,1.1-3.7
				c0.8-0.9,1.9-1.3,3.4-1.3c1.5,0,2.7,0.4,3.5,1.3c0.8,0.9,1.1,2.1,1.1,3.7v4.7c0,1.6-0.4,2.9-1.1,3.7C76.7,20.8,75.6,21.3,74,21.3
				z M74,18.9c0.3,0,0.5-0.1,0.7-0.2c0.2-0.1,0.3-0.3,0.4-0.6c0.1-0.3,0.1-0.5,0.2-0.7c0-0.2,0-0.5,0-0.9v-5.2c0-0.3,0-0.5,0-0.7
				c0-0.2,0-0.4-0.1-0.6c0-0.2-0.1-0.4-0.2-0.6c-0.1-0.1-0.2-0.2-0.4-0.3c-0.2-0.1-0.3-0.1-0.6-0.1c-0.3,0-0.5,0.1-0.7,0.2
				C73.2,9.2,73,9.4,73,9.6c-0.1,0.3-0.1,0.5-0.2,0.7c0,0.2,0,0.5,0,0.9v5.2c0,0.3,0,0.5,0,0.7c0,0.2,0,0.4,0.1,0.6
				c0,0.2,0.1,0.4,0.2,0.5c0.1,0.1,0.2,0.2,0.4,0.3C73.6,18.9,73.8,18.9,74,18.9z"/>
		</g>
	</g>
</g>
</svg>
