<?xml version="1.0" encoding="utf-8"?>
<!-- Generator: Adobe Illustrator 22.1.0, SVG Export Plug-In . SVG Version: 6.00 Build 0)  -->
<svg version="1.1" id="Layer_1" xmlns="http://www.w3.org/2000/svg" xmlns:xlink="http://www.w3.org/1999/xlink" x="0px" y="0px"
	 viewBox="0 0 48 48" style="enable-background:new 0 0 48 48;" xml:space="preserve">
<style type="text/css">
	.st0{fill:#152C53;}
	.st1{fill:#194073;}
	.st2{fill:#025291;}
</style>
<g>
	<path class="st0" d="M4.1,15.8l18.6,10c0.8,0.4,1.8,0.4,2.6,0l18.6-10c1.6-1,1.6-3.4,0-4.4l-18.6-10c-0.8-0.4-1.8-0.4-2.6,0
		l-18.6,10C2.4,12.3,2.4,14.7,4.1,15.8z"/>
	<path class="st1" d="M43.9,21.8l-3.2-1.7l-15.5,8.3c-0.8,0.4-1.8,0.4-2.6,0L7.3,20.1l-3.2,1.7c-1.6,1-1.6,3.4,0,4.4l18.6,10
		c0.8,0.4,1.8,0.4,2.6,0l18.6-10C45.6,25.2,45.6,22.8,43.9,21.8z"/>
	<path class="st2" d="M43.9,32.2l-3.2-1.7l-15.5,8.3c-0.8,0.4-1.8,0.4-2.6,0L7.3,30.5l-3.2,1.7c-1.6,1-1.6,3.4,0,4.4l18.6,10
		c0.8,0.4,1.8,0.4,2.6,0l18.6-10C45.6,35.7,45.6,33.3,43.9,32.2z"/>
</g>
</svg>
