<?xml version="1.0" encoding="utf-8"?>
<!-- Generator: Adobe Illustrator 22.0.1, SVG Export Plug-In . SVG Version: 6.00 Build 0)  -->
<svg version="1.1" id="Layer_1" xmlns="http://www.w3.org/2000/svg" xmlns:xlink="http://www.w3.org/1999/xlink" x="0px" y="0px"
	 viewBox="0 0 68.3 25" style="enable-background:new 0 0 68.3 25;" xml:space="preserve">
<style type="text/css">
	.st0{fill:#282B3A;}
	.st1{fill:#943B79;}
	.st2{fill:#852F65;}
	.st3{fill:#9263AB;}
	.st4{fill:#925091;}
</style>
<g>
	<g>
		<path class="st0" d="M22,5.8l-9-5c-0.6-0.3-1.3-0.3-2,0l-9,5c-0.6,0.4-1,1-1,1.7v10c0,0.7,0.4,1.4,1,1.7l9,5c0.6,0.3,1.3,0.3,2,0
			l9-5c0.6-0.4,1-1,1-1.7v-10C23.1,6.8,22.7,6.1,22,5.8z"/>
		<path class="st1" d="M4.1,14.8v1.6c0,0.4,0.2,0.7,0.5,0.9l7,3.9c0.2,0.1,0.3,0.1,0.5,0.1v-5.1c-0.1,0-0.2,0-0.4,0L4.1,14.8z"/>
		<path class="st2" d="M12.6,21.2l7-3.9c0.3-0.2,0.5-0.5,0.5-0.9v-1.6l-7.6,1.4c-0.1,0-0.2,0-0.4,0v5.1
			C12.2,21.3,12.4,21.3,12.6,21.2z"/>
		<path class="st3" d="M11.6,3.8l-7,3.9C4.3,7.9,4.1,8.3,4.1,8.6v1.6l7.6-1.4c0.1,0,0.2,0,0.4,0V3.7C11.9,3.7,11.7,3.7,11.6,3.8z"/>
		<path class="st4" d="M20.1,10.3V8.6c0-0.4-0.2-0.7-0.5-0.9l-7-3.9c-0.2-0.1-0.3-0.1-0.5-0.1v5.1c0.1,0,0.2,0,0.4,0L20.1,10.3z"/>
		<path class="st1" d="M12.4,14.7l7.6-1.4v-1.5l-7.6-1.4c-0.1,0-0.2,0-0.4,0v4.4C12.2,14.7,12.3,14.7,12.4,14.7z"/>
		<path class="st4" d="M4.1,11.8v1.5l7.6,1.4c0.1,0,0.2,0,0.4,0v-4.4c-0.1,0-0.2,0-0.4,0L4.1,11.8z"/>
	</g>
	<g>
		<g>
			<path class="st0" d="M32.8,20.8c-1.7,0-2.9-0.5-3.6-1.4c-0.7-0.9-1.1-2.2-1.1-4v-6c0-0.9,0.1-1.6,0.2-2.2
				c0.2-0.6,0.4-1.2,0.8-1.6c0.4-0.5,0.8-0.8,1.5-1c0.6-0.2,1.3-0.3,2.2-0.3c1.7,0,2.9,0.4,3.6,1.3c0.7,0.9,1.1,2.2,1.1,3.9v6
				c0,0.8-0.1,1.6-0.2,2.2c-0.2,0.6-0.4,1.2-0.8,1.7c-0.4,0.5-0.8,0.8-1.5,1.1C34.3,20.7,33.6,20.8,32.8,20.8z M32,18.5
				c0.2,0.1,0.5,0.1,0.7,0.1s0.5,0,0.7-0.1c0.2-0.1,0.4-0.2,0.5-0.3s0.2-0.3,0.3-0.5c0.1-0.2,0.1-0.4,0.1-0.7c0-0.2,0-0.5,0-0.8V8.8
				c0-0.4,0-0.7-0.1-1c0-0.3-0.1-0.5-0.2-0.7c-0.1-0.2-0.3-0.4-0.5-0.5c-0.2-0.1-0.5-0.2-0.9-0.2s-0.6,0.1-0.9,0.2
				c-0.2,0.1-0.4,0.3-0.5,0.5c-0.1,0.2-0.2,0.5-0.2,0.7c0,0.3-0.1,0.6-0.1,1v7.4c0,0.3,0,0.6,0,0.8c0,0.2,0.1,0.4,0.1,0.7
				c0.1,0.2,0.2,0.4,0.3,0.5S31.8,18.4,32,18.5z"/>
			<path class="st0" d="M42.7,20.7c-0.5,0-1-0.1-1.3-0.3c-0.4-0.2-0.7-0.4-0.8-0.7c-0.2-0.3-0.3-0.7-0.4-1.1s-0.1-0.8-0.1-1.4v-6.5
				h-1.1V9h1.1V5.6h2.7V9h1.8v1.8h-1.8v6.7c0,0.4,0.1,0.6,0.2,0.8s0.4,0.3,0.8,0.3c0.3,0,0.5,0,0.8-0.1v2.1
				C43.8,20.7,43.1,20.8,42.7,20.7z"/>
			<path class="st0" d="M49.3,20.7c-0.5,0-1-0.1-1.3-0.3c-0.4-0.2-0.7-0.4-0.8-0.7c-0.2-0.3-0.3-0.7-0.4-1.1s-0.1-0.8-0.1-1.4v-6.5
				h-1.1V9h1.1V5.6h2.7V9H51v1.8h-1.8v6.7c0,0.4,0.1,0.6,0.2,0.8s0.4,0.3,0.8,0.3c0.3,0,0.5,0,0.8-0.1v2.1
				C50.4,20.7,49.8,20.8,49.3,20.7z"/>
			<path class="st0" d="M56.2,20.8c-1.3,0-2.3-0.4-2.9-1.1c-0.6-0.7-0.9-1.8-0.9-3.2v-3.3c0-1.4,0.3-2.5,0.9-3.2
				c0.6-0.7,1.5-1.1,2.8-1.1c0.7,0,1.3,0.1,1.7,0.3c0.5,0.2,0.8,0.5,1.1,0.9s0.5,0.9,0.6,1.4s0.2,1.2,0.2,1.9v1.5h-4.6v1.7
				c0,0.2,0,0.4,0,0.6c0,0.1,0,0.3,0,0.5c0,0.2,0.1,0.3,0.1,0.4c0,0.1,0.1,0.2,0.2,0.3s0.2,0.2,0.3,0.2c0.1,0,0.3,0.1,0.4,0.1
				c0.4,0,0.6-0.1,0.8-0.4c0.1-0.3,0.2-0.6,0.2-1.1v-0.7h2.6v0.5c0,1.2-0.3,2.1-0.9,2.7S57.4,20.8,56.2,20.8z M55.2,13.6h2v-1.1
				c0-0.6-0.1-1-0.2-1.3s-0.4-0.4-0.8-0.4c-0.4,0-0.6,0.1-0.8,0.4c-0.1,0.3-0.2,0.8-0.2,1.6V13.6z"/>
			<path class="st0" d="M61.7,20.6V9h2.7v1.8c0.4-0.7,0.8-1.2,1.2-1.5C66,9,66.4,8.9,66.9,8.9c0.1,0,0.3,0,0.4,0v2.7
				c-0.3-0.1-0.6-0.2-0.9-0.2c-0.4,0-0.7,0.1-1,0.3c-0.3,0.2-0.6,0.5-0.9,0.9v7.9H61.7z"/>
		</g>
	</g>
</g>
</svg>
