<?xml version="1.0" encoding="utf-8"?>
<!-- Generator: Adobe Illustrator 22.0.1, SVG Export Plug-In . SVG Version: 6.00 Build 0)  -->
<svg version="1.1" id="Layer_1" xmlns="http://www.w3.org/2000/svg" xmlns:xlink="http://www.w3.org/1999/xlink" x="0px" y="0px"
	 viewBox="0 0 80 25" style="enable-background:new 0 0 80 25;" xml:space="preserve">
<style type="text/css">
	.st0{fill:#282B3A;}
	.st1{fill:#3FA9F5;}
	.st2{fill:#1696F0;}
	.st3{fill:#37BBF7;}
	.st4{fill:#79BFF2;}
</style>
<g>
	<path class="st0" d="M21.6,5.8l-9-5c-0.6-0.3-1.3-0.3-2,0l-9,5c-0.6,0.4-1,1-1,1.7v10c0,0.7,0.4,1.4,1,1.7l9,5c0.6,0.3,1.3,0.3,2,0
		l9-5c0.6-0.4,1-1,1-1.7v-10C22.7,6.8,22.3,6.1,21.6,5.8z"/>
	<path class="st1" d="M14.9,10.4l-3-1.7c-0.2-0.1-0.3-0.1-0.5,0l-3,1.7c-0.2,0.1-0.3,0.3-0.3,0.4v3.3c0,0.2,0.1,0.3,0.3,0.4l3,1.7
		c0.2,0.1,0.3,0.1,0.5,0l3-1.7c0.2-0.1,0.3-0.3,0.3-0.4v-3.3C15.2,10.7,15.1,10.5,14.9,10.4z"/>
	<path class="st2" d="M6.7,15.3v-0.6v-4.1l-3-1.7v7.4c0,0.4,0.2,0.7,0.5,0.9l6.7,3.8v-3.4L6.7,15.3z"/>
	<path class="st3" d="M12.1,3.8c-0.3-0.2-0.7-0.2-1,0L4.4,7.6l3,1.7l4.3-2.4l4.2,2.3l3-1.7L12.1,3.8z"/>
	<path class="st4" d="M16.7,10.5v4.2v0.6l-4.3,2.4V21l6.7-3.8c0.3-0.2,0.5-0.5,0.5-0.9V8.8L16.7,10.5z"/>
	<g>
		<path class="st0" d="M28,20.6V4.4h4.7c2.8,0,4.1,1.5,4.1,4.6c0,1.5-0.4,2.6-1.1,3.3s-1.8,1-3.2,1h-1.5v7.2H28z M30.9,11.3h0.9
			c0.8,0,1.4-0.2,1.7-0.5S34,9.8,34,9c0-0.5,0-0.9-0.1-1.2s-0.1-0.5-0.3-0.7S33.3,6.7,33,6.6s-0.7-0.1-1.1-0.1h-1V11.3z"/>
		<path class="st0" d="M38.2,20.6V9h2.7v1.8c0.4-0.7,0.8-1.2,1.2-1.5s0.8-0.4,1.3-0.4c0.1,0,0.3,0,0.4,0v2.7
			c-0.3-0.1-0.6-0.2-0.9-0.2c-0.4,0-0.7,0.1-1,0.3s-0.6,0.5-0.9,0.9v7.9H38.2z"/>
		<path class="st0" d="M48.6,20.8c-1.2,0-2.2-0.4-2.8-1s-0.9-1.7-0.9-3v-3.8c0-1.3,0.3-2.3,0.9-3s1.5-1,2.8-1c1.3,0,2.2,0.4,2.8,1
			s0.9,1.7,0.9,3v3.8c0,1.3-0.3,2.3-0.9,3S49.8,20.8,48.6,20.8z M48.6,18.8c0.2,0,0.4,0,0.5-0.1s0.2-0.2,0.3-0.5s0.1-0.4,0.1-0.6
			s0-0.4,0-0.7v-4.2c0-0.2,0-0.4,0-0.6s0-0.3-0.1-0.5s-0.1-0.3-0.2-0.4s-0.2-0.2-0.3-0.3s-0.3-0.1-0.5-0.1c-0.2,0-0.4,0.1-0.5,0.2
			s-0.2,0.3-0.3,0.5s-0.1,0.4-0.1,0.6s0,0.4,0,0.7v4.2c0,0.2,0,0.4,0,0.6s0,0.3,0.1,0.5s0.1,0.3,0.2,0.4s0.2,0.2,0.3,0.3
			S48.4,18.8,48.6,18.8z"/>
		<path class="st0" d="M58.4,20.8c-1.5,0-2.6-0.5-3.3-1.4s-1-2.4-1-4.2V9.9c0-0.9,0.1-1.7,0.2-2.4s0.4-1.3,0.7-1.8s0.8-0.9,1.4-1.1
			s1.3-0.4,2.2-0.4c1.6,0,2.8,0.4,3.4,1.2s1,2,1,3.6v0.8h-2.8V8.9c0-0.4,0-0.7,0-0.9s-0.1-0.5-0.1-0.7s-0.2-0.4-0.3-0.5
			s-0.3-0.2-0.5-0.3S59,6.4,58.7,6.4c-0.2,0-0.4,0-0.6,0.1s-0.3,0.1-0.4,0.2S57.5,6.9,57.4,7s-0.1,0.3-0.2,0.4
			c0,0.1-0.1,0.3-0.1,0.5s0,0.4,0,0.6s0,0.4,0,0.7v6.5c0,1,0.1,1.7,0.4,2.1s0.7,0.7,1.4,0.7c0.4,0,0.6-0.1,0.9-0.2s0.4-0.3,0.6-0.6
			s0.2-0.6,0.3-0.9s0.1-0.8,0.1-1.3v-1.3h-1.7v-1.9h4.4v8.2h-1.9l-0.2-1.6C60.6,20.2,59.7,20.8,58.4,20.8z"/>
		<path class="st0" d="M68.8,20.8c-1.3,0-2.3-0.4-2.9-1.1s-0.9-1.8-0.9-3.2v-3.3c0-1.4,0.3-2.5,0.9-3.2s1.5-1.1,2.8-1.1
			c0.7,0,1.3,0.1,1.7,0.3s0.8,0.5,1.1,0.9s0.5,0.9,0.6,1.4s0.2,1.2,0.2,1.9v1.5h-4.6v1.7c0,0.2,0,0.4,0,0.6s0,0.3,0,0.5
			s0.1,0.3,0.1,0.4s0.1,0.2,0.2,0.3s0.2,0.2,0.3,0.2s0.3,0.1,0.4,0.1c0.4,0,0.6-0.1,0.8-0.4s0.2-0.6,0.2-1.1v-0.7h2.6v0.5
			c0,1.2-0.3,2.1-0.9,2.7S70,20.8,68.8,20.8z M67.8,13.6h2v-1.1c0-0.6-0.1-1-0.2-1.3s-0.4-0.4-0.8-0.4c-0.4,0-0.6,0.1-0.8,0.4
			s-0.2,0.8-0.2,1.6V13.6z"/>
		<path class="st0" d="M77.5,20.7c-0.5,0-1-0.1-1.3-0.3s-0.7-0.4-0.8-0.7s-0.3-0.7-0.4-1.1s-0.1-0.8-0.1-1.4v-6.5h-1.1V9h1.1V5.6
			h2.7V9h1.8v1.8h-1.8v6.7c0,0.4,0.1,0.6,0.2,0.8s0.4,0.3,0.8,0.3c0.3,0,0.5,0,0.8-0.1v2.1C78.6,20.7,78,20.8,77.5,20.7z"/>
	</g>
</g>
</svg>
