<?xml version="1.0" encoding="utf-8"?>
<!-- Generator: Adobe Illustrator 22.1.0, SVG Export Plug-In . SVG Version: 6.00 Build 0)  -->
<svg version="1.1" id="Layer_1" xmlns="http://www.w3.org/2000/svg" xmlns:xlink="http://www.w3.org/1999/xlink" x="0px" y="0px"
	 viewBox="0 0 48 48" style="enable-background:new 0 0 48 48;" xml:space="preserve">
<style type="text/css">
	.st0{fill:#282B3A;}
	.st1{fill:#CB1462;}
	.st2{fill:#F22C8F;}
</style>
<g>
	<path class="st0" d="M43.1,11.1L25.9,1.5c-1.2-0.6-2.6-0.6-3.7,0L4.9,11.1c-1.2,0.7-2,2-2,3.3v19.1c0,1.4,0.8,2.7,2,3.3l17.2,9.6
		c1.2,0.6,2.6,0.6,3.7,0l17.2-9.6c1.2-0.7,2-2,2-3.3V14.5C45.1,13.1,44.3,11.8,43.1,11.1z"/>
	<path class="st1" d="M38.3,26.4l-4.8-2.7l-8.6-4.8c-0.6-0.3-1.3-0.3-1.9,0l-8.6,4.8l-4.8,2.7c-0.6,0.3-1,1-1,1.7v3.4
		c0,0.7,0.4,1.3,1,1.7l4.8,2.7l8.6,4.8c0.6,0.3,1.3,0.3,1.9,0l8.6-4.8l4.8-2.7c0.6-0.3,1-1,1-1.7V28C39.3,27.4,38.9,26.7,38.3,26.4z
		"/>
	<path class="st0" d="M32.1,28.9l-7.3-3.7c-0.5-0.2-1.1-0.2-1.5,0l-7.3,3.7c-0.7,0.4-0.7,1.3,0,1.7l7.3,3.7c0.5,0.2,1.1,0.2,1.5,0
		l7.3-3.7C32.8,30.2,32.8,29.3,32.1,28.9z"/>
	<path class="st2" d="M38.3,14.9l-4.8-2.7l-8.6-4.8c-0.6-0.3-1.3-0.3-1.9,0l-8.6,4.8l-4.8,2.7c-0.6,0.3-1,1-1,1.7V20
		c0,0.7,0.4,1.3,1,1.7l4.8,2.7l8.6,4.8c0.6,0.3,1.3,0.3,1.9,0l8.6-4.8l4.8-2.7c0.6-0.3,1-1,1-1.7v-3.4
		C39.3,15.9,38.9,15.2,38.3,14.9z"/>
	<path class="st0" d="M32.1,17.4l-7.3-3.7c-0.5-0.2-1.1-0.2-1.5,0l-7.3,3.7c-0.7,0.4-0.7,1.3,0,1.7l7.3,3.7c0.5,0.2,1.1,0.2,1.5,0
		l7.3-3.7C32.8,18.7,32.8,17.8,32.1,17.4z"/>
</g>
</svg>
