<?xml version="1.0" encoding="utf-8"?>
<!-- Generator: Adobe Illustrator 22.0.1, SVG Export Plug-In . SVG Version: 6.00 Build 0)  -->
<svg version="1.1" id="Layer_1" xmlns="http://www.w3.org/2000/svg" xmlns:xlink="http://www.w3.org/1999/xlink" x="0px" y="0px"
	 viewBox="0 0 71.6 25" style="enable-background:new 0 0 71.6 25;" xml:space="preserve">
<style type="text/css">
	.st0{fill:#282B3A;}
	.st1{fill:#CB1462;}
	.st2{fill:#F22C8F;}
</style>
<g>
	<path class="st0" d="M22.1,5.8l-9-5c-0.6-0.3-1.3-0.3-2,0l-9,5c-0.6,0.4-1,1-1,1.7v10c0,0.7,0.4,1.4,1,1.7l9,5c0.6,0.3,1.3,0.3,2,0
		l9-5c0.6-0.4,1-1,1-1.7v-10C23.2,6.8,22.8,6.1,22.1,5.8z"/>
	<path class="st1" d="M19.6,13.7l-2.5-1.4l-4.5-2.5c-0.3-0.2-0.7-0.2-1,0l-4.5,2.5l-2.5,1.4c-0.3,0.2-0.5,0.5-0.5,0.9v1.8
		c0,0.4,0.2,0.7,0.5,0.9l2.5,1.4l4.5,2.5c0.3,0.2,0.7,0.2,1,0l4.5-2.5l2.5-1.4c0.3-0.2,0.5-0.5,0.5-0.9v-1.8
		C20.2,14.3,20,13.9,19.6,13.7z"/>
	<path class="st0" d="M16.4,15.1l-3.8-1.9c-0.2-0.1-0.6-0.1-0.8,0l-3.8,1.9c-0.4,0.2-0.4,0.7,0,0.9l3.8,1.9c0.2,0.1,0.6,0.1,0.8,0
		l3.8-1.9C16.7,15.7,16.7,15.3,16.4,15.1z"/>
	<path class="st2" d="M19.6,7.7l-2.5-1.4l-4.5-2.5c-0.3-0.2-0.7-0.2-1,0L7.2,6.4L4.7,7.7C4.3,7.9,4.2,8.3,4.2,8.6v1.8
		c0,0.4,0.2,0.7,0.5,0.9l2.5,1.4l4.5,2.5c0.3,0.2,0.7,0.2,1,0l4.5-2.5l2.5-1.4c0.3-0.2,0.5-0.5,0.5-0.9V8.6
		C20.2,8.3,20,7.9,19.6,7.7z"/>
	<path class="st0" d="M16.4,9.1l-3.8-1.9C12.3,7,12,7,11.7,7.1L7.9,9.1c-0.4,0.2-0.4,0.7,0,0.9l3.8,1.9c0.2,0.1,0.6,0.1,0.8,0
		l3.8-1.9C16.7,9.7,16.7,9.3,16.4,9.1z"/>
	<g>
		<path class="st0" d="M28.5,20.6V4.4h3.7c0.9,0,1.6,0.1,2.2,0.2S35.5,5,36,5.3s0.8,0.8,1,1.3s0.3,1.3,0.3,2.1c0,1-0.2,1.8-0.5,2.5
			s-0.8,1.1-1.5,1.4l2.2,8h-3l-1.9-7.4h-1.3v7.4H28.5z M31.4,11.3h0.7c0.9,0,1.5-0.2,1.9-0.6s0.6-1,0.6-1.9c0-0.9-0.2-1.5-0.5-1.9
			s-0.9-0.6-1.8-0.6h-0.9V11.3z"/>
		<path class="st0" d="M42.9,20.8c-1.2,0-2.2-0.4-2.8-1.1s-0.9-1.7-0.9-3v-3.8c0-1.3,0.3-2.3,0.9-3s1.5-1,2.8-1c1.3,0,2.2,0.4,2.8,1
			s0.9,1.7,0.9,3v3.8c0,1.3-0.3,2.3-0.9,3S44.1,20.8,42.9,20.8z M42.9,18.9c0.2,0,0.4,0,0.5-0.1s0.2-0.2,0.3-0.5s0.1-0.4,0.1-0.6
			s0-0.4,0-0.7v-4.2c0-0.2,0-0.4,0-0.6s0-0.3-0.1-0.5s-0.1-0.3-0.2-0.4s-0.2-0.2-0.3-0.3s-0.3-0.1-0.5-0.1c-0.2,0-0.4,0.1-0.5,0.2
			s-0.2,0.3-0.3,0.5s-0.1,0.4-0.1,0.6s0,0.4,0,0.7v4.2c0,0.2,0,0.4,0,0.6s0,0.3,0.1,0.5s0.1,0.3,0.2,0.4s0.2,0.2,0.3,0.3
			S42.7,18.9,42.9,18.9z"/>
		<path class="st0" d="M48.5,20.6V9h2.6v1c0.8-0.8,1.7-1.2,2.7-1.2c1,0,1.6,0.5,1.9,1.4c0.8-0.9,1.8-1.4,2.9-1.4
			c0.6,0,1.2,0.2,1.6,0.7s0.6,1.1,0.6,2v9h-2.6v-8.8c0-0.4-0.1-0.7-0.2-0.9s-0.3-0.3-0.6-0.3c-0.5,0-1,0.2-1.4,0.7c0,0,0,0.1,0,0.1
			s0,0.1,0,0.1v9h-2.6v-8.8c0-0.4-0.1-0.7-0.2-0.9s-0.3-0.3-0.6-0.3c-0.5,0-0.9,0.2-1.4,0.7v9.3H48.5z"/>
		<path class="st0" d="M62.8,24.4V9h2.7v0.9c0.7-0.7,1.5-1.1,2.3-1.1c0.4,0,0.8,0.1,1.1,0.3s0.6,0.4,0.7,0.7s0.3,0.6,0.4,1
			s0.2,0.7,0.2,1s0.1,0.6,0.1,1v3.8c0,0.6,0,1.1-0.1,1.6s-0.3,0.9-0.5,1.3s-0.5,0.7-0.9,0.9c-0.4,0.2-0.8,0.3-1.3,0.3
			c-0.7,0-1.4-0.3-2.2-1v4.7H62.8z M66.7,18.8c0.2,0,0.4-0.1,0.5-0.2s0.2-0.3,0.3-0.5s0.1-0.4,0.1-0.7s0-0.5,0-0.8v-4
			c0-0.3,0-0.5,0-0.7s-0.1-0.4-0.2-0.6s-0.2-0.3-0.3-0.4s-0.3-0.1-0.5-0.1c-0.4,0-0.7,0.2-1.1,0.5v7.2
			C65.9,18.7,66.3,18.8,66.7,18.8z"/>
	</g>
</g>
</svg>
