<?xml version="1.0" encoding="utf-8"?>
<!-- Generator: Adobe Illustrator 22.0.1, SVG Export Plug-In . SVG Version: 6.00 Build 0)  -->
<svg version="1.1" id="Layer_1" xmlns="http://www.w3.org/2000/svg" xmlns:xlink="http://www.w3.org/1999/xlink" x="0px" y="0px"
	 viewBox="0 0 76.1 25" style="enable-background:new 0 0 76.1 25;" xml:space="preserve">
<style type="text/css">
	.st0{fill:#282B3A;}
	.st1{fill:#B8B9C1;}
	.st2{fill:#8689A1;}
</style>
<g>
	<path class="st0" d="M21.5,5.8l-9-5c-0.6-0.3-1.3-0.3-2,0l-9,5c-0.6,0.4-1,1-1,1.7v10c0,0.7,0.4,1.4,1,1.7l9,5c0.6,0.3,1.3,0.3,2,0
		l9-5c0.6-0.4,1-1,1-1.7v-10C22.5,6.8,22.1,6.1,21.5,5.8z"/>
	<path class="st1" d="M16.5,10.5v4.2v0.6l-4.2,2.4V21l6.7-3.8c0.3-0.2,0.5-0.5,0.5-0.9V8.8L16.5,10.5z"/>
	<path class="st2" d="M4,7.7C3.7,7.9,3.5,8.3,3.5,8.6v7.6l3-1.7v-4.2V9.7l4.3-2.4V4L4,7.7z"/>
	<g>
		<path class="st0" d="M32.2,20.7c-0.7,0-1.3-0.1-1.9-0.3s-1-0.4-1.3-0.7s-0.6-0.7-0.8-1.2s-0.3-1-0.4-1.6s-0.1-1.2-0.1-1.9V4.3h2.9
			v11.1c0,0.4,0,0.7,0,1s0.1,0.5,0.1,0.8s0.2,0.5,0.3,0.7s0.3,0.3,0.5,0.4s0.5,0.2,0.8,0.2c0.3,0,0.6-0.1,0.8-0.2s0.4-0.3,0.5-0.4
			s0.2-0.4,0.3-0.7s0.1-0.6,0.1-0.8s0-0.6,0-1V4.3h2.9v10.8c0,0.7,0,1.4-0.1,1.9s-0.2,1.1-0.4,1.6s-0.5,0.9-0.8,1.2
			s-0.8,0.5-1.3,0.7S33,20.7,32.2,20.7z"/>
		<path class="st0" d="M39.1,20.5V4.3h4.7c2.8,0,4.1,1.5,4.1,4.6c0,1.5-0.4,2.6-1.1,3.3s-1.8,1-3.2,1H42v7.2H39.1z M42,11.2H43
			c0.8,0,1.4-0.2,1.7-0.5s0.4-0.9,0.4-1.8c0-0.5,0-0.9-0.1-1.2S44.9,7.2,44.8,7s-0.4-0.4-0.6-0.5S43.5,6.4,43,6.4h-1V11.2z"/>
		<path class="st0" d="M51.4,20.7c-0.7,0-1.3-0.3-1.8-0.9s-0.7-1.2-0.7-1.9c0-0.7,0.1-1.3,0.3-1.8s0.6-0.9,1.1-1.3s0.9-0.6,1.3-0.8
			s0.8-0.4,1.5-0.6c0.2-0.1,0.3-0.1,0.4-0.2v-1c0-0.5-0.1-0.9-0.2-1.1s-0.4-0.4-0.7-0.4c-0.6,0-0.9,0.4-0.9,1.3l0,0.7L49,12.7
			c0,0,0-0.1,0-0.2s0-0.2,0-0.2c0.1-1.2,0.4-2.1,1.1-2.7s1.5-0.8,2.7-0.8c1.1,0,2,0.3,2.5,0.9s0.8,1.5,0.8,2.6v5.3
			c0,0.9,0.1,1.9,0.2,2.9h-2.5c-0.1-0.8-0.2-1.3-0.3-1.7c-0.2,0.5-0.4,1-0.8,1.3S52,20.7,51.4,20.7z M52.4,18.6
			c0.2,0,0.4-0.1,0.6-0.2s0.4-0.3,0.5-0.5v-3.2c-1.4,0.7-2,1.6-2,2.5c0,0.4,0.1,0.7,0.2,1S52.1,18.6,52.4,18.6z"/>
		<path class="st0" d="M61.7,20.7c-1.3,0-2.2-0.4-2.8-1.1S58,17.8,58,16.4V13c0-1.4,0.3-2.5,0.9-3.2s1.5-1.1,2.8-1.1
			c1.2,0,2.1,0.3,2.7,0.9c0.6,0.6,0.8,1.5,0.8,2.7v0.9h-2.5v-1c0-0.6-0.1-1-0.2-1.2s-0.4-0.3-0.7-0.3c-0.4,0-0.6,0.1-0.8,0.4
			s-0.2,0.8-0.2,1.5v4.2c0,0.7,0.1,1.2,0.2,1.5s0.4,0.4,0.8,0.4c0.4,0,0.6-0.1,0.7-0.4s0.2-0.6,0.2-1.1V16h2.5v1.1
			c0,1.2-0.3,2.1-0.9,2.7C63.8,20.4,62.9,20.7,61.7,20.7z"/>
		<path class="st0" d="M67,20.5V4.3h2.7v9.3L72.6,9l3,0l-2.8,4.6l2.8,6.9h-2.9l-2.1-5.7l-0.9,1.3v4.4H67z"/>
	</g>
</g>
</svg>
