<?xml version="1.0" encoding="utf-8"?>
<!-- Generator: Adobe Illustrator 22.1.0, SVG Export Plug-In . SVG Version: 6.00 Build 0)  -->
<svg version="1.1" id="Layer_1" xmlns="http://www.w3.org/2000/svg" xmlns:xlink="http://www.w3.org/1999/xlink" x="0px" y="0px"
	 viewBox="0 0 100 100" style="enable-background:new 0 0 100 100;" xml:space="preserve">
<style type="text/css">
	.st0{fill:#282B3A;}
	.st1{fill:#FFFFFF;stroke:#282B3A;stroke-miterlimit:10;}
	.st2{fill:#FFFFFF;}
</style>
<g>
	<g>
		<path class="st0" d="M11.7,68.5L11.7,68.5C11.7,68.5,11.7,68.5,11.7,68.5l2.7-10.9c0,0,0,0,0.1-0.1c0,0,0.1,0,0.1,0l10.7,3.2
			c0.1,0,0.1,0.2,0.1,0.2c0,0.1,0,0.1-0.1,0.1L23,62.4l-0.9,0.5l0.5,0.9l6.2,10.9l-7,4l-6.2-10.9l-0.5-0.9l-0.9,0.5l-2.3,1.3
			c0,0-0.1,0-0.1,0C11.8,68.7,11.7,68.6,11.7,68.5 M10.7,68.5c0,0.8,0.9,1.5,1.7,1l2.3-1.3L21.4,80l8.7-5l-6.7-11.8l2.3-1.3
			c0.4-0.2,0.6-0.6,0.6-1c0-0.5-0.3-1-0.8-1.2l-10.7-3.2c-0.6-0.2-1.3,0.2-1.4,0.8l-2.7,10.9C10.7,68.4,10.7,68.5,10.7,68.5
			L10.7,68.5z"/>
	</g>
	<g>
		<path class="st0" d="M71.1,75.3l6.4-10.7l0.5-0.9l-0.9-0.5l-2.3-1.4c0,0-0.1,0-0.1-0.1c0,0,0-0.1,0.1-0.2l10.8-3c0,0,0,0,0.1,0
			c0,0,0.1,0,0.1,0.1l2.4,10.9c0,0,0,0,0,0c0,0.1-0.1,0.1-0.1,0.1c-0.1,0-0.1,0-0.1,0l-2.3-1.4l-0.9-0.5l-0.5,0.9l-6.4,10.7
			L71.1,75.3 M69.7,75.7l8.6,5.2l7-11.6l2.3,1.4c0.8,0.5,1.8-0.2,1.8-1c0-0.1,0-0.2,0-0.3l-2.4-10.9c-0.1-0.6-0.8-1-1.4-0.9l-10.8,3
			c-0.6,0.2-0.9,0.7-0.9,1.2c0,0.4,0.2,0.8,0.5,1l2.3,1.4L69.7,75.7L69.7,75.7z"/>
	</g>
	<g>
		<path class="st1" d="M35.8,77.9c0-0.8-0.4-1.5-1.1-2l-0.1-0.1l-5.2-2.6c-0.5-0.3-1.1-0.5-1.7-0.5c-0.6,0-1.2,0.2-1.7,0.5l-5.2,2.6
			l-0.1,0.1c-0.7,0.5-1,1.2-1,2l0,6.5c0,0.8,0.4,1.5,1,2l0.1,0.1l5.2,2.6c0.5,0.3,1.1,0.5,1.7,0.5c0.6,0,1.2-0.2,1.7-0.5l5.2-2.6
			l0.1-0.1c0.7-0.5,1-1.2,1-2L35.8,77.9z"/>
		<g>
			<path class="st0" d="M33.6,77.3l-5.1-2.6c-0.4-0.3-1.2-0.3-1.6,0l-5.1,2.6c-0.4,0.3-0.4,0.9,0,1.2l5.1,2.6c0.4,0.3,1.2,0.3,1.6,0
				l5.1-2.6C34.1,78.2,34.1,77.7,33.6,77.3z"/>
			<path class="st0" d="M27.7,82.1c-0.5,0-1-0.1-1.4-0.4L23,79.9l-1.2,0.6c-0.4,0.3-0.4,0.9,0,1.2l5.1,2.6c0.4,0.3,1.2,0.3,1.6,0
				l5.1-2.6c0.4-0.3,0.4-0.9,0-1.2l-1.2-0.6l-3.4,1.7C28.7,81.9,28.2,82.1,27.7,82.1z"/>
			<path class="st0" d="M27.7,85.3c-0.5,0-1-0.1-1.4-0.4L23,83.2l-1.2,0.6c-0.4,0.3-0.4,0.9,0,1.2l5.1,2.6c0.4,0.3,1.2,0.3,1.6,0
				l5.1-2.6c0.4-0.3,0.4-0.9,0-1.2l-1.2-0.6l-3.4,1.7C28.7,85.2,28.2,85.3,27.7,85.3z"/>
		</g>
	</g>
	<g>
		<path class="st1" d="M80.2,77.9c0-0.8-0.4-1.5-1.1-2L79,75.8l-5.2-2.6c-0.5-0.3-1.1-0.5-1.7-0.5c-0.6,0-1.2,0.2-1.7,0.5l-5.2,2.6
			l-0.1,0.1c-0.7,0.5-1,1.2-1,2l0,6.5c0,0.8,0.4,1.5,1,2l0.1,0.1l5.2,2.6c0.5,0.3,1.1,0.5,1.7,0.5c0.6,0,1.2-0.2,1.7-0.5l5.2-2.6
			l0.1-0.1c0.7-0.5,1-1.2,1-2L80.2,77.9z"/>
		<g>
			<path class="st0" d="M78.1,77.3l-5.1-2.6c-0.4-0.3-1.2-0.3-1.6,0l-5.1,2.6c-0.4,0.3-0.4,0.9,0,1.2l5.1,2.6c0.4,0.3,1.2,0.3,1.6,0
				l5.1-2.6C78.5,78.2,78.5,77.7,78.1,77.3z"/>
			<path class="st0" d="M72.1,82.1c-0.5,0-1-0.1-1.4-0.4l-3.4-1.7l-1.2,0.6c-0.4,0.3-0.4,0.9,0,1.2l5.1,2.6c0.4,0.3,1.2,0.3,1.6,0
				l5.1-2.6c0.4-0.3,0.4-0.9,0-1.2l-1.2-0.6l-3.4,1.7C73.1,81.9,72.6,82.1,72.1,82.1z"/>
			<path class="st0" d="M72.1,85.3c-0.5,0-1-0.1-1.4-0.4l-3.4-1.7l-1.2,0.6c-0.4,0.3-0.4,0.9,0,1.2l5.1,2.6c0.4,0.3,1.2,0.3,1.6,0
				l5.1-2.6c0.4-0.3,0.4-0.9,0-1.2l-1.2-0.6l-3.4,1.7C73.1,85.2,72.6,85.3,72.1,85.3z"/>
		</g>
	</g>
	<path class="st0" d="M41.2,52.3L41.2,52.3c0-0.1,0-0.1,0.1-0.2l8.5-9c0,0,0.1-0.1,0.2-0.1c0,0,0.1,0,0.2,0.1l8.6,9
		c0,0,0.1,0.1,0.1,0.2c0,0.1-0.1,0.3-0.3,0.3h-3h-1v1v36.5h-9.2V53.6v-1h-1h-2.9c0,0-0.1,0-0.2-0.1C41.2,52.5,41.2,52.4,41.2,52.3
		 M40.2,52.3c0,0.7,0.5,1.3,1.3,1.3h2.9v37.5h11.2V53.6h3c0.8,0,1.3-0.7,1.3-1.3c0-0.3-0.1-0.6-0.4-0.9l-8.5-9
		c-0.5-0.5-1.3-0.5-1.8,0l-8.5,9C40.3,51.7,40.2,52,40.2,52.3L40.2,52.3z"/>
	<g>
		<path class="st1" d="M58.1,87.9c0-0.8-0.4-1.5-1.1-2l-0.1-0.1l-5.2-2.6c-0.5-0.3-1.1-0.5-1.7-0.5c-0.6,0-1.2,0.2-1.7,0.5l-5.2,2.6
			L43,85.8c-0.7,0.5-1,1.2-1,2l0,6.5c0,0.8,0.4,1.5,1,2l0.1,0.1l5.2,2.6c0.5,0.3,1.1,0.5,1.7,0.5c0.6,0,1.2-0.2,1.7-0.5l5.2-2.6
			l0.1-0.1c0.7-0.5,1-1.2,1-2L58.1,87.9z"/>
		<g>
			<path class="st0" d="M55.9,87.3l-5.1-2.6c-0.4-0.3-1.2-0.3-1.6,0l-5.1,2.6c-0.4,0.3-0.4,0.9,0,1.2l5.1,2.6c0.4,0.3,1.2,0.3,1.6,0
				l5.1-2.6C56.4,88.1,56.4,87.6,55.9,87.3z"/>
			<path class="st0" d="M50,92c-0.5,0-1-0.1-1.4-0.4l-3.4-1.7l-1.2,0.6c-0.4,0.3-0.4,0.9,0,1.2l5.1,2.6c0.4,0.3,1.2,0.3,1.6,0
				l5.1-2.6c0.4-0.3,0.4-0.9,0-1.2l-1.2-0.6l-3.4,1.7C51,91.9,50.5,92,50,92z"/>
			<path class="st0" d="M50,95.2c-0.5,0-1-0.1-1.4-0.4l-3.4-1.7l-1.2,0.6c-0.4,0.3-0.4,0.9,0,1.2l5.1,2.6c0.4,0.3,1.2,0.3,1.6,0
				l5.1-2.6c0.4-0.3,0.4-0.9,0-1.2l-1.2-0.6l-3.4,1.7C51,95.1,50.5,95.2,50,95.2z"/>
		</g>
	</g>
</g>
<polygon class="st2" points="242.8,-53 202.3,-31.9 202.3,20.3 243,41.6 284.2,20.1 284.2,-31.6 "/>
<g>
	<g>
		<g>
			<g>
				<polygon class="st0" points="242.6,-22.5 208.9,-15.1 208.9,-27.8 242.6,-45.3 				"/>
				<polygon class="st0" points="242.6,5.7 208.9,0.6 208.9,-12.1 242.6,-17.1 				"/>
				<polygon class="st0" points="242.6,33.9 208.9,16.3 208.9,3.6 242.6,11.1 				"/>
			</g>
			<g>
				<polygon class="st0" points="277.6,-14.9 243.7,-22.3 243.7,-45 277.6,-27.5 				"/>
				<polygon class="st0" points="277.6,0.6 243.7,5.7 243.7,-16.9 277.6,-12 				"/>
				<polygon class="st0" points="277.6,16.1 243.7,33.8 243.7,11.1 277.6,3.5 				"/>
			</g>
		</g>
	</g>
</g>
<polygon class="st2" points="180.1,-21.6 129.5,4.7 129.5,70 180.4,96.6 232,69.7 232,5.1 "/>
<polygon class="st2" points="305.2,-21.6 254.5,4.7 254.5,70 305.4,96.6 357,69.7 357,5.1 "/>
<g>
	<g>
		<g>
			<g>
				<polygon class="st0" points="179.9,16.5 137.8,25.7 137.8,9.9 179.9,-12 				"/>
				<polygon class="st0" points="179.9,51.8 137.8,45.4 137.8,29.5 179.9,23.2 				"/>
				<polygon class="st0" points="179.9,87 137.8,65 137.8,49.1 179.9,58.5 				"/>
			</g>
			<g>
				<polygon class="st0" points="223.6,26 181.3,16.8 181.3,-11.6 223.6,10.3 				"/>
				<polygon class="st0" points="223.6,45.3 181.3,51.8 181.3,23.4 223.6,29.6 				"/>
				<polygon class="st0" points="223.6,64.7 181.3,86.8 181.3,58.5 223.6,49 				"/>
			</g>
		</g>
	</g>
</g>
<g>
	<g>
		<g>
			<g>
				<polygon class="st0" points="304.9,16.5 262.9,25.7 262.9,9.9 304.9,-12 				"/>
				<polygon class="st0" points="304.9,51.8 262.9,45.4 262.9,29.5 304.9,23.2 				"/>
				<polygon class="st0" points="304.9,87 262.9,65 262.9,49.1 304.9,58.5 				"/>
			</g>
			<g>
				<polygon class="st0" points="348.7,26 306.3,16.8 306.3,-11.6 348.7,10.3 				"/>
				<polygon class="st0" points="348.7,45.3 306.3,51.8 306.3,23.4 348.7,29.6 				"/>
				<polygon class="st0" points="348.7,64.7 306.3,86.8 306.3,58.5 348.7,49 				"/>
			</g>
		</g>
	</g>
</g>
<polygon class="st2" points="242.6,20.5 189.9,47.9 189.9,115.9 242.9,143.7 296.7,115.7 296.7,48.3 "/>
<g>
	<g>
		<g>
			<g>
				<polygon class="st0" points="49.7,9.8 37.1,12.6 37.1,7.8 49.7,1.2 				"/>
				<polygon class="st0" points="49.7,20.4 37.1,18.5 37.1,13.7 49.7,11.8 				"/>
				<polygon class="st0" points="49.7,31 37.1,24.4 37.1,19.6 49.7,22.4 				"/>
			</g>
			<g>
				<polygon class="st0" points="62.9,12.6 50.2,9.9 50.2,1.3 62.9,7.9 				"/>
				<polygon class="st0" points="62.9,18.5 50.2,20.4 50.2,11.9 62.9,13.7 				"/>
				<polygon class="st0" points="62.9,24.3 50.2,30.9 50.2,22.4 62.9,19.6 				"/>
			</g>
		</g>
	</g>
</g>
<g>
	<path class="st0" d="M30,40.9c0-2.5-1.8-4.5-4.3-4.5c0,0,0.1,0,0.1,0C25.4,32.2,22,29,17.7,29c-3,0-5.6,1.6-7,4
		c-0.3-0.1-0.5-0.1-0.8-0.1c-1.8,0-3.3,1.5-3.3,3.3c0,0.1,0,0.1,0,0.2c-0.1,0-0.2,0-0.3,0c-2.5,0-5,2-5,4.5c0,2.4,1.6,4.4,3.7,4.5
		l20.1,0C27.6,45.4,30,43.4,30,40.9z"/>
</g>
<g>
	<path class="st2" d="M169.4,428.7c-15.4-0.1-28.5-12.4-28.5-26.9c0-11.4,6.6-21,16.2-24.9c5.2-16,20.1-27.3,37.5-27.3
		c11.6,0,22.3,5,29.8,13.6c7.9,0.9,14.6,6,17.8,12.9c11.8,3.3,20.6,13.8,20.6,25.8c0,14.3-10,25.8-23.3,26.8l-0.4,0L169.4,428.7
		L169.4,428.7z"/>
	<path class="st0" d="M152.2,401.8c0-8.6,6.1-15.7,14.8-15.7c0,0-0.4,0-0.4,0c1.5-14.3,13.4-25.4,28-25.4c10.3,0,19.3,5.5,24.3,13.8
		c0.9-0.2,1.8-0.4,2.8-0.4c6.3,0,11.5,5.1,11.5,11.5c0,0.2,0,0.3,0,0.5c0.4,0,0.8,0,1.2,0c8.6,0,17.3,7,17.3,15.7
		c0,8.3-5.4,15.1-12.9,15.6l-69.2,0C160.5,417.4,152.2,410.4,152.2,401.8z"/>
</g>
<text transform="matrix(1 0 0 1 205.3652 467.6162)" class="st0" style="font-family:'OpenSans'; font-size:30.2619px;">Cloud</text>
<g>
	<g>
		<g>
			<path class="st0" d="M74.3,46.4h2h18.7h2c1.1,0,2.1-0.9,2.1-2.1v-1.3h-1.7h-0.1V29.9c0-1-0.8-1.9-1.9-1.9H75.8
				c-1,0-1.9,0.8-1.9,1.9v13.2h-0.1h-1.7v1.3C72.2,45.5,73.1,46.4,74.3,46.4z M76.5,30.6h18.2v12.5h-6.6v0.1c0,0.4-0.3,0.7-0.7,0.7
				h-3.6c-0.4,0-0.7-0.3-0.7-0.7v-0.1h-6.6V30.6z"/>
		</g>
	</g>
</g>
</svg>
