<?xml version="1.0" encoding="utf-8"?>
<!-- Generator: Adobe Illustrator 22.1.0, SVG Export Plug-In . SVG Version: 6.00 Build 0)  -->
<svg version="1.1" id="Layer_1" xmlns="http://www.w3.org/2000/svg" xmlns:xlink="http://www.w3.org/1999/xlink" x="0px" y="0px"
	 viewBox="0 0 100 100" style="enable-background:new 0 0 100 100;" xml:space="preserve">
<style type="text/css">
	.st0{fill:#282B3A;}
	.st1{fill:#FFFFFF;}
</style>
<g>
	<g>
		<path class="st0" d="M0,38.2c0,21.1,17.1,38.2,38.2,38.2c9.9,0,18.8-3.8,25.6-9.9v10.7h1.1c0.3,1,0.9,1.9,1.7,2.7l18,18
			c2.8,2.8,7.3,2.8,10.1,0l3.3-3.4c2.8-2.8,2.8-7.3,0-10.1l-18-18c-2-2-4.8-2.5-7.2-1.7v-5.6h-2.6c4-6,6.3-13.2,6.3-21
			C76.4,17.1,59.3,0,38.2,0C17.1,0,0,17.1,0,38.2z M7.1,38.2C7.1,21,21,7.1,38.2,7.1S69.4,21,69.4,38.2S55.4,69.4,38.2,69.4
			C21,69.4,7.1,55.4,7.1,38.2z"/>
		<path class="st0" d="M13.6,45.8c0.4,0.1,0.8,0.2,1.3,0.2c1.6,0,3.1-1,3.7-2.6c0-0.1,0.3-0.8,0.8-1.7c1.6,9,9.4,15.9,18.9,15.9
			c9.5,0,17.3-6.9,18.9-15.9c0.5,1,0.8,1.7,0.8,1.8c0.7,2,2.9,3.1,5,2.4c2-0.7,3.1-2.9,2.4-5c-2.2-6.3-10.6-18.2-27-18.2
			c-16.4,0-24.9,11.9-27,18.2C10.5,42.9,11.5,45.1,13.6,45.8z M22.2,37.4c1.9-2.2,4.6-4.4,8.4-5.7c-1.5,1.8-2.5,4-2.5,6.5
			c0,5.6,4.5,10.1,10.1,10.1s10.1-4.5,10.1-10.1c0-2.5-0.9-4.8-2.5-6.5c3.7,1.3,6.3,3.5,8.2,5.6c-0.7,11.6-7.1,17-15.8,17
			C29.5,54.3,22.9,49.5,22.2,37.4z"/>
	</g>
</g>
<g>
	<g>
		<path class="st1" d="M44,36.5c0-0.6-0.3-1.1-0.8-1.5l-0.1-0.1L39.4,33c-0.4-0.2-0.8-0.4-1.2-0.4c-0.4,0-0.9,0.1-1.2,0.4l-3.7,1.9
			L33.2,35c-0.5,0.4-0.8,0.9-0.8,1.5l0,4.6c0,0.6,0.3,1.1,0.8,1.5l0.1,0.1l3.7,1.9c0.4,0.2,0.8,0.4,1.2,0.4c0.4,0,0.9-0.1,1.2-0.4
			l3.7-1.9l0.1-0.1c0.5-0.4,0.8-0.9,0.8-1.5L44,36.5z"/>
		<g>
			<path class="st0" d="M42.5,36l-3.7-1.9c-0.3-0.2-0.8-0.2-1.2,0L33.9,36c-0.3,0.2-0.3,0.6,0,0.9l3.7,1.9c0.3,0.2,0.8,0.2,1.2,0
				l3.7-1.9C42.8,36.7,42.8,36.3,42.5,36z"/>
			<path class="st0" d="M38.2,39.4c-0.4,0-0.7-0.1-1-0.3l-2.4-1.2l-0.9,0.4c-0.3,0.2-0.3,0.6,0,0.9l3.7,1.9c0.3,0.2,0.8,0.2,1.2,0
				l3.7-1.9c0.3-0.2,0.3-0.6,0-0.9l-0.9-0.4l-2.4,1.2C38.9,39.3,38.6,39.4,38.2,39.4z"/>
			<path class="st0" d="M38.2,41.8c-0.4,0-0.7-0.1-1-0.3l-2.4-1.2l-0.9,0.4c-0.3,0.2-0.3,0.6,0,0.9l3.7,1.9c0.3,0.2,0.8,0.2,1.2,0
				l3.7-1.9c0.3-0.2,0.3-0.6,0-0.9l-0.9-0.4l-2.4,1.2C38.9,41.7,38.6,41.8,38.2,41.8z"/>
		</g>
	</g>
</g>
</svg>
