<?xml version="1.0" encoding="utf-8"?>
<!-- Generator: Adobe Illustrator 22.1.0, SVG Export Plug-In . SVG Version: 6.00 Build 0)  -->
<svg version="1.1" id="Layer_1" xmlns="http://www.w3.org/2000/svg" xmlns:xlink="http://www.w3.org/1999/xlink" x="0px" y="0px"
	 viewBox="0 0 100 100" style="enable-background:new 0 0 100 100;" xml:space="preserve">
<style type="text/css">
	.st0{fill:#282B3A;}
	.st1{fill:#FFFFFF;stroke:#282B3A;stroke-miterlimit:10;}
</style>
<g>
	<g>
		<path class="st0" d="M50.8,1.4L50.8,1.4C50.9,1.4,50.9,1.4,50.8,1.4l15.2,3.8c0,0,0.1,0,0.1,0.1c0,0,0,0.1,0,0.2l-4.5,14.9
			c0,0.1-0.2,0.2-0.2,0.2c-0.1,0-0.1,0-0.2-0.1l-1.8-3.3l-0.7-1.2l-1.2,0.7l-15.2,8.6l-5.5-9.8l15.2-8.6l1.2-0.7l-0.7-1.2l-1.8-3.2
			c0,0,0-0.1,0-0.2C50.7,1.5,50.8,1.4,50.8,1.4 M50.8,0c-1.2,0-2.1,1.3-1.4,2.4l1.8,3.2L34.8,15l6.9,12.2l16.5-9.3l1.8,3.3
			c0.3,0.5,0.8,0.8,1.4,0.8c0.7,0,1.4-0.4,1.6-1.2l4.5-14.9c0.3-0.9-0.2-1.8-1.1-2L51.2,0C51.1,0,51,0,50.8,0L50.8,0z"/>
	</g>
	<g>
		<path class="st0" d="M41.4,74.5l15,9l1.2,0.7l0.7-1.2l1.9-3.2c0,0,0-0.1,0.1-0.1c0,0,0.2,0,0.2,0.2L64.8,95c0,0,0,0.1,0,0.1
			c0,0-0.1,0.1-0.1,0.1l-15.2,3.4c0,0,0,0,0,0c-0.1,0-0.2-0.1-0.2-0.1c-0.1-0.1,0-0.1,0-0.2l1.9-3.2l0.7-1.2l-1.2-0.7l-15-9
			L41.4,74.5 M40.9,72.5l-7.2,12.1l16.2,9.7L48,97.5c-0.7,1.1,0.2,2.5,1.4,2.5c0.1,0,0.2,0,0.4,0L65,96.6c0.9-0.2,1.5-1.1,1.2-2
			L62,79.5c-0.2-0.8-0.9-1.2-1.6-1.2c-0.5,0-1.1,0.2-1.4,0.8l-1.9,3.2L40.9,72.5L40.9,72.5z"/>
	</g>
	<g>
		<path class="st1" d="M44.5,18.3c0-1.1-0.6-2.1-1.5-2.8l-0.2-0.1l-7.2-3.7c-0.7-0.4-1.5-0.7-2.4-0.7c-0.9,0-1.7,0.2-2.4,0.7
			l-7.2,3.7l-0.2,0.1c-0.9,0.7-1.5,1.7-1.5,2.8l0,9c0,1.1,0.5,2.1,1.5,2.8l0.2,0.1l7.2,3.7c0.7,0.4,1.5,0.7,2.4,0.7
			c0.9,0,1.7-0.2,2.4-0.7l7.2-3.7l0.2-0.1c0.9-0.7,1.5-1.7,1.5-2.8L44.5,18.3z"/>
		<g>
			<path class="st0" d="M41.5,17.4l-7.2-3.7c-0.6-0.5-1.6-0.5-2.2,0l-7.2,3.7c-0.6,0.5-0.6,1.2,0,1.7l7.2,3.7c0.6,0.5,1.6,0.5,2.2,0
				l7.2-3.7C42.1,18.6,42.1,17.9,41.5,17.4z"/>
			<path class="st0" d="M33.2,24.1c-0.7,0-1.4-0.2-1.9-0.6l-4.7-2.4l-1.7,0.9c-0.6,0.5-0.6,1.2,0,1.7l7.2,3.7c0.6,0.5,1.6,0.5,2.2,0
				l7.2-3.7c0.6-0.5,0.6-1.2,0-1.7l-1.7-0.9l-4.7,2.4C34.6,23.9,33.9,24.1,33.2,24.1z"/>
			<path class="st0" d="M33.2,28.6c-0.7,0-1.4-0.2-1.9-0.6l-4.7-2.4l-1.7,0.9c-0.6,0.5-0.6,1.2,0,1.7l7.2,3.7c0.6,0.5,1.6,0.5,2.2,0
				l7.2-3.7c0.6-0.5,0.6-1.2,0-1.7l-1.7-0.9L35.1,28C34.6,28.4,33.9,28.6,33.2,28.6z"/>
		</g>
	</g>
	<g>
		<path class="st1" d="M44.5,71.5c0-1.1-0.6-2.1-1.5-2.8l-0.2-0.1l-7.2-3.7c-0.7-0.4-1.5-0.7-2.4-0.7c-0.9,0-1.7,0.2-2.4,0.7
			l-7.2,3.7l-0.2,0.1c-0.9,0.7-1.5,1.7-1.5,2.8l0,9c0,1.1,0.5,2.1,1.5,2.8l0.2,0.1l7.2,3.7c0.7,0.4,1.5,0.7,2.4,0.7
			c0.9,0,1.7-0.2,2.4-0.7l7.2-3.7l0.2-0.1c0.9-0.7,1.5-1.7,1.5-2.8L44.5,71.5z"/>
		<g>
			<path class="st0" d="M41.5,70.6l-7.2-3.7c-0.6-0.5-1.6-0.5-2.2,0l-7.2,3.7c-0.6,0.5-0.6,1.2,0,1.7l7.2,3.7c0.6,0.5,1.6,0.5,2.2,0
				l7.2-3.7C42.1,71.8,42.1,71.1,41.5,70.6z"/>
			<path class="st0" d="M33.2,77.2c-0.7,0-1.4-0.2-1.9-0.6l-4.7-2.4l-1.7,0.9c-0.6,0.5-0.6,1.2,0,1.7l7.2,3.7c0.6,0.5,1.6,0.5,2.2,0
				l7.2-3.7c0.6-0.5,0.6-1.2,0-1.7l-1.7-0.9l-4.7,2.4C34.6,77.1,33.9,77.2,33.2,77.2z"/>
			<path class="st0" d="M33.2,81.8c-0.7,0-1.4-0.2-1.9-0.6l-4.7-2.4l-1.7,0.9c-0.6,0.5-0.6,1.2,0,1.7l7.2,3.7c0.6,0.5,1.6,0.5,2.2,0
				l7.2-3.7c0.6-0.5,0.6-1.2,0-1.7l-1.7-0.9l-4.7,2.4C34.6,81.6,33.9,81.8,33.2,81.8z"/>
		</g>
	</g>
	<path class="st0" d="M80.6,37.2L80.6,37.2c0.1,0,0.2,0.1,0.3,0.1l12.6,12c0.1,0.1,0.1,0.1,0.1,0.2c0,0.1,0,0.2-0.1,0.3l-12.6,12
		c0,0-0.1,0.1-0.3,0.1c-0.1,0-0.4-0.1-0.4-0.4v-4.2v-1.4h-1.4h-61V43.1h61h1.4v-1.4v-4.1c0-0.1,0-0.2,0.1-0.2
		C80.4,37.2,80.5,37.2,80.6,37.2 M80.6,35.8c-0.9,0-1.9,0.7-1.9,1.8v4.1H16.3v15.7h62.5v4.2c0,1.1,0.9,1.8,1.9,1.8
		c0.4,0,0.9-0.2,1.2-0.5l12.6-12c0.7-0.7,0.8-1.9,0-2.6l-12.6-12C81.5,35.9,81,35.8,80.6,35.8L80.6,35.8z"/>
	<g>
		<path class="st1" d="M27.6,44.9c0-1.1-0.6-2.1-1.5-2.8L25.9,42l-7.2-3.7c-0.7-0.4-1.5-0.7-2.4-0.7c-0.9,0-1.7,0.2-2.4,0.7L6.6,42
			l-0.2,0.1C5.5,42.8,5,43.8,5,44.9l0,9c0,1.1,0.5,2.1,1.5,2.8l0.2,0.1l7.2,3.7c0.7,0.4,1.5,0.7,2.4,0.7c0.9,0,1.7-0.2,2.4-0.7
			l7.2-3.7l0.2-0.1c0.9-0.7,1.5-1.7,1.5-2.8L27.6,44.9z"/>
		<g>
			<path class="st0" d="M24.6,44.1l-7.2-3.7c-0.6-0.5-1.6-0.5-2.2,0L8,44.1c-0.6,0.5-0.6,1.2,0,1.7l7.2,3.7c0.6,0.5,1.6,0.5,2.2,0
				l7.2-3.7C25.2,45.3,25.2,44.5,24.6,44.1z"/>
			<path class="st0" d="M16.3,50.7c-0.7,0-1.4-0.2-1.9-0.6l-4.7-2.4L8,48.6c-0.6,0.5-0.6,1.2,0,1.7l7.2,3.7c0.6,0.5,1.6,0.5,2.2,0
				l7.2-3.7c0.6-0.5,0.6-1.2,0-1.7l-1.7-0.9l-4.7,2.4C17.7,50.5,17,50.7,16.3,50.7z"/>
			<path class="st0" d="M16.3,55.2c-0.7,0-1.4-0.2-1.9-0.6l-4.7-2.4L8,53.1c-0.6,0.5-0.6,1.2,0,1.7l7.2,3.7c0.6,0.5,1.6,0.5,2.2,0
				l7.2-3.7c0.6-0.5,0.6-1.2,0-1.7l-1.7-0.9l-4.7,2.4C17.7,55,17,55.2,16.3,55.2z"/>
		</g>
	</g>
</g>
</svg>
