<?xml version="1.0" encoding="utf-8"?>
<!-- Generator: Adobe Illustrator 22.1.0, SVG Export Plug-In . SVG Version: 6.00 Build 0)  -->
<svg version="1.1" id="Capa_1" xmlns="http://www.w3.org/2000/svg" xmlns:xlink="http://www.w3.org/1999/xlink" x="0px" y="0px"
	 viewBox="0 0 490.1 497.1" style="enable-background:new 0 0 490.1 497.1;" xml:space="preserve">
<style type="text/css">
	.st0{fill:#282B3A;}
</style>
<g>
	<path class="st0" d="M417.9,158.4L305.2,70.1c-2.3-2.3-6.1-3.1-9.1-3.1H81.4c-8.4,0-15.3,6.9-15.3,15.3v332.5
		c0,8.4,6.9,15.3,15.3,15.3h327.4c8.4,0,15.3-6.9,15.3-15.3v-245C424,165.3,421.7,161.5,417.9,158.4z M311.3,112.8l69.3,54h-69.3
		V112.8z M95.8,400.3V96.8h185v84.5c0,8.4,6.9,15.3,15.3,15.3h98.2v203.8L95.8,400.3L95.8,400.3z"/>
	<g>
		<path class="st0" d="M236.4,192.4c-7,0-12.7,5.7-12.7,12.7v19.6h-19.6c-7,0-12.7,5.7-12.7,12.7s5.7,12.7,12.7,12.7h32.3
			c7,0,12.7-5.7,12.7-12.7v-32.3C249,198.1,243.3,192.4,236.4,192.4z"/>
		<path class="st0" d="M152.9,173.4v-19.6h19.6c7,0,12.7-5.7,12.7-12.7c0-7-5.7-12.7-12.7-12.7h-32.3c-7,0-12.7,5.7-12.7,12.7v32.3
			c0,7,5.7,12.7,12.7,12.7S152.3,180.4,152.9,173.4z"/>
		<path class="st0" d="M238.9,138.7c-5-5-12.7-5-17.7,0l-82.8,82.8c-5,5-5,12.7,0,17.7c6.7,6.7,15.2,3.1,17.7,0l82.8-82.8
			C243.9,151.3,243.9,143.7,238.9,138.7z"/>
	</g>
	<rect x="280.8" y="225" class="st0" width="84" height="29.2"/>
	<rect x="128.1" y="283.5" class="st0" width="236.7" height="29.2"/>
	<rect x="128.1" y="342" class="st0" width="236.7" height="29.2"/>
</g>
</svg>
