<?xml version="1.0" encoding="utf-8"?>
<!-- Generator: Adobe Illustrator 22.1.0, SVG Export Plug-In . SVG Version: 6.00 Build 0)  -->
<svg version="1.1" id="Layer_1" xmlns="http://www.w3.org/2000/svg" xmlns:xlink="http://www.w3.org/1999/xlink" x="0px" y="0px"
	 viewBox="0 0 100 100" style="enable-background:new 0 0 100 100;" xml:space="preserve">
<style type="text/css">
	.st0{fill:#FFFFFF;}
	.st1{fill:#282B3A;}
</style>
<g>
	<g>
		<path class="st0" d="M85.3,35.8c0-3.5-1.8-6.7-4.7-8.9L80,26.6L57.4,15c-2.2-1.4-4.8-2.2-7.5-2.2c-2.7,0-5.3,0.8-7.5,2.2
			L19.8,26.6L19.3,27c-2.9,2.2-4.6,5.4-4.6,8.9l0,28.3c0,3.5,1.7,6.7,4.6,8.9l0.5,0.4l22.6,11.6c2.2,1.4,4.8,2.2,7.5,2.2
			c2.7,0,5.3-0.8,7.5-2.2L80,73.3l0.5-0.4c2.9-2.2,4.6-5.4,4.6-8.9L85.3,35.8z"/>
		<path class="st1" d="M49.9,89.2c-3.1,0-6.2-0.9-8.7-2.5L18,74.7c-3.5-2.6-5.5-6.5-5.5-10.6V35.8c0-4.2,2-8,5.5-10.6l0.5-0.4
			L41.4,13c4.6-3,12.2-3.1,17.2,0.1l23.2,12c3.6,2.7,5.6,6.6,5.6,10.7l-0.2,28.3c0,4.1-2,8-5.5,10.6l-0.5,0.4L58.4,86.8
			C56,88.4,53,89.2,49.9,89.2z M49.9,15c-2.3,0-4.5,0.6-6.3,1.8l-23,11.9c-2.4,1.8-3.7,4.3-3.7,7.1v28.3c0,2.8,1.3,5.3,3.7,7.1
			l0.5,0.4l22.3,11.4c4,2.6,9.2,2.4,12.8,0.1l23-11.9c2.4-1.8,3.7-4.3,3.7-7.1l0.2-28.3c0-2.7-1.4-5.3-3.8-7.1l-0.5-0.3L56.4,16.9
			C54.4,15.7,52.2,15,49.9,15z"/>
	</g>
	<g>
		<g>
			<path class="st1" d="M76,33.2L53.5,21.7c-1.9-1.4-5.1-1.4-7,0L24,33.2c-1.9,1.4-1.9,3.8,0,5.2l22.5,11.5c1.9,1.4,5.1,1.4,7,0
				L76,38.4C77.9,37,77.9,34.6,76,33.2z"/>
		</g>
		<g>
			<path class="st1" d="M50,53.9c-2.2,0-4.3-0.6-6-1.7l-14.8-7.6L24,47.3c-1.9,1.4-1.9,3.8,0,5.2l22.5,11.5c1.9,1.4,5.1,1.4,7,0
				L76,52.6c1.9-1.4,1.9-3.8,0-5.2l-5.2-2.7L56,52.2C54.3,53.3,52.2,53.9,50,53.9z"/>
		</g>
		<g>
			<path class="st1" d="M50,68.1c-2.2,0-4.3-0.6-6-1.7l-14.8-7.6L24,61.5c-1.9,1.4-1.9,3.8,0,5.2l22.5,11.5c1.9,1.4,5.1,1.4,7,0
				L76,66.7c1.9-1.4,1.9-3.8,0-5.2l-5.2-2.7L56,66.3C54.3,67.5,52.2,68.1,50,68.1z"/>
		</g>
	</g>
</g>
</svg>
