<?xml version="1.0" encoding="utf-8"?>
<!-- Generator: Adobe Illustrator 21.1.0, SVG Export Plug-In . SVG Version: 6.00 Build 0)  -->
<svg version="1.1" id="Layer_1" xmlns="http://www.w3.org/2000/svg" xmlns:xlink="http://www.w3.org/1999/xlink" x="0px" y="0px"
	 viewBox="0 0 48 48" style="enable-background:new 0 0 48 48;" xml:space="preserve">
<style type="text/css">
	.st0{fill:#282B3A;}
	.st1{fill:#B8B9C1;}
	.st2{fill:#8689A1;}
</style>
<g>
	<path class="st0" d="M43.1,11.1L25.9,1.5c-1.2-0.6-2.6-0.6-3.7,0L4.9,11.1c-1.2,0.7-2,2-2,3.3v19.1c0,1.4,0.8,2.7,2,3.3l17.2,9.6
		c1.2,0.6,2.6,0.6,3.7,0l17.2-9.6c1.2-0.7,2-2,2-3.3V14.5C45.1,13.1,44.3,11.8,43.1,11.1z"/>
	<path class="st1" d="M33.6,20.2v8v1.1l-8.1,4.6v6.4l12.9-7.2c0.6-0.3,1-1,1-1.7V16.9L33.6,20.2z"/>
	<path class="st2" d="M9.7,14.9c-0.6,0.3-1,1-1,1.7v14.5l5.7-3.3v-8v-1.1l8.1-4.6V7.7L9.7,14.9z"/>
</g>
</svg>
