<svg xmlns="http://www.w3.org/2000/svg" xmlns:xlink="http://www.w3.org/1999/xlink" viewBox="0 0 63.56 73.55"><defs><style>.cls-1{fill:#2684ff;}.cls-2{fill:url(#linear-gradient);}.cls-3{fill:url(#linear-gradient-2);}</style><linearGradient id="linear-gradient" x1="16.06" y1="10.61" x2="16.06" y2="53.94" gradientUnits="userSpaceOnUse"><stop offset="0" stop-color="#0052cc"/><stop offset="1" stop-color="#2684ff"/></linearGradient><linearGradient id="linear-gradient-2" x1="15.91" y1="10.61" x2="15.91" y2="53.94" xlink:href="#linear-gradient"/></defs><title>Bamboo-icon-blue</title><g id="Layer_2" data-name="Layer 2"><g id="Blue"><path class="cls-1" d="M61.56,41.81H46.27a2,2,0,0,0-2,1.7A12.57,12.57,0,0,1,31.81,54.34l4.14,18.91A31.81,31.81,0,0,0,63.56,43.95,2,2,0,0,0,61.56,41.81Z"/><path class="cls-1" d="M35.1,41.33l22-18.91a2,2,0,0,0,0-3L35.1.48A2,2,0,0,0,31.81,2V39.81A2,2,0,0,0,35.1,41.33Z"/><path class="cls-2" d="M.3,45.94A31.81,31.81,0,0,0,31.81,73.55V54.34A12.56,12.56,0,0,1,19.25,41.81Z"/><path class="cls-3" d="M0,41.51v.3H19.25A12.56,12.56,0,0,1,31.81,29.28L27.68,10.37A31.79,31.79,0,0,0,0,41.51"/></g></g></svg>