<?xml version="1.0" encoding="utf-8"?>
<!-- Generator: Adobe Illustrator 22.1.0, SVG Export Plug-In . SVG Version: 6.00 Build 0)  -->
<svg version="1.1" id="Layer_1" xmlns="http://www.w3.org/2000/svg" xmlns:xlink="http://www.w3.org/1999/xlink" x="0px" y="0px"
	 viewBox="0 0 25 25" style="enable-background:new 0 0 25 25;" xml:space="preserve">
<style type="text/css">
	.st0{fill:#282B3A;}
	.st1{fill:#F37326;}
	.st2{fill:#F15A24;}
	.st3{fill:#F48C29;}
	.st4{fill:#F6A52B;}
</style>
<g>
	<path class="st0" d="M22.5,5.8l-9-5c-0.6-0.3-1.3-0.3-2,0l-9,5c-0.6,0.4-1,1-1,1.7v10c0,0.7,0.4,1.4,1,1.7l9,5c0.6,0.3,1.3,0.3,2,0
		l9-5c0.6-0.4,1-1,1-1.7v-10C23.5,6.8,23.1,6.1,22.5,5.8z"/>
	<path class="st1" d="M6.1,7.1L5,7.7C4.7,7.9,4.5,8.3,4.5,8.6v7.8c0,0.4,0.2,0.7,0.5,0.9l1.1,0.6l5.4-5.4L6.1,7.1z"/>
	<path class="st2" d="M13,3.8c-0.3-0.2-0.7-0.2-1,0L7.4,6.4l5.1,5.1l5.1-5.1L13,3.8z"/>
	<path class="st3" d="M20,7.7l-1.1-0.6l-5.4,5.4l5.4,5.4l1.1-0.6c0.3-0.2,0.5-0.5,0.5-0.9V8.6C20.5,8.3,20.3,7.9,20,7.7z"/>
	<path class="st4" d="M12.5,13.6l-5.1,5.1l4.6,2.6c0.3,0.2,0.7,0.2,1,0l4.6-2.6L12.5,13.6z"/>
</g>
</svg>
