<?xml version="1.0" encoding="utf-8"?>
<!-- Generator: Adobe Illustrator 22.0.1, SVG Export Plug-In . SVG Version: 6.00 Build 0)  -->
<svg version="1.1" id="Layer_1" xmlns="http://www.w3.org/2000/svg" xmlns:xlink="http://www.w3.org/1999/xlink" x="0px" y="0px"
	 viewBox="0 0 36 36" style="enable-background:new 0 0 36 36;" xml:space="preserve">
<style type="text/css">
	.st0{fill:#282B3A;}
	.st1{fill:#F37326;}
	.st2{fill:#F15A24;}
	.st3{fill:#F48C29;}
	.st4{fill:#F6A52B;}
</style>
<g>
	<path class="st0" d="M33,7.9L19.5,0.4c-0.9-0.5-2-0.5-2.9,0L3,7.9c-0.9,0.5-1.5,1.5-1.5,2.6v14.9c0,1.1,0.6,2.1,1.5,2.6l13.5,7.5
		c0.9,0.5,2,0.5,2.9,0L33,28.1c0.9-0.5,1.5-1.5,1.5-2.6V10.5C34.5,9.5,33.9,8.5,33,7.9z"/>
	<path class="st1" d="M8.4,10l-1.6,0.9C6.3,11.1,6,11.6,6,12.2v11.6c0,0.5,0.3,1,0.8,1.3L8.4,26l8-8L8.4,10z"/>
	<path class="st2" d="M18.7,5c-0.5-0.3-1-0.3-1.5,0l-6.8,3.8l7.6,7.6l7.6-7.6L18.7,5z"/>
	<path class="st3" d="M29.2,10.9L27.6,10l-8,8l8,8l1.6-0.9c0.5-0.3,0.8-0.8,0.8-1.3V12.2C30,11.6,29.7,11.1,29.2,10.9z"/>
	<path class="st4" d="M18,19.6l-7.6,7.6l6.8,3.8c0.5,0.3,1,0.3,1.5,0l6.8-3.8L18,19.6z"/>
</g>
</svg>
