<?xml version="1.0" encoding="utf-8"?>
<!-- Generator: Adobe Illustrator 22.1.0, SVG Export Plug-In . SVG Version: 6.00 Build 0)  -->
<svg version="1.1" id="Layer_1" xmlns="http://www.w3.org/2000/svg" xmlns:xlink="http://www.w3.org/1999/xlink" x="0px" y="0px"
	 viewBox="0 0 36 36" style="enable-background:new 0 0 36 36;" xml:space="preserve">
<style type="text/css">
	.st0{fill:#FFFFFF;}
</style>
<path id="XMLID_2725_" class="st0" d="M18,0C9,0,0,8.1,0,18c0,8,5.2,14.7,12.3,17.1c0.9,0.2,1.2-0.4,1.2-0.9c0-0.4,0-1.8,0-3.4
	c-5,1.1-6.1-2.1-6.1-2.1c-0.8-2.1-2-2.6-2-2.6C3.8,25,5.6,25,5.6,25c1.8,0.1,2.8,1.9,2.8,1.9c1.6,2.8,4.2,2,5.2,1.5
	c0.2-1.2,0.6-2,1.1-2.4c-4-0.5-8.2-2-8.2-8.9c0-2,0.7-3.6,1.9-4.8c-0.2-0.5-0.8-2.3,0.2-4.8c0,0,1.5-0.5,5,1.8
	c1.4-0.4,3-0.6,4.5-0.6c1.5,0,3.1,0.2,4.5,0.6c3.4-2.3,4.9-1.8,4.9-1.8c1,2.5,0.4,4.3,0.2,4.8c1.2,1.3,1.9,2.9,1.9,4.8
	c0,6.9-4.2,8.4-8.2,8.9c0.6,0.6,1.2,1.7,1.2,3.3c0,2.4,0,4.3,0,4.9c0,0.5,0.3,1,1.2,0.9C30.9,32.7,36,25.9,36,18C36,8.1,27,0,18,0
	L18,0z"/>
</svg>
