<?xml version="1.0" encoding="utf-8"?>
<!-- Generator: Adobe Illustrator 22.1.0, SVG Export Plug-In . SVG Version: 6.00 Build 0)  -->
<svg version="1.1" id="Layer_1" xmlns="http://www.w3.org/2000/svg" xmlns:xlink="http://www.w3.org/1999/xlink" x="0px" y="0px"
	 viewBox="0 0 25 25" style="enable-background:new 0 0 25 25;" xml:space="preserve">
<style type="text/css">
	.st0{fill:#282B3A;}
	.st1{fill:#45B886;}
	.st2{fill:#43B3AB;}
	.st3{fill:#4FB864;}
</style>
<g>
	<path class="st0" d="M22.5,5.8l-9-5c-0.6-0.3-1.3-0.3-2,0l-9,5c-0.6,0.4-1,1-1,1.7v10c0,0.7,0.4,1.4,1,1.7l9,5c0.6,0.3,1.3,0.3,2,0
		l9-5c0.6-0.4,1-1,1-1.7v-10C23.5,6.8,23.1,6.1,22.5,5.8z"/>
	<path class="st1" d="M18.7,12.1l-6-3.3c-0.2-0.1-0.3-0.1-0.5,0l-6,3.3c-0.3,0.2-0.3,0.7,0,0.9l6,3.3c0.2,0.1,0.3,0.1,0.5,0l6-3.3
		C19.1,12.7,19.1,12.3,18.7,12.1z"/>
	<path class="st2" d="M13,3.8c-0.3-0.2-0.7-0.2-1,0L5.2,7.6l3,1.7l4.3-2.4l4.2,2.3l3-1.7L13,3.8z"/>
	<path class="st3" d="M12,21.2c0.3,0.2,0.7,0.2,1,0l6.8-3.8l-3-1.7l-4.3,2.4l-4.2-2.3l-3,1.7L12,21.2z"/>
</g>
</svg>
