<?xml version="1.0" encoding="utf-8"?>
<!-- Generator: Adobe Illustrator 22.1.0, SVG Export Plug-In . SVG Version: 6.00 Build 0)  -->
<svg version="1.1" id="Layer_1" xmlns="http://www.w3.org/2000/svg" xmlns:xlink="http://www.w3.org/1999/xlink" x="0px" y="0px"
	 viewBox="0 0 25 25" style="enable-background:new 0 0 25 25;" xml:space="preserve">
<style type="text/css">
	.st0{fill:#282B3A;}
	.st1{fill:#943B79;}
	.st2{fill:#852F65;}
	.st3{fill:#9263AB;}
	.st4{fill:#925091;}
</style>
<g>
	<path class="st0" d="M22.5,5.8l-9-5c-0.6-0.3-1.3-0.3-2,0l-9,5c-0.6,0.4-1,1-1,1.7v10c0,0.7,0.4,1.4,1,1.7l9,5c0.6,0.3,1.3,0.3,2,0
		l9-5c0.6-0.4,1-1,1-1.7v-10C23.5,6.8,23.1,6.1,22.5,5.8z"/>
	<path class="st1" d="M4.5,14.8v1.6c0,0.4,0.2,0.7,0.5,0.9l7,3.9c0.2,0.1,0.3,0.1,0.5,0.1v-5.1c-0.1,0-0.2,0-0.4,0L4.5,14.8z"/>
	<path class="st2" d="M13,21.2l7-3.9c0.3-0.2,0.5-0.5,0.5-0.9v-1.6l-7.6,1.4c-0.1,0-0.2,0-0.4,0v5.1C12.7,21.3,12.8,21.3,13,21.2z"
		/>
	<path class="st3" d="M12,3.8L5,7.7C4.7,7.9,4.5,8.3,4.5,8.6v1.6l7.6-1.4c0.1,0,0.2,0,0.4,0V3.7C12.3,3.7,12.2,3.7,12,3.8z"/>
	<path class="st4" d="M20.5,10.3V8.6c0-0.4-0.2-0.7-0.5-0.9l-7-3.9c-0.2-0.1-0.3-0.1-0.5-0.1v5.1c0.1,0,0.2,0,0.4,0L20.5,10.3z"/>
	<path class="st1" d="M12.9,14.7l7.6-1.4v-1.5l-7.6-1.4c-0.1,0-0.2,0-0.4,0v4.4C12.6,14.7,12.7,14.7,12.9,14.7z"/>
	<path class="st4" d="M4.5,11.8v1.5l7.6,1.4c0.1,0,0.2,0,0.4,0v-4.4c-0.1,0-0.2,0-0.4,0L4.5,11.8z"/>
</g>
</svg>
