<?xml version="1.0" encoding="utf-8"?>
<!-- Generator: Adobe Illustrator 22.0.1, SVG Export Plug-In . SVG Version: 6.00 Build 0)  -->
<svg version="1.1" id="Layer_1" xmlns="http://www.w3.org/2000/svg" xmlns:xlink="http://www.w3.org/1999/xlink" x="0px" y="0px"
	 viewBox="0 0 226 226" style="enable-background:new 0 0 226 226;" xml:space="preserve">
<style type="text/css">
	.st0{fill:#282B3A;}
	.st1{fill:#943B79;}
	.st2{fill:#852F65;}
	.st3{fill:#9263AB;}
	.st4{fill:#925091;}
</style>
<g>
	<path class="st0" d="M206,50.3L122.1,3.4c-5.7-3.2-12.5-3.2-18.2,0L20,50.3c-5.9,3.3-9.6,9.5-9.6,16.3v92.8c0,6.8,3.7,13,9.6,16.3
		l83.9,46.9c5.7,3.2,12.5,3.2,18.2,0l83.9-46.9c5.9-3.3,9.6-9.5,9.6-16.3V66.6C215.6,59.8,211.9,53.6,206,50.3z"/>
	<path class="st1" d="M38.4,134v15.3c0,3.4,1.8,6.5,4.8,8.1l65.3,36.5c1.4,0.8,3,1.2,4.6,1.2v-47.7c-1.1,0-2.3-0.1-3.4-0.3L38.4,134
		z"/>
	<path class="st2" d="M117.6,193.9l65.3-36.5c2.9-1.6,4.8-4.8,4.8-8.1V134l-71.2,13.1c-1.1,0.2-2.2,0.3-3.4,0.3v47.7
		C114.6,195.1,116.1,194.7,117.6,193.9z"/>
	<path class="st3" d="M108.4,32.1L43.2,68.6c-2.9,1.6-4.8,4.8-4.8,8.1V92l71.2-13.1c1.1-0.2,2.2-0.3,3.4-0.3V30.9
		C111.4,30.9,109.9,31.3,108.4,32.1z"/>
	<path class="st4" d="M187.6,92V76.8c0-3.4-1.8-6.5-4.8-8.1l-65.3-36.5c-1.4-0.8-3-1.2-4.6-1.2v47.7c1.1,0,2.3,0.1,3.4,0.3L187.6,92
		z"/>
	<path class="st1" d="M116.4,133.2l71.2-13.2v-14l-71.2-13.2c-1.1-0.2-2.3-0.3-3.4-0.3v40.9C114.1,133.5,115.3,133.4,116.4,133.2z"
		/>
	<path class="st4" d="M38.4,106v14l71.2,13.2c1.1,0.2,2.3,0.3,3.4,0.3V92.5c-1.1,0-2.3,0.1-3.4,0.3L38.4,106z"/>
</g>
</svg>
