<?xml version="1.0" encoding="utf-8"?>
<!-- Generator: Adobe Illustrator 22.1.0, SVG Export Plug-In . SVG Version: 6.00 Build 0)  -->
<svg version="1.1" id="Layer_1" xmlns="http://www.w3.org/2000/svg" xmlns:xlink="http://www.w3.org/1999/xlink" x="0px" y="0px"
	 viewBox="0 0 25 25" style="enable-background:new 0 0 25 25;" xml:space="preserve">
<style type="text/css">
	.st0{fill:#282B3A;}
	.st1{fill:#3FA9F5;}
	.st2{fill:#1696F0;}
	.st3{fill:#37BBF7;}
	.st4{fill:#79BFF2;}
</style>
<g>
	<path class="st0" d="M22.5,5.8l-9-5c-0.6-0.3-1.3-0.3-2,0l-9,5c-0.6,0.4-1,1-1,1.7v10c0,0.7,0.4,1.4,1,1.7l9,5c0.6,0.3,1.3,0.3,2,0
		l9-5c0.6-0.4,1-1,1-1.7v-10C23.5,6.8,23.1,6.1,22.5,5.8z"/>
	<path class="st1" d="M15.7,10.4l-3-1.7c-0.2-0.1-0.3-0.1-0.5,0l-3,1.7C9.1,10.5,9,10.7,9,10.8v3.3c0,0.2,0.1,0.3,0.3,0.4l3,1.7
		c0.2,0.1,0.3,0.1,0.5,0l3-1.7c0.2-0.1,0.3-0.3,0.3-0.4v-3.3C16,10.7,15.9,10.5,15.7,10.4z"/>
	<path class="st2" d="M7.5,15.3v-0.6v-4.1l-3-1.7v7.4c0,0.4,0.2,0.7,0.5,0.9l6.7,3.8v-3.4L7.5,15.3z"/>
	<path class="st3" d="M13,3.8c-0.3-0.2-0.7-0.2-1,0L5.2,7.6l3,1.7l4.3-2.4l4.2,2.3l3-1.7L13,3.8z"/>
	<path class="st4" d="M17.5,10.5v4.2v0.6l-4.3,2.4V21l6.7-3.8c0.3-0.2,0.5-0.5,0.5-0.9V8.8L17.5,10.5z"/>
</g>
</svg>
