<?xml version="1.0" encoding="utf-8"?>
<!-- Generator: Adobe Illustrator 22.0.1, SVG Export Plug-In . SVG Version: 6.00 Build 0)  -->
<svg version="1.1" id="Layer_1" xmlns="http://www.w3.org/2000/svg" xmlns:xlink="http://www.w3.org/1999/xlink" x="0px" y="0px"
	 viewBox="0 0 30 30" style="enable-background:new 0 0 30 30;" xml:space="preserve">
<style type="text/css">
	.st0{fill:#282B3A;}
	.st1{fill:#3FA9F5;}
	.st2{fill:#1696F0;}
	.st3{fill:#37BBF7;}
	.st4{fill:#79BFF2;}
</style>
<g>
	<path class="st0" d="M26.6,7.2L16.1,1.3c-0.7-0.4-1.6-0.4-2.3,0L3.4,7.2c-0.7,0.4-1.2,1.2-1.2,2v11.6c0,0.8,0.5,1.6,1.2,2l10.5,5.9
		c0.7,0.4,1.6,0.4,2.3,0l10.5-5.9c0.7-0.4,1.2-1.2,1.2-2V9.2C27.8,8.4,27.4,7.6,26.6,7.2z"/>
	<path class="st1" d="M18.8,12.6l-3.5-2c-0.2-0.1-0.4-0.1-0.6,0l-3.5,2c-0.2,0.1-0.3,0.3-0.3,0.5v3.9c0,0.2,0.1,0.4,0.3,0.5l3.5,2
		c0.2,0.1,0.4,0.1,0.6,0l3.5-2c0.2-0.1,0.3-0.3,0.3-0.5v-3.9C19.1,12.8,19,12.7,18.8,12.6z"/>
	<path class="st2" d="M9.2,18.3v-0.7v-4.8l-3.5-1.9v8.7c0,0.4,0.2,0.8,0.6,1l7.9,4.4V21L9.2,18.3z"/>
	<path class="st3" d="M15.6,4.9c-0.4-0.2-0.8-0.2-1.1,0L6.5,9.3l3.5,1.9l5-2.8l4.9,2.7l3.5-2L15.6,4.9z"/>
	<path class="st4" d="M20.8,12.7v4.9v0.7l-5,2.8v3.9l7.9-4.4c0.4-0.2,0.6-0.6,0.6-1v-8.8L20.8,12.7z"/>
</g>
</svg>
