<?xml version="1.0" encoding="utf-8"?>
<!-- Generator: Adobe Illustrator 22.1.0, SVG Export Plug-In . SVG Version: 6.00 Build 0)  -->
<svg version="1.1" id="Layer_1" xmlns="http://www.w3.org/2000/svg" xmlns:xlink="http://www.w3.org/1999/xlink" x="0px" y="0px"
	 viewBox="0 0 25 25" style="enable-background:new 0 0 25 25;" xml:space="preserve">
<style type="text/css">
	.st0{fill:#282B3A;}
	.st1{fill:#CB1462;}
	.st2{fill:#F22C8F;}
</style>
<g>
	<path class="st0" d="M22.5,5.8l-9-5c-0.6-0.3-1.3-0.3-2,0l-9,5c-0.6,0.4-1,1-1,1.7v10c0,0.7,0.4,1.4,1,1.7l9,5c0.6,0.3,1.3,0.3,2,0
		l9-5c0.6-0.4,1-1,1-1.7v-10C23.5,6.8,23.1,6.1,22.5,5.8z"/>
	<path class="st1" d="M20,13.7l-2.5-1.4L13,9.8c-0.3-0.2-0.7-0.2-1,0l-4.5,2.5L5,13.7c-0.3,0.2-0.5,0.5-0.5,0.9v1.8
		c0,0.4,0.2,0.7,0.5,0.9l2.5,1.4l4.5,2.5c0.3,0.2,0.7,0.2,1,0l4.5-2.5l2.5-1.4c0.3-0.2,0.5-0.5,0.5-0.9v-1.8
		C20.5,14.3,20.3,13.9,20,13.7z"/>
	<path class="st0" d="M16.7,15.1l-3.8-1.9c-0.2-0.1-0.6-0.1-0.8,0l-3.8,1.9c-0.4,0.2-0.4,0.7,0,0.9l3.8,1.9c0.2,0.1,0.6,0.1,0.8,0
		l3.8-1.9C17.1,15.7,17.1,15.3,16.7,15.1z"/>
	<path class="st2" d="M20,7.7l-2.5-1.4L13,3.8c-0.3-0.2-0.7-0.2-1,0L7.5,6.4L5,7.7C4.7,7.9,4.5,8.3,4.5,8.6v1.8
		c0,0.4,0.2,0.7,0.5,0.9l2.5,1.4l4.5,2.5c0.3,0.2,0.7,0.2,1,0l4.5-2.5l2.5-1.4c0.3-0.2,0.5-0.5,0.5-0.9V8.6
		C20.5,8.3,20.3,7.9,20,7.7z"/>
	<path class="st0" d="M16.7,9.1l-3.8-1.9c-0.2-0.1-0.6-0.1-0.8,0L8.3,9.1c-0.4,0.2-0.4,0.7,0,0.9l3.8,1.9c0.2,0.1,0.6,0.1,0.8,0
		l3.8-1.9C17.1,9.7,17.1,9.3,16.7,9.1z"/>
</g>
</svg>
