<?xml version="1.0" encoding="utf-8"?>
<!-- Generator: Adobe Illustrator 22.1.0, SVG Export Plug-In . SVG Version: 6.00 Build 0)  -->
<svg version="1.1" id="Layer_1" xmlns="http://www.w3.org/2000/svg" xmlns:xlink="http://www.w3.org/1999/xlink" x="0px" y="0px"
	 viewBox="0 0 25 25" style="enable-background:new 0 0 25 25;" xml:space="preserve">
<style type="text/css">
	.st0{fill:#282B3A;}
	.st1{fill:#B8B9C1;}
	.st2{fill:#8689A1;}
</style>
<g>
	<path class="st0" d="M22.5,5.8l-9-5c-0.6-0.3-1.3-0.3-2,0l-9,5c-0.6,0.4-1,1-1,1.7v10c0,0.7,0.4,1.4,1,1.7l9,5c0.6,0.3,1.3,0.3,2,0
		l9-5c0.6-0.4,1-1,1-1.7v-10C23.5,6.8,23.1,6.1,22.5,5.8z"/>
	<path class="st1" d="M17.5,10.5v4.2v0.6l-4.3,2.4V21l6.7-3.8c0.3-0.2,0.5-0.5,0.5-0.9V8.8L17.5,10.5z"/>
	<path class="st2" d="M5,7.7C4.7,7.9,4.5,8.3,4.5,8.6v7.6l3-1.7v-4.2V9.7l4.3-2.4V4L5,7.7z"/>
</g>
</svg>
