<?xml version="1.0" encoding="utf-8"?>
<!-- Generator: Adobe Illustrator 22.1.0, SVG Export Plug-In . SVG Version: 6.00 Build 0)  -->
<svg version="1.1" id="Layer_1" xmlns="http://www.w3.org/2000/svg" xmlns:xlink="http://www.w3.org/1999/xlink" x="0px" y="0px"
	 viewBox="0 0 48 48" style="enable-background:new 0 0 48 48;" xml:space="preserve">
<style type="text/css">
	.st0{fill:#282B3A;}
	.st1{fill:#45B886;}
	.st2{fill:#43B3AB;}
	.st3{fill:#4FB864;}
</style>
<g>
	<path class="st0" d="M43.1,11.1L25.9,1.5c-1.2-0.6-2.6-0.6-3.7,0L4.9,11.1c-1.2,0.7-2,2-2,3.3v19.1c0,1.4,0.8,2.7,2,3.3l17.2,9.6
		c1.2,0.6,2.6,0.6,3.7,0l17.2-9.6c1.2-0.7,2-2,2-3.3V14.5C45.1,13.1,44.3,11.8,43.1,11.1z"/>
	<path class="st1" d="M35.9,23.2l-11.4-6.4c-0.3-0.2-0.6-0.2-0.9,0l-11.4,6.4c-0.7,0.4-0.7,1.3,0,1.7l11.4,6.4
		c0.3,0.2,0.6,0.2,0.9,0l11.4-6.4C36.6,24.5,36.6,23.5,35.9,23.2z"/>
	<path class="st2" d="M24.9,7.4c-0.6-0.3-1.3-0.3-1.9,0l-13,7.3l5.8,3.2l8.2-4.6l8,4.5l5.7-3.2L24.9,7.4z"/>
	<path class="st3" d="M23.1,40.6c0.6,0.3,1.3,0.3,1.9,0l13-7.3l-5.8-3.2L24,34.7l-8-4.5l-5.7,3.2L23.1,40.6z"/>
</g>
</svg>
