<?xml version="1.0" encoding="utf-8"?>
<!-- Generator: Adobe Illustrator 23.0.2, SVG Export Plug-In . SVG Version: 6.00 Build 0)  -->
<svg version="1.1" id="Layer_1" xmlns="http://www.w3.org/2000/svg" xmlns:xlink="http://www.w3.org/1999/xlink" x="0px" y="0px"
	 viewBox="0 0 270 270" style="enable-background:new 0 0 270 270;" xml:space="preserve">
<g>
	<g>
		<path d="M78.2,160.9c0,11.3-9.3,20.6-20.6,20.6S37,172.2,37,160.9c0-11.3,9.3-20.6,20.6-20.6h20.6V160.9z"/>
		<path d="M88.6,160.9c0-11.3,9.3-20.6,20.6-20.6s20.6,9.3,20.6,20.6v51.6c0,11.3-9.3,20.6-20.6,20.6s-20.6-9.3-20.6-20.6
			C88.6,212.4,88.6,160.9,88.6,160.9z"/>
	</g>
	<g>
		<path d="M109.1,78.2c-11.3,0-20.6-9.3-20.6-20.6S97.8,37,109.1,37s20.6,9.3,20.6,20.6v20.6H109.1z"/>
		<path d="M109.1,88.6c11.3,0,20.6,9.3,20.6,20.6s-9.3,20.6-20.6,20.6H57.6c-11.3,0-20.6-9.3-20.6-20.6s9.3-20.6,20.6-20.6
			C57.6,88.6,109.1,88.6,109.1,88.6z"/>
	</g>
	<g>
		<path d="M191.8,109.1c0-11.3,9.3-20.6,20.6-20.6c11.3,0,20.6,9.3,20.6,20.6s-9.3,20.6-20.6,20.6h-20.6V109.1z"/>
		<path d="M181.4,109.1c0,11.3-9.3,20.6-20.6,20.6c-11.3,0-20.6-9.3-20.6-20.6V57.6c0-11.3,9.3-20.6,20.6-20.6
			c11.3,0,20.6,9.3,20.6,20.6V109.1z"/>
	</g>
	<g>
		<path d="M160.9,191.8c11.3,0,20.6,9.3,20.6,20.6c0,11.3-9.3,20.6-20.6,20.6c-11.3,0-20.6-9.3-20.6-20.6v-20.6H160.9z"/>
		<path d="M160.9,181.4c-11.3,0-20.6-9.3-20.6-20.6c0-11.3,9.3-20.6,20.6-20.6h51.6c11.3,0,20.6,9.3,20.6,20.6
			c0,11.3-9.3,20.6-20.6,20.6H160.9z"/>
	</g>
</g>
</svg>
