<svg xmlns="http://www.w3.org/2000/svg" data-name="Layer 1" viewBox="0 0 96 96" x="0px" y="0px"><title>Artboard 85</title><path d="M87,48H85.64014a2.00041,2.00041,0,0,1-1.82569-1.18311L73.89209,24.64355,22.18848,47.8252A2.00216,2.00216,0,0,1,21.37012,48H9a2.0001,2.0001,0,0,1-2-2V4A2.0001,2.0001,0,0,1,9,2H87a2.0001,2.0001,0,0,1,2,2V46A2.0001,2.0001,0,0,1,87,48ZM11,44h9.94238L74.08154,20.1748a2.001,2.001,0,0,1,2.644,1.00831L85,39.67334V6H11Z"></path><path d="M21.1001,94a2.00123,2.00123,0,0,1-1.82569-1.18311l-17.10009-38.21a2.00007,2.00007,0,0,1,1.00732-2.6416L74.08154,20.1748a2.001,2.001,0,0,1,2.644,1.00831l17.10009,38.21a2.00063,2.00063,0,0,1-1.00732,2.64209L21.91846,93.82471A1.99741,1.99741,0,0,1,21.1001,94ZM6.64209,54.79736,22.10791,89.35645l67.25-30.15381L73.89209,24.64355Z"></path><path d="M28,45.02979a2.0001,2.0001,0,0,1-2-2v-2.5a2,2,0,1,1,4,0v2.5A2.0001,2.0001,0,0,1,28,45.02979Z"></path><path d="M28,37.66846a2.0001,2.0001,0,0,1-2-2V30.80713a2,2,0,0,1,4,0v4.86133A2.0001,2.0001,0,0,1,28,37.66846Zm0-9.72266a2.0001,2.0001,0,0,1-2-2V21.084a2,2,0,1,1,4,0V25.9458A2.0001,2.0001,0,0,1,28,27.9458Zm0-9.72314a2.0001,2.0001,0,0,1-2-2V11.36133a2,2,0,0,1,4,0v4.86133A2.0001,2.0001,0,0,1,28,18.22266Z"></path><path d="M28,8.5a2.0001,2.0001,0,0,1-2-2V4a2,2,0,0,1,4,0V6.5A2.0001,2.0001,0,0,1,28,8.5Z"></path><path d="M37.00146,86.00049a2.00029,2.00029,0,0,1-1.81884-1.166l-.29981-.65283a1.99981,1.99981,0,0,1,3.63477-1.66894l.2998.65283a2.00116,2.00116,0,0,1-1.81592,2.835ZM34.61377,80.8042a2.00037,2.00037,0,0,1-1.81885-1.16553l-2.0874-4.54346a2,2,0,0,1,3.63477-1.66992l2.0874,4.54346a2.001,2.001,0,0,1-1.81592,2.83545ZM30.439,71.71729a2.00035,2.00035,0,0,1-1.81884-1.16553L26.53271,66.0083a2,2,0,0,1,3.63477-1.66992l2.0874,4.54346A2.001,2.001,0,0,1,30.439,71.71729Zm-4.1748-9.08643a2.00037,2.00037,0,0,1-1.81885-1.16553l-2.08789-4.54345A2,2,0,0,1,25.99219,55.252l2.08789,4.54346a2.001,2.001,0,0,1-1.81592,2.83545ZM22.08887,53.544A2.00035,2.00035,0,0,1,20.27,52.37842L18.18262,47.835A2,2,0,1,1,21.81738,46.165l2.08741,4.54346A2.001,2.001,0,0,1,22.08887,53.544Z"></path><path d="M34.001,52.00049a2.0004,2.0004,0,0,1-.80274-3.833l32-14a2.00024,2.00024,0,0,1,1.60352,3.665l-32,14A2.00162,2.00162,0,0,1,34.001,52.00049Z"></path><path d="M37.001,59.00049a2.00028,2.00028,0,0,1-.77686-3.84375l19-8a1.9999,1.9999,0,1,1,1.55176,3.68652l-19,8A1.98779,1.98779,0,0,1,37.001,59.00049Z"></path><path d="M44.001,75.00049a2.0004,2.0004,0,0,1-.80274-3.833l32-14a2.00024,2.00024,0,0,1,1.60352,3.665l-32,14A2.00162,2.00162,0,0,1,44.001,75.00049Z"></path><path d="M70,14H37a2,2,0,0,1,0-4H70a2,2,0,0,1,0,4Z"></path><path d="M55,22H37a2,2,0,0,1,0-4H55a2,2,0,0,1,0,4Z"></path></svg>