<?xml version="1.0" encoding="utf-8"?>
<!-- Generator: Adobe Illustrator 22.0.1, SVG Export Plug-In . SVG Version: 6.00 Build 0)  -->
<svg version="1.1" id="Layer_1" xmlns="http://www.w3.org/2000/svg" xmlns:xlink="http://www.w3.org/1999/xlink" x="0px" y="0px"
	 viewBox="0 0 500 354.9" style="enable-background:new 0 0 500 354.9;" xml:space="preserve">
<style type="text/css">
	.st0{fill:#124658;}
	.st1{fill:#FFD78F;}
	.st2{fill:#F15A24;}
	.st3{fill:#E8AB74;}
	.st4{fill:#FCDBB1;}
	.st5{fill:#1B1464;}
	.st6{fill:#0F0100;}
	.st7{fill:#EEEEEE;}
	.st8{fill:#FF7F5C;}
	.st9{fill:#3CA2A2;}
	.st10{fill:#FFFEF1;}
	.st11{fill:#EB6841;}
	.st12{fill:#93C6AF;}
	.st13{fill:#56AF8F;}
	.st14{fill:#449978;}
	.st15{fill:#215A6D;}
	.st16{fill:#EDEBE6;}
	.st17{fill:#616668;}
	.st18{fill:#B7B6AE;}
	.st19{fill:#E0DFD5;}
	.st20{fill:#BFB6A6;}
	.st21{fill:#F4A11C;}
	.st22{fill:#E5DDCB;}
	.st23{fill:#FFE9C5;}
	.st24{fill:#FFFFF1;}
	.st25{fill:#403B33;}
</style>
<rect x="-0.6" y="-3" class="st0" width="502.1" height="398.4"/>
<polygon class="st1" points="67,326.8 433,326.8 493.9,328.4 249.9,87.3 6,328.2 "/>
<g>
	<g>
		<path class="st2" d="M218.6,245.2c0,0-1-0.2-1-2.7c0-2.5-0.3-28.1-0.3-28.1s-17.3-15.3-3.5-34.3c0,0,1.2,13.1,11.8,11.3
			c10.6-1.9,34.5-5.6,41.7-5.2c7.2,0.3,21.2,5.7,19.8,24.6c-1.3,18.8-3.2,40.7-4.4,44.2c-1.4,4.2-53.7-3.7-53.7-3.7L218.6,245.2z"/>
	</g>
	<g>
		<path class="st3" d="M276.4,249.5c0,1.5,1.2,2.7,2.7,2.7h3.4c1.5,0,2.7-1.2,2.7-2.7v-6c0-1.5-1.2-2.7-2.7-2.7h-3.4
			c-1.5,0-2.7,1.2-2.7,2.7V249.5z"/>
	</g>
	<g>
		<path class="st3" d="M216.4,249.5c0,1.5,1.2,2.7,2.7,2.7h3.4c1.5,0,2.7-1.2,2.7-2.7v-6c0-1.5-1.2-2.7-2.7-2.7h-3.4
			c-1.5,0-2.7,1.2-2.7,2.7V249.5z"/>
	</g>
	<g>
		<path class="st4" d="M209.4,315.8c0,1.4,1.1,2.5,2.5,2.5l0,0c1.4,0,2.5-1.1,2.5-2.5v-12.5c0-1.4-1.1-2.5-2.5-2.5l0,0
			c-1.4,0-2.5,1.1-2.5,2.5V315.8z"/>
	</g>
	<path class="st5" d="M291.2,294.7c-0.5-2.1-0.5-15.9-0.5-22.6c0-1.4,0-2.7,0-3.8c0-3-1-5.6-2.8-7.4c-2.2-2.2-4.9-2.8-6.5-3
		c0,0,0,0,0,0c-0.5-0.1-0.4-0.1-0.9-0.1c-0.2-0.1-59.8-0.1-60,0c-2.1,0.2-4.9,0.9-7.4,3.1c-2.8,2.5-4.1,6.2-4.1,10.9V314h5.9v-42.2
		c0-2.9,0.8-5,2.2-6.3c0.7-0.6,1.6-1,2.4-1.3V318c0,0.9,0.7,1.6,1.6,1.6h58.8c0.9,0,1.4-0.8,1.4-1.6v-53.8c0-0.1,0-0.4,0-0.9
		c0.5,0.1,1.1,0.3,1.7,0.6c1.6,0.8,2.3,2.2,2.3,4.4c0,1.1,0,2.4,0,3.8c0,14.3,0.1,22,0.7,24.1c0.8,2.7,8.7,12.9,12,17.1l4.2-3.3
		C297.4,303.9,291.8,296.3,291.2,294.7z"/>
	<g>
		<path class="st4" d="M221.3,272.7c0,3,2.8,5.5,6.3,5.5h46.2c3.5,0,6.3-2.4,6.3-5.5v-50.9c0-3-2.8-5.5-6.3-5.5h-46.2
			c-3.5,0-6.3,2.4-6.3,5.5V272.7z"/>
	</g>
	<g>
		<path class="st6" d="M265.4,251.3c0,1.7,1.3,3,3,3c1.7,0,3-1.3,3-3c0-1.7-1.3-3-3-3C266.8,248.3,265.4,249.7,265.4,251.3z"/>
	</g>
	<g>
		<path class="st7" d="M268.8,250.6c0,0.4,0.3,0.8,0.8,0.8c0.4,0,0.8-0.3,0.8-0.8c0-0.4-0.3-0.8-0.8-0.8
			C269.1,249.8,268.8,250.1,268.8,250.6z"/>
	</g>
	<g>
		<path class="st6" d="M229.6,251.3c0,1.7,1.3,3,3,3c1.7,0,3-1.3,3-3c0-1.7-1.3-3-3-3C231,248.3,229.6,249.7,229.6,251.3z"/>
	</g>
	<path class="st8" d="M243.6,262.9c0.2-0.3,0.5-0.5,0.9-0.5h12.7c0.4,0,0.7,0.2,0.9,0.5c0.2,0.3,0.2,0.7,0.1,1
		c-0.1,0.3-3,6.2-7.6,6.2c-4.7,0-7-6.1-7.1-6.3C243.3,263.6,243.4,263.2,243.6,262.9z"/>
	<g>
		<polygon class="st2" points="238.1,215 263.2,215 250.7,226.3 		"/>
	</g>
	<g>
		<path class="st7" d="M232.9,250.6c0,0.4,0.3,0.8,0.8,0.8c0.4,0,0.8-0.3,0.8-0.8c0-0.4-0.3-0.8-0.8-0.8
			C233.3,249.8,232.9,250.1,232.9,250.6z"/>
	</g>
	<path class="st9" d="M310.7,318.8c-0.2-4-3.5-7.2-7.5-7.2c-4,0-7.3,3.1-7.5,7.2H310.7z"/>
	<path class="st4" d="M302.1,310.2l-4,3.1l1.7,2.3c0.8,1.1,2.4,1.4,3.5,0.6c1.1-0.8,1.4-2.4,0.6-3.5L302.1,310.2z"/>
</g>
<g>
	<path class="st10" d="M365.5,257.3h-26.8c-1.9,0-3.4,1.5-3.4,3.4c0,1.9,1.5,3.4,3.4,3.4h3.7c1.5,0,2.7,1.2,2.7,2.7
		c0,1.5-1.2,2.7-2.7,2.7h-9.7l0,0c0,0,0,0,0,0c-1.9,0-3.4,1.5-3.4,3.4c0,1.9,1.5,3.4,3.4,3.4c0,0,0,0,0,0l0,0h20.5l0,0c0,0,0,0,0,0
		c1.9,0,3.4-1.5,3.4-3.4c0-1.9-1.5-3.4-3.4-3.4c0,0,0,0,0,0l0,0h-2.1c-1.5,0-2.7-1.2-2.7-2.7c0-1.5,1.2-2.7,2.7-2.7h14.3
		c1.9,0,3.4-1.5,3.4-3.4C369,258.8,367.4,257.3,365.5,257.3z"/>
	<g>
		<path class="st11" d="M356.3,317.5c0,0.8-0.6,1.4-1.4,1.4h-24.7c-0.8,0-1.4-0.6-1.4-1.4v-34.3c0-0.8,0.6-1.4,1.4-1.4h24.7
			c0.8,0,1.4,0.6,1.4,1.4V317.5z"/>
		<g>
			<g>
				<path class="st11" d="M328.9,313.9c-7.5,0-13.6-6.1-13.6-13.6c0-7.5,6.1-13.6,13.6-13.6c1.1,0,2.1,0.9,2.1,2.1
					c0,1.1-0.9,2.1-2.1,2.1c-5.2,0-9.4,4.2-9.4,9.4c0,5.2,4.2,9.4,9.4,9.4c1.1,0,2.1,0.9,2.1,2.1C331,313,330.1,313.9,328.9,313.9z"
					/>
			</g>
		</g>
	</g>
</g>
<rect x="-0.6" y="318.9" class="st12" width="501.3" height="15.3"/>
<rect x="-1.5" y="334.8" class="st13" width="502.9" height="163.9"/>
<rect x="-0.6" y="334.2" class="st14" width="501.3" height="5"/>
<g>
	<path class="st15" d="M205,315.1v1.7c0,1.2,0.9,2,2.1,2h85.7c1.2,0,2.2-0.9,2.2-2v-1.7H205z"/>
	<rect x="205" y="315.1" class="st9" width="90" height="1.7"/>
	<path class="st9" d="M295,258.1c0-0.7-0.5-1.2-1.2-1.2h-87.6c-0.7,0-1.2,0.5-1.2,1.2v55.6c0,0.7,0.5,1.2,1.2,1.2h87.6
		c0.7,0,1.2-0.5,1.2-1.2V258.1z"/>
	<path class="st16" d="M254.4,284.6c-1.6,0-3-1.3-3-3c0-0.2,0-0.4,0.1-0.6c-0.4-0.1-0.9-0.2-1.4-0.2c-2.8,0-5.1,2.3-5.1,5.1
		s2.3,5.1,5.1,5.1c2.8,0,5.1-2.3,5.1-5.1c0-0.5-0.1-1-0.2-1.4C254.8,284.6,254.6,284.6,254.4,284.6z"/>
</g>
<g>
	<polygon class="st17" points="113.9,304.4 113.9,306.4 115.2,306.4 115.2,308.9 121,308.9 121,311.8 116.8,311.8 116.8,314.3 
		118.1,314.3 118.1,316.4 114.3,316.4 114.3,318.9 171.1,318.9 171.1,316.4 174.9,316.4 174.9,314.3 174,314.3 174,311.8 
		177.4,311.8 177.4,308.9 172,308.9 172,306.4 170.3,306.4 170.3,304.4 173.2,304.4 173.2,301.9 172,301.9 172,299.8 173.2,299.8 
		173.2,297.3 170.3,297.3 170.3,294.4 177.8,294.4 177.8,292.3 175.7,292.3 175.7,289.4 176.9,289.4 176.9,287.4 175.7,287.4 
		175.7,284.9 118.9,284.9 118.9,287.4 119.7,287.4 119.7,289.4 118.9,289.4 118.9,292.3 121,292.3 121,294.4 113.9,294.4 
		113.9,297.3 116,297.3 116,299.8 115.2,299.8 115.2,301.9 116,301.9 116,304.4 	"/>
	<rect x="130.9" y="316.4" class="st18" width="56.8" height="2.5"/>
	<rect x="134.7" y="314.3" class="st19" width="57.2" height="2.1"/>
	<rect x="129.3" y="311.8" class="st10" width="56.8" height="2.5"/>
	<rect x="127.2" y="309.8" class="st19" width="57.6" height="2.1"/>
	<rect x="130.1" y="306.9" class="st18" width="56.8" height="2.9"/>
	<rect x="129.3" y="304.8" class="st10" width="56.8" height="2.1"/>
	<rect x="130.1" y="302.3" class="st18" width="56.8" height="2.5"/>
	<rect x="127.2" y="299.8" class="st19" width="57.6" height="2.5"/>
	<rect x="131.3" y="281.1" class="st10" width="56.8" height="2.5"/>
	<rect x="128" y="283.6" class="st10" width="56.8" height="2.1"/>
	<rect x="133.4" y="285.7" class="st19" width="57.2" height="2.5"/>
	<rect x="135.1" y="288.2" class="st18" width="56.8" height="2.5"/>
	<rect x="132.6" y="290.7" class="st10" width="57.2" height="2.5"/>
	<rect x="133.4" y="293.2" class="st18" width="57.2" height="2.1"/>
	<rect x="132.6" y="295.2" class="st10" width="57.2" height="2.5"/>
	<rect x="135.1" y="297.7" class="st10" width="56.8" height="2.1"/>
	<rect x="128" y="278.7" class="st18" width="56.8" height="2.5"/>
	<rect x="134.7" y="276.6" class="st10" width="57.2" height="2.1"/>
</g>
<g>
	<rect x="248.2" y="-3" class="st20" width="4.7" height="79.2"/>
	<path class="st21" d="M257,117.1c0,3.9-3.1,7-7,7c-3.9,0-7-3.1-7-7c0-3.9,3.1-7,7-7C253.8,110.1,257,113.2,257,117.1z"/>
	<polygon class="st22" points="219.6,117.1 280.3,117.1 249.9,87.2 	"/>
	<path class="st22" d="M255.8,78.7c-0.1-3.1-2.7-5.6-5.8-5.6c-3.1,0-5.7,2.5-5.8,5.6h0v13c0,0.7,0.6,1.3,1.3,1.3h9.1
		c0.7,0,1.3-0.6,1.3-1.3L255.8,78.7L255.8,78.7z"/>
	<path class="st23" d="M251.2,134.1c0,0.7-0.6,1.2-1.2,1.2l0,0c-0.7,0-1.2-0.6-1.2-1.2v-5.4c0-0.7,0.6-1.2,1.2-1.2l0,0
		c0.7,0,1.2,0.6,1.2,1.2V134.1z"/>
	<path class="st23" d="M265.3,124.5c0.6,0.3,0.8,1.1,0.5,1.7l0,0c-0.3,0.6-1.1,0.8-1.7,0.5l-4.7-2.7c-0.6-0.3-0.8-1.1-0.5-1.7l0,0
		c0.3-0.6,1.1-0.8,1.7-0.5L265.3,124.5z"/>
	<path class="st23" d="M235.8,126.6c-0.6,0.3-1.3,0.1-1.7-0.5l0,0c-0.3-0.6-0.1-1.3,0.5-1.7l4.7-2.7c0.6-0.3,1.3-0.1,1.7,0.5l0,0
		c0.3,0.6,0.1,1.3-0.5,1.7L235.8,126.6z"/>
</g>
<g>
	<g>
		<path class="st24" d="M361.7,134.3c-19.9,0-36.1-16.2-36.1-36.1c0-19.9,16.2-36.1,36.1-36.1s36.1,16.2,36.1,36.1
			C397.8,118.1,381.6,134.3,361.7,134.3z"/>
	</g>
	<g>
		
			<rect x="345.6" y="70.2" transform="matrix(0.8661 -0.4998 0.4998 0.8661 10.3803 182.8761)" class="st20" width="2.1" height="3.8"/>
	</g>
	<g>
		
			<rect x="334.5" y="81.2" transform="matrix(0.4999 -0.8661 0.8661 0.4999 95.8122 332.1604)" class="st20" width="2.1" height="3.8"/>
	</g>
	<g>
		
			<rect x="333.6" y="112.3" transform="matrix(0.866 -0.5001 0.5001 0.866 -11.7032 182.9716)" class="st20" width="3.8" height="2.1"/>
	</g>
	<g>
		
			<rect x="344.7" y="123.4" transform="matrix(0.4998 -0.8661 0.8661 0.4998 65.6351 362.4048)" class="st20" width="3.8" height="2.1"/>
	</g>
	<g>
		
			<rect x="375.8" y="122.5" transform="matrix(0.8659 -0.5002 0.5002 0.8659 -11.6926 205.1338)" class="st20" width="2.1" height="3.8"/>
	</g>
	<g>
		
			<rect x="386.8" y="111.4" transform="matrix(0.4998 -0.8662 0.8662 0.4998 95.856 392.6188)" class="st20" width="2.1" height="3.8"/>
	</g>
	<g>
		
			<rect x="385.9" y="82.1" transform="matrix(0.8659 -0.5003 0.5003 0.8659 10.4437 205.1824)" class="st20" width="3.8" height="2.1"/>
	</g>
	<g>
		
			<rect x="374.9" y="71" transform="matrix(0.4999 -0.8661 0.8661 0.4999 126.0206 362.3654)" class="st20" width="3.8" height="2.1"/>
	</g>
	<g>
		<path class="st25" d="M361.7,134.3c-19.9,0-36.1-16.2-36.1-36.1c0-19.9,16.2-36.1,36.1-36.1s36.1,16.2,36.1,36.1
			C397.8,118.1,381.6,134.3,361.7,134.3z M361.7,66.5c-17.5,0-31.7,14.2-31.7,31.7c0,17.5,14.2,31.7,31.7,31.7
			c17.5,0,31.7-14.2,31.7-31.7C393.4,80.7,379.2,66.5,361.7,66.5z"/>
	</g>
	<g>
		<rect x="359.9" y="66.1" class="st25" width="3.6" height="4.9"/>
	</g>
	<g>
		<rect x="329.3" y="96.4" class="st25" width="5.2" height="3.6"/>
	</g>
	<g>
		<rect x="359.9" y="125.4" class="st25" width="3.6" height="5.2"/>
	</g>
	<g>
		<rect x="388.8" y="96.4" class="st25" width="5.2" height="3.6"/>
	</g>
	<g>
		<g>
			<g>
				<path class="st12" d="M361.7,136.5c-21.1,0-38.3-17.2-38.3-38.3c0-21.1,17.2-38.3,38.3-38.3c21.1,0,38.3,17.2,38.3,38.3
					C400,119.3,382.8,136.5,361.7,136.5z M361.7,64.3c-18.7,0-33.9,15.2-33.9,33.9s15.2,33.9,33.9,33.9c18.7,0,33.9-15.2,33.9-33.9
					S380.4,64.3,361.7,64.3z"/>
			</g>
		</g>
	</g>
	<g>
		<path class="st25" d="M365.1,98.2c0,1.9-1.5,3.5-3.5,3.5c-1.9,0-3.5-1.5-3.5-3.5c0-1.9,1.5-3.5,3.5-3.5
			C363.6,94.8,365.1,96.3,365.1,98.2z"/>
	</g>
	<g>
		<rect x="359.9" y="75.2" class="st0" width="3.6" height="23.1"/>
	</g>
	<g>
		<rect x="344.7" y="96.4" class="st0" width="17.1" height="3.6"/>
	</g>
	<g>
		<path class="st0" d="M361.7,100.6c-1.3,0-2.4-1.1-2.4-2.4c0-1.3,1.1-2.4,2.4-2.4c1.3,0,2.4,1.1,2.4,2.4
			C364,99.5,363,100.6,361.7,100.6z"/>
	</g>
</g>
</svg>
