<svg id="Layer_1" data-name="Layer 1" xmlns="http://www.w3.org/2000/svg" xmlns:xlink="http://www.w3.org/1999/xlink" viewBox="0 0 188 40"><defs><style>.cls-1{fill:url(#linear-gradient);}.cls-2{fill:#6e6e6e;}</style><linearGradient id="linear-gradient" x1="6.74" y1="31.31" x2="39.37" y2="8.46" gradientUnits="userSpaceOnUse"><stop offset="0.13" stop-color="#ffbe00"/><stop offset="0.63" stop-color="#ff8300"/><stop offset="0.86" stop-color="#f60"/></linearGradient></defs><title>kowhiri-logo</title><path class="cls-1" d="M3.63,7.5A26,26,0,0,1,7.41,2.92,12.19,12.19,0,0,1,10.78.59,6.28,6.28,0,0,1,13.58,0a3.78,3.78,0,0,1,2,.6A4.57,4.57,0,0,1,17,2.31a6,6,0,0,1,.62,2.34,7.75,7.75,0,0,1-.3,2.66A8.79,8.79,0,0,1,16.1,9.92a8.24,8.24,0,0,1-2,2,6.57,6.57,0,0,1-2.26,1,5,5,0,0,1-2.22,0,4.27,4.27,0,0,1-1.92-1,2.06,2.06,0,0,0-1.1-.51,2.48,2.48,0,0,0-1.18.15,3.88,3.88,0,0,0-1.12.66,5.09,5.09,0,0,0-1.56,2.3A4.3,4.3,0,0,0,2.54,16a3.86,3.86,0,0,0,.31,1.46,4.56,4.56,0,0,0,1,1.42,2.67,2.67,0,0,0,1.74.8,5.71,5.71,0,0,0,2.31-.39A21.07,21.07,0,0,0,10.81,18c1.09-.59,2.3-1.3,3.62-2.09,1.58-1,3.33-2.08,5.19-3.12A33.83,33.83,0,0,1,25.73,10a18.25,18.25,0,0,1,7-.91,17.34,17.34,0,0,1,8,2.79,10.86,10.86,0,0,1,3.73,4,14,14,0,0,1,1.61,5.67,17.22,17.22,0,0,1-.76,6.36,17.61,17.61,0,0,1-3.19,5.92A16.52,16.52,0,0,1,34.86,39a19.32,19.32,0,0,1-10,.65A28.22,28.22,0,0,1,15,35.76C10.68,33.1-.68,26.06,0,17.46a20.45,20.45,0,0,1,1-4.83A23.36,23.36,0,0,1,3.63,7.5"/><path class="cls-2" d="M56.85,11.12h5.73V37.94H56.85Zm15,0h6.68L69,24.21,79.2,37.94H72.43l-9.7-13.22Z"/><rect class="cls-2" x="84.57" y="11.12" width="10.52" height="4.02"/><path class="cls-2" d="M89.8,17.35A10.12,10.12,0,0,0,79.29,27.87a10.54,10.54,0,0,0,21.08,0A10.16,10.16,0,0,0,89.8,17.35Zm0,16.34c-2.93,0-5.06-2.21-5.06-5.82S86.87,22,89.8,22s5.06,2.21,5.06,5.82S92.74,33.69,89.8,33.69Z"/><path class="cls-2" d="M122.84,32l3.75-14.22h5.46l-5.82,20.13h-6L116.57,24.8l-3.66,13.13h-6L101.13,17.8h5.64L110.48,32l3.84-14.22h4.74Z"/><path class="cls-2" d="M134.31,7.24h5.42v11a14.71,14.71,0,0,1,5-.86c4.38,0,7.85,2,7.85,7.94V37.94h-5.46V25.66c0-2.26-1.22-3.43-3.57-3.43a11.32,11.32,0,0,0-3.79.59V37.94h-5.42Z"/><path class="cls-2" d="M156.33,11.71a3.25,3.25,0,1,1,3.25,3.2A3.25,3.25,0,0,1,156.33,11.71Zm6,26.22h-5.42V17.8h5.42Z"/><path class="cls-2" d="M172.28,37.94h-5.42V19.34a17.57,17.57,0,0,1,8-1.85,14.48,14.48,0,0,1,4.2.54v5.24a10.67,10.67,0,0,0-4.06-.68,9,9,0,0,0-2.75.45Z"/><path class="cls-2" d="M181.31,11.71a3.25,3.25,0,1,1,3.25,3.2A3.25,3.25,0,0,1,181.31,11.71Zm6,26.22h-5.42V17.8h5.42Z"/></svg>