<svg id="Layer_1" data-name="Layer 1" xmlns="http://www.w3.org/2000/svg" viewBox="0 0 274 56"><defs><style>.cls-1{fill:#de5948;}.cls-2{fill:#282b3a;}.cls-3{fill:#fff;}.cls-4{fill:#f37326;}.cls-5{fill:#f15a24;}.cls-6{fill:#f48c29;}.cls-7{fill:#f6a52b;}</style></defs><title>failure</title><path class="cls-1" d="M156,0H274a0,0,0,0,1,0,0V56a0,0,0,0,1,0,0H156a6,6,0,0,1-6-6V6a6,6,0,0,1,6-6Z" transform="translate(424 56) rotate(-180)"/><path class="cls-2" d="M6,0H150a0,0,0,0,1,0,0V56a0,0,0,0,1,0,0H6a6,6,0,0,1-6-6V6A6,6,0,0,1,6,0Z"/><path class="cls-3" d="M75.92,24.34a8.52,8.52,0,0,1,2,5.84,8.71,8.71,0,0,1-2.06,6,6.39,6.39,0,0,1-5,2.26,4.72,4.72,0,0,1-2.61-.77,5,5,0,0,1-1.89-2.34L65.4,38H63V16.18H66.7v8.28a4.81,4.81,0,0,1,4.36-2.34A6.2,6.2,0,0,1,75.92,24.34ZM66.7,29.29v2A3.68,3.68,0,0,0,67.87,34a3.53,3.53,0,0,0,2.56,1A3.24,3.24,0,0,0,73,33.68a5.28,5.28,0,0,0,1.08-3.47A5.25,5.25,0,0,0,73,26.76a3.32,3.32,0,0,0-2.65-1.28,3.54,3.54,0,0,0-2.63,1.05A3.7,3.7,0,0,0,66.7,29.29Z"/><path class="cls-3" d="M92.69,35.16A4.89,4.89,0,0,1,88,38.24c-2.73,0-4.52-1.07-5.39-3.21a6.79,6.79,0,0,1-.48-2.7V22.5h3.75V32a3.1,3.1,0,0,0,.73,2.27,2.39,2.39,0,0,0,1.79.75,4.68,4.68,0,0,0,1.79-.3,3.35,3.35,0,0,0,1.27-.91,5.59,5.59,0,0,0,1.24-3.65V22.5h3.75V38H92.69Z"/><path class="cls-3" d="M102.21,17.54a2.11,2.11,0,0,1,.61-1.6,2.35,2.35,0,0,1,1.71-.59,2.39,2.39,0,0,1,1.7.59,2.12,2.12,0,0,1,.62,1.6,2.12,2.12,0,0,1-.62,1.61,2.39,2.39,0,0,1-1.7.58,2.35,2.35,0,0,1-1.71-.58A2.12,2.12,0,0,1,102.21,17.54Zm.45,5h3.74V38h-3.74Z"/><path class="cls-3" d="M112.75,16.18h3.74V38h-3.74Z"/><path class="cls-3" d="M132.46,35.57a4.63,4.63,0,0,1-4.38,2.83,6.33,6.33,0,0,1-5-2.26,8.67,8.67,0,0,1-2.07-6,8.64,8.64,0,0,1,2-5.88,6.17,6.17,0,0,1,4.83-2.18,4.8,4.8,0,0,1,4.34,2.31V16.18H136V38H132.9Zm-3.91-10.09a3.33,3.33,0,0,0-2.65,1.28,5.25,5.25,0,0,0-1.06,3.45,5.28,5.28,0,0,0,1.08,3.47,3.39,3.39,0,0,0,5.17.24,3.78,3.78,0,0,0,1.11-2.79v-2a3.87,3.87,0,0,0-1.11-2.7A3.44,3.44,0,0,0,128.55,25.48Z"/><path class="cls-3" d="M162.27,22.53h2.29V20.72A4.68,4.68,0,0,1,166,17.07a4.76,4.76,0,0,1,3.3-1.14,16.37,16.37,0,0,1,3.21.38l-.73,2.89a4.63,4.63,0,0,0-1.6-.32,2.1,2.1,0,0,0-1.26.39,1.74,1.74,0,0,0-.54,1.48v1.78h2.83V25h-2.83V38h-3.77V25h-2.29Z"/><path class="cls-3" d="M180.65,28.94a17.94,17.94,0,0,1,4.25.6V28a3.72,3.72,0,0,0-.65-2.4,2.62,2.62,0,0,0-2.13-.78,3.79,3.79,0,0,0-2.27.59,2,2,0,0,0-.79,1.67H175a4.15,4.15,0,0,1,1.85-3.81A9.73,9.73,0,0,1,182,22.12q4.77,0,6.16,3.33a6.91,6.91,0,0,1,.48,2.69V38h-3.27l-.29-2.06a5,5,0,0,1-4.57,2.51,6.76,6.76,0,0,1-4.63-1.46,4.58,4.58,0,0,1-1.53-3.54A3.77,3.77,0,0,1,176,30.1,8,8,0,0,1,180.65,28.94Zm4.25,3a13.33,13.33,0,0,0-3.49-.51c-2,0-3,.68-3,2a1.88,1.88,0,0,0,.7,1.47,3.35,3.35,0,0,0,2.24.62,3.39,3.39,0,0,0,2.54-1A3.83,3.83,0,0,0,184.9,31.92Z"/><path class="cls-3" d="M194,17.54a2.14,2.14,0,0,1,.6-1.6,2.76,2.76,0,0,1,3.41,0,2.12,2.12,0,0,1,.62,1.6,2.12,2.12,0,0,1-.62,1.61,2.8,2.8,0,0,1-3.41,0A2.15,2.15,0,0,1,194,17.54Zm.44,5h3.75V38h-3.75Z"/><path class="cls-3" d="M204.51,16.18h3.75V38h-3.75Z"/><path class="cls-3" d="M224.41,35.16a4.89,4.89,0,0,1-4.69,3.08q-4.09,0-5.4-3.21a6.79,6.79,0,0,1-.48-2.7V22.5h3.75V32a3.1,3.1,0,0,0,.73,2.27,2.4,2.4,0,0,0,1.79.75,4.77,4.77,0,0,0,1.8-.3,3.39,3.39,0,0,0,1.26-.91,5.59,5.59,0,0,0,1.24-3.65V22.5h3.75V38h-3.75Z"/><path class="cls-3" d="M237.81,25.57c.93-2.22,2.32-3.33,4.19-3.33a5.89,5.89,0,0,1,1.36.22l-.06,3.75a8.22,8.22,0,0,0-1.75-.19c-2.5,0-3.74,1.72-3.74,5.17V38h-3.75V22.5h3.75Z"/><path class="cls-3" d="M259.21,26.72a8.43,8.43,0,0,1,.4,2.44,13.43,13.43,0,0,1-.13,2h-10a5.38,5.38,0,0,0,.92,3.05,3,3,0,0,0,2.6,1.17,2.48,2.48,0,0,0,2.76-2h3.78A5.59,5.59,0,0,1,257.45,37,7,7,0,0,1,253,38.4a6.66,6.66,0,0,1-5.11-2.23,8.41,8.41,0,0,1-2.13-5.93,8.34,8.34,0,0,1,2.13-6A6.71,6.71,0,0,1,253,22.12a6,6,0,0,1,5,2.25A7,7,0,0,1,259.21,26.72Zm-6.14-1.62a3.07,3.07,0,0,0-2.47,1,4.56,4.56,0,0,0-1,2.65h6.57q0-2.51-1.59-3.36A3.12,3.12,0,0,0,253.07,25.1Z"/><path class="cls-4" d="M17.46,16.28l-2.34,1.31A2.2,2.2,0,0,0,14,19.5v17a2.2,2.2,0,0,0,1.12,1.91l2.34,1.31L29.18,28Z"/><path class="cls-5" d="M32.57,9a2.2,2.2,0,0,0-2.14,0l-10,5.59L31.5,25.68,42.56,14.62Z"/><path class="cls-6" d="M47.88,17.59l-2.34-1.31L33.82,28,45.54,39.72l2.34-1.31A2.2,2.2,0,0,0,49,36.5v-17A2.2,2.2,0,0,0,47.88,17.59Z"/><path class="cls-7" d="M31.5,30.32,20.44,41.38l10,5.59a2.2,2.2,0,0,0,2.14,0l10-5.59Z"/></svg>