<svg id="Layer_1" data-name="Layer 1" xmlns="http://www.w3.org/2000/svg" viewBox="0 0 170 36"><defs><style>.cls-1{fill:#282b3a;}.cls-2{fill:#f37326;}.cls-3{fill:#f15a24;}.cls-4{fill:#f48c29;}.cls-5{fill:#f6a52b;}</style></defs><title>buildmaster</title><path class="cls-1" d="M30.47,8.48,17.73,1.36a2.84,2.84,0,0,0-2.77,0L2.22,8.48A2.85,2.85,0,0,0,.77,11v14.1a2.85,2.85,0,0,0,1.45,2.47L15,34.64a2.84,2.84,0,0,0,2.77,0l12.74-7.12a2.85,2.85,0,0,0,1.45-2.47V11A2.85,2.85,0,0,0,30.47,8.48Z"/><path class="cls-2" d="M7.26,10.42l-1.51.84A1.43,1.43,0,0,0,5,12.5v11a1.43,1.43,0,0,0,.73,1.24l1.51.84L14.85,18Z"/><path class="cls-3" d="M17,5.72a1.41,1.41,0,0,0-1.38,0L9.19,9.34l7.16,7.16,7.16-7.16Z"/><path class="cls-4" d="M27,11.26l-1.52-.84L17.85,18l7.58,7.58L27,24.74a1.44,1.44,0,0,0,.72-1.24v-11A1.44,1.44,0,0,0,27,11.26Z"/><path class="cls-5" d="M16.35,19.5,9.19,26.66l6.47,3.62a1.41,1.41,0,0,0,1.38,0l6.47-3.62Z"/><path class="cls-1" d="M39.44,29.33V6.41h5.61a11.94,11.94,0,0,1,2.77.28,5.9,5.9,0,0,1,2.1.94,4,4,0,0,1,1.39,1.82,7.17,7.17,0,0,1,.46,2.81c0,2.82-1.14,4.41-3.38,4.74a4.65,4.65,0,0,1,3,1.77,6.66,6.66,0,0,1,1,3.91,6.82,6.82,0,0,1-1.64,5A6.4,6.4,0,0,1,46,29.33Zm4.17-13.58h1.3A3.28,3.28,0,0,0,47.44,15a4,4,0,0,0,.69-2.66,4.34,4.34,0,0,0-.23-1.57,1.65,1.65,0,0,0-.76-.9,3.21,3.21,0,0,0-1.2-.4,11.69,11.69,0,0,0-1.75-.1h-.58Zm0,10.63h1.54a3.21,3.21,0,0,0,2.58-.87,4.52,4.52,0,0,0,.72-2.87,4.55,4.55,0,0,0-.81-3,3.44,3.44,0,0,0-2.72-.93H43.61Z"/><path class="cls-1" d="M57.49,29.58a2.24,2.24,0,0,1-2-1A4.67,4.67,0,0,1,54.81,26V13h3.86V25.25a2.2,2.2,0,0,0,.23,1.13.92.92,0,0,0,.87.36,3.09,3.09,0,0,0,1.66-.69V13h3.86V29.33H61.43V27.8A5.9,5.9,0,0,1,57.49,29.58Z"/><path class="cls-1" d="M68.4,10.38V7.11h3.88v3.27Zm0,18.95V13h3.87V29.33Z"/><path class="cls-1" d="M75.56,29.33V6.41h3.87V29.33Z"/><path class="cls-1" d="M86.19,29.59a3.43,3.43,0,0,1-3-1.42,8.07,8.07,0,0,1-1-4.52V18.89a12.44,12.44,0,0,1,.2-2.38,7.43,7.43,0,0,1,.63-2,3.19,3.19,0,0,1,1.23-1.36,3.44,3.44,0,0,1,1.88-.49A4.2,4.2,0,0,1,89,14V6.41h3.87V29.33H89V28.21A4,4,0,0,1,86.19,29.59Zm1.36-2.76A3,3,0,0,0,89,26.38V15.93a2.83,2.83,0,0,0-1.51-.49,1.15,1.15,0,0,0-1.11.7,4.25,4.25,0,0,0-.34,1.8v6a8.4,8.4,0,0,0,.1,1.46,2.19,2.19,0,0,0,.43,1A1.15,1.15,0,0,0,87.55,26.83Z"/><path class="cls-1" d="M96.06,29.33l.38-22.92h4.28L104,22.51l3.42-16.1h4.18L112,29.33h-3.15l-.28-15.79-3.3,15.79h-2.45L99.51,13.49l-.25,15.84Z"/><path class="cls-1" d="M118.34,29.59a3.17,3.17,0,0,1-2.54-1.21,4.11,4.11,0,0,1-1-2.7,6.18,6.18,0,0,1,.47-2.49,4.38,4.38,0,0,1,1.54-1.82,13.72,13.72,0,0,1,1.78-1.11c.47-.23,1.19-.53,2.17-.91l.62-.25V17.73a3.84,3.84,0,0,0-.25-1.62,1.06,1.06,0,0,0-1-.51c-.86,0-1.29.6-1.31,1.8l-.06,1-3.7-.14V18c0-.15,0-.24,0-.29a5.36,5.36,0,0,1,1.53-3.78,5.6,5.6,0,0,1,3.85-1.2A4.56,4.56,0,0,1,124,14a5.38,5.38,0,0,1,1.17,3.71v7.48a30.83,30.83,0,0,0,.3,4.11H122c-.21-1.07-.34-1.87-.4-2.41a4.33,4.33,0,0,1-1.15,1.91A2.91,2.91,0,0,1,118.34,29.59Zm1.48-3a1.44,1.44,0,0,0,.87-.33,3.5,3.5,0,0,0,.7-.68v-4.5c-1.92,1.06-2.87,2.26-2.87,3.6a2.57,2.57,0,0,0,.33,1.4A1.1,1.1,0,0,0,119.82,26.59Z"/><path class="cls-1" d="M132.24,29.59a4.92,4.92,0,0,1-3.33-1.13,5.94,5.94,0,0,1-1.78-3.26l2.93-1.07a5,5,0,0,0,.86,2.05,1.61,1.61,0,0,0,1.38.67,1.32,1.32,0,0,0,1-.43,1.36,1.36,0,0,0,.37-1c0-.59-.58-1.33-1.62-2.23l-2.2-1.88c-1.58-1.36-2.36-2.78-2.32-4.27a4.15,4.15,0,0,1,1.33-3.13,4.72,4.72,0,0,1,3.3-1.17,4.36,4.36,0,0,1,3.13,1.16A5.63,5.63,0,0,1,136.85,17l-2.55,1.07c-.35-1.7-1-2.55-2-2.56a1.25,1.25,0,0,0-1,.37,1.29,1.29,0,0,0-.37.93c0,.5.45,1.15,1.37,1.95l2.24,2c.38.33.69.63.94.89a10.71,10.71,0,0,1,.78,1,4.5,4.5,0,0,1,.61,1.22,4.83,4.83,0,0,1,.2,1.4,3.93,3.93,0,0,1-1.38,3.21A5.32,5.32,0,0,1,132.24,29.59Z"/><path class="cls-1" d="M143.79,29.55a4.66,4.66,0,0,1-1.9-.37,2.79,2.79,0,0,1-1.21-1,4.72,4.72,0,0,1-.6-1.5,8.61,8.61,0,0,1-.19-1.94V15.52h-1.62V13h1.62V8.15h3.88V13h2.49v2.56h-2.49V25a1.3,1.3,0,0,0,1.48,1.52,7.16,7.16,0,0,0,1.18-.08v3A18,18,0,0,1,143.79,29.55Z"/><path class="cls-1" d="M153.59,29.59a4.84,4.84,0,0,1-4-1.55,7.22,7.22,0,0,1-1.23-4.57V18.84a7.19,7.19,0,0,1,1.25-4.58,4.84,4.84,0,0,1,4-1.55,6.16,6.16,0,0,1,2.46.43,3.47,3.47,0,0,1,1.57,1.3,6,6,0,0,1,.79,2,13.58,13.58,0,0,1,.24,2.75v2.14h-6.47v3.25c0,.19,0,.42.05.69a2,2,0,0,0,.37,1.07.94.94,0,0,0,.41.33,1.64,1.64,0,0,0,.58.09,1.12,1.12,0,0,0,1.07-.54,3.27,3.27,0,0,0,.31-1.59V23.7h3.66v.65a5.47,5.47,0,0,1-1.26,3.89A4.93,4.93,0,0,1,153.59,29.59ZM152.17,19.4H155V17.84a3.85,3.85,0,0,0-.31-1.78,1.17,1.17,0,0,0-1.1-.54,1.08,1.08,0,0,0-1.09.61,5.59,5.59,0,0,0-.29,2.21Z"/><path class="cls-1" d="M161.33,29.33V13h3.87v2.52a6.76,6.76,0,0,1,1.66-2.09,2.91,2.91,0,0,1,1.79-.64,3,3,0,0,1,.58.07v3.83a3.88,3.88,0,0,0-1.34-.25,2.9,2.9,0,0,0-1.46.42,4.21,4.21,0,0,0-1.23,1.28V29.33Z"/></svg>