<?xml version="1.0" encoding="utf-8"?>
<!-- Generator: Adobe Illustrator 23.0.1, SVG Export Plug-In . SVG Version: 6.00 Build 0)  -->
<svg version="1.1" id="Layer_1" xmlns="http://www.w3.org/2000/svg" xmlns:xlink="http://www.w3.org/1999/xlink" x="0px" y="0px"
	 viewBox="0 0 61 20" style="enable-background:new 0 0 61 20;" xml:space="preserve">
<style type="text/css">
	.st0{fill:#CDD0D5;}
</style>
<g>
	<g>
		<g>
			<path class="st0" d="M1.4,6.8l7.1,3.8c0.3,0.2,0.7,0.2,1,0l7.1-3.8c0.6-0.4,0.6-1.3,0-1.7L9.5,1.3c-0.3-0.2-0.7-0.2-1,0L1.4,5.2
				C0.8,5.5,0.8,6.5,1.4,6.8z"/>
			<path class="st0" d="M16.7,9.2l-1.2-0.7l-5.9,3.2c-0.3,0.2-0.7,0.2-1,0L2.6,8.5L1.4,9.2c-0.6,0.4-0.6,1.3,0,1.7l7.1,3.8
				c0.3,0.2,0.7,0.2,1,0l7.1-3.8C17.3,10.5,17.3,9.5,16.7,9.2z"/>
			<path class="st0" d="M16.7,13.2l-1.2-0.7l-5.9,3.2c-0.3,0.2-0.7,0.2-1,0l-5.9-3.2l-1.2,0.7c-0.6,0.4-0.6,1.3,0,1.7l7.1,3.8
				c0.3,0.2,0.7,0.2,1,0l7.1-3.8C17.3,14.5,17.3,13.5,16.7,13.2z"/>
		</g>
		<g>
			<g>
				<path class="st0" d="M22.2,3.9V1.7h2.6v2.2H22.2z M22.2,16.5v-11h2.6v11H22.2z"/>
				<path class="st0" d="M26.8,16.5v-11h2.6v1.1c0.9-0.8,1.8-1.2,2.7-1.2c0.6,0,1.1,0.2,1.4,0.7s0.4,1,0.4,1.7v8.8h-2.6V8.4
					c0-0.3,0-0.6-0.1-0.8c-0.1-0.2-0.3-0.2-0.6-0.2c-0.3,0-0.7,0.2-1.2,0.5v8.7H26.8z"/>
				<path class="st0" d="M39.1,16.7c-1.3,0-2.2-0.3-2.7-1c-0.5-0.7-0.8-1.7-0.8-3.1V9.5c0-1.4,0.3-2.4,0.8-3.1c0.6-0.7,1.4-1,2.7-1
					c0.7,0,1.2,0.1,1.7,0.3s0.8,0.5,1,0.9c0.2,0.4,0.4,0.8,0.5,1.3c0.1,0.5,0.2,1.1,0.2,1.8v1.4h-4.3v1.6c0,0.2,0,0.4,0,0.5
					c0,0.1,0,0.3,0,0.5c0,0.2,0,0.3,0.1,0.4c0,0.1,0.1,0.2,0.2,0.3c0.1,0.1,0.2,0.2,0.3,0.2c0.1,0,0.2,0.1,0.4,0.1
					c0.3,0,0.6-0.1,0.7-0.4c0.1-0.2,0.2-0.6,0.2-1.1v-0.6h2.5v0.4c0,1.1-0.3,2-0.8,2.6C41.1,16.4,40.2,16.7,39.1,16.7z M38.2,9.9H40
					v-1c0-0.6-0.1-1-0.2-1.2c-0.1-0.2-0.4-0.4-0.7-0.4c-0.4,0-0.6,0.1-0.7,0.4c-0.1,0.3-0.2,0.8-0.2,1.5V9.9z"/>
				<path class="st0" d="M46.8,16.7c-0.9,0-1.6-0.3-2-1c-0.4-0.6-0.7-1.6-0.7-3V9.6c0-0.6,0-1.1,0.1-1.6c0.1-0.5,0.2-0.9,0.4-1.3
					c0.2-0.4,0.5-0.7,0.8-0.9c0.4-0.2,0.8-0.3,1.3-0.3c0.7,0,1.3,0.3,1.9,0.8V1.2h2.6v15.3h-2.6v-0.7C48.1,16.4,47.4,16.7,46.8,16.7
					z M47.7,14.9c0.3,0,0.6-0.1,1-0.3v-7c-0.4-0.2-0.7-0.3-1-0.3c-0.3,0-0.6,0.2-0.7,0.5s-0.2,0.7-0.2,1.2v4c0,0.4,0,0.7,0.1,1
					c0,0.3,0.1,0.5,0.3,0.7C47.2,14.8,47.4,14.9,47.7,14.9z"/>
				<path class="st0" d="M56.5,16.7c-1.2,0-2.1-0.3-2.6-1c-0.6-0.7-0.9-1.6-0.9-2.8V9.3c0-1.2,0.3-2.2,0.9-2.8c0.6-0.7,1.5-1,2.6-1
					c1.2,0,2.1,0.3,2.7,1C59.8,7.1,60,8,60,9.3v3.6c0,1.2-0.3,2.2-0.9,2.8C58.6,16.4,57.7,16.7,56.5,16.7z M56.5,14.9
					c0.2,0,0.4,0,0.5-0.1c0.1-0.1,0.2-0.2,0.3-0.4c0.1-0.2,0.1-0.4,0.1-0.6c0-0.2,0-0.4,0-0.7v-4c0-0.2,0-0.4,0-0.6
					c0-0.2,0-0.3-0.1-0.5c0-0.2-0.1-0.3-0.2-0.4c-0.1-0.1-0.2-0.2-0.3-0.3c-0.1-0.1-0.3-0.1-0.4-0.1c-0.2,0-0.4,0-0.5,0.1
					c-0.1,0.1-0.2,0.2-0.3,0.4s-0.1,0.4-0.1,0.6c0,0.2,0,0.4,0,0.7v4c0,0.2,0,0.4,0,0.6c0,0.2,0,0.3,0.1,0.5c0,0.2,0.1,0.3,0.2,0.4
					c0.1,0.1,0.2,0.2,0.3,0.3C56.2,14.9,56.4,14.9,56.5,14.9z"/>
			</g>
		</g>
	</g>
</g>
</svg>
