<?xml version="1.0" encoding="utf-8"?>
<!-- Generator: Adobe Illustrator 23.0.1, SVG Export Plug-In . SVG Version: 6.00 Build 0)  -->
<svg version="1.1" id="Layer_1" xmlns="http://www.w3.org/2000/svg" xmlns:xlink="http://www.w3.org/1999/xlink" x="0px" y="0px"
	 viewBox="0 0 60 20" style="enable-background:new 0 0 60 20;" xml:space="preserve">
<style type="text/css">
	.st0{fill:#FFFFFF;}
</style>
<g>
	<g>
		<g>
			<path class="st0" d="M0.92,6.85l7.14,3.82c0.3,0.17,0.67,0.17,0.98,0l7.14-3.82c0.63-0.39,0.63-1.31,0-1.7L9.04,1.33
				c-0.3-0.17-0.67-0.17-0.98,0L0.92,5.15C0.3,5.54,0.3,6.46,0.92,6.85z"/>
			<path class="st0" d="M16.17,9.15L14.96,8.5l-5.92,3.17c-0.3,0.17-0.67,0.17-0.98,0L2.14,8.5L0.92,9.15
				c-0.63,0.39-0.63,1.31,0,1.7l7.14,3.82c0.3,0.17,0.67,0.17,0.98,0l7.14-3.82C16.8,10.46,16.8,9.54,16.17,9.15z"/>
			<path class="st0" d="M16.17,13.15l-1.22-0.65l-5.92,3.17c-0.3,0.17-0.67,0.17-0.98,0L2.14,12.5l-1.22,0.65
				c-0.63,0.39-0.63,1.31,0,1.7l7.14,3.82c0.3,0.17,0.67,0.17,0.98,0l7.14-3.82C16.8,14.46,16.8,13.54,16.17,13.15z"/>
		</g>
		<g>
			<g>
				<path class="st0" d="M21.69,3.86V1.67h2.6v2.18H21.69z M21.69,16.54V5.59h2.59v10.96H21.69z"/>
				<path class="st0" d="M26.32,16.54V5.59h2.59v1.07c0.88-0.83,1.77-1.24,2.67-1.24c0.62,0,1.08,0.23,1.37,0.68
					s0.43,1.02,0.43,1.68v8.75h-2.59V8.36c0-0.35-0.05-0.6-0.15-0.77c-0.1-0.17-0.29-0.25-0.57-0.24c-0.32,0.01-0.71,0.17-1.16,0.5
					v8.69H26.32z"/>
				<path class="st0" d="M38.62,16.72c-1.25,0-2.15-0.35-2.7-1.04c-0.55-0.69-0.82-1.71-0.82-3.06v-3.1c0-1.35,0.28-2.37,0.83-3.06
					c0.56-0.69,1.45-1.04,2.68-1.04c0.65,0,1.2,0.1,1.65,0.29s0.8,0.48,1.05,0.87c0.25,0.39,0.43,0.84,0.53,1.35
					c0.1,0.51,0.16,1.12,0.16,1.84v1.43h-4.33v1.65c0,0.23,0,0.41,0,0.53c0,0.13,0.01,0.28,0.03,0.46c0.02,0.18,0.05,0.32,0.09,0.42
					c0.04,0.1,0.09,0.2,0.16,0.3c0.07,0.1,0.16,0.17,0.27,0.22c0.11,0.04,0.24,0.06,0.39,0.06c0.35,0,0.59-0.12,0.72-0.37
					c0.14-0.24,0.2-0.6,0.2-1.06v-0.63h2.45v0.43c0,1.13-0.28,2-0.85,2.6C40.57,16.42,39.73,16.72,38.62,16.72z M37.66,9.9h1.87
					V8.85c0-0.56-0.07-0.95-0.21-1.19c-0.14-0.24-0.38-0.36-0.74-0.36c-0.36,0-0.6,0.14-0.73,0.41c-0.13,0.27-0.19,0.76-0.19,1.48
					V9.9z"/>
				<path class="st0" d="M46.25,16.72c-0.89,0-1.56-0.32-2.01-0.95c-0.44-0.63-0.67-1.64-0.67-3.03V9.56c0-0.59,0.04-1.12,0.13-1.59
					c0.09-0.47,0.23-0.91,0.43-1.3c0.19-0.39,0.47-0.7,0.82-0.92c0.35-0.22,0.77-0.32,1.26-0.32c0.69,0,1.34,0.28,1.94,0.84V1.2
					h2.59v15.34h-2.59v-0.75C47.57,16.4,46.94,16.71,46.25,16.72z M47.16,14.87c0.31,0,0.65-0.1,1-0.3v-7
					c-0.35-0.22-0.69-0.33-1.01-0.33c-0.35,0-0.59,0.16-0.74,0.47s-0.23,0.72-0.23,1.2v4.02c0,0.39,0.02,0.72,0.06,0.98
					c0.04,0.26,0.14,0.48,0.29,0.67C46.68,14.77,46.89,14.87,47.16,14.87z"/>
				<path class="st0" d="M56.02,16.72c-1.18,0-2.06-0.33-2.63-0.99c-0.58-0.66-0.87-1.61-0.87-2.85V9.26c0-1.23,0.29-2.18,0.87-2.85
					c0.58-0.66,1.45-0.99,2.63-0.99c1.18,0,2.07,0.33,2.65,0.99c0.58,0.66,0.87,1.61,0.87,2.85v3.62c0,1.23-0.29,2.18-0.87,2.85
					C58.09,16.39,57.21,16.72,56.02,16.72z M56.03,14.89c0.21,0,0.38-0.05,0.51-0.14c0.13-0.09,0.23-0.24,0.29-0.43
					c0.06-0.19,0.1-0.38,0.12-0.56c0.02-0.18,0.03-0.42,0.03-0.71V9.08c0-0.23,0-0.42-0.01-0.57c-0.01-0.15-0.03-0.32-0.06-0.49
					c-0.03-0.18-0.08-0.32-0.15-0.42c-0.07-0.1-0.16-0.19-0.28-0.26c-0.12-0.07-0.26-0.11-0.43-0.11c-0.21,0-0.38,0.05-0.51,0.14
					c-0.13,0.1-0.23,0.24-0.29,0.43s-0.1,0.38-0.12,0.56c-0.02,0.18-0.03,0.42-0.03,0.71v3.97c0,0.23,0,0.42,0.01,0.57
					c0.01,0.15,0.03,0.31,0.06,0.49c0.03,0.18,0.08,0.31,0.15,0.42c0.07,0.1,0.16,0.19,0.28,0.26
					C55.71,14.86,55.86,14.89,56.03,14.89z"/>
			</g>
		</g>
	</g>
</g>
</svg>
