<svg id="Layer_1" data-name="Layer 1" xmlns="http://www.w3.org/2000/svg" viewBox="0 0 180 36"><defs><style>.cls-1{fill:#194073;}.cls-2{fill:#01528f;}.cls-3{fill:#194173;}.cls-4{fill:#162c53;}.cls-5{fill:#282b3a;}</style></defs><title>inedo-hub</title><path class="cls-1" d="M37.91,8.48,25.17,1.36a2.82,2.82,0,0,0-.86-.29,2.08,2.08,0,0,0-1,0A2,2,0,0,0,22,2L14,17A2.08,2.08,0,0,0,14,19l8,15a2,2,0,0,0,1.26.92,2.08,2.08,0,0,0,1,0,2.82,2.82,0,0,0,.86-.29l12.74-7.12a2.85,2.85,0,0,0,1.45-2.47V11A2.85,2.85,0,0,0,37.91,8.48Z"/><path class="cls-2" d="M5.6,16.48l4.73-8.83L8.71,6.74a2,2,0,0,0-.58-.2,1.65,1.65,0,0,0-.7,0,1.45,1.45,0,0,0-.86.63L1.14,17.31a1.41,1.41,0,0,0,0,1.38L6.57,28.83a1.45,1.45,0,0,0,.86.63,1.65,1.65,0,0,0,.7,0,2,2,0,0,0,.58-.2l1.63-.91L5.59,19.5A3.09,3.09,0,0,1,5.6,16.48Z"/><path class="cls-3" d="M12.73,16.28,18.34,5.82l-2.4-1.35a2.52,2.52,0,0,0-.7-.24,1.75,1.75,0,0,0-.85,0,1.72,1.72,0,0,0-1,.75L6.84,17.17a1.69,1.69,0,0,0,0,1.66L13.37,31a1.72,1.72,0,0,0,1,.75,1.75,1.75,0,0,0,.85,0,2.52,2.52,0,0,0,.7-.24l2.41-1.35L12.72,19.69A3.53,3.53,0,0,1,12.73,16.28Z"/><path class="cls-4" d="M37.91,8.48,25.17,1.36a2.82,2.82,0,0,0-.86-.29,2.08,2.08,0,0,0-1,0A2,2,0,0,0,22,2L14,17A2.08,2.08,0,0,0,14,19l8,15a2,2,0,0,0,1.26.92,2.08,2.08,0,0,0,1,0,2.82,2.82,0,0,0,.86-.29l12.74-7.12a2.85,2.85,0,0,0,1.45-2.47V11A2.85,2.85,0,0,0,37.91,8.48Z"/><path class="cls-5" d="M48.91,32.09V2.38h5.34V32.09Z"/><path class="cls-5" d="M58.51,32.09V10.88h5V13a7.6,7.6,0,0,1,5.17-2.4,2.92,2.92,0,0,1,2.65,1.33,6,6,0,0,1,.83,3.26v17h-5V16.25a3.05,3.05,0,0,0-.28-1.49,1.18,1.18,0,0,0-1.12-.46,4.18,4.18,0,0,0-2.23,1V32.09Z"/><path class="cls-5" d="M82.32,32.43q-3.64,0-5.23-2c-1.07-1.34-1.6-3.31-1.6-5.93v-6a9.34,9.34,0,0,1,1.61-5.93q1.62-2,5.2-2a8.15,8.15,0,0,1,3.2.56,4.4,4.4,0,0,1,2,1.68,7.39,7.39,0,0,1,1,2.61A17.32,17.32,0,0,1,88.86,19v2.77H80.47v3.19c0,.44,0,.79,0,1s0,.54.06.89a3.08,3.08,0,0,0,.18.8,2.79,2.79,0,0,0,.31.59,1.13,1.13,0,0,0,.52.42,2.11,2.11,0,0,0,.75.12,1.46,1.46,0,0,0,1.4-.71,4.31,4.31,0,0,0,.39-2V24.8h4.75v.84a7.09,7.09,0,0,1-1.64,5A6.36,6.36,0,0,1,82.32,32.43ZM80.47,19.22h3.62v-2a4.84,4.84,0,0,0-.4-2.31,1.5,1.5,0,0,0-1.43-.7,1.41,1.41,0,0,0-1.41.79,7.41,7.41,0,0,0-.38,2.86Z"/><path class="cls-5" d="M97.1,32.43a4.44,4.44,0,0,1-3.89-1.85q-1.29-1.84-1.29-5.86V18.56a17,17,0,0,1,.26-3.08A10,10,0,0,1,93,13a4.27,4.27,0,0,1,1.59-1.77A4.54,4.54,0,0,1,97,10.55a5.49,5.49,0,0,1,3.76,1.63V2.38h5V32.09h-5V30.64A5.15,5.15,0,0,1,97.1,32.43Zm1.75-3.59a4,4,0,0,0,1.94-.57V14.73a3.68,3.68,0,0,0-2-.65,1.51,1.51,0,0,0-1.45.92A5.39,5.39,0,0,0,97,17.32V25.1a12.29,12.29,0,0,0,.13,1.9,2.78,2.78,0,0,0,.56,1.3A1.49,1.49,0,0,0,98.85,28.84Z"/><path class="cls-5" d="M116,32.43a6.38,6.38,0,0,1-5.1-1.93A8.12,8.12,0,0,1,109.24,25V18a8.12,8.12,0,0,1,1.68-5.51,6.41,6.41,0,0,1,5.1-1.93,6.49,6.49,0,0,1,5.13,1.93A8.07,8.07,0,0,1,122.84,18v7a8.07,8.07,0,0,1-1.69,5.51A6.46,6.46,0,0,1,116,32.43Zm0-3.53a1.71,1.71,0,0,0,1-.27,1.53,1.53,0,0,0,.55-.83,5.68,5.68,0,0,0,.23-1.1c0-.35,0-.81,0-1.37V17.65c0-.44,0-.81,0-1.1a7,7,0,0,0-.12-1,2.35,2.35,0,0,0-.3-.82,1.82,1.82,0,0,0-.53-.5,1.6,1.6,0,0,0-.85-.21,1.7,1.7,0,0,0-1,.28,1.61,1.61,0,0,0-.56.84,6.49,6.49,0,0,0-.22,1.1,13,13,0,0,0-.05,1.37v7.68c0,.44,0,.81,0,1.1a7,7,0,0,0,.13.95,2.18,2.18,0,0,0,.29.81,1.74,1.74,0,0,0,.54.5A1.59,1.59,0,0,0,116,28.9Z"/><path class="cls-5" d="M126.64,32.09V2.38h5.41V14.8h6V2.38h5.41V32.09h-5.41V18.65h-6V32.09Z"/><path class="cls-5" d="M151,32.41a2.87,2.87,0,0,1-2.64-1.33,6,6,0,0,1-.83-3.26V10.88h5V26.8a2.73,2.73,0,0,0,.31,1.47,1.21,1.21,0,0,0,1.13.47,4,4,0,0,0,2.15-.9v-17h5V32.09h-5v-2A7.62,7.62,0,0,1,151,32.41Z"/><path class="cls-5" d="M174,32.43a5.83,5.83,0,0,1-4-1.9v1.56h-5V2.38h5V12.49a5.93,5.93,0,0,1,4.29-1.94,4.17,4.17,0,0,1,2,.52,4,4,0,0,1,1.37,1.25,7.08,7.08,0,0,1,.8,1.75,11,11,0,0,1,.42,1.88,14.76,14.76,0,0,1,.11,1.77v7a15.24,15.24,0,0,1-.27,3,9.31,9.31,0,0,1-.84,2.45A4.21,4.21,0,0,1,174,32.43Zm-1.73-3.6a1.37,1.37,0,0,0,.92-.31,1.85,1.85,0,0,0,.54-.91,7.49,7.49,0,0,0,.22-1.24c0-.42.05-.93.05-1.54V17.52A10.31,10.31,0,0,0,174,16.2a5.14,5.14,0,0,0-.27-1.11,1.62,1.62,0,0,0-.58-.8,1.47,1.47,0,0,0-.94-.26,3.67,3.67,0,0,0-2.1.82V28.16A4,4,0,0,0,172.29,28.83Z"/></svg>