<svg id="Layer_1" data-name="Layer 1" xmlns="http://www.w3.org/2000/svg" viewBox="0 0 116 48"><defs><style>.cls-1{fill:#f2f2f2;}</style></defs><title>inedocon-w</title><path class="cls-1" d="M54.35,36.47a3.59,3.59,0,0,0-2.72-1.16,3.78,3.78,0,0,0-3.62,4,3.77,3.77,0,0,0,3.62,4A3.91,3.91,0,0,0,54.48,42l.8.81a5,5,0,0,1-3.65,1.63,4.89,4.89,0,0,1-4.89-5.11,4.89,4.89,0,0,1,4.89-5.12,4.75,4.75,0,0,1,3.54,1.51Z"/><path class="cls-1" d="M66.58,39.3a4.89,4.89,0,1,1-9.77,0,4.89,4.89,0,1,1,9.77,0Zm-1.27,0a3.63,3.63,0,1,0-7.23,0,3.63,3.63,0,1,0,7.23,0Z"/><path class="cls-1" d="M70.21,34.35l5.29,7.91V34.35h1.19v9.89H75.46l-5.3-7.91v7.91H69V34.35Z"/><path class="cls-1" d="M87.42,39.63a4.61,4.61,0,0,0,1.25-2.55,1.7,1.7,0,0,0-1.82-1.8A2,2,0,0,0,84.9,36.8l-1-.39a3.07,3.07,0,0,1,3-2.23,2.84,2.84,0,0,1,3,2.9,4.19,4.19,0,0,1-1,2.55L86.2,43.14h3.73v1.1h-6Z"/><path class="cls-1" d="M99.19,39.3c0,2.64-1.06,5.11-3.57,5.11S92,41.94,92,39.3s1.08-5.12,3.6-5.12S99.19,36.65,99.19,39.3ZM98,39.3c0-1.94-.64-4-2.39-4s-2.42,2.08-2.42,4,.67,4,2.42,4S98,41.23,98,39.3Z"/><path class="cls-1" d="M103.45,34.35h1.06v9.89h-1.18V35.91l-1.9,1.51-.69-.91Z"/><path class="cls-1" d="M111.43,40.51a1.2,1.2,0,0,1-.72.17,3.14,3.14,0,0,1-3.23-3.22,3.24,3.24,0,1,1,6.47,0,3.46,3.46,0,0,1-.4,1.54c-.2.41-3.29,5.54-3.29,5.54l-1-.63Zm1.33-3a2.05,2.05,0,1,0-4.1,0,2.05,2.05,0,1,0,4.1,0Z"/><path class="cls-1" d="M1.73,13.62,17.8,22.9A2.27,2.27,0,0,0,20,23l16.64-8.24a2.3,2.3,0,0,0,.12-3.89L20.72,1.56a2.29,2.29,0,0,0-2.24-.07L1.85,9.73A2.29,2.29,0,0,0,1.73,13.62Z"/><path class="cls-1" d="M18.87,25.64a3.43,3.43,0,0,1-1.68-.5l-8-4.6-3,2.37a2,2,0,0,0,.59,3.3L22,31.15a2,2,0,0,0,1.89-.34L36.39,20.9a2,2,0,0,0-.49-3.24l-15.34,7.6A3.38,3.38,0,0,1,18.87,25.64Z"/><path class="cls-1" d="M22.52,33.66a3,3,0,0,1-.93-.17l-7.08-2.3-2.91,3.5a1.7,1.7,0,0,0,1.09,2.67L26.34,38.8a1.69,1.69,0,0,0,1.53-.63L36.63,27.6a1.69,1.69,0,0,0-1.08-2.66l-.71-.08L24.61,33A3.11,3.11,0,0,1,22.52,33.66Z"/><path class="cls-1" d="M26.46,41.22l-.26,0-6.39-.67L17.49,45a1.46,1.46,0,0,0,1.39,2l11.74-1.23A1.48,1.48,0,0,0,31.8,45l5.48-10.46a1.46,1.46,0,0,0-1.39-2l-.8.09-6.3,7.61A2.91,2.91,0,0,1,26.46,41.22Z"/><path class="cls-1" d="M46.69,5.81V1.86h4.72V5.81Zm0,23V9h4.7V28.8Z"/><path class="cls-1" d="M55.08,28.8V9h4.69v1.94a7.18,7.18,0,0,1,4.85-2.24,2.69,2.69,0,0,1,2.47,1.24,5.6,5.6,0,0,1,.78,3V28.8H63.18V14a2.77,2.77,0,0,0-.27-1.39,1.07,1.07,0,0,0-1-.44,3.92,3.92,0,0,0-2.1.91V28.8Z"/><path class="cls-1" d="M77.36,29.12q-3.4,0-4.89-1.88A8.75,8.75,0,0,1,71,21.69V16.07a8.78,8.78,0,0,1,1.51-5.55Q74,8.65,77.35,8.65a7.56,7.56,0,0,1,3,.52,4.06,4.06,0,0,1,1.89,1.57,7.05,7.05,0,0,1,1,2.44,16.76,16.76,0,0,1,.28,3.33v2.6H75.64v3.95c0,.23,0,.5.06.83a3.3,3.3,0,0,0,.16.75,2.74,2.74,0,0,0,.3.55,1,1,0,0,0,.48.39,1.92,1.92,0,0,0,.71.12,1.36,1.36,0,0,0,1.3-.66A4,4,0,0,0,79,23.12V22h4.45v.78a6.65,6.65,0,0,1-1.54,4.72A6,6,0,0,1,77.36,29.12ZM75.64,16.76H79V14.87a4.64,4.64,0,0,0-.37-2.17,1.43,1.43,0,0,0-1.34-.65,1.32,1.32,0,0,0-1.32.74,6.85,6.85,0,0,0-.35,2.68Z"/><path class="cls-1" d="M91.2,29.12a4.14,4.14,0,0,1-3.64-1.73q-1.22-1.73-1.21-5.48V16.14a15.81,15.81,0,0,1,.24-2.88,9.28,9.28,0,0,1,.77-2.37,4,4,0,0,1,1.49-1.66,4.29,4.29,0,0,1,2.28-.58,5.14,5.14,0,0,1,3.52,1.52V1h4.69V28.8H94.65V27.44A4.78,4.78,0,0,1,91.2,29.12Zm1.64-3.35a3.7,3.7,0,0,0,1.81-.54V12.55a3.47,3.47,0,0,0-1.83-.6,1.4,1.4,0,0,0-1.35.85A5.11,5.11,0,0,0,91.06,15v7.28A10.88,10.88,0,0,0,91.18,24a2.51,2.51,0,0,0,.53,1.21A1.35,1.35,0,0,0,92.84,25.77Z"/><path class="cls-1" d="M108.9,29.12a6,6,0,0,1-4.77-1.8,7.65,7.65,0,0,1-1.57-5.16V15.61a7.65,7.65,0,0,1,1.57-5.16,6,6,0,0,1,4.77-1.8,6.08,6.08,0,0,1,4.81,1.8,7.6,7.6,0,0,1,1.58,5.16v6.55a7.6,7.6,0,0,1-1.58,5.16A6.08,6.08,0,0,1,108.9,29.12Zm0-3.3a1.57,1.57,0,0,0,.93-.26,1.38,1.38,0,0,0,.52-.77,5.1,5.1,0,0,0,.21-1c0-.33,0-.76,0-1.28V15.29c0-.42,0-.76,0-1a6.16,6.16,0,0,0-.11-.89,2.14,2.14,0,0,0-.28-.77,1.48,1.48,0,0,0-.5-.46,1.52,1.52,0,0,0-.79-.2,1.57,1.57,0,0,0-.93.26,1.45,1.45,0,0,0-.52.79,4.87,4.87,0,0,0-.21,1c0,.33-.05.76-.05,1.29v7.19c0,.41,0,.76,0,1a8.15,8.15,0,0,0,.12.89,1.87,1.87,0,0,0,.28.75,1.41,1.41,0,0,0,.5.47A1.49,1.49,0,0,0,108.92,25.82Z"/></svg>