<svg id="Layer_1" data-name="Layer 1" xmlns="http://www.w3.org/2000/svg" viewBox="0 0 100 36"><defs><style>.cls-1{fill:#282b3a;}.cls-2{fill:#cb1462;}.cls-3{fill:#f22c8f;}</style></defs><title>romp</title><path class="cls-1" d="M30.65,8.48,17.91,1.36a2.83,2.83,0,0,0-2.76,0L2.41,8.48A2.83,2.83,0,0,0,1,11v14.1a2.83,2.83,0,0,0,1.45,2.47l12.74,7.12a2.83,2.83,0,0,0,2.76,0l12.74-7.12a2.83,2.83,0,0,0,1.45-2.47V11A2.83,2.83,0,0,0,30.65,8.48Z"/><path class="cls-2" d="M27.13,19.76l-3.52-2-6.39-3.57a1.41,1.41,0,0,0-1.38,0L9.45,17.79l-3.52,2A1.4,1.4,0,0,0,5.21,21V23.5a1.42,1.42,0,0,0,.72,1.24l3.52,2,6.39,3.57a1.41,1.41,0,0,0,1.38,0l6.39-3.57,3.52-2a1.43,1.43,0,0,0,.73-1.24V21A1.41,1.41,0,0,0,27.13,19.76Z"/><path class="cls-1" d="M22.51,21.63,17.1,18.87a1.27,1.27,0,0,0-1.14,0l-5.4,2.76a.67.67,0,0,0,0,1.23L16,25.63a1.27,1.27,0,0,0,1.14,0l5.41-2.77A.68.68,0,0,0,22.51,21.63Z"/><path class="cls-3" d="M27.13,11.26l-3.52-2L17.22,5.72a1.41,1.41,0,0,0-1.38,0L9.45,9.29l-3.52,2a1.42,1.42,0,0,0-.72,1.24V15a1.4,1.4,0,0,0,.72,1.23l3.52,2,6.39,3.57a1.41,1.41,0,0,0,1.38,0l6.39-3.57,3.52-2A1.41,1.41,0,0,0,27.86,15V12.5A1.43,1.43,0,0,0,27.13,11.26Z"/><path class="cls-1" d="M22.51,13.14,17.1,10.37a1.27,1.27,0,0,0-1.14,0l-5.4,2.77a.67.67,0,0,0,0,1.23L16,17.13a1.27,1.27,0,0,0,1.14,0l5.41-2.76A.68.68,0,0,0,22.51,13.14Z"/><path class="cls-1" d="M39.62,29.46V6.54h5.25a13.94,13.94,0,0,1,3.11.3,6.08,6.08,0,0,1,2.27,1,4.16,4.16,0,0,1,1.43,1.9,7.83,7.83,0,0,1,.48,2.92,8.27,8.27,0,0,1-.64,3.52,4,4,0,0,1-2.12,2l3.17,11.29H48.39L45.65,19H43.8V29.46ZM43.8,16.33h1a3.64,3.64,0,0,0,2.63-.79,3.79,3.79,0,0,0,.78-2.7,4.07,4.07,0,0,0-.68-2.63,3.16,3.16,0,0,0-2.49-.8H43.8Z"/><path class="cls-1" d="M60,29.72a4.93,4.93,0,0,1-3.93-1.48A6.29,6.29,0,0,1,54.79,24V18.58a6.29,6.29,0,0,1,1.29-4.25A4.93,4.93,0,0,1,60,12.84a5,5,0,0,1,4,1.49,6.25,6.25,0,0,1,1.31,4.25V24A6.25,6.25,0,0,1,64,28.24,5,5,0,0,1,60,29.72ZM60,27a1.27,1.27,0,0,0,.76-.21,1.11,1.11,0,0,0,.43-.64,4.52,4.52,0,0,0,.18-.84c0-.28,0-.63,0-1.06V18.32c0-.34,0-.63,0-.85s-.05-.47-.1-.74a1.7,1.7,0,0,0-.23-.63,1.4,1.4,0,0,0-.41-.39,1.3,1.3,0,0,0-.65-.16,1.23,1.23,0,0,0-.77.22,1.19,1.19,0,0,0-.43.65,4.47,4.47,0,0,0-.17.84,10.17,10.17,0,0,0,0,1.06v5.93c0,.34,0,.62,0,.85a5.18,5.18,0,0,0,.09.73,1.92,1.92,0,0,0,.23.62,1.13,1.13,0,0,0,.42.39A1.18,1.18,0,0,0,60,27Z"/><path class="cls-1" d="M67.93,29.46V13.09h3.68v1.44A5.21,5.21,0,0,1,75.5,12.8a2.66,2.66,0,0,1,2.72,2,5.28,5.28,0,0,1,4.13-2,2.69,2.69,0,0,1,2.2,1,4.35,4.35,0,0,1,.83,2.89V29.46H81.7V17a2.14,2.14,0,0,0-.29-1.27,1,1,0,0,0-.88-.36,3.18,3.18,0,0,0-2,.95v.17a1.21,1.21,0,0,1,0,.18V29.46H74.85V17a2.06,2.06,0,0,0-.3-1.27,1,1,0,0,0-.89-.36,3.39,3.39,0,0,0-2,1V29.46Z"/><path class="cls-1" d="M88.24,34.85V13.09h3.87v1.26a4.59,4.59,0,0,1,3.31-1.51,3.23,3.23,0,0,1,1.54.4,3.06,3.06,0,0,1,1.05,1,5.5,5.5,0,0,1,.62,1.36A8,8,0,0,1,99,17,12.26,12.26,0,0,1,99,18.37v5.37A11.66,11.66,0,0,1,98.83,26a6.7,6.7,0,0,1-.65,1.89A3.25,3.25,0,0,1,97,29.25a3.4,3.4,0,0,1-1.8.47,4.49,4.49,0,0,1-3.06-1.48v6.61Zm5.58-7.91a1.07,1.07,0,0,0,.71-.24A1.33,1.33,0,0,0,95,26a7.4,7.4,0,0,0,.18-1c0-.32,0-.72,0-1.18V18.22a7.78,7.78,0,0,0-.06-1,4.06,4.06,0,0,0-.21-.85,1.29,1.29,0,0,0-.46-.62,1.19,1.19,0,0,0-.73-.21,2.85,2.85,0,0,0-1.61.65V26.43A3.23,3.23,0,0,0,93.82,26.94Z"/></svg>