<?xml version="1.0" encoding="utf-8"?>
<!-- Generator: Adobe Illustrator 23.0.3, SVG Export Plug-In . SVG Version: 6.00 Build 0)  -->
<svg version="1.1" id="Layer_1" xmlns="http://www.w3.org/2000/svg" xmlns:xlink="http://www.w3.org/1999/xlink" x="0px" y="0px"
	 viewBox="0 0 50 50" style="enable-background:new 0 0 50 50;" xml:space="preserve">
<style type="text/css">
	.st0{fill:url(#SVGID_1_);}
	.st1{fill:#FFFFFF;}
</style>
<linearGradient id="SVGID_1_" gradientUnits="userSpaceOnUse" x1="4.2232" y1="12.3824" x2="45.1164" y2="41.153" gradientTransform="matrix(6.123234e-17 1 1 -6.123234e-17 -2 0)">
	<stop  offset="1.385225e-07" style="stop-color:#282B3A"/>
	<stop  offset="1" style="stop-color:#48729D"/>
</linearGradient>
<path class="st0" d="M0,45.8V4.2C0,1.9,1.9,0,4.2,0h41.6C48.1,0,50,1.9,50,4.2v41.6c0,2.3-1.9,4.2-4.2,4.2H4.2C1.9,50,0,48.1,0,45.8
	z"/>
<path class="st1" d="M40.2,23.6l-1.7,10.7c-0.4,2.7-2.3,4.4-5.3,4.4H20.6c-2.5,0-4.5-2-4.5-4.5V23.7c0-0.7-0.5-1.2-1.2-1.2h-1.6
	c-0.7,0-1.2,0.5-1.2,1.2v10.8c0,0.7,0.5,1.2,1.2,1.2c0.6,0,1.1,0.5,1.1,1.1c0,0.6-0.5,1.1-1.1,1.1c-1.9,0-3.5-1.5-3.5-3.5V23.7
	c0-1.9,1.5-3.5,3.5-3.5h1.6c1.9,0,3.5,1.5,3.5,3.5v10.5c0,1.2,1,2.3,2.3,2.3h12.6c2.8,0,3-1.8,3-2.4v0L38,23.4c0-1.2-1-2.3-2.3-2.3
	h-7.1c-0.6,0-1.1-0.5-1.1-1.1v-5.3c0-1.3-0.3-2.2-0.9-2.7c-0.5-0.4-1.3-0.4-1.9-0.4v4.2c0,2.2-1.2,4.1-3.3,5.7
	c-0.5,0.4-1.2,0.2-1.6-0.3c-0.4-0.5-0.2-1.2,0.3-1.6c1.6-1.1,2.4-2.4,2.4-3.8v-5.2c0-0.5,0.3-0.9,0.8-1.1c0.1,0,2.8-0.8,4.7,0.6
	c1.2,0.9,1.9,2.4,1.9,4.5v4.2h6c2.5,0,4.5,2,4.5,4.5v0.1C40.2,23.6,40.2,23.6,40.2,23.6z"/>
</svg>
