<?xml version="1.0" encoding="utf-8"?>
<!-- Generator: Adobe Illustrator 23.0.3, SVG Export Plug-In . SVG Version: 6.00 Build 0)  -->
<svg version="1.1" id="Layer_1" xmlns="http://www.w3.org/2000/svg" xmlns:xlink="http://www.w3.org/1999/xlink" x="0px" y="0px"
	 viewBox="0 0 50 50" style="enable-background:new 0 0 50 50;" xml:space="preserve">
<style type="text/css">
	.st0{fill:url(#SVGID_1_);}
	.st1{fill:#FCFCFC;}
</style>
<linearGradient id="SVGID_1_" gradientUnits="userSpaceOnUse" x1="4.2232" y1="599.6176" x2="45.1164" y2="570.847" gradientTransform="matrix(6.123234e-17 -1 1 6.123234e-17 -560 50)">
	<stop  offset="1.385225e-07" style="stop-color:#282B3A"/>
	<stop  offset="1" style="stop-color:#48729D"/>
</linearGradient>
<path class="st0" d="M50,4.2v41.6c0,2.3-1.9,4.2-4.2,4.2H4.2C1.9,50,0,48.1,0,45.8V4.2C0,1.9,1.9,0,4.2,0h41.6C48.1,0,50,1.9,50,4.2
	z"/>
<g>
	<path class="st1" d="M20.2,14.9v1.6c0,1.4-1.1,2.5-2.5,2.5H13c-1.4,0-2.5-1.1-2.5-2.5v-4.7c0-1.4,1.1-2.5,2.5-2.5h4.7
		c0.7,0,1.2,0.6,1.2,1.2c0,0.7-0.6,1.2-1.2,1.2H13v4.7h4.7v-1.7c0-0.7,0.6-1.2,1.2-1.2S20.2,14.2,20.2,14.9z M19,24.5
		c-0.7,0-1.2,0.6-1.2,1.2v1.7H13v-4.7h4.7c0.7,0,1.2-0.6,1.2-1.2s-0.6-1.2-1.2-1.2H13c-1.4,0-2.5,1.1-2.5,2.5v4.7
		c0,1.4,1.1,2.5,2.5,2.5h4.7c1.4,0,2.5-1.1,2.5-2.5v-1.7C20.2,25,19.6,24.5,19,24.5z M19,35.3c-0.7,0-1.2,0.6-1.2,1.2v1.7H13v-4.7
		h4.7c0.7,0,1.2-0.6,1.2-1.2c0-0.7-0.6-1.3-1.2-1.3H13c-1.4,0-2.5,1.1-2.5,2.5v4.7c0,1.4,1.1,2.5,2.5,2.5h4.7c1.4,0,2.5-1.1,2.5-2.5
		v-1.6C20.2,35.8,19.6,35.3,19,35.3z M40.3,13H23c-0.7,0-1.2,0.6-1.2,1.2c0,0.7,0.6,1.2,1.2,1.2h17.2c0.7,0,1.2-0.6,1.2-1.2
		C41.5,13.5,40.9,13,40.3,13z M40.3,23.8H23c-0.7,0-1.2,0.6-1.2,1.2s0.6,1.2,1.2,1.2h17.2c0.7,0,1.2-0.6,1.2-1.2
		S40.9,23.8,40.3,23.8z M40.3,34.6H23c-0.7,0-1.2,0.6-1.2,1.2c0,0.7,0.6,1.2,1.2,1.2h17.2c0.7,0,1.2-0.6,1.2-1.2
		C41.5,35.1,40.9,34.6,40.3,34.6z"/>
</g>
</svg>
