<?xml version="1.0" encoding="utf-8"?>
<!-- Generator: Adobe Illustrator 23.0.3, SVG Export Plug-In . SVG Version: 6.00 Build 0)  -->
<svg version="1.1" id="Layer_1" xmlns="http://www.w3.org/2000/svg" xmlns:xlink="http://www.w3.org/1999/xlink" x="0px" y="0px"
	 viewBox="0 0 50 50" style="enable-background:new 0 0 50 50;" xml:space="preserve">
<style type="text/css">
	.st0{fill:url(#SVGID_1_);}
	.st1{fill:#FCFCFC;}
</style>
<linearGradient id="SVGID_1_" gradientUnits="userSpaceOnUse" x1="4.2232" y1="-548.6176" x2="45.1164" y2="-519.847" gradientTransform="matrix(1 0 0 -1 0 -509)">
	<stop  offset="1.385225e-07" style="stop-color:#282B3A"/>
	<stop  offset="1" style="stop-color:#48729D"/>
</linearGradient>
<path class="st0" d="M45.8,50H4.2C1.9,50,0,48.1,0,45.8V4.2C0,1.9,1.9,0,4.2,0h41.6C48.1,0,50,1.9,50,4.2v41.6
	C50,48.1,48.1,50,45.8,50z"/>
<g>
	<path class="st1" d="M41.4,8.5h-8.8c-0.6,0-1.1,0.5-1.1,1.1s0.5,1.1,1.1,1.1h6.1l-9.1,9.1c-0.4,0.4-0.4,1.1,0,1.5s1.1,0.4,1.5,0
		l0,0l9.1-9.1v6.1c0,0.6,0.5,1.1,1.1,1.1s1.1-0.5,1.1-1.1V9.6C42.5,9,42,8.5,41.4,8.5L41.4,8.5z"/>
	<path class="st1" d="M11.2,10.7h6.1c0.6,0,1.1-0.5,1.1-1.1s-0.5-1.1-1.1-1.1H8.6C8,8.5,7.5,9,7.5,9.6l0,0v8.8
		c0,0.6,0.5,1.1,1.1,1.1s1.1-0.5,1.1-1.1v-6.1l14.2,14.2v16c0,0.6,0.5,1.1,1.1,1.1s1.1-0.5,1.1-1.1V26c0-0.3-0.1-0.6-0.3-0.8
		L11.2,10.7z"/>
</g>
</svg>
