<?xml version="1.0" encoding="utf-8"?>
<!-- Generator: Adobe Illustrator 23.0.3, SVG Export Plug-In . SVG Version: 6.00 Build 0)  -->
<svg version="1.1" id="Layer_1" xmlns="http://www.w3.org/2000/svg" xmlns:xlink="http://www.w3.org/1999/xlink" x="0px" y="0px"
	 viewBox="0 0 50 50" style="enable-background:new 0 0 50 50;" xml:space="preserve">
<style type="text/css">
	.st0{fill:#282B3A;}
	.st1{fill:#F37326;}
	.st2{fill:#F15A24;}
	.st3{fill:#F48C29;}
	.st4{fill:#F6A52B;}
</style>
<g>
	<path class="st0" d="M45.8,11L27,0.5c-1.3-0.7-2.8-0.7-4.1,0L4.2,11c-1.3,0.7-2.1,2.1-2.1,3.6v20.7c0,1.5,0.8,2.9,2.1,3.6L23,49.5
		c1.3,0.7,2.8,0.7,4.1,0L45.8,39c1.3-0.7,2.1-2.1,2.1-3.6V14.6C47.9,13.1,47.1,11.7,45.8,11z"/>
	<path class="st1" d="M11.6,13.8l-2.2,1.2c-0.7,0.4-1.1,1.1-1.1,1.8v16.2c0,0.8,0.4,1.4,1.1,1.8l2.2,1.2L22.8,25L11.6,13.8z"/>
	<path class="st2" d="M26,6.9c-0.6-0.4-1.4-0.4-2,0l-9.5,5.3L25,22.8l10.5-10.5L26,6.9z"/>
	<path class="st3" d="M40.6,15.1l-2.2-1.2L27.2,25l11.2,11.2l2.2-1.2c0.7-0.4,1.1-1.1,1.1-1.8V16.9C41.7,16.2,41.2,15.5,40.6,15.1z"
		/>
	<path class="st4" d="M25,27.2L14.5,37.7l9.5,5.3c0.6,0.4,1.4,0.4,2,0l9.5-5.3L25,27.2z"/>
</g>
</svg>
