<?xml version="1.0" encoding="utf-8"?>
<!-- Generator: Adobe Illustrator 23.0.3, SVG Export Plug-In . SVG Version: 6.00 Build 0)  -->
<svg version="1.1" id="Layer_1" xmlns="http://www.w3.org/2000/svg" xmlns:xlink="http://www.w3.org/1999/xlink" x="0px" y="0px"
	 viewBox="0 0 75 75" style="enable-background:new 0 0 75 75;" xml:space="preserve">
<style type="text/css">
	.st0{fill:#282B3A;}
	.st1{fill:#48729D;}
</style>
<g>
	<g>
		<g>
			<path class="st0" d="M46.2,42.8L46.2,42.8l-8.3-7.1c0.4-0.9,0.6-1.9,0.6-2.9c0-4-3.2-7.3-7.3-7.3c-0.7,0-1.4,0.1-2,0.3l4.6,4.6
				l-1.2,4l-4.1,1l-4.3-4.4c-0.1,0.5-0.2,1.1-0.2,1.7c0,4,3.2,7.3,7.3,7.3c0.9,0,1.8-0.2,2.7-0.5l7.6,8.6c0.7,0.8,1.7,1.3,2.8,1.3
				c2,0,3.6-1.6,3.6-3.6C48,44.5,47.3,43.4,46.2,42.8z M44.3,47.7c-1,0-1.9-0.8-1.9-1.9c0-1,0.8-1.9,1.9-1.9c1,0,1.9,0.8,1.9,1.9
				C46.2,46.9,45.4,47.7,44.3,47.7z"/>
		</g>
	</g>
	<g>
		<g>
			<path class="st0" d="M31.4,41.3l-3.9,3.9c-0.7,0.7-0.7,1.7,0,2.4L29,49c0.7,0.7,1.7,0.7,2.4,0l4.9-4.9L33.5,41
				C32.8,41.2,32.1,41.3,31.4,41.3z"/>
		</g>
	</g>
	<g>
		<g>
			<path class="st0" d="M50.6,34.1L49,32.5c-0.1-0.1-0.3-0.2-0.5,0c-0.2,0.2-0.4,0.2-0.6,0L47.6,32c-0.2-0.2-0.2-0.4,0-0.6l0,0
				c0.1-0.1,0.1-0.3,0-0.5l-2.1-2.1c-0.2-0.2-0.5-0.3-0.8-0.2c-0.7,0.2-1.1-0.5-1.6-0.9c-0.6-0.4-2.1-1.2-3.9-0.8
				c-1.8,0.4-0.9,1-0.3,1.2c0.6,0.2,2.4,0.6,2.8,2c0.3,1-0.2,1.8-0.5,2.1l-1.8,1.8c-0.1,0.4-0.1,0.7-0.3,1.1l2.4,2.1l2.6-2.6
				c0.2-0.2,0.4-0.2,0.6,0l0.4,0.4c0.2,0.2,0.2,0.4,0,0.6c-0.1,0.1-0.1,0.3,0,0.5l1.6,1.6c0.5,0.5,1.2,0.5,1.7,0l2-2
				C51.1,35.3,51.1,34.5,50.6,34.1z"/>
		</g>
	</g>
</g>
<g>
	<path class="st1" d="M26.6,72.3c-0.4,0-0.7-0.1-1-0.2l-4-1.7c-0.7-0.3-1.2-0.8-1.5-1.5c-0.3-0.7-0.3-1.4,0-2.1l1.9-4.7l-0.7-0.5
		c-3.2-2.1-5.9-4.9-8.1-8.1L12.8,53l-4.7,1.9c-0.3,0.1-0.7,0.2-1,0.2c-1.1,0-2.1-0.7-2.5-1.7l-1.7-4C2.4,48.1,3,46.5,4.4,46L9.1,44
		l-0.2-0.8c-0.8-3.8-0.8-7.6,0-11.4L9.1,31l-4.7-1.9c-0.7-0.3-1.2-0.8-1.5-1.5c-0.3-0.7-0.3-1.4,0-2.1l1.7-4c0.4-1,1.4-1.7,2.5-1.7
		c0.4,0,0.7,0.1,1,0.2l4.7,1.9l0.5-0.7c2.1-3.2,4.9-5.9,8.1-8.1l0.7-0.5l-1.9-4.7c-0.3-0.7-0.3-1.4,0-2.1s0.8-1.2,1.5-1.5l4-1.7
		c0.3-0.1,0.7-0.2,1-0.2c1.1,0,2.1,0.7,2.5,1.7L31,9.1l0.8-0.2c1.9-0.4,3.8-0.6,5.7-0.6c1.9,0,3.8,0.2,5.7,0.6L44,9.1l1.9-4.7
		c0.4-1,1.4-1.7,2.5-1.7c0.4,0,0.7,0.1,1,0.2l4,1.7c0.7,0.3,1.2,0.8,1.5,1.5c0.3,0.7,0.3,1.4,0,2.1L53,12.8l0.7,0.5
		c3.2,2.1,5.9,4.9,8.1,8.1l0.5,0.7l4.7-1.9c0.3-0.1,0.7-0.2,1-0.2c1.1,0,2.1,0.7,2.5,1.7l1.7,4c0.3,0.7,0.3,1.4,0,2.1
		s-0.8,1.2-1.5,1.5L65.9,31l0.2,0.8c0.8,3.8,0.8,7.6,0,11.4L65.9,44l4.7,1.9c0.7,0.3,1.2,0.8,1.5,1.5c0.3,0.7,0.3,1.4,0,2.1l-1.7,4
		c-0.4,1-1.4,1.7-2.5,1.7l0,0c-0.4,0-0.7-0.1-1-0.2L62.2,53l-0.5,0.7c-2.1,3.2-4.9,5.9-8.1,8.1L53,62.2l1.9,4.7
		c0.6,1.4-0.1,2.9-1.5,3.5l-4,1.7c-0.3,0.1-0.7,0.2-1,0.2c-1.1,0-2.1-0.7-2.5-1.7L44,65.9l-0.8,0.2c-1.9,0.4-3.8,0.6-5.7,0.6
		c-1.9,0-3.8-0.2-5.7-0.6L31,65.9l-1.9,4.7C28.6,71.6,27.7,72.3,26.6,72.3z M37.5,15c-3,0-5.9,0.6-8.6,1.7
		c-11.5,4.8-17,18-12.2,29.5C20.2,54.6,28.4,60,37.5,60c3,0,5.9-0.6,8.6-1.7c5.6-2.3,9.9-6.6,12.2-12.2c2.3-5.6,2.3-11.7,0-17.3
		C54.8,20.4,46.6,15,37.5,15z"/>
	<path class="st0" d="M48.4,3.7L48.4,3.7c0.2,0,0.4,0,0.6,0.1l4,1.7C53.5,5.7,53.8,6,54,6.4c0.2,0.4,0.2,0.9,0,1.3l-1.6,3.9
		l-0.6,1.5l1.4,0.9c3.1,2.1,5.7,4.7,7.8,7.8l0.9,1.4l1.5-0.6l3.9-1.6c0.2-0.1,0.4-0.1,0.6-0.1c0.7,0,1.3,0.4,1.6,1l1.7,4
		c0.2,0.4,0.2,0.9,0,1.3s-0.5,0.7-0.9,0.9l-3.9,1.6l-1.5,0.6l0.3,1.6c0.7,3.7,0.7,7.4,0,11l-0.3,1.6l1.5,0.6l3.9,1.6
		c0.4,0.2,0.7,0.5,0.9,0.9c0.2,0.4,0.2,0.9,0,1.3l-1.7,4c-0.3,0.6-0.9,1-1.6,1c-0.2,0-0.4,0-0.6-0.1l-3.9-1.6l-1.5-0.6l-0.9,1.4
		c-2.1,3.1-4.7,5.7-7.8,7.8l-1.4,0.9l0.6,1.5l1.6,3.9c0.2,0.4,0.2,0.9,0,1.3c-0.2,0.4-0.5,0.7-0.9,0.9l-4,1.7
		c-0.2,0.1-0.4,0.1-0.6,0.1c-0.7,0-1.3-0.4-1.6-1l-1.6-3.9l-0.6-1.5L43,65.1c-1.8,0.4-3.7,0.5-5.5,0.5c-1.8,0-3.7-0.2-5.5-0.5
		l-1.6-0.3l-0.6,1.5l-1.6,3.9c-0.3,0.6-0.9,1-1.6,1c-0.2,0-0.4,0-0.6-0.1l-4-1.7c-0.4-0.2-0.7-0.5-0.9-0.9s-0.2-0.9,0-1.3l1.6-3.9
		l0.6-1.5l-1.4-0.9c-3.1-2.1-5.7-4.7-7.8-7.8l-0.9-1.4l-1.5,0.6L7.7,54c-0.2,0.1-0.4,0.1-0.6,0.1c-0.7,0-1.3-0.4-1.6-1l-1.7-4
		c-0.4-0.9,0.1-1.8,0.9-2.2l3.9-1.6l1.5-0.6L9.9,43c-0.7-3.7-0.7-7.4,0-11l0.3-1.6l-1.5-0.6l-3.9-1.6C4.4,28,4,27.6,3.9,27.2
		c-0.2-0.4-0.2-0.9,0-1.3l1.7-4c0.3-0.6,0.9-1,1.6-1c0.2,0,0.4,0,0.6,0.1l3.9,1.6l1.5,0.6l0.9-1.4c2.1-3.1,4.7-5.7,7.8-7.8l1.4-0.9
		l-0.6-1.5L21,7.7c-0.2-0.4-0.2-0.9,0-1.3c0.2-0.4,0.5-0.7,0.9-0.9l4-1.7c0.2-0.1,0.4-0.1,0.6-0.1c0.7,0,1.3,0.4,1.6,1l1.6,3.9
		l0.6,1.5L32,9.9c1.8-0.4,3.7-0.5,5.5-0.5c1.8,0,3.7,0.2,5.5,0.5l1.6,0.3l0.6-1.5l1.6-3.9C47.1,4.1,47.7,3.7,48.4,3.7 M37.5,61
		c3.1,0,6.1-0.6,9-1.8c5.8-2.4,10.3-6.9,12.7-12.7c2.4-5.8,2.4-12.2,0-18C55.6,19.7,47,14,37.5,14c-3.1,0-6.1,0.6-9,1.8
		c-12,5-17.7,18.8-12.7,30.8C19.4,55.3,28,61,37.5,61 M48.4,1.7C47,1.7,45.6,2.6,45,4L43.4,8c-1.9-0.4-3.9-0.6-5.9-0.6
		c-2,0-3.9,0.2-5.9,0.6L30,4c-0.6-1.4-2-2.3-3.4-2.3c-0.5,0-0.9,0.1-1.4,0.3l-4,1.7c-1.9,0.8-2.8,2.9-2,4.8l1.6,3.9
		c-3.4,2.2-6.2,5.1-8.3,8.4l-3.9-1.6C8,19,7.6,18.9,7.1,18.9c-1.4,0-2.8,0.9-3.4,2.3l-1.7,4c-0.8,1.9,0.1,4,2,4.8L8,31.6
		c-0.8,3.8-0.8,7.8,0,11.8L4,45c-1.9,0.8-2.8,2.9-2,4.8l1.7,4c0.6,1.4,2,2.3,3.4,2.3c0.5,0,0.9-0.1,1.4-0.3l3.9-1.6
		c2.2,3.4,5.1,6.2,8.4,8.3l-1.6,3.9c-0.8,1.9,0.1,4,2,4.8l4,1.7c0.5,0.2,0.9,0.3,1.4,0.3c1.4,0,2.8-0.9,3.4-2.3l1.6-3.9
		c1.9,0.4,3.9,0.6,5.9,0.6c2,0,3.9-0.2,5.9-0.6L45,71c0.6,1.4,2,2.3,3.4,2.3c0.5,0,0.9-0.1,1.4-0.3l4-1.7c1.9-0.8,2.8-2.9,2-4.8
		l-1.6-3.9c3.4-2.2,6.2-5.1,8.3-8.4l3.9,1.6c0.5,0.2,0.9,0.3,1.4,0.3c1.4,0,2.8-0.9,3.4-2.3l1.7-4c0.8-1.9-0.1-4-2-4.8L67,43.4
		c0.8-3.8,0.8-7.8,0-11.8L71,30c1.9-0.8,2.8-2.9,2-4.8l-1.7-4c-0.6-1.4-2-2.3-3.4-2.3c-0.5,0-0.9,0.1-1.4,0.3l-3.9,1.6
		c-2.2-3.4-5.1-6.2-8.4-8.3l1.6-3.9c0.8-1.9-0.1-4-2-4.8l-4-1.7C49.4,1.8,48.9,1.7,48.4,1.7L48.4,1.7z M37.5,59
		c-8.5,0-16.5-5-19.9-13.3c-4.6-11,0.7-23.6,11.7-28.1c2.7-1.1,5.5-1.6,8.2-1.6c8.5,0,16.5,5,19.9,13.3c4.6,11-0.7,23.6-11.7,28.1
		C43.1,58.5,40.3,59,37.5,59L37.5,59z"/>
</g>
</svg>
