<?xml version="1.0" encoding="utf-8"?>
<!-- Generator: Adobe Illustrator 23.0.3, SVG Export Plug-In . SVG Version: 6.00 Build 0)  -->
<svg version="1.1" id="Layer_1" xmlns="http://www.w3.org/2000/svg" xmlns:xlink="http://www.w3.org/1999/xlink" x="0px" y="0px"
	 viewBox="0 0 50 33.4" style="enable-background:new 0 0 50 33.4;" xml:space="preserve">
<style type="text/css">
	.st0{display:none;}
	.st1{fill:#252F3E;}
	.st2{fill:#FF9900;}
	.st3{fill-rule:evenodd;clip-rule:evenodd;fill:#035BDA;}
	.st4{fill:#EA4335;}
	.st5{fill:#4285F4;}
	.st6{fill:#34A853;}
	.st7{fill:#FBBC05;}
	.st8{filter:url(#Adobe_OpacityMaskFilter);}
	.st9{fill:#FFFFFF;}
	.st10{fill:url(#SVGID_1_);}
	.st11{fill:url(#SVGID_2_);}
	.st12{fill:url(#SVGID_3_);}
	.st13{mask:url(#o_2_);fill:url(#SVGID_4_);}
</style>
<g id="Guides" class="st0">
</g>
<g>
	<path class="st1" d="M20.7,4.1c0,0.2,0,0.4,0.1,0.6c0.1,0.1,0.1,0.3,0.2,0.5c0,0.1,0,0.1,0,0.1c0,0.1,0,0.1-0.1,0.2l-0.4,0.3
		c-0.1,0-0.1,0.1-0.2,0.1c-0.1,0-0.1,0-0.2-0.1C20,5.6,20,5.5,19.9,5.4c-0.1-0.1-0.1-0.2-0.2-0.4c-0.5,0.6-1.1,0.9-1.8,0.9
		c-0.5,0-0.9-0.2-1.3-0.5c-0.3-0.3-0.5-0.7-0.5-1.2c0-0.5,0.2-1,0.6-1.3s0.9-0.5,1.5-0.5c0.2,0,0.4,0,0.7,0.1c0.2,0,0.5,0.1,0.7,0.1
		V2.2c0-0.5-0.1-0.8-0.3-1c-0.2-0.2-0.5-0.3-1-0.3c-0.2,0-0.4,0-0.7,0.1C17.4,1,17.2,1.1,17,1.2c-0.1,0-0.2,0.1-0.2,0.1
		c0,0-0.1,0-0.1,0c-0.1,0-0.1-0.1-0.1-0.2V0.8c0-0.1,0-0.2,0-0.2c0,0,0.1-0.1,0.2-0.1c0.2-0.1,0.5-0.2,0.8-0.3C17.8,0,18.2,0,18.5,0
		c0.7,0,1.3,0.2,1.6,0.5c0.3,0.3,0.5,0.9,0.5,1.5L20.7,4.1L20.7,4.1z M18.1,5c0.2,0,0.4,0,0.6-0.1c0.2-0.1,0.4-0.2,0.6-0.4
		c0.1-0.1,0.2-0.3,0.2-0.4s0.1-0.3,0.1-0.5V3.3c-0.2,0-0.4-0.1-0.6-0.1s-0.4,0-0.6,0c-0.4,0-0.7,0.1-0.9,0.3
		c-0.2,0.2-0.3,0.4-0.3,0.7c0,0.3,0.1,0.5,0.2,0.7C17.6,5,17.8,5,18.1,5z M23.2,5.7c-0.1,0-0.2,0-0.2-0.1c-0.1,0-0.1-0.1-0.1-0.2
		l-1.5-4.9c0-0.1-0.1-0.2-0.1-0.3c0-0.1,0.1-0.2,0.2-0.2H22c0.1,0,0.2,0,0.2,0.1c0.1,0,0.1,0.1,0.1,0.2l1.1,4.2l1-4.2
		c0-0.1,0.1-0.2,0.1-0.2c0.1,0,0.1-0.1,0.3-0.1h0.5c0.1,0,0.2,0,0.3,0.1c0.1,0,0.1,0.1,0.1,0.2l1,4.2l1.1-4.2c0-0.1,0.1-0.2,0.1-0.2
		c0.1,0,0.1-0.1,0.2-0.1h0.6c0.1,0,0.2,0.1,0.2,0.2c0,0,0,0.1,0,0.1c0,0,0,0.1,0,0.2l-1.5,4.9c0,0.1-0.1,0.2-0.1,0.2
		c-0.1,0-0.1,0.1-0.2,0.1h-0.5c-0.1,0-0.2,0-0.3-0.1c-0.1,0-0.1-0.1-0.1-0.3l-1-4.1l-1,4c0,0.1-0.1,0.2-0.1,0.3
		c-0.1,0-0.1,0.1-0.3,0.1H23.2z M31.2,5.9c-0.3,0-0.7,0-1-0.1c-0.3-0.1-0.6-0.2-0.7-0.3c-0.1-0.1-0.2-0.1-0.2-0.2c0-0.1,0-0.1,0-0.2
		V4.9c0-0.1,0.1-0.2,0.1-0.2c0,0,0.1,0,0.1,0c0,0,0.1,0,0.2,0.1C30,4.8,30.2,4.9,30.4,5C30.7,5,30.9,5,31.2,5c0.4,0,0.7-0.1,0.9-0.2
		c0.2-0.1,0.3-0.3,0.3-0.6c0-0.2-0.1-0.3-0.2-0.4c-0.1-0.1-0.3-0.2-0.6-0.3l-0.9-0.3c-0.5-0.1-0.8-0.4-1-0.6
		c-0.2-0.3-0.3-0.6-0.3-0.9c0-0.3,0.1-0.5,0.2-0.7c0.1-0.2,0.3-0.4,0.5-0.5c0.2-0.1,0.4-0.3,0.7-0.3C30.9,0,31.2,0,31.5,0
		c0.1,0,0.3,0,0.4,0c0.1,0,0.3,0,0.4,0.1c0.1,0,0.2,0.1,0.4,0.1s0.2,0.1,0.3,0.1c0.1,0.1,0.2,0.1,0.2,0.2c0,0.1,0.1,0.1,0.1,0.2V1
		c0,0.1-0.1,0.2-0.1,0.2c-0.1,0-0.1,0-0.2-0.1c-0.4-0.2-0.8-0.2-1.2-0.2c-0.4,0-0.6,0.1-0.8,0.2c-0.2,0.1-0.3,0.3-0.3,0.6
		c0,0.2,0.1,0.3,0.2,0.4s0.4,0.2,0.7,0.3l0.9,0.3c0.5,0.1,0.8,0.3,1,0.6c0.2,0.3,0.3,0.6,0.3,0.9c0,0.3-0.1,0.5-0.2,0.7
		c-0.1,0.2-0.3,0.4-0.5,0.6c-0.2,0.2-0.4,0.3-0.7,0.4C31.9,5.9,31.6,5.9,31.2,5.9z"/>
	<path class="st2" d="M32.4,8.9c-2.1,1.5-5.1,2.3-7.7,2.3c-3.6,0-6.9-1.3-9.3-3.6c-0.2-0.2,0-0.4,0.2-0.3C18.3,9,21.6,9.9,25,9.9
		c2.3,0,4.8-0.5,7.1-1.5C32.5,8.3,32.8,8.7,32.4,8.9z M33.3,8c-0.3-0.3-1.7-0.2-2.4-0.1c-0.2,0-0.2-0.2-0.1-0.3
		C32,6.8,33.9,7,34.2,7.3c0.2,0.3-0.1,2.2-1.2,3.2c-0.2,0.1-0.3,0.1-0.3-0.1C33,9.7,33.6,8.3,33.3,8z"/>
</g>
<g>
	<path id="path7291" class="st3" d="M27,21.5l-2.5,5.1l4.4,5.2l-8.3,0.9l12.9,0.1L27,21.5L27,21.5z"/>
	<path id="path7293" class="st3" d="M26.5,19.5l-5.8,4.9l-4.3,7.3l3.7-0.4L26.5,19.5z"/>
</g>
<g>
	<path class="st4" d="M44.4,15l1.5-1.5l0.1-0.6c-2.7-2.4-6.9-2.1-9.3,0.6c-0.7,0.8-1.2,1.7-1.4,2.7l0.5-0.1l2.9-0.5l0.2-0.2
		c1.3-1.4,3.5-1.6,5-0.4L44.4,15z"/>
	<path class="st5" d="M47.9,16.1c-0.3-1.2-1-2.3-2-3.2l-2,2c0.9,0.7,1.4,1.8,1.3,2.9v0.4c1,0,1.8,0.8,1.8,1.8c0,1-0.8,1.8-1.8,1.8
		h-3.7l-0.4,0.4v2.2l0.4,0.3h3.7c2.6,0,4.8-2.1,4.8-4.7C50,18.5,49.2,17,47.9,16.1"/>
	<path class="st6" d="M37.9,24.7h3.6v-2.9h-3.6c-0.3,0-0.5-0.1-0.7-0.2l-0.5,0.2l-1.5,1.5l-0.1,0.5C35.9,24.4,36.9,24.7,37.9,24.7"
		/>
	<path class="st7" d="M37.9,15.3c-2.6,0-4.7,2.2-4.7,4.8c0,1.5,0.7,2.8,1.9,3.7l2.1-2.1c-0.9-0.4-1.3-1.5-0.9-2.4
		c0.4-0.9,1.5-1.3,2.4-0.9c0.4,0.2,0.7,0.5,0.9,0.9l2.1-2.1C40.8,16,39.4,15.3,37.9,15.3"/>
</g>
<g transform="matrix(.44827 0 0 .44827 4.012 74.307)">
	<defs>
		<filter id="Adobe_OpacityMaskFilter" filterUnits="userSpaceOnUse" x="-8.9" y="-143.7" width="37.4" height="33.1">
			<feColorMatrix  type="matrix" values="1 0 0 0 0  0 1 0 0 0  0 0 1 0 0  0 0 0 1 0"/>
		</filter>
	</defs>
	<mask maskUnits="userSpaceOnUse" x="-8.9" y="-143.7" width="37.4" height="33.1" id="o_2_">
		<g class="st8">
			<path d="M-13.1-146h45.3v37.8h-45.3V-146z"/>
			<path class="st9" d="M-4-130.5c-0.1,0-0.2,0-0.4-0.1l-3.3-1.9c-0.3-0.2-0.5-0.5-0.3-0.9c0.1-0.4,0.5-0.6,0.9-0.4
				c0,0,0.1,0,0.1,0.1l3.3,1.9c0.3,0.2,0.5,0.6,0.3,1C-3.5-130.6-3.7-130.5-4-130.5z M1.8-136.2c-0.3,0-0.5-0.1-0.6-0.4l-1.9-3.3
				c-0.2-0.3-0.1-0.7,0.1-0.9c0.3-0.3,0.7-0.2,1,0.1c0,0,0,0,0,0c0,0,0.1,0.1,0.1,0.1l1.9,3.3c0.2,0.3,0.1,0.7-0.2,1
				C2.1-136.3,1.9-136.2,1.8-136.2z M9-139.1v-3.8c0-0.4,0.3-0.7,0.7-0.8c0.4,0,0.7,0.3,0.7,0.7v3.9c0,0.4-0.3,0.7-0.7,0.7h0
				C9.3-138.4,9-138.7,9-139.1z M17.6-136.2c-0.1,0-0.3,0-0.4-0.1c-0.3-0.2-0.4-0.6-0.2-1l1.9-3.3c0.2-0.3,0.6-0.5,1-0.3
				c0,0,0.1,0,0.1,0.1c0.3,0.2,0.3,0.6,0.1,0.9l-1.9,3.3C18.1-136.4,17.9-136.2,17.6-136.2z M23.4-130.5c-0.3,0-0.5-0.1-0.6-0.4
				c-0.2-0.4,0-0.8,0.3-1l3.3-1.9c0.3-0.2,0.7-0.1,0.9,0.1c0.3,0.3,0.2,0.7-0.1,1c0,0,0,0,0,0c0,0-0.1,0.1-0.1,0.1l-3.4,2
				C23.6-130.5,23.5-130.5,23.4-130.5z"/>
			
				<linearGradient id="SVGID_1_" gradientUnits="userSpaceOnUse" x1="-3014.03" y1="-17554.0527" x2="-2988.3091" y2="-17549.5176" gradientTransform="matrix(-0.1812 -0.1812 0.1812 -0.1812 2645.3723 -3848.0327)">
				<stop  offset="0.195" style="stop-color:#FFFFFF;stop-opacity:0"/>
				<stop  offset="0.287" style="stop-color:#FFFFFF;stop-opacity:3.000000e-02"/>
				<stop  offset="0.501" style="stop-color:#FFFFFF;stop-opacity:0.2"/>
				<stop  offset="0.793" style="stop-color:#FFFFFF;stop-opacity:0.74"/>
				<stop  offset="1" style="stop-color:#FFFFFF"/>
			</linearGradient>
			<path class="st10" d="M0.7-114.3c-5-5-5-13,0-18c5-5,13-5,18,0c0.4,0.4,0.7,0.7,1,1.1c0.2,0.3,0.4,0.6,0.6,0.9l-1.2,0.8
				c-0.2-0.3-0.4-0.5-0.5-0.8c-0.3-0.4-0.6-0.7-0.9-1c-4.4-4.4-11.6-4.4-16,0c-4.4,4.4-4.4,11.6,0,16L0.7-114.3L0.7-114.3z"/>
			<path class="st9" d="M18.8-110.5H-0.8c-4.5,0-8.2-3.7-8.2-8.3v0l1.4,0c0,3.8,3,6.8,6.7,6.8h19.6c4.6,0,8.3-3.7,8.3-8.3
				c0-2-0.8-4-2.1-5.5l1.1-0.9c3.6,4,3.2,10.1-0.8,13.7C23.5-111.4,21.2-110.5,18.8-110.5z"/>
			
				<linearGradient id="SVGID_2_" gradientUnits="userSpaceOnUse" x1="3715.4734" y1="4283.6621" x2="3730.5486" y2="4274.9585" gradientTransform="matrix(0.2562 0 0 0.2562 -961.8201 -1217.871)">
				<stop  offset="8.000000e-02" style="stop-color:#FFFFFF"/>
				<stop  offset="0.753" style="stop-color:#FFFFFF;stop-opacity:7.000000e-02"/>
				<stop  offset="0.875" style="stop-color:#FFFFFF;stop-opacity:0"/>
			</linearGradient>
			<path class="st11" d="M-7.5-118.8l-1.4,0c0-4,2.9-7.4,6.8-8l0.2,1.4C-5.1-124.9-7.5-122.1-7.5-118.8z"/>
			
				<linearGradient id="SVGID_3_" gradientUnits="userSpaceOnUse" x1="3792.3396" y1="4287.3223" x2="3815.2683" y2="4268.0825" gradientTransform="matrix(0.2562 0 0 0.2562 -961.8201 -1217.871)">
				<stop  offset="0.138" style="stop-color:#FFFFFF;stop-opacity:0"/>
				<stop  offset="0.32" style="stop-color:#FFFFFF;stop-opacity:7.000000e-02"/>
				<stop  offset="0.847" style="stop-color:#FFFFFF;stop-opacity:0.764"/>
				<stop  offset="0.947" style="stop-color:#FFFFFF"/>
			</linearGradient>
			<path class="st12" d="M10.5-120.3l-1.4,0c0-5.4,4.4-9.7,9.8-9.6c2.7,0,5.3,1.2,7.2,3.2l-1.1,0.9c-3.1-3.4-8.3-3.7-11.7-0.7
				C11.5-124.9,10.5-122.7,10.5-120.3z"/>
		</g>
	</mask>
	
		<linearGradient id="SVGID_4_" gradientUnits="userSpaceOnUse" x1="67.1504" y1="-614.3036" x2="48.2706" y2="-581.6028" gradientTransform="matrix(0.4483 0 0 0.4483 -10.7576 134.0758)">
		<stop  offset="0" style="stop-color:#50FFD2"/>
		<stop  offset="1" style="stop-color:#0064FF"/>
	</linearGradient>
	<path class="st13" d="M-4-130.5c-0.1,0-0.2,0-0.4-0.1l-3.3-1.9c-0.3-0.2-0.5-0.5-0.3-0.9c0.1-0.4,0.5-0.6,0.9-0.4
		c0,0,0.1,0,0.1,0.1l3.3,1.9c0.3,0.2,0.5,0.6,0.3,1C-3.5-130.6-3.7-130.5-4-130.5z M1.8-136.3c-0.3,0-0.5-0.1-0.6-0.4l-1.9-3.3
		c-0.2-0.3-0.1-0.7,0.1-0.9c0.3-0.3,0.7-0.2,1,0.1c0,0,0,0,0,0c0,0,0.1,0.1,0.1,0.1l1.9,3.3c0.2,0.3,0.1,0.7-0.2,1
		C2.1-136.3,2-136.3,1.8-136.3z M9-139.1v-3.8c0-0.4,0.3-0.7,0.7-0.8c0.4,0,0.7,0.3,0.7,0.7c0,0,0,0,0,0v3.9c0,0.4-0.3,0.7-0.7,0.7
		h0C9.3-138.4,9-138.7,9-139.1z M17.6-136.3c-0.1,0-0.3,0-0.4-0.1c-0.3-0.2-0.4-0.6-0.2-1l1.9-3.3c0.2-0.3,0.6-0.5,1-0.3
		c0,0,0.1,0,0.1,0.1c0.3,0.2,0.3,0.6,0.1,0.9l-1.9,3.3C18.1-136.4,17.9-136.3,17.6-136.3z M23.4-130.5c-0.3,0-0.5-0.1-0.6-0.4
		c-0.2-0.4,0-0.8,0.3-1l3.3-1.9c0.3-0.2,0.7-0.1,0.9,0.1c0.3,0.3,0.2,0.7-0.1,1c0,0,0,0,0,0c0,0-0.1,0.1-0.1,0.1l-3.4,2
		C23.6-130.5,23.5-130.5,23.4-130.5z M0.7-114.3c-5-5-5-13,0-18c5-5,13-5,18,0c0.4,0.4,0.7,0.7,1,1.1c0.2,0.3,0.4,0.6,0.6,0.9
		l-1.2,0.8c-0.2-0.3-0.4-0.5-0.5-0.8c-0.3-0.4-0.6-0.7-0.9-1c-4.4-4.4-11.6-4.4-16,0s-4.4,11.6,0,16C1.7-115.3,0.7-114.3,0.7-114.3z
		 M18.8-110.6H-0.8c-4.5,0-8.2-3.7-8.2-8.3v0l1.4,0c0,3.8,3,6.8,6.7,6.8h19.6c4.6,0,8.3-3.7,8.3-8.3c0-2-0.8-4-2.1-5.5l1.1-0.9
		c3.6,4,3.2,10.1-0.8,13.7C23.5-111.4,21.2-110.6,18.8-110.6z M-7.5-118.8l-1.4,0c0-4,2.9-7.4,6.8-8l0.2,1.4
		C-5.1-124.9-7.5-122.1-7.5-118.8z M10.5-120.3l-1.4,0c0-5.4,4.4-9.7,9.8-9.6c2.7,0,5.3,1.2,7.2,3.2l-1.1,0.9
		c-3.1-3.4-8.3-3.7-11.7-0.7C11.5-124.9,10.5-122.7,10.5-120.3z"/>
</g>
</svg>
