<?xml version="1.0" encoding="utf-8"?>
<!-- Generator: Adobe Illustrator 23.0.3, SVG Export Plug-In . SVG Version: 6.00 Build 0)  -->
<svg version="1.1" id="Layer_1" xmlns="http://www.w3.org/2000/svg" xmlns:xlink="http://www.w3.org/1999/xlink" x="0px" y="0px"
	 viewBox="0 0 50 50" style="enable-background:new 0 0 50 50;" xml:space="preserve">
<style type="text/css">
	.st0{fill:#48729D;}
	.st1{fill:#282B3A;}
	.st2{fill:#FFFFFF;}
</style>
<rect x="40" y="5" class="st0" width="5" height="5"/>
<rect x="5" y="5" class="st0" width="30" height="5"/>
<path class="st0" d="M45,15H5v30h40V15z M8.2,33.2l5.7-5.7l-5.7-5.7l3.5-3.5l9.3,9.3l-9.3,9.3L8.2,33.2z M30,40H20v-5h10V40z"/>
<path class="st1" d="M0,50h50V0H0V50z M40,5h5v5h-5V5z M5,5h30v5H5V5z M5,15h40v30H5V15z"/>
<polygon class="st2" points="11.8,18.2 8.2,21.8 14,27.5 8.2,33.2 11.8,36.8 21,27.5 "/>
<rect x="20" y="35" class="st2" width="10" height="5"/>
</svg>
