<?xml version="1.0" encoding="utf-8"?>
<!-- Generator: Adobe Illustrator 23.0.3, SVG Export Plug-In . SVG Version: 6.00 Build 0)  -->
<svg version="1.1" id="Layer_1" xmlns="http://www.w3.org/2000/svg" xmlns:xlink="http://www.w3.org/1999/xlink" x="0px" y="0px"
	 viewBox="0 0 50 32.5" style="enable-background:new 0 0 50 32.5;" xml:space="preserve">
<style type="text/css">
	.st0{display:none;}
	.st1{fill:#48729D;}
	.st2{fill:#FFFFFF;}
	.st3{fill:#282B3A;}
</style>
<g id="Guides" class="st0">
</g>
<g id="Guides_1_" class="st0">
</g>
<g>
	<path class="st1" d="M11.9,6.9c2.8,0,5.5-0.3,7.5-0.8c1.2-0.3,1.9-0.6,2.3-0.9V5.1c-0.5-0.6-4.1-1.7-9.8-1.7S2.6,4.4,2.1,5.1v0.2
		c0.4,0.3,1.1,0.6,2.3,0.9C6.4,6.6,9.1,6.9,11.9,6.9z"/>
	<path class="st1" d="M38,6.9c2.8,0,5.5-0.3,7.5-0.8c1.2-0.3,1.9-0.6,2.3-0.9V5.1c-0.5-0.6-4.1-1.7-9.8-1.7s-9.3,1.1-9.8,1.7v0.2
		c0.4,0.3,1.1,0.6,2.3,0.9C32.5,6.6,35.1,6.9,38,6.9z"/>
	<g>
		<path class="st2" d="M21.8,19.7v-5.6c-0.7,0.3-1.3,0.5-2,0.7c-2.1,0.5-4.9,0.8-7.8,0.8c-2.2,0-4.4-0.2-6.5-0.5c0,0-0.1,0-0.1,0
			C5,15,4.8,14.8,4.9,14.5C5,14.2,5.2,14,5.5,14.1c2.1,0.4,4.2,0.5,6.4,0.5c5.2,0,8.6-0.9,9.8-1.6V6.4c-2.1,1-6,1.6-9.8,1.6
			S4.1,7.4,2,6.4V13c0.2,0.1,0.5,0.3,0.8,0.4V9c0-0.3,0.2-0.5,0.5-0.5S3.8,8.7,3.8,9v5.1c0,0,0,0,0,0c0,0,0,0,0,0.1c0,0,0,0,0,0.1
			c0,0,0,0,0,0c0,0,0,0.1-0.1,0.1c0,0,0,0,0,0c0,0-0.1,0.1-0.1,0.1h0c0,0-0.1,0-0.1,0.1h0c0,0-0.1,0-0.1,0c0,0-0.1,0-0.1,0h0
			c-0.4-0.1-0.8-0.3-1.1-0.4v5.6c0.2,0.2,0.5,0.4,0.8,0.6v-3.5c0-0.3,0.2-0.5,0.5-0.5s0.5,0.2,0.5,0.5v4c1.6,0.6,4.4,1.2,8,1.2
			C17.9,21.9,21.4,20.4,21.8,19.7z"/>
		<path class="st1" d="M12.5,28.6v-2.1h-1.1v2.1c0,0.3-0.2,0.5-0.5,0.5H9.1v1.1h5.7l0-1.1H13C12.7,29.2,12.5,28.9,12.5,28.6z"/>
		<path class="st2" d="M47.8,19.7v-5.6c-0.7,0.3-1.3,0.5-2,0.7c-2.1,0.5-4.9,0.8-7.8,0.8c-2.2,0-4.4-0.2-6.5-0.5c0,0-0.1,0-0.1,0
			c-0.3-0.1-0.4-0.3-0.4-0.6c0.1-0.3,0.3-0.4,0.6-0.4c2.1,0.4,4.2,0.5,6.4,0.5c5.2,0,8.6-0.9,9.8-1.6V6.4c-2.1,1-6,1.6-9.8,1.6
			c-3.9,0-7.8-0.5-9.8-1.6V13c0.2,0.1,0.5,0.3,0.8,0.4V9c0-0.3,0.2-0.5,0.5-0.5s0.5,0.2,0.5,0.5v5.1c0,0,0,0,0,0c0,0,0,0,0,0.1
			c0,0,0,0,0,0.1c0,0,0,0,0,0c0,0,0,0.1-0.1,0.1l0,0c0,0-0.1,0.1-0.1,0.1h0c0,0-0.1,0-0.1,0.1h0c0,0-0.1,0-0.1,0c0,0-0.1,0-0.1,0h0
			c-0.4-0.1-0.8-0.3-1.1-0.4v5.6c0.2,0.2,0.5,0.4,0.8,0.6v-3.5c0-0.3,0.2-0.5,0.5-0.5c0.3,0,0.5,0.2,0.5,0.5v4
			c1.6,0.6,4.4,1.2,8,1.2C44,21.9,47.4,20.4,47.8,19.7z"/>
		<path class="st1" d="M38.6,28.6v-2.1h-1.1v2.1c0,0.3-0.2,0.5-0.5,0.5h-1.8v1.1h5.7l0-1.1h-1.8C38.8,29.2,38.6,28.9,38.6,28.6z"/>
		<g>
			<path class="st3" d="M49,28.7L49,28.7l-6.9,0c0,0-0.1,0-0.1,0v0c0-0.3-0.2-0.5-0.5-0.5h-1.8v-2.3c0-0.3-0.2-0.5-0.5-0.5h0V24
				c2.3-0.1,4.7-0.4,6.9-1c2.6-0.8,3.9-1.8,3.9-3.1V5c0-3.6-10.7-3.7-11.9-3.7c-1.2,0-11.9,0.1-11.9,3.7v14.9c0,2.7,6.1,4,10.9,4.2
				v1.3h0c-0.3,0-0.5,0.2-0.5,0.5v2.3h-1.8c-0.3,0-0.5,0.2-0.5,0.5v0c-0.1,0-0.1,0-0.2,0H16c0,0-0.1,0-0.1,0v0
				c0-0.3-0.2-0.5-0.5-0.5h-1.8v-2.3c0-0.3-0.2-0.5-0.5-0.5h0V24c2.3-0.1,4.7-0.4,6.9-1c2.6-0.8,3.9-1.8,3.9-3.1V5
				c0-3.6-10.7-3.7-11.9-3.7C10.7,1.2,0,1.3,0,5v14.9c0,2.7,6.1,4,10.9,4.2v1.3h0c-0.3,0-0.5,0.2-0.5,0.5v2.3H8.6
				c-0.3,0-0.5,0.2-0.5,0.5v0c0,0-0.1,0-0.1,0H1.1c-0.6,0-1,0.5-1,1c0,0.6,0.5,1,1,1H8c0,0,0.1,0,0.1,0v0c0,0.3,0.2,0.5,0.5,0.5h6.7
				c0.3,0,0.5-0.2,0.5-0.5v-0.1c0,0,0.1,0,0.1,0h18c0.1,0,0.1,0,0.2,0v0c0,0.3,0.2,0.5,0.5,0.5h6.7c0.3,0,0.5-0.2,0.5-0.5v0
				c0,0,0.1,0,0.1,0H49c0.6,0,1-0.5,1-1C50,29.1,49.5,28.7,49,28.7z M2.1,5.1c0.5-0.6,4.1-1.7,9.8-1.7s9.3,1.1,9.8,1.7v0.2
				c-0.4,0.3-1.1,0.6-2.3,0.9c-2,0.5-4.7,0.8-7.5,0.8c-2.8,0-5.5-0.3-7.5-0.8C3.2,5.8,2.5,5.5,2.1,5.2V5.1z M3.9,20.7v-4
				c0-0.3-0.2-0.5-0.5-0.5s-0.5,0.2-0.5,0.5v3.5c-0.3-0.1-0.6-0.3-0.8-0.6v-5.6c0.4,0.2,0.7,0.3,1.1,0.4h0c0,0,0.1,0,0.1,0
				c0,0,0.1,0,0.1,0h0c0,0,0.1,0,0.1-0.1h0c0,0,0.1-0.1,0.1-0.1c0,0,0,0,0,0c0,0,0.1-0.1,0.1-0.1c0,0,0,0,0,0c0,0,0,0,0-0.1
				c0,0,0,0,0-0.1c0,0,0,0,0,0V9c0-0.3-0.2-0.5-0.5-0.5S2.8,8.7,2.8,9v4.4C2.5,13.3,2.3,13.1,2,13V6.4c2.1,1,6,1.6,9.8,1.6
				s7.8-0.5,9.8-1.6V13c-1.2,0.7-4.6,1.6-9.8,1.6c-2.1,0-4.3-0.2-6.4-0.5C5.2,14,5,14.2,4.9,14.5C4.8,14.8,5,15,5.3,15.1
				c0,0,0.1,0,0.1,0c2.2,0.4,4.3,0.5,6.5,0.5c2.9,0,5.7-0.3,7.8-0.8c0.7-0.2,1.4-0.4,2-0.7v5.6c-0.4,0.6-3.9,2.2-9.9,2.2
				C8.2,21.9,5.5,21.3,3.9,20.7z M14.8,30.2H9.1v-1.1h1.8c0.3,0,0.5-0.2,0.5-0.5v-2.1h1.1v2.1c0,0.3,0.2,0.5,0.5,0.5h1.8L14.8,30.2z
				 M28.1,5.1c0.5-0.6,4.1-1.7,9.8-1.7s9.3,1.1,9.8,1.7v0.2c-0.4,0.3-1.1,0.6-2.3,0.9c-2,0.5-4.7,0.8-7.5,0.8
				c-2.8,0-5.5-0.3-7.5-0.8c-1.2-0.3-1.9-0.6-2.3-0.9V5.1z M29.9,20.7v-4c0-0.3-0.2-0.5-0.5-0.5c-0.3,0-0.5,0.2-0.5,0.5v3.5
				c-0.3-0.1-0.6-0.3-0.8-0.6v-5.6c0.4,0.2,0.7,0.3,1.1,0.4h0c0,0,0.1,0,0.1,0c0,0,0.1,0,0.1,0h0c0,0,0.1,0,0.1-0.1h0
				c0,0,0.1-0.1,0.1-0.1l0,0c0,0,0-0.1,0.1-0.1c0,0,0,0,0,0c0,0,0,0,0-0.1c0,0,0,0,0-0.1c0,0,0,0,0,0V9c0-0.3-0.2-0.5-0.5-0.5
				S28.9,8.7,28.9,9v4.4c-0.3-0.1-0.5-0.2-0.8-0.4V6.4c2.1,1,6,1.6,9.8,1.6c3.9,0,7.8-0.5,9.8-1.6V13c-1.2,0.7-4.6,1.6-9.8,1.6
				c-2.1,0-4.3-0.2-6.4-0.5C31.3,14,31,14.2,31,14.5c-0.1,0.3,0.1,0.6,0.4,0.6c0,0,0.1,0,0.1,0c2.2,0.4,4.3,0.5,6.5,0.5
				c2.9,0,5.7-0.3,7.8-0.8c0.7-0.2,1.4-0.4,2-0.7v5.6c-0.4,0.6-3.9,2.2-9.8,2.2C34.3,21.9,31.6,21.3,29.9,20.7z M40.9,30.2h-5.7
				v-1.1H37c0.3,0,0.5-0.2,0.5-0.5v-2.1h1.1v2.1c0,0.3,0.2,0.5,0.5,0.5h1.8L40.9,30.2z"/>
		</g>
	</g>
</g>
</svg>
