<?xml version="1.0" encoding="utf-8"?>
<!-- Generator: Adobe Illustrator 23.0.3, SVG Export Plug-In . SVG Version: 6.00 Build 0)  -->
<svg version="1.1" id="Layer_1" xmlns="http://www.w3.org/2000/svg" xmlns:xlink="http://www.w3.org/1999/xlink" x="0px" y="0px"
	 viewBox="0 0 75 56.4" style="enable-background:new 0 0 75 56.4;" xml:space="preserve">
<style type="text/css">
	.st0{fill:none;}
	.st1{fill:#FFFFFF;}
	.st2{fill:#282B3A;}
	.st3{fill:#48729D;}
</style>
<path class="st0" d="M34.3,6.3c2.1-0.5,4.2-0.5,6.3,0C39.9,3.1,35.3,3.1,34.3,6.3z"/>
<g>
	<g>
		<path class="st1" d="M8.2,55.3c-3.2,0-5.8-2.6-5.8-5.8V14.6c0-3.2,2.6-5.8,5.8-5.8h1.4v3.3c0,3.4,2.8,6.2,6.2,6.2s6.2-2.8,6.2-6.2
			V8.7h31v3.4c0,3.4,2.8,6.2,6.2,6.2s6.2-2.8,6.2-6.2V8.7h1.4c3.2,0,5.8,2.6,5.8,5.8v34.9c0,3.2-2.6,5.8-5.8,5.8L8.2,55.3L8.2,55.3z
			 M10.9,24.6c-2.2,0-3.9,1.6-3.9,3.6v18.5c0,2,1.8,3.6,3.9,3.6h53.2c2.2,0,3.9-1.6,3.9-3.6V28.2c0-2-1.8-3.6-3.9-3.6
			C64.1,24.6,10.9,24.6,10.9,24.6z"/>
		<path class="st2" d="M66.8,9.7c2.7,0,4.8,2.2,4.8,4.8v34.9c0,2.7-2.2,4.8-4.8,4.8H8.2c-2.7,0-4.8-2.2-4.8-4.8V14.6
			c0-2.7,2.2-4.8,4.8-4.8h0.4v2.3c0,4,3.2,7.2,7.2,7.2s7.2-3.2,7.2-7.2V9.8h29v2.3c0,4,3.2,7.2,7.2,7.2s7.2-3.2,7.2-7.2V9.8h0.4
			 M10.9,51.4h53.2c2.7,0,4.9-2.1,4.9-4.6V28.2c0-2.6-2.2-4.6-4.9-4.6H10.9c-2.7,0-4.9,2.1-4.9,4.6v18.5C6,49.3,8.2,51.4,10.9,51.4
			 M66.8,7.7h-2.4v4.4c0,2.9-2.3,5.2-5.2,5.2S54,15,54,12.1V7.7H21v4.4c0,2.9-2.3,5.2-5.2,5.2s-5.2-2.3-5.2-5.2V7.7H8.2
			c-3.8,0-6.8,3.1-6.8,6.8v34.9c0,3.8,3.1,6.8,6.8,6.8h58.6c3.8,0,6.8-3.1,6.8-6.8V14.6C73.6,10.8,70.6,7.7,66.8,7.7L66.8,7.7z
			 M10.9,49.4c-1.6,0-2.9-1.2-2.9-2.6V28.2c0-1.5,1.3-2.6,2.9-2.6h53.2c1.6,0,2.9,1.2,2.9,2.6v18.5l0,0c0,1.4-1.3,2.6-2.9,2.6
			L10.9,49.4L10.9,49.4z"/>
	</g>
	<g>
		<path class="st2" d="M15.8,14.6c1.4,0,2.5-1.1,2.5-2.5V7.7V2.6c0-1.4-1.1-2.5-2.5-2.5s-2.5,1.1-2.5,2.5v5.1v4.4
			C13.3,13.4,14.4,14.6,15.8,14.6z"/>
	</g>
	<g>
		<path class="st2" d="M59.2,14.6c1.4,0,2.5-1.1,2.5-2.5V7.7V2.6c0-1.4-1.1-2.5-2.5-2.5s-2.5,1.1-2.5,2.5v5.1v4.4
			C56.7,13.4,57.8,14.6,59.2,14.6z"/>
	</g>
</g>
<rect x="48.4" y="30.3" class="st3" width="14" height="14.3"/>
<g>
	<rect x="13.6" y="31.3" class="st1" width="12" height="12.3"/>
	<path class="st2" d="M24.6,32.3v10.3h-10V32.3H24.6 M26.6,30.3h-14v14.3h14V30.3L26.6,30.3z"/>
</g>
<g>
	<rect x="31.2" y="31.3" class="st1" width="12" height="12.3"/>
	<path class="st2" d="M42.2,32.3v10.3h-10V32.3H42.2 M44.2,30.3h-14v14.3h14V30.3L44.2,30.3z"/>
	<path class="st2" d="M60.4,32.3v10.3h-10V32.3H60.4 M62.4,30.3h-14v14.3h14V30.3L62.4,30.3z"/>
</g>
</svg>
