<?xml version="1.0" encoding="utf-8"?>
<!-- Generator: Adobe Illustrator 23.0.3, SVG Export Plug-In . SVG Version: 6.00 Build 0)  -->
<svg version="1.1" id="Layer_1" xmlns="http://www.w3.org/2000/svg" xmlns:xlink="http://www.w3.org/1999/xlink" x="0px" y="0px"
	 viewBox="0 0 75 75" style="enable-background:new 0 0 75 75;" xml:space="preserve">
<style type="text/css">
	.st0{fill:#282B3A;}
	.st1{fill:#48729D;}
</style>
<g>
	<path class="st0" d="M47.8,31.7l-1.4,0.5c-0.7-1.2-1.7-2.2-2.7-3l0.6-1.3c0.3-0.6,0-1.4-0.6-1.7l-1.4-0.6c-0.6-0.3-1.4,0-1.7,0.6
		L40,27.4c-1.3-0.3-2.7-0.4-4.1-0.2l-0.5-1.4c-0.2-0.7-1-1-1.6-0.8l-1.4,0.5c-0.7,0.2-1,1-0.8,1.6l0.5,1.4c-1.2,0.7-2.2,1.7-3,2.7
		l-1.3-0.6c-0.6-0.3-1.4,0-1.7,0.6l-0.6,1.4c-0.3,0.6,0,1.4,0.6,1.7l1.3,0.6c-0.3,1.3-0.4,2.7-0.2,4.1l-1.4,0.5
		c-0.7,0.2-1,1-0.8,1.6l0.5,1.4c0.2,0.7,1,1,1.6,0.8l1.4-0.5c0.7,1.2,1.7,2.2,2.7,3l-0.6,1.3c-0.3,0.6,0,1.4,0.6,1.7l1.4,0.6
		c0.6,0.3,1.4,0,1.7-0.6l0.6-1.3c1.3,0.3,2.7,0.4,4.1,0.2l0.5,1.4c0.2,0.7,1,1,1.6,0.8l1.4-0.5c0.7-0.2,1-1,0.8-1.6l-0.5-1.4
		c1.2-0.7,2.2-1.7,3-2.7l1.3,0.6c0.6,0.3,1.4,0,1.7-0.6l0.6-1.4c0.3-0.6,0-1.4-0.6-1.7L47.6,40c0.3-1.3,0.4-2.7,0.2-4.1l1.4-0.5
		c0.7-0.2,1-1,0.8-1.6l-0.5-1.4C49.2,31.8,48.5,31.4,47.8,31.7z M39.8,43.9c-3.5,1.3-7.4-0.6-8.7-4.1c-1.3-3.5,0.6-7.4,4.1-8.7
		c3.5-1.3,7.4,0.6,8.7,4.1C45.2,38.7,43.3,42.6,39.8,43.9z"/>
</g>
<g>
	<g>
		<g>
			<g>
				<g>
					<path class="st1" d="M54.7,38.5H61v-1C61,24.5,50.5,14,37.5,14c-3.3,0-6.4,0.7-9.5,2l-4.1-4.1c4.2-2.2,8.8-3.4,13.6-3.4
						c16,0,29,13,29,29v1h6.3l-9.1,10.6L54.7,38.5z"/>
					<path class="st0" d="M37.5,9.5c15.4,0,28,12.6,28,28v2h2h3.2l-6.9,8.1l-6.9-8.1H60h2v-2C62,24,51,13,37.5,13
						c-3.2,0-6.3,0.6-9.2,1.8l-2.7-2.7C29.3,10.4,33.4,9.5,37.5,9.5 M37.5,7.5c-5.6,0-10.8,1.5-15.2,4.2l5.6,5.6
						c2.9-1.4,6.2-2.2,9.7-2.2C49.9,15,60,25.1,60,37.5h-7.5l11.3,13.1L75,37.5h-7.5C67.5,20.9,54.1,7.5,37.5,7.5L37.5,7.5z"/>
				</g>
				<g>
					<path class="st1" d="M37.5,66.5c-16,0-29-13-29-29v-1H2.2l9.1-10.6l9.1,10.6H14v1C14,50.5,24.5,61,37.5,61c3.3,0,6.4-0.7,9.5-2
						l4.1,4.1C46.9,65.3,42.2,66.5,37.5,66.5z"/>
					<path class="st0" d="M11.2,27.4l6.9,8.1H15h-2v2C13,51,24,62,37.5,62c3.2,0,6.3-0.6,9.2-1.8l2.7,2.7c-3.7,1.7-7.8,2.7-11.9,2.7
						c-15.4,0-28-12.6-28-28v-2h-2H4.3L11.2,27.4 M11.2,24.4L0,37.5h7.5c0,16.6,13.4,30,30,30c5.6,0,10.8-1.5,15.2-4.2l-5.6-5.6
						C44.2,59.2,41,60,37.5,60C25.1,60,15,49.9,15,37.5h7.5L11.2,24.4L11.2,24.4z"/>
				</g>
			</g>
		</g>
	</g>
</g>
</svg>
