<?xml version="1.0" encoding="utf-8"?>
<!-- Generator: Adobe Illustrator 23.0.3, SVG Export Plug-In . SVG Version: 6.00 Build 0)  -->
<svg version="1.1" id="Layer_1" xmlns="http://www.w3.org/2000/svg" xmlns:xlink="http://www.w3.org/1999/xlink" x="0px" y="0px"
	 viewBox="0 0 50 44.9" style="enable-background:new 0 0 50 44.9;" xml:space="preserve">
<style type="text/css">
	.st0{fill-rule:evenodd;clip-rule:evenodd;fill:#FFFFFF;}
	.st1{fill-rule:evenodd;clip-rule:evenodd;fill:#282B3A;}
	.st2{fill-rule:evenodd;clip-rule:evenodd;fill:#231F20;}
	.st3{fill:#282B3A;}
</style>
<g>
	<polygon class="st0" points="5.1,15.4 5.1,13.5 6.3,12.8 8,11.6 8.7,11.6 9.4,12.4 9.8,15 9.2,16 7,15.9 	"/>
	<polygon class="st0" points="2.9,20.8 3.5,19.2 4.7,17.8 5.2,16.7 5.4,16.3 9.6,15.6 10.5,17 12.8,22.6 12,23.6 9.9,27 9.4,27.2 
		5.5,27.3 2.9,24.3 2.4,21.8 	"/>
	<path class="st0" d="M8.3,16.6c0,0-0.2,0,0.2-0.1s0.4-0.2,0.5-0.3c0.1-0.1,0.2-0.4,0.2-0.6c0-0.3,0.2-1.1,0.1-1.3
		c0-0.2-0.5-1-0.7-1.2c-0.2-0.1-2.4-0.3-2.4-0.3l-0.6,0.5l-0.5,0.5l0.1,1.5c0,0-0.2,0.5-0.1,0.6c0,0.2,0.3,0.4,0.4,0.5
		C5.5,16.5,6,17,6.1,17.1c0.2,0.2,0.2,0.3,0.5,0.2s0.5-0.1,0.8-0.3C7.6,16.8,8.3,16.6,8.3,16.6L8.3,16.6z"/>
	<path class="st0" d="M6.9,14.2C7,14,7.1,13.6,7.3,13.5c0.2-0.2,0.6-0.2,0.9-0.2c0.2,0,0.7,0.3,0.9,0.5c0.1,0.2,0.1,0.9,0.1,0.9
		l-0.1,0.6H8.7l-0.8-0.3H7.7c0,0-0.2,0.1-0.5-0.2S6.9,14.5,6.9,14.2L6.9,14.2z"/>
	<path class="st0" d="M6.1,14.9C6.1,14.9,6.2,14.9,6.1,14.9c0.2-0.2,0.6-0.3,0.6-0.3s0.4-0.9,0.1-1.3C6.5,12.9,5.8,13,5.8,13
		s-0.7,0.4-0.7,0.5s0.1,0.8,0.1,0.9c0,0.1,0.2,0.9,0.2,0.9l0.2-0.1l0.4-0.3C5.9,15,6,14.9,6.1,14.9L6.1,14.9z"/>
	<path class="st0" d="M11.4,23.3c0,0,0.2,0,0.4,0c0.1,0,0.1,0,0.2,0c0.3,0,0.5,0.1,0.9,0.1c0.2,0,0.5,0.2,0.5,0.4
		c0,0.3-0.1,0.7,0.2,0.9c0.3,0.2,0.9,0.6,0.9,0.6l0.2,0.4l-0.5,0.5l-2.8,1.7L10,27.4v-1l0.1-1.4l-0.2-1.3l0.2-0.5l0.5-0.2L11.4,23.3
		L11.4,23.3z"/>
	<path class="st0" d="M3.1,22.6l-0.5,0.2C2.3,22.8,2,23,2,23.3c0,0.2,0,0.2-0.1,0.4c-0.1,0.1-0.2,0.2-0.2,0.2c0,0.1-0.1,0.2-0.2,0.3
		c0,0-0.5,0-0.5,0H0.6l-0.2,0.3l0.2,0.8l-0.1,0.6l-0.2,0.7l0.5,0.2l3.5,0.9l0.8-0.2l0.5-1l-0.1-0.4l-0.4-0.8
		C5.1,25.5,3.3,22.9,3.1,22.6L3.1,22.6z"/>
	<path class="st1" d="M4.9,13.9c-0.1-2,0.7-2.8,2.3-2.8s2.5,0.8,2.7,1.9c0.2,1.1,0.1,2.5,0.5,3.2c0.4,0.7,0.6,1.3,1.3,2.2
		c0.7,0.9,1.1,1.7,1.3,2.7c0.2,1,0.3,1.6-0.2,2.1c-0.5,0.5-1.4,1.4-2.1,0.4c-0.3-0.5-0.4-1.1,0.2-1.3c0.4-0.1,0.6-0.1,0.9,0.1
		c0.3,0.2,0.3,0.1,0-0.2c-0.3-0.2-0.4,0-0.3-0.4c0.1-0.4,0.2-1.1-0.1-1.9c-0.2-0.4-0.6-1.3-1.1-1.6c-0.1,0-0.2-0.1-0.1,0
		c0.2,0.2,0.8,1.1,0.9,1.7c0.2,0.6,0.2,1.3,0.2,1.6c-0.1,0.4-0.3,0.5-0.5,0.5c-0.2,0-0.4,0.1-0.4-0.4s0.1-1.3-0.2-1.9
		c-0.2-0.6-0.6-1.1-0.7-1.3c-0.1-0.2-0.2-1-0.5-1.4c-0.3-0.4-0.5-0.7-0.3-1.2c0.2-0.5,0.1-0.6-0.3-0.7c-0.3-0.1-0.8-0.2-0.9-0.5
		c-0.1-0.2-0.1-0.7,0.2-0.8c0.2-0.1,0.7,0.1,0.7,0.4c0,0.3-0.2,0.5-0.1,0.5c0.1,0.1,0.2,0.2,0.4,0.1c0.1-0.2,0.2-0.5,0-0.9
		c-0.1-0.4-0.2-0.6-0.5-0.7s-0.6-0.1-0.8,0.2c-0.2,0.2-0.3,0.7-0.2,0.9c0.1,0.2,0,0-0.2,0c-0.2,0-0.2,0-0.3,0
		c-0.2,0-0.2-0.1-0.2-0.3c0-0.2-0.1-0.6-0.3-0.9c-0.3-0.2-0.8,0-0.8,0.7c0,0.7,0.2,1,0.4,0.8c0.2-0.2,0.1-0.2-0.1-0.2
		c-0.2-0.1-0.2-0.5-0.1-0.7S5.9,14,6,14.1c0.1,0.1,0.2,0.4,0.2,0.5c0,0.2-0.1,0.2-0.2,0.3c-0.2,0.2-0.2,0.2-0.5,0.4
		c-0.2,0.2-0.3,0.5-0.2,0.5C5.5,16,5.5,16,5.7,16.2c0.2,0.2,0.4,0.3,1,0.2S7.6,16.2,8,16C8.3,16,8.3,16,8.3,15.8
		c0.1-0.2,0.3,0.1,0.2,0.2C8.3,16,8,16.2,7.6,16.3c-0.3,0.1-0.6,0.4-1.2,0.4c-0.6,0-0.2,0-0.4,0c-0.2,0-0.2,0-0.1,0.2
		C6.2,17,6.2,17,6.4,17.1c0.2,0.1,0.4,0.1,0.7-0.1c0.2-0.1,0.9-0.4,1.2-0.5c0.2-0.2,0.4,0.1,0.2,0.2c-0.2,0.2-0.2,0.1-0.5,0.2
		c-0.2,0.2-0.5,0.3-0.8,0.5c-0.2,0.2-0.3,0.2-0.6,0.2c-0.3,0-0.5-0.3-0.6-0.5c-0.2-0.2-0.1-0.2-0.2-0.4c-0.2-0.2-0.2-0.2-0.2,0.1
		c0,0.2-0.2,0.6-0.4,0.9c-0.2,0.3-0.2,0.7-0.2,0.9c0,0.2-0.1,0.3-0.2,0.6c-0.2,0.3-0.5,1.3-0.6,1.6C4,21.2,3.9,21.8,4,22.2
		c0,0.4-0.1,0.4-0.3,0.2c-0.4-0.1-0.5-0.4-0.5-0.7s0.1-0.5,0.1-0.6s0-0.2-0.1-0.1C3,21.2,3,21.8,3,21.9c0.1,0.2,0.1,0.5,0.5,0.9
		c0.5,0.5,1.2,1,1.7,1.5c0.5,0.4,0.8,0.9-0.1,1.3c0.5,0.7,0.8,1.1,0.5,1.6c0.5-0.2,0.3-0.9,0.1-1.1C5.6,26,5.8,25.8,5.9,26
		c0.2,0.2,0.2,0.4,1,0.4s1.6-0.1,2.1-0.8c0.5-0.7,0.5-0.1,0.5,0.3c-0.1,0.4-0.4,1.3,0.1,1.2c0.1-0.5,0.2-1,0.2-1.6
		c0-0.5,0.1-0.9,0-1.6c-0.1-0.8,0.3-0.9,0.6-0.9c0.4,0,0.2,0.2,0,0.2s-0.5,0.1-0.5,0.6c0,0.5,0,0.5,0.1,1c0.1,0.5,0.1,0.7,0,1.3
		c-0.1,0.5-0.2,0.9,0.2,1.3s0.9,0.2,1.3,0c0.3-0.2,0.9-0.8,1.4-0.9c0.5-0.2,1-0.3,1.3-0.5c0.3-0.3,0.2-0.5-0.1-0.6
		c-0.3-0.2-0.5-0.1-0.8-0.3c-0.2-0.2-0.3-0.9-0.2-1.1c0.1-0.3,0.2-0.2,0.2,0.1s0,0.4,0.2,0.7c0.2,0.2,0.4,0.4,0.8,0.6
		c0.3,0.2,0.5,0.5,0.2,0.9c-0.4,0.3-0.7,0.5-1,0.6c-0.4,0.2-0.9,0.5-1.3,0.9c-0.3,0.2-0.5,0.5-1.2,0.5c-0.7,0-1-0.2-1.3-0.5
		c-0.2-0.3-0.2-0.2-0.5-0.2c-0.3,0-1.4,0-2.3,0c-0.9,0-1.2,0.2-1.5,0.5c-0.4,0.3-0.5,0.5-1.3,0.3c-0.7-0.2-1.1-0.5-2.2-0.7
		c-1.1-0.2-0.5-0.1-1.2-0.2c-0.6-0.2-0.6-0.5-0.5-0.7c0.1-0.2,0.3-0.6,0.1-1.2c-0.2-0.5-0.1-1.1,0.4-1.1s0.9,0.1,1.2-0.5
		s0.2-0.2,0.2,0C2,23.8,2,24.3,1.5,24.4s-0.5,0-0.8,0s-0.4,0.2-0.2,0.5s0.3,0.6,0.2,0.9c0,0.2-0.1,0.4-0.2,0.6
		c-0.2,0.2-0.2,0.4,0.2,0.5c0.4,0.1,1,0.2,1.6,0.4c0.6,0.1,0.7,0.1,1.7,0.3c1,0.2,1.3-0.2,1.4-0.8c0.1-0.5-0.3-1.2-0.7-1.7
		c-0.4-0.5-0.8-1.2-1.3-1.8c-0.5-0.5-0.8-0.6-1-0.5c-0.2,0.2-0.3,0.1-0.3-0.2c0-0.3-0.1-0.5,0.2-1c0.2-0.5,0.5-1,0.8-1.8
		c0.3-0.8,0.5-0.9,1-1.6s0.2-0.4,0.6-0.9C5.1,16.7,5,16.8,5,16.1C5,15.3,5,14.9,4.9,13.9L4.9,13.9z M3.6,19.7
		c0.1,0.1,0.2-0.2,0.3-0.2C4,19.4,4,19.3,4,19.2s-0.2-0.1-0.2,0c-0.1,0.1-0.1,0.2-0.1,0.2C3.6,19.5,3.5,19.6,3.6,19.7L3.6,19.7z
		 M9.7,16.7c0.2,0.2,0.2,0.2,0.3,0.1c0.1-0.2,0.1-0.2-0.2-0.3s-0.3-0.2-0.4-0.2c-0.1-0.1-0.2,0.1-0.1,0.2
		C9.5,16.6,9.6,16.7,9.7,16.7L9.7,16.7z M6.5,14.9c-0.1,0-0.2,0-0.3,0.1c0,0,0,0.1,0,0.2c0.1,0,0.1,0,0.2-0.1V15
		C6.4,15,6.5,15,6.5,14.9C6.5,15,6.5,14.9,6.5,14.9L6.5,14.9z M7,14.9C7.1,15,7.2,15,7.2,15s0.1,0,0.2,0C7.3,14.9,7.1,14.9,7,14.9
		C7,14.9,6.9,14.9,7,14.9L7,14.9z M8,14.3c0.1,0,0.2,0.2,0.2,0.4h0.1c0.1-0.1,0-0.2,0-0.2c0-0.1-0.1-0.2-0.2-0.2S8.1,14.3,8,14.3
		C8,14.2,7.9,14.3,8,14.3L8,14.3z M5.9,14.2c-0.1,0-0.1,0.1-0.1,0.2C6,14.5,6,14.6,6,14.7c0,0.1,0.1,0,0.1,0c0.1-0.1,0-0.2,0-0.3
		C6,14.3,6,14.2,5.9,14.2L5.9,14.2L5.9,14.2z M8.6,12C8.5,12,8.3,12,8.3,12c-0.1,0.1,0,0.2-0.1,0.3l-0.1,0.1c0,0.1,0,0.1,0,0.1
		c0.1,0.1,0.2-0.1,0.3-0.2c0.1-0.1,0.2,0,0.3-0.1v-0.1C8.8,12.2,8.7,12.1,8.6,12L8.6,12z"/>
	<path class="st2" d="M11.2,23.3c0-0.1,0.1-0.2,0.1-0.2s0,0,0.1,0c0,0,0,0.2,0,0.3c0,0.1,0.1,0.1,0.1,0c0.1,0,0.2-0.2,0.2-0.2l0,0
		c0,0,0,0.1-0.1,0.1h-0.1c0,0,0-0.2,0-0.3c0-0.1-0.1-0.1-0.1-0.1C11.2,23.1,11.2,23.3,11.2,23.3L11.2,23.3v-0.2L11,23.2v0.5l0.2-0.1
		C11.2,23.5,11.2,23.4,11.2,23.3L11.2,23.3z"/>
	<path class="st2" d="M11.7,23.4c0.1,0,0.2-0.2,0.2-0.2l0,0C11.9,23.3,11.9,23.3,11.7,23.4L11.7,23.4v-0.2V23l0.2-0.1v-0.1l-0.2,0.1
		v-0.2l-0.2,0.1v0.5c0,0.1,0,0.1,0,0.1C11.6,23.4,11.7,23.4,11.7,23.4L11.7,23.4z"/>
</g>
<g>
	<path class="st3" d="M17.1,6.9l-1.3-1.3c2.5-2.5,5.8-3.8,9.3-3.8s6.8,1.4,9.3,3.8l-1.3,1.3c-2.2-2.2-5-3.3-7.9-3.3
		C22,3.6,19.2,4.8,17.1,6.9z"/>
	<path class="st3" d="M19.5,9.4l-1.3-1.3c1.8-1.8,4.2-2.9,6.8-2.9s5,1,6.8,2.8l-1.3,1.3c-1.4-1.4-3.4-2.2-5.5-2.2S20.9,7.9,19.5,9.4
		z"/>
	<path class="st3" d="M21.9,11.8l-1.3-1.3c1.2-1.2,2.7-1.8,4.4-1.8s3.2,0.6,4.4,1.8l-1.3,1.3c-0.8-0.8-1.9-1.3-3.1-1.3
		S22.8,11,21.9,11.8z"/>
	<path class="st3" d="M25,12.2c-0.7,0-1.4,0.3-1.9,0.8l1.9,1.9l1.9-1.9C26.5,12.4,25.7,12.2,25,12.2z"/>
</g>
<path id="path13" class="st3" d="M35.3,15.1l6.2-0.8v5.9h-6.2V15.1z M41.3,20.9v5.8l-6.2-0.8v-5H41.3L41.3,20.9L41.3,20.9z M42,14.1
	l8.1-1.1v7.1H42V14.1z M50.2,20.9V28l-8.1-1.1V21L50.2,20.9L50.2,20.9z"/>
<path class="st3" d="M30.9,34.5H19.1c-0.3,0-0.6,0.2-0.6,0.6v2.6c0,0.3,0.2,0.6,0.6,0.6H31c0.3,0,0.6-0.2,0.6-0.6v-2.6
	C31.6,34.7,31.2,34.5,30.9,34.5z M27.3,36.9h-7.5v-1.2h7.5V36.9z M30,36.9c-0.3,0-0.6-0.2-0.6-0.6c0-0.3,0.2-0.6,0.6-0.6
	s0.6,0.2,0.6,0.6C30.5,36.6,30.3,36.9,30,36.9z M30.9,38.8H19.1c-0.3,0-0.6,0.2-0.6,0.6v2.6c0,0.3,0.2,0.6,0.6,0.6H31
	c0.3,0,0.6-0.2,0.6-0.6v-2.6C31.6,39.1,31.2,38.8,30.9,38.8z M27.3,41.3h-7.5v-1.2h7.5V41.3z M30,41.3c-0.3,0-0.6-0.2-0.6-0.6
	c0-0.3,0.2-0.6,0.6-0.6s0.6,0.2,0.6,0.6C30.5,41,30.3,41.3,30,41.3z M30.9,30H19.1c-0.3,0-0.6,0.2-0.6,0.6v2.6
	c0,0.3,0.2,0.6,0.6,0.6H31c0.3,0,0.6-0.2,0.6-0.6v-2.6C31.6,30.2,31.2,30,30.9,30z M27.3,32.5h-7.5v-1.2h7.5V32.5z M30,32.5
	c-0.3,0-0.6-0.2-0.6-0.6s0.2-0.6,0.6-0.6s0.6,0.2,0.6,0.6S30.3,32.5,30,32.5z"/>
</svg>
