<?xml version="1.0" encoding="utf-8"?>
<!-- Generator: Adobe Illustrator 23.0.3, SVG Export Plug-In . SVG Version: 6.00 Build 0)  -->
<svg version="1.1" id="Layer_1" xmlns="http://www.w3.org/2000/svg" xmlns:xlink="http://www.w3.org/1999/xlink" x="0px" y="0px"
	 viewBox="0 0 50 60.5" style="enable-background:new 0 0 50 60.5;" xml:space="preserve">
<style type="text/css">
	.st0{fill-rule:evenodd;clip-rule:evenodd;fill:#326CE5;}
	.st1{fill:#326CE5;}
	.st2{fill:#FFFFFF;}
	.st3{fill:url(#SVGID_1_);}
	.st4{opacity:7.000000e-02;clip-path:url(#SVGID_3_);enable-background:new    ;}
	.st5{display:none;}
	.st6{fill:#157CFF;}
	.st7{fill:#3A52DD;}
	.st8{fill:#3C54DF;}
</style>
<path class="st0" d="M21.8,28.4c-0.5-0.4-1.6-0.4-2.5-0.3c-0.1-0.8-0.6-1.6-1.4-2.2l-0.5-0.3L17,26c-0.4,0.6-0.7,1.5-0.6,2.3
	c0,0.3,0.1,0.8,0.4,1.3c-0.3,0.2-0.9,0.4-1.7,0.4h-15v0.2C0,31,0,33.7,1.7,35.7C3,37.2,4.9,38,7.4,38c5.5,0,9.5-2.5,11.4-7.1
	c0.8,0,2.4,0,3.2-1.6c0,0,0.1-0.1,0.2-0.4l0.1-0.2L21.8,28.4z M9.9,24.6h2.3v-2.1H9.9V24.6z M9.9,27.1h2.3V25H9.9V27.1z M7.2,27.1
	h2.3V25H7.2V27.1z M4.5,27.1h2.3V25H4.5V27.1z M1.7,29.6H4v-2.1H1.7V29.6z M4.5,29.6h2.3v-2.1H4.5V29.6z M7.2,29.6h2.3v-2.1H7.2
	V29.6z M9.9,29.6h2.3v-2.1H9.9V29.6z M12.6,29.6h2.3v-2.1h-2.3V29.6z"/>
<g>
	<path id="path3055" class="st1" d="M40.9,21.4c-0.2,0-0.3,0-0.5,0.1l-6.3,3c-0.3,0.2-0.6,0.5-0.7,0.8l-1.6,6.8
		c-0.1,0.3,0,0.6,0.2,0.9c0,0,0,0.1,0.1,0.1l4.4,5.4c0.2,0.3,0.6,0.5,0.9,0.5h7c0.4,0,0.7-0.2,0.9-0.5l4.4-5.4
		c0.2-0.3,0.3-0.7,0.2-1l-1.6-6.8c-0.1-0.4-0.3-0.7-0.7-0.8l-6.3-3C41.3,21.4,41.1,21.4,40.9,21.4L40.9,21.4z"/>
	<path id="path3059" class="st2" d="M40.9,23.7c-0.2,0-0.4,0.2-0.4,0.4l0,0v0.1c0,0.1,0,0.2,0.1,0.4c0,0.3,0.1,0.5,0,0.7
		c0,0.1-0.1,0.1-0.1,0.2v0.2c-0.2,0-0.5,0.1-0.7,0.1c-1,0.2-1.8,0.7-2.5,1.4l-0.1-0.1c-0.1,0-0.1,0-0.2,0c-0.2-0.1-0.3-0.3-0.5-0.5
		c-0.1-0.1-0.1-0.2-0.2-0.3c0,0-0.1,0-0.1-0.1c-0.1-0.1-0.2-0.1-0.3-0.1s-0.2,0-0.3,0.1c-0.1,0.2-0.1,0.4,0.1,0.6l0,0
		c0,0,0.1,0,0.1,0.1c0.1,0.1,0.2,0.1,0.3,0.2c0.2,0.1,0.4,0.3,0.6,0.4c0.1,0.1,0.1,0.2,0.1,0.2l0.1,0.1c-0.6,1-0.9,2.2-0.8,3.4h-0.2
		c0,0.1-0.1,0.1-0.2,0.2c-0.2,0.1-0.4,0.1-0.7,0.1c-0.1,0-0.2,0-0.4,0h-0.1l0,0l0,0c-0.2,0.1-0.4,0.3-0.3,0.5c0,0.2,0.3,0.3,0.5,0.3
		l0,0l0,0h0.1c0.1,0,0.2-0.1,0.3-0.1c0.3-0.1,0.5-0.2,0.7-0.2c0.1,0,0.2,0.1,0.2,0.1h0.2c0.4,1.2,1.2,2.1,2.2,2.7L38.3,35
		c0,0.1,0.1,0.2,0,0.2c-0.1,0.2-0.2,0.4-0.3,0.6c-0.1,0.1-0.1,0.2-0.2,0.3v0.1c-0.1,0.2,0,0.4,0.2,0.5c0.2,0.1,0.4,0,0.5-0.2l0,0
		l0,0v-0.1c0.1-0.1,0.1-0.2,0.1-0.3c0.1-0.3,0.2-0.5,0.3-0.7c0,0,0.1-0.1,0.2-0.1l0.1-0.2c0.9,0.3,1.9,0.4,2.8,0.2
		c0.2-0.1,0.4-0.1,0.6-0.2l0.1,0.1c0.1,0,0.1,0,0.2,0.1c0.1,0.2,0.2,0.4,0.3,0.6c0,0.1,0.1,0.2,0.1,0.3v0.1c0.1,0.2,0.3,0.3,0.5,0.2
		s0.3-0.3,0.2-0.5v-0.1c-0.1-0.1-0.1-0.2-0.2-0.3c-0.1-0.2-0.3-0.4-0.3-0.6c0-0.1,0-0.2,0-0.2s0-0.1-0.1-0.2c1-0.6,1.8-1.6,2.2-2.7
		c0,0,0.1,0,0.2,0c0.1,0,0.1-0.1,0.2-0.1c0.2,0,0.4,0.1,0.7,0.2c0.1,0,0.2,0.1,0.3,0.1h0.1l0,0l0,0c0.2,0,0.4-0.1,0.5-0.3
		c0-0.2-0.1-0.4-0.3-0.5h-0.1c-0.1,0-0.2,0-0.4,0c-0.3,0-0.5-0.1-0.7-0.1c-0.1,0-0.1-0.1-0.2-0.2h-0.2c0.1-0.6,0.1-1.2-0.1-1.8
		c-0.1-0.6-0.4-1.2-0.7-1.6l0.1-0.1c0-0.1,0-0.1,0.1-0.2s0.3-0.3,0.6-0.4c0.1-0.1,0.2-0.1,0.3-0.2c0,0,0.1,0,0.1-0.1
		c0.2-0.1,0.2-0.4,0.1-0.6c-0.1-0.2-0.4-0.2-0.6,0c0,0-0.1,0-0.1,0.1c-0.1,0.1-0.2,0.2-0.2,0.3c-0.2,0.2-0.3,0.3-0.5,0.5
		c-0.1,0-0.2,0-0.2,0L44.5,27c-0.8-0.9-1.9-1.4-3.1-1.5c0-0.1,0-0.1,0-0.2c0,0-0.1-0.1-0.1-0.2c0-0.2,0-0.4,0-0.7
		c0-0.1,0-0.2,0.1-0.4v-0.1C41.3,23.9,41.1,23.7,40.9,23.7L40.9,23.7z M40.4,26.6l-0.1,2l0,0c0,0.2-0.2,0.3-0.3,0.3s-0.1,0-0.2-0.1
		l0,0l-1.6-1.2c0.5-0.5,1.1-0.9,1.9-1C40.2,26.7,40.3,26.6,40.4,26.6z M41.4,26.6c0.9,0.1,1.7,0.5,2.3,1.1L42,28.9l0,0
		c-0.1,0.1-0.3,0.1-0.5-0.1c0-0.1-0.1-0.1-0.1-0.2l0,0V26.6z M37.6,28.5l1.5,1.3l0,0c0.1,0.1,0.2,0.3,0,0.5c0,0.1-0.1,0.1-0.2,0.1
		l0,0L37,30.9C36.9,30,37.1,29.2,37.6,28.5L37.6,28.5z M44.2,28.5c0.2,0.4,0.4,0.8,0.5,1.2c0.1,0.4,0.1,0.9,0.1,1.3l-1.9-0.6l0,0
		c-0.2,0-0.3-0.2-0.2-0.4c0-0.1,0.1-0.1,0.1-0.2l0,0L44.2,28.5L44.2,28.5z M40.6,29.9h0.6l0.4,0.5L41.5,31l-0.6,0.2l-0.5-0.3
		l-0.1-0.6L40.6,29.9z M42.6,31.5L42.6,31.5L42.6,31.5l2,0.3c-0.3,0.8-0.8,1.5-1.6,2L42.2,32l0,0c-0.1-0.2,0-0.4,0.2-0.4
		C42.5,31.5,42.5,31.5,42.6,31.5L42.6,31.5z M39.3,31.5c0.2,0,0.3,0.1,0.3,0.3c0,0.1,0,0.1,0,0.2l0,0l-0.8,1.8
		c-0.7-0.5-1.3-1.1-1.6-2L39.3,31.5L39.3,31.5C39.2,31.5,39.2,31.5,39.3,31.5L39.3,31.5z M40.9,32.3c0.1,0,0.1,0,0.2,0
		c0.1,0,0.1,0.1,0.1,0.1l0,0l1,1.7c-0.1,0-0.3,0.1-0.4,0.1c-0.7,0.2-1.5,0.1-2.1-0.1l1-1.7l0,0C40.7,32.4,40.8,32.3,40.9,32.3z"/>
</g>
<g>
	<g id="BASE">
		
			<linearGradient id="SVGID_1_" gradientUnits="userSpaceOnUse" x1="25" y1="66.6681" x2="25" y2="84.4423" gradientTransform="matrix(1 0 0 1 0 -24)">
			<stop  offset="0" style="stop-color:#4387FD"/>
			<stop  offset="1" style="stop-color:#4683EA"/>
		</linearGradient>
		<path class="st3" d="M19.3,59.6l-4.1-7.1c-0.3-0.6-0.3-1.2,0-1.8l4.1-7.1c0.3-0.6,0.9-0.9,1.6-0.9h8.2c0.6,0,1.2,0.3,1.6,0.9
			l4.1,7.1c0.3,0.6,0.3,1.2,0,1.8l-4.1,7.1c-0.3,0.6-0.9,0.9-1.6,0.9h-8.2C20.3,60.5,19.7,60.2,19.3,59.6z"/>
	</g>
	<g id="shadow">
		<g>
			<g>
				<g>
					<defs>
						<path id="SVGID_2_" d="M19.3,59.6l-4.1-7.1c-0.3-0.6-0.3-1.2,0-1.8l4.1-7.1c0.3-0.6,0.9-0.9,1.6-0.9h8.2
							c0.6,0,1.2,0.3,1.6,0.9l4.1,7.1c0.3,0.6,0.3,1.2,0,1.8l-4.1,7.1c-0.3,0.6-0.9,0.9-1.6,0.9h-8.2C20.3,60.5,19.7,60.2,19.3,59.6
							z"/>
					</defs>
					<clipPath id="SVGID_3_">
						<use xlink:href="#SVGID_2_"  style="overflow:visible;"/>
					</clipPath>
					<polygon class="st4" points="34.4,54.5 29,49.2 25,47.4 21.2,49.5 21,54 27.7,60.7 30.3,60.7 					"/>
				</g>
			</g>
		</g>
	</g>
	<g id="art">
		<path class="st2" d="M28.9,49.1L25.2,47c-0.1-0.1-0.3-0.1-0.4,0l-3.7,2.1c-0.1,0.1-0.2,0.2-0.2,0.4v4.3c0,0.2,0.1,0.3,0.2,0.4
			l3.7,2.1c0.1,0.1,0.3,0.1,0.4,0l3.7-2.1c0.1-0.1,0.2-0.2,0.2-0.4v-4.3C29.1,49.3,29,49.2,28.9,49.1z M28.4,53.3l-1.3-0.7v-2
			l-1.9,1.1v2.2l1.7-1l1.3,0.7L25,55.5l-3.2-1.8l1.3-0.7l1.7,1v-2.2l-1.9-1.1v2l-1.3,0.7v-3.7l3.2-1.8v1.5l-1.7,1l1.9,1.1l1.9-1.1
			l-1.7-1v-1.5l3.2,1.8V53.3L28.4,53.3z"/>
	</g>
</g>
<g id="Guides" class="st5">
</g>
<g>
	<path class="st6" d="M16.1,9.9c0-1.6,0-3.2,0-4.9c0-0.2,0.1-0.3,0.2-0.4c1.2-0.7,2.4-1.4,3.6-2.1c0.9-0.5,1.7-1,2.6-1.5
		c0.5-0.3,1-0.6,1.5-0.9c0.1,0,0.2-0.1,0.3,0c0.1,0.1,0.1,0.2,0.1,0.3c0,0.5,0,1,0,1.5c0,0.8,0,1.6,0,2.3c0,0.2-0.1,0.4-0.3,0.5
		c-1.3,0.7-2.5,1.5-3.8,2.2c-0.1,0.1-0.2,0.2-0.2,0.4c0,1.7,0,3.4,0,5.1c0,0.2,0.1,0.3,0.2,0.4c1.5,0.8,2.9,1.7,4.4,2.5
		c0.2,0.1,0.3,0.1,0.5,0c1.2-0.7,2.4-1.4,3.6-2.1c0.5-0.3,0.4-0.3,0.9,0c1.1,0.6,2.1,1.2,3.2,1.9c0.3,0.2,0.2,0.4,0,0.5
		c-2.2,1.3-4.4,2.5-6.6,3.8c-0.4,0.2-0.7,0.4-1.1,0.6c-0.1,0.1-0.2,0.1-0.4,0c-0.9-0.5-1.8-1.1-2.8-1.6c-1.7-1-3.5-2-5.2-3
		c-0.2-0.1-0.4-0.2-0.6-0.3S16,14.9,16,14.7C16.1,13.1,16.1,11.5,16.1,9.9L16.1,9.9z"/>
	<path class="st7" d="M33.9,9.4c0,1.4,0,2.9,0,4.3c0,0.1,0,0.1,0,0.2c0,0.2-0.2,0.3-0.3,0.2c-0.5-0.3-0.9-0.5-1.4-0.8
		c-0.7-0.4-1.4-0.8-2.1-1.2c-0.2-0.1-0.2-0.2-0.2-0.4c0-1.5,0-2.9,0-4.4c0-0.2-0.1-0.3-0.2-0.4c-0.9-0.5-1.9-1.1-2.8-1.6
		c-0.4-0.2-0.7-0.4-1.1-0.6c-0.1-0.1-0.2-0.2-0.2-0.3c0-1.4,0-2.7,0-4.1C25.6,0,25.8,0,26,0.1c0.8,0.5,1.7,1,2.5,1.4
		c1.7,1,3.4,2,5.2,3C33.9,4.6,34,4.7,34,5C33.9,6.5,33.9,8,33.9,9.4L33.9,9.4z"/>
	<path class="st8" d="M24,9.3l0.1-0.1c0.7-0.7,1.4-1.4,2.1-2.1C26.3,7,26.3,7,26.4,7c0.3,0,0.6,0,0.9,0c-0.2,0.2-0.3,0.4-0.5,0.5
		c-0.7,0.7-1.3,1.3-2,2c-0.1,0.1-0.1,0.2,0,0.3c0.8,0.9,1.7,1.9,2.5,2.8c0,0,0.1,0.1,0.1,0.2c-0.3,0-0.7,0-1,0
		c-0.1,0-0.1-0.1-0.2-0.1c-0.8-0.8-1.5-1.7-2.3-2.5c0,0-0.1-0.1-0.2-0.2c0,0.1,0,0.2,0,0.2c0,0.8,0,1.6,0,2.4c0,0.2,0,0.2-0.2,0.2
		c-0.1,0-0.2,0-0.4,0c-0.2,0-0.2,0-0.2-0.2c0-1,0-2,0-3.1c0-0.8,0-1.5,0-2.3c0-0.2,0-0.2,0.2-0.2c0.1,0,0.3,0,0.4,0
		c0.2,0,0.2,0,0.2,0.2c0,0.6,0,1.3,0,1.9C23.9,9.2,23.9,9.2,24,9.3L24,9.3z"/>
</g>
</svg>
