<?xml version="1.0" encoding="utf-8"?>
<!-- Generator: Adobe Illustrator 23.0.3, SVG Export Plug-In . SVG Version: 6.00 Build 0)  -->
<svg version="1.1" id="Layer_1" xmlns="http://www.w3.org/2000/svg" xmlns:xlink="http://www.w3.org/1999/xlink" x="0px" y="0px"
	 viewBox="0 0 50 50" style="enable-background:new 0 0 50 50;" xml:space="preserve">
<style type="text/css">
	.st0{fill-rule:evenodd;clip-rule:evenodd;fill:#326CE5;}
	.st1{fill:#326CE5;}
	.st2{fill:#FFFFFF;}
	.st3{fill:url(#SVGID_1_);}
	.st4{opacity:7.000000e-02;clip-path:url(#SVGID_3_);enable-background:new    ;}
	.st5{display:none;}
	.st6{fill:#157CFF;}
	.st7{fill:#3A52DD;}
	.st8{fill:#3C54DF;}
</style>
<path class="st0" d="M21.8,23.2c-0.5-0.4-1.6-0.4-2.5-0.3c-0.1-0.8-0.6-1.6-1.4-2.2l-0.5-0.3L17,20.8c-0.4,0.6-0.7,1.5-0.6,2.3
	c0,0.3,0.1,0.8,0.4,1.3c-0.3,0.2-0.9,0.4-1.7,0.4H0.1l0,0.2c-0.1,0.8-0.1,3.5,1.6,5.5c1.3,1.5,3.2,2.3,5.7,2.3
	c5.5,0,9.5-2.5,11.4-7.1c0.8,0,2.4,0,3.2-1.6c0,0,0.1-0.1,0.2-0.4l0.1-0.2L21.8,23.2z M9.9,19.4h2.3v-2.1H9.9V19.4z M9.9,21.9h2.3
	v-2.1H9.9V21.9z M7.2,21.9h2.3v-2.1H7.2C7.2,19.8,7.2,21.9,7.2,21.9z M4.5,21.9h2.3v-2.1H4.5V21.9z M1.7,24.4H4v-2.1H1.7V24.4z
	 M4.5,24.4h2.3v-2.1H4.5V24.4z M7.2,24.4h2.3v-2.1H7.2C7.2,22.3,7.2,24.4,7.2,24.4z M9.9,24.4h2.3v-2.1H9.9V24.4z M12.6,24.4h2.3
	v-2.1h-2.3V24.4z"/>
<g>
	<path id="path3055" class="st1" d="M40.9,16.2c-0.2,0-0.3,0-0.5,0.1l-6.3,3c-0.3,0.2-0.6,0.5-0.7,0.8l-1.6,6.8
		c-0.1,0.3,0,0.6,0.2,0.9c0,0,0,0.1,0.1,0.1l4.4,5.4c0.2,0.3,0.6,0.5,0.9,0.5l7,0c0.4,0,0.7-0.2,0.9-0.5l4.4-5.4
		c0.2-0.3,0.3-0.7,0.2-1l-1.6-6.8c-0.1-0.4-0.3-0.7-0.7-0.8l-6.3-3C41.3,16.2,41.1,16.2,40.9,16.2L40.9,16.2z"/>
	<path id="path3059" class="st2" d="M40.9,18.5c-0.2,0-0.4,0.2-0.4,0.4c0,0,0,0,0,0c0,0,0,0.1,0,0.1c0,0.1,0,0.2,0.1,0.4
		c0,0.3,0.1,0.5,0,0.7c0,0.1-0.1,0.1-0.1,0.2l0,0.2c-0.2,0-0.5,0.1-0.7,0.1c-1,0.2-1.8,0.7-2.5,1.4c0,0-0.1-0.1-0.1-0.1
		c-0.1,0-0.1,0-0.2,0c-0.2-0.1-0.3-0.3-0.5-0.5c-0.1-0.1-0.1-0.2-0.2-0.3c0,0-0.1,0-0.1-0.1c-0.1-0.1-0.2-0.1-0.3-0.1
		c-0.1,0-0.2,0-0.3,0.1c-0.1,0.2-0.1,0.4,0.1,0.6c0,0,0,0,0,0c0,0,0.1,0,0.1,0.1c0.1,0.1,0.2,0.1,0.3,0.2c0.2,0.1,0.4,0.3,0.6,0.4
		c0.1,0.1,0.1,0.2,0.1,0.2l0.1,0.1c-0.6,1-0.9,2.2-0.8,3.4l-0.2,0c0,0.1-0.1,0.1-0.2,0.2c-0.2,0.1-0.4,0.1-0.7,0.1
		c-0.1,0-0.2,0-0.4,0c0,0-0.1,0-0.1,0c0,0,0,0,0,0c0,0,0,0,0,0c-0.2,0.1-0.4,0.3-0.3,0.5c0,0.2,0.3,0.3,0.5,0.3c0,0,0,0,0,0
		c0,0,0,0,0,0c0,0,0.1,0,0.1,0c0.1,0,0.2-0.1,0.3-0.1c0.3-0.1,0.5-0.2,0.7-0.2c0.1,0,0.2,0.1,0.2,0.1l0.2,0c0.4,1.2,1.2,2.1,2.2,2.7
		l-0.1,0.2c0,0.1,0.1,0.2,0,0.2c-0.1,0.2-0.2,0.4-0.3,0.6c-0.1,0.1-0.1,0.2-0.2,0.3c0,0,0,0.1,0,0.1c-0.1,0.2,0,0.4,0.2,0.5
		c0.2,0.1,0.4,0,0.5-0.2c0,0,0,0,0,0c0,0,0,0,0,0c0,0,0-0.1,0-0.1c0.1-0.1,0.1-0.2,0.1-0.3c0.1-0.3,0.2-0.5,0.3-0.7
		c0,0,0.1-0.1,0.2-0.1l0.1-0.2c0.9,0.3,1.9,0.4,2.8,0.2c0.2-0.1,0.4-0.1,0.6-0.2c0,0,0.1,0.1,0.1,0.1c0.1,0,0.1,0,0.2,0.1
		c0.1,0.2,0.2,0.4,0.3,0.6c0,0.1,0.1,0.2,0.1,0.3c0,0,0,0.1,0,0.1c0.1,0.2,0.3,0.3,0.5,0.2c0.2-0.1,0.3-0.3,0.2-0.5c0,0,0-0.1,0-0.1
		c-0.1-0.1-0.1-0.2-0.2-0.3c-0.1-0.2-0.3-0.4-0.3-0.6c0-0.1,0-0.2,0-0.2c0,0,0-0.1-0.1-0.2c1-0.6,1.8-1.6,2.2-2.7c0,0,0.1,0,0.2,0
		c0.1,0,0.1-0.1,0.2-0.1c0.2,0,0.4,0.1,0.7,0.2c0.1,0,0.2,0.1,0.3,0.1c0,0,0.1,0,0.1,0c0,0,0,0,0,0c0,0,0,0,0,0
		c0.2,0,0.4-0.1,0.5-0.3c0-0.2-0.1-0.4-0.3-0.5c0,0-0.1,0-0.1,0c-0.1,0-0.2,0-0.4,0c-0.3,0-0.5-0.1-0.7-0.1c-0.1,0-0.1-0.1-0.2-0.2
		l-0.2,0c0.1-0.6,0.1-1.2-0.1-1.8c-0.1-0.6-0.4-1.2-0.7-1.6c0,0,0.1-0.1,0.1-0.1c0-0.1,0-0.1,0.1-0.2c0.1-0.1,0.3-0.3,0.6-0.4
		c0.1-0.1,0.2-0.1,0.3-0.2c0,0,0.1,0,0.1-0.1c0.2-0.1,0.2-0.4,0.1-0.6c-0.1-0.2-0.4-0.2-0.6,0c0,0-0.1,0-0.1,0.1
		c-0.1,0.1-0.2,0.2-0.2,0.3c-0.2,0.2-0.3,0.3-0.5,0.5c-0.1,0-0.2,0-0.2,0l-0.1,0.1c-0.8-0.9-1.9-1.4-3.1-1.5c0-0.1,0-0.1,0-0.2
		c0,0-0.1-0.1-0.1-0.2c0-0.2,0-0.4,0-0.7c0-0.1,0-0.2,0.1-0.4c0,0,0-0.1,0-0.1C41.3,18.7,41.1,18.5,40.9,18.5L40.9,18.5z M40.4,21.4
		l-0.1,2l0,0c0,0.2-0.2,0.3-0.3,0.3c-0.1,0-0.1,0-0.2-0.1l0,0l-1.6-1.2c0.5-0.5,1.1-0.9,1.9-1C40.2,21.5,40.3,21.4,40.4,21.4z
		 M41.4,21.4c0.9,0.1,1.7,0.5,2.3,1.1L42,23.7l0,0c-0.1,0.1-0.3,0.1-0.5-0.1c0-0.1-0.1-0.1-0.1-0.2l0,0L41.4,21.4z M37.6,23.3
		l1.5,1.3l0,0c0.1,0.1,0.2,0.3,0,0.5c0,0.1-0.1,0.1-0.2,0.1l0,0L37,25.7C36.9,24.8,37.1,24,37.6,23.3L37.6,23.3z M44.2,23.3
		c0.2,0.4,0.4,0.8,0.5,1.2c0.1,0.4,0.1,0.9,0.1,1.3l-1.9-0.6l0,0c-0.2,0-0.3-0.2-0.2-0.4c0-0.1,0.1-0.1,0.1-0.2l0,0L44.2,23.3
		L44.2,23.3z M40.6,24.7h0.6l0.4,0.5l-0.1,0.6L40.9,26l-0.5-0.3l-0.1-0.6L40.6,24.7z M42.6,26.3C42.6,26.3,42.6,26.3,42.6,26.3
		L42.6,26.3l2,0.3c-0.3,0.8-0.8,1.5-1.6,2l-0.8-1.8l0,0c-0.1-0.2,0-0.4,0.2-0.4C42.5,26.3,42.5,26.3,42.6,26.3L42.6,26.3z
		 M39.3,26.3c0.2,0,0.3,0.1,0.3,0.3c0,0.1,0,0.1,0,0.2l0,0l-0.8,1.8c-0.7-0.5-1.3-1.1-1.6-2L39.3,26.3L39.3,26.3
		C39.2,26.3,39.2,26.3,39.3,26.3L39.3,26.3z M40.9,27.1c0.1,0,0.1,0,0.2,0c0.1,0,0.1,0.1,0.1,0.1h0l1,1.7c-0.1,0-0.3,0.1-0.4,0.1
		c-0.7,0.2-1.5,0.1-2.1-0.1l1-1.7h0C40.7,27.2,40.8,27.1,40.9,27.1z"/>
</g>
<g>
	<g id="BASE">
		
			<linearGradient id="SVGID_1_" gradientUnits="userSpaceOnUse" x1="25" y1="18.8018" x2="25" y2="1.0276" gradientTransform="matrix(1 0 0 -1 0 51)">
			<stop  offset="0" style="stop-color:#4387FD"/>
			<stop  offset="1" style="stop-color:#4683EA"/>
		</linearGradient>
		<path class="st3" d="M19.3,49.1L15.2,42c-0.3-0.6-0.3-1.2,0-1.8l4.1-7.1c0.3-0.6,0.9-0.9,1.6-0.9h8.2c0.6,0,1.2,0.3,1.6,0.9
			l4.1,7.1c0.3,0.6,0.3,1.2,0,1.8l-4.1,7.1c-0.3,0.6-0.9,0.9-1.6,0.9h-8.2C20.3,50,19.7,49.7,19.3,49.1z"/>
	</g>
	<g id="shadow">
		<g>
			<g>
				<defs>
					<path id="SVGID_2_" d="M19.3,49.1L15.2,42c-0.3-0.6-0.3-1.2,0-1.8l4.1-7.1c0.3-0.6,0.9-0.9,1.6-0.9h8.2c0.6,0,1.2,0.3,1.6,0.9
						l4.1,7.1c0.3,0.6,0.3,1.2,0,1.8l-4.1,7.1c-0.3,0.6-0.9,0.9-1.6,0.9h-8.2C20.3,50,19.7,49.7,19.3,49.1z"/>
				</defs>
				<clipPath id="SVGID_3_">
					<use xlink:href="#SVGID_2_"  style="overflow:visible;"/>
				</clipPath>
				<polygon class="st4" points="34.4,44 29,38.7 25,36.9 21.2,39 21,43.5 27.7,50.2 30.3,50.2 				"/>
			</g>
		</g>
	</g>
	<g id="art">
		<path class="st2" d="M28.9,38.6l-3.7-2.1c-0.1-0.1-0.3-0.1-0.4,0l-3.7,2.1c-0.1,0.1-0.2,0.2-0.2,0.4v4.3c0,0.2,0.1,0.3,0.2,0.4
			l3.7,2.1c0.1,0.1,0.3,0.1,0.4,0l3.7-2.1c0.1-0.1,0.2-0.2,0.2-0.4V39C29.1,38.8,29,38.7,28.9,38.6z M28.4,42.8l-1.3-0.7v-2
			l-1.9,1.1v2.2l1.7-1l1.3,0.7L25,45l-3.2-1.8l1.3-0.7l1.7,1v-2.2l-1.9-1.1v2l-1.3,0.7v-3.7l3.2-1.8v1.5l-1.7,1l1.9,1.1l1.9-1.1
			l-1.7-1v-1.5l3.2,1.8L28.4,42.8L28.4,42.8z"/>
	</g>
</g>
<g id="Guides" class="st5">
</g>
<g>
	<path class="st6" d="M16.1,9.8c0-1.6,0-3.2,0-4.9c0-0.2,0.1-0.3,0.2-0.4c1.2-0.7,2.4-1.4,3.6-2.1c0.9-0.5,1.7-1,2.6-1.5
		c0.5-0.3,1-0.6,1.5-0.9c0.1,0,0.2-0.1,0.3,0c0.1,0.1,0.1,0.2,0.1,0.3c0,0.5,0,1,0,1.5c0,0.8,0,1.6,0,2.3c0,0.2-0.1,0.4-0.3,0.5
		c-1.3,0.7-2.5,1.5-3.8,2.2c-0.1,0.1-0.2,0.2-0.2,0.4c0,1.7,0,3.4,0,5.1c0,0.2,0.1,0.3,0.2,0.4c1.5,0.8,2.9,1.7,4.4,2.5
		c0.2,0.1,0.3,0.1,0.5,0c1.2-0.7,2.4-1.4,3.6-2.1c0.5-0.3,0.4-0.3,0.9,0c1.1,0.6,2.1,1.2,3.2,1.9c0.3,0.2,0.2,0.4,0,0.5
		c-2.2,1.3-4.4,2.5-6.6,3.8c-0.4,0.2-0.7,0.4-1.1,0.6c-0.1,0.1-0.2,0.1-0.4,0c-0.9-0.5-1.8-1.1-2.8-1.6c-1.7-1-3.5-2-5.2-3
		c-0.2-0.1-0.4-0.2-0.6-0.3c-0.2-0.1-0.2-0.2-0.2-0.4C16.1,13,16.1,11.4,16.1,9.8L16.1,9.8z"/>
	<path class="st7" d="M33.9,9.3c0,1.4,0,2.9,0,4.3c0,0.1,0,0.1,0,0.2c0,0.2-0.2,0.3-0.3,0.2c-0.5-0.3-0.9-0.5-1.4-0.8
		c-0.7-0.4-1.4-0.8-2.1-1.2c-0.2-0.1-0.2-0.2-0.2-0.4c0-1.5,0-2.9,0-4.4c0-0.2-0.1-0.3-0.2-0.4c-0.9-0.5-1.9-1.1-2.8-1.6
		c-0.4-0.2-0.7-0.4-1.1-0.6c-0.1-0.1-0.2-0.2-0.2-0.3c0-1.4,0-2.7,0-4.1c0-0.3,0.2-0.3,0.4-0.2c0.8,0.5,1.7,1,2.5,1.4
		c1.7,1,3.4,2,5.2,3c0.2,0.1,0.3,0.2,0.3,0.5C33.9,6.4,33.9,7.9,33.9,9.3L33.9,9.3z"/>
	<path class="st8" d="M24,9.2c0,0,0.1-0.1,0.1-0.1c0.7-0.7,1.4-1.4,2.1-2.1c0.1-0.1,0.1-0.1,0.2-0.1c0.3,0,0.6,0,0.9,0
		c-0.2,0.2-0.3,0.4-0.5,0.5c-0.7,0.7-1.3,1.3-2,2c-0.1,0.1-0.1,0.2,0,0.3c0.8,0.9,1.7,1.9,2.5,2.8c0,0,0.1,0.1,0.1,0.2
		c-0.3,0-0.7,0-1,0c-0.1,0-0.1-0.1-0.2-0.1c-0.8-0.8-1.5-1.7-2.3-2.5c0,0-0.1-0.1-0.2-0.2c0,0.1,0,0.2,0,0.2c0,0.8,0,1.6,0,2.4
		c0,0.2,0,0.2-0.2,0.2c-0.1,0-0.2,0-0.4,0c-0.2,0-0.2,0-0.2-0.2c0-1,0-2,0-3.1c0-0.8,0-1.5,0-2.3c0-0.2,0-0.2,0.2-0.2
		c0.1,0,0.3,0,0.4,0c0.2,0,0.2,0,0.2,0.2c0,0.6,0,1.3,0,1.9C23.9,9.1,23.9,9.1,24,9.2L24,9.2z"/>
</g>
</svg>
