<?xml version="1.0" encoding="utf-8"?>
<!-- Generator: Adobe Illustrator 23.0.3, SVG Export Plug-In . SVG Version: 6.00 Build 0)  -->
<svg version="1.1" id="Layer_1" xmlns="http://www.w3.org/2000/svg" xmlns:xlink="http://www.w3.org/1999/xlink" x="0px" y="0px"
	 viewBox="0 0 50 50" style="enable-background:new 0 0 50 50;" xml:space="preserve">
<style type="text/css">
	.st0{fill-rule:evenodd;clip-rule:evenodd;fill:#FFFFFF;}
	.st1{fill-rule:evenodd;clip-rule:evenodd;fill:#282B3A;}
	.st2{fill-rule:evenodd;clip-rule:evenodd;fill:#231F20;}
	.st3{fill:#282B3A;}
</style>
<g>
	<polygon class="st0" points="6.5,16.8 6.5,14.3 8,13.5 10.1,12 11,12 11.9,13 12.4,16.3 11.7,17.5 8.9,17.4 6.5,16.8 	"/>
	<polygon class="st0" points="3.7,23.7 4.4,21.6 5.9,19.9 6.6,18.4 6.9,17.9 12.2,17.1 13.3,18.8 16.3,25.9 15.2,27.2 12.6,31.6 
		11.9,31.8 7,31.9 3.6,28.1 3,24.9 3.7,23.7 	"/>
	<path class="st0" d="M10.5,18.3c0,0-0.2,0,0.3-0.1c0.5-0.1,0.5-0.2,0.6-0.4c0.1-0.1,0.2-0.5,0.2-0.8c0-0.4,0.2-1.4,0.1-1.7
		c0-0.3-0.6-1.3-0.9-1.5c-0.2-0.1-3-0.4-3-0.4L7,14.1l-0.6,0.6l0.1,1.9c0,0-0.2,0.6-0.1,0.8c0,0.2,0.4,0.5,0.5,0.7
		c0.1,0.1,0.7,0.7,0.8,0.9C8,19.2,8,19.4,8.4,19.3c0.4-0.1,0.7-0.1,1-0.4C9.7,18.6,10.5,18.3,10.5,18.3L10.5,18.3z"/>
	<path class="st0" d="M8.8,15.3c0.1-0.3,0.2-0.8,0.5-1c0.2-0.2,0.8-0.3,1.1-0.3c0.3,0,0.9,0.4,1.1,0.6c0.1,0.2,0.1,1.2,0.1,1.2
		l-0.1,0.8l-0.5,0L10,16.2H9.8c0,0-0.2,0.1-0.7-0.2C8.6,15.7,8.7,15.6,8.8,15.3L8.8,15.3z"/>
	<path class="st0" d="M7.7,16.1C7.7,16.1,7.8,16.1,7.7,16.1c0.3-0.2,0.8-0.4,0.8-0.4s0.5-1.2,0.1-1.6c-0.4-0.5-1.2-0.4-1.2-0.4
		s-0.9,0.5-0.9,0.7c0,0.2,0.1,1,0.1,1.1c0,0.1,0.2,1.2,0.2,1.2L7,16.6l0.5-0.4C7.5,16.3,7.6,16.2,7.7,16.1L7.7,16.1z"/>
	<path class="st0" d="M14.5,26.8c0,0,0.2,0,0.5,0c0.1,0,0.1,0,0.2,0c0.4,0,0.7,0.1,1.1,0.1c0.2,0,0.6,0.2,0.7,0.5
		c0,0.4-0.1,0.9,0.3,1.1c0.4,0.3,1.2,0.8,1.2,0.8l0.2,0.5l-0.7,0.7l-3.6,2.2l-1.7-0.6v-1.3l0.1-1.8l-0.2-1.6l0.3-0.6l0.7-0.2
		L14.5,26.8L14.5,26.8z"/>
	<path class="st0" d="M3.9,26c0,0-0.7,0.2-0.7,0.2c-0.3,0-0.7,0.3-0.7,0.6c0,0.2,0,0.3-0.1,0.5c-0.1,0.1-0.2,0.3-0.2,0.3
		c0,0.1-0.1,0.3-0.3,0.4C1.9,28,1.2,28,1.2,28H0.7l-0.3,0.4l0.2,1l-0.1,0.8l-0.2,0.9l0.6,0.3l4.5,1.2l1-0.3L7,31l-0.1-0.5l-0.5-1
		C6.4,29.6,4.2,26.4,3.9,26L3.9,26z"/>
	<path class="st1" d="M6.2,14.9c-0.1-2.5,0.9-3.6,2.9-3.6c2,0,3.2,1,3.5,2.4c0.3,1.4,0.1,3.2,0.6,4.1c0.5,0.9,0.8,1.7,1.7,2.8
		c0.9,1.1,1.4,2.2,1.7,3.5c0.3,1.3,0.4,2-0.3,2.7c-0.7,0.7-1.8,1.8-2.7,0.5c-0.4-0.6-0.5-1.4,0.3-1.6c0.5-0.1,0.8-0.1,1.2,0.1
		c0.4,0.2,0.4,0.1,0-0.2c-0.4-0.3-0.5,0-0.4-0.5c0.1-0.5,0.3-1.4-0.1-2.4c-0.2-0.5-0.8-1.7-1.4-2c-0.1,0-0.2-0.1-0.1,0
		c0.2,0.2,1,1.4,1.2,2.2c0.3,0.8,0.3,1.6,0.2,2c-0.1,0.5-0.4,0.7-0.6,0.7c-0.3,0-0.5,0.1-0.5-0.5c0-0.6,0.1-1.6-0.3-2.4
		c-0.3-0.8-0.8-1.4-0.9-1.7c-0.1-0.3-0.3-1.3-0.7-1.8c-0.4-0.5-0.6-0.9-0.4-1.5c0.2-0.6,0.1-0.8-0.4-0.9c-0.4-0.1-1-0.3-1.2-0.6
		c-0.1-0.3-0.1-0.9,0.3-1c0.3-0.1,0.9,0.1,0.9,0.5c0,0.4-0.2,0.6-0.1,0.7c0.1,0.1,0.3,0.2,0.5,0.1c0.1-0.2,0.2-0.7,0-1.1
		c-0.1-0.5-0.2-0.8-0.7-0.9c-0.5-0.1-0.8-0.1-1,0.3c-0.3,0.3-0.4,0.9-0.3,1.2C9.2,16.2,9.1,16,8.8,16c-0.3,0-0.2,0-0.4,0
		c-0.3,0-0.2-0.1-0.2-0.4c0-0.3-0.1-0.8-0.4-1.1c-0.4-0.2-1,0-1,0.9c0,0.9,0.3,1.3,0.5,1c0.2-0.3,0.1-0.2-0.1-0.3
		C7,16,6.9,15.4,7.1,15.2C7.3,15,7.5,15,7.6,15.1c0.1,0.1,0.3,0.5,0.3,0.7c0,0.2-0.1,0.3-0.3,0.4c-0.2,0.2-0.3,0.3-0.6,0.5
		c-0.3,0.2-0.4,0.6-0.2,0.7c0.2,0.1,0.2,0.1,0.4,0.4c0.2,0.3,0.5,0.4,1.3,0.3c0.8-0.1,1.1-0.3,1.7-0.5c0.4-0.1,0.3-0.1,0.4-0.3
		c0.1-0.2,0.4,0.1,0.2,0.2c-0.2,0.1-0.7,0.3-1.1,0.4c-0.4,0.1-0.8,0.5-1.5,0.5c-0.8,0-0.2,0-0.5,0c-0.2,0-0.3,0-0.1,0.2
		c0.3,0.2,0.2,0.2,0.5,0.3c0.2,0.1,0.5,0.1,0.9-0.1c0.3-0.1,1.2-0.5,1.5-0.7c0.3-0.2,0.5,0.1,0.2,0.2c-0.3,0.2-0.3,0.1-0.6,0.3
		c-0.3,0.2-0.7,0.4-1,0.7c-0.3,0.3-0.4,0.3-0.8,0.3c-0.4,0-0.6-0.4-0.8-0.6c-0.2-0.2-0.1-0.3-0.3-0.5c-0.2-0.2-0.2-0.2-0.3,0.1
		c0,0.2-0.3,0.8-0.5,1.2c-0.2,0.4-0.3,0.9-0.2,1.2c0,0.3-0.1,0.4-0.3,0.8c-0.3,0.4-0.7,1.6-0.8,2c-0.1,0.4-0.2,1.2-0.1,1.6
		c0,0.5-0.1,0.5-0.4,0.2C4.1,25.5,4,25.1,4,24.7c0-0.4,0.1-0.7,0.1-0.8c0-0.1,0-0.2-0.1-0.1c-0.2,0.4-0.2,1.1-0.2,1.3
		c0.1,0.2,0.1,0.7,0.7,1.2c0.6,0.6,1.5,1.3,2.2,1.9c0.7,0.5,1,1.2-0.1,1.7c0.7,0.9,1,1.4,0.7,2c0.6-0.3,0.4-1.2,0.1-1.4
		c-0.3-0.2-0.1-0.4,0.1-0.2c0.3,0.2,0.3,0.5,1.3,0.5c1,0,2.1-0.1,2.7-1c0.6-0.9,0.7-0.1,0.6,0.4c-0.1,0.5-0.5,1.7,0.1,1.5
		c0.1-0.7,0.2-1.3,0.2-2c0-0.7,0.1-1.1,0-2.1c-0.1-1,0.4-1.1,0.8-1.1c0.5,0,0.3,0.3,0,0.3c-0.3,0-0.6,0.1-0.6,0.8
		c0,0.7,0,0.7,0.1,1.3c0.1,0.7,0.1,0.9,0,1.6c-0.1,0.7-0.2,1.1,0.3,1.6c0.5,0.5,1.2,0.3,1.6,0c0.4-0.3,1.1-1,1.8-1.2
		c0.7-0.2,1.3-0.4,1.7-0.7c0.4-0.4,0.3-0.6-0.1-0.8c-0.4-0.2-0.7-0.1-1-0.4c-0.3-0.3-0.4-1.1-0.3-1.4c0.1-0.4,0.2-0.2,0.2,0.1
		c0,0.3,0,0.5,0.3,0.9c0.3,0.3,0.5,0.5,1,0.8c0.4,0.3,0.7,0.7,0.2,1.1c-0.5,0.4-0.9,0.6-1.3,0.8c-0.5,0.2-1.2,0.6-1.7,1.1
		C15,32.6,14.7,33,13.9,33c-0.9,0-1.3-0.2-1.6-0.7c-0.2-0.4-0.3-0.3-0.7-0.3c-0.4,0-1.8,0-2.9,0c-1.1,0-1.5,0.2-1.9,0.6
		c-0.5,0.4-0.7,0.7-1.6,0.4c-0.9-0.3-1.4-0.7-2.8-0.9c-1.4-0.3-0.6-0.1-1.5-0.3c-0.8-0.2-0.8-0.6-0.7-0.9c0.1-0.3,0.4-0.8,0.1-1.5
		c-0.2-0.7-0.1-1.4,0.5-1.4c0.6,0,1.2,0.1,1.5-0.7c0.3-0.8,0.3-0.2,0.3,0c-0.1,0.2-0.1,0.8-0.7,0.9c-0.6,0.1-0.7,0-1,0
		c-0.3,0-0.5,0.2-0.3,0.6c0.2,0.4,0.4,0.8,0.3,1.2c0,0.3-0.1,0.5-0.3,0.8c-0.3,0.3-0.2,0.5,0.2,0.6c0.5,0.1,1.3,0.3,2,0.5
		C3.6,32,3.7,32,5,32.3c1.3,0.3,1.7-0.3,1.8-1c0.1-0.7-0.4-1.5-0.9-2.2c-0.5-0.7-1-1.5-1.6-2.3c-0.6-0.7-1-0.8-1.3-0.6
		c-0.3,0.2-0.4,0.1-0.4-0.3c0-0.4-0.1-0.7,0.3-1.3c0.3-0.6,0.7-1.3,1-2.3c0.4-1,0.7-1.2,1.3-2.1c0.6-0.9,0.3-0.5,0.8-1.1
		c0.4-0.6,0.3-0.5,0.3-1.4C6.3,16.7,6.3,16.1,6.2,14.9L6.2,14.9z M4.5,22.3c0.1,0.1,0.2-0.2,0.4-0.3C5,21.9,5,21.7,5,21.6
		c0-0.1-0.2-0.1-0.2,0c-0.1,0.1-0.1,0.2-0.1,0.3C4.6,22,4.4,22.1,4.5,22.3L4.5,22.3z M12.3,18.5c0.2,0.2,0.3,0.3,0.4,0.1
		c0.1-0.2,0.1-0.3-0.2-0.4c-0.3-0.1-0.4-0.2-0.5-0.3c-0.1-0.1-0.2,0.1-0.1,0.3C12.1,18.3,12.2,18.4,12.3,18.5L12.3,18.5z M8.2,16.2
		c-0.1,0-0.3,0-0.4,0.1c0,0,0,0.1,0,0.2c0.1,0,0.1,0,0.2-0.1c0,0,0-0.1,0-0.1C8.1,16.3,8.2,16.3,8.2,16.2
		C8.2,16.3,8.2,16.2,8.2,16.2L8.2,16.2z M8.9,16.2c0.1,0.1,0.2,0.1,0.2,0.1c0,0,0.1,0,0.2,0C9.3,16.1,9,16.2,8.9,16.2
		C8.9,16.2,8.8,16.2,8.9,16.2L8.9,16.2z M10.2,15.4c0.1,0,0.3,0.2,0.3,0.5c0,0,0.1,0,0.1,0c0.1-0.1,0-0.2,0-0.3
		c0-0.1-0.1-0.2-0.2-0.2c-0.1,0-0.1,0-0.2,0C10.1,15.2,10,15.4,10.2,15.4L10.2,15.4z M7.5,15.3c-0.1,0-0.1,0.1-0.1,0.2
		c0.2,0.1,0.2,0.3,0.2,0.4c0,0.1,0.1,0,0.1,0c0.1-0.1,0-0.3,0-0.4C7.6,15.4,7.6,15.3,7.5,15.3C7.5,15.3,7.5,15.3,7.5,15.3L7.5,15.3z
		 M10.9,12.5c-0.1-0.1-0.3-0.1-0.3,0c-0.1,0.1,0,0.3-0.1,0.4c0,0-0.1,0.1-0.1,0.1c0,0.1,0,0.1,0,0.1c0.1,0.1,0.3-0.1,0.4-0.2
		c0.1-0.1,0.3,0,0.4-0.1c0,0,0-0.1,0-0.1C11.2,12.7,11.1,12.6,10.9,12.5L10.9,12.5z"/>
	<path class="st2" d="M14.2,26.9c0-0.1,0.1-0.2,0.1-0.2c0,0,0,0,0.1,0c0,0,0,0.3,0,0.4c0,0.1,0.1,0.1,0.1,0c0.1,0,0.2-0.2,0.2-0.2
		c0,0,0,0,0,0c0,0,0,0.1-0.1,0.1c0,0-0.1,0-0.1,0c0,0,0-0.3,0-0.4c0-0.1-0.1-0.1-0.1-0.1C14.3,26.6,14.2,26.8,14.2,26.9L14.2,26.9
		l0-0.3L14,26.7l0,0.6l0.2-0.1C14.2,27.1,14.2,27,14.2,26.9L14.2,26.9z"/>
	<path class="st2" d="M14.9,27c0.1,0,0.2-0.2,0.2-0.2c0,0,0,0,0,0c0,0,0,0.1-0.1,0.1c0,0-0.1,0-0.1,0c0,0,0-0.1,0-0.1l0-0.3l0.2-0.1
		l0-0.1l-0.2,0.1l0-0.3l-0.2,0.1l0,0.6c0,0.1,0,0.1,0,0.1C14.8,27,14.9,27,14.9,27L14.9,27z"/>
</g>
<g>
	<path class="st3" d="M15.1,8.8l-1.6-1.6c3.1-3.1,7.2-4.8,11.6-4.8c4.4,0,8.5,1.7,11.6,4.8l-1.6,1.6c-2.7-2.7-6.2-4.1-9.9-4.1
		C21.2,4.7,17.7,6.2,15.1,8.8z"/>
	<path class="st3" d="M18.1,11.9l-1.6-1.6C18.8,8,21.8,6.7,25,6.7c3.2,0,6.2,1.3,8.5,3.5l-1.6,1.6C30.1,10,27.6,9,25,9
		C22.4,9,19.9,10,18.1,11.9z"/>
	<path class="st3" d="M21.1,14.9l-1.6-1.6C21,11.8,22.9,11,25,11s4,0.8,5.5,2.3l-1.6,1.6c-1-1-2.4-1.6-3.9-1.6
		C23.5,13.3,22.2,13.9,21.1,14.9z"/>
	<path class="st3" d="M25,15.4c-0.9,0-1.8,0.4-2.4,1l2.4,2.4l2.4-2.4C26.8,15.7,25.9,15.4,25,15.4z"/>
</g>
<path id="path13" class="st3" d="M32.5,16.6l7.3-1v7h-7.3L32.5,16.6z M39.7,23.5v6.9l-7.3-1l0-5.9L39.7,23.5L39.7,23.5L39.7,23.5z
	 M40.5,15.5l9.6-1.3v8.4h-9.6V15.5z M50.2,23.5v8.4l-9.6-1.3v-7H50.2z"/>
<path class="st3" d="M32.4,39.7H17.6c-0.4,0-0.8,0.3-0.8,0.8v3.3c0,0.4,0.3,0.8,0.8,0.8h14.9c0.4,0,0.8-0.3,0.8-0.8v-3.3
	C33.2,40,32.8,39.7,32.4,39.7z M27.9,42.8h-9.4v-1.5h9.4V42.8z M31.2,42.7c-0.4,0-0.7-0.3-0.7-0.7s0.3-0.7,0.7-0.7
	c0.4,0,0.7,0.3,0.7,0.7S31.6,42.7,31.2,42.7z M32.4,45.1H17.6c-0.4,0-0.8,0.3-0.8,0.8v3.3c0,0.4,0.3,0.8,0.8,0.8h14.9
	c0.4,0,0.8-0.3,0.8-0.8v-3.3C33.2,45.5,32.8,45.1,32.4,45.1z M27.9,48.2h-9.4v-1.5h9.4V48.2z M31.2,48.2c-0.4,0-0.7-0.3-0.7-0.7
	s0.3-0.7,0.7-0.7c0.4,0,0.7,0.3,0.7,0.7S31.6,48.2,31.2,48.2z M32.4,34.1H17.6c-0.4,0-0.8,0.3-0.8,0.8v3.3c0,0.4,0.3,0.8,0.8,0.8
	h14.9c0.4,0,0.8-0.3,0.8-0.8v-3.3C33.2,34.4,32.8,34.1,32.4,34.1z M27.9,37.2h-9.4v-1.5h9.4V37.2z M31.2,37.2
	c-0.4,0-0.7-0.3-0.7-0.7s0.3-0.7,0.7-0.7c0.4,0,0.7,0.3,0.7,0.7S31.6,37.2,31.2,37.2z"/>
</svg>
