<?xml version="1.0" encoding="utf-8"?>
<!-- Generator: Adobe Illustrator 23.0.3, SVG Export Plug-In . SVG Version: 6.00 Build 0)  -->
<svg version="1.1" id="Layer_1" xmlns="http://www.w3.org/2000/svg" xmlns:xlink="http://www.w3.org/1999/xlink" x="0px" y="0px"
	 viewBox="0 0 50 50" style="enable-background:new 0 0 50 50;" xml:space="preserve">
<style type="text/css">
	.st0{fill-rule:evenodd;clip-rule:evenodd;fill:#066DA5;}
</style>
<path class="st0" d="M49,20.9c-1.1-0.8-3.7-1-5.7-0.7c-0.3-1.9-1.3-3.5-3.2-5l-1.1-0.7l-0.7,1.1C37.3,17,36.8,19,37,20.8
	c0.1,0.7,0.3,1.8,1,2.9c-0.7,0.4-2,0.9-3.8,0.8h-34l-0.1,0.4c-0.3,1.9-0.3,7.8,3.5,12.3c2.9,3.4,7.2,5.2,12.9,5.2
	c12.3,0,21.4-5.7,25.7-16c1.7,0,5.3,0,7.1-3.5c0-0.1,0.2-0.3,0.5-1l0.2-0.4L49,20.9z M22.2,12.3h5.2V7.6h-5.2V12.3z M22.2,18h5.2
	v-4.7h-5.2V18z M16.1,18h5.2v-4.7h-5.2V18z M10,18h5.2v-4.7H10V18z M3.9,23.6H9v-4.7H3.9V23.6z M10,23.6h5.2v-4.7H10V23.6z
	 M16.1,23.6h5.2v-4.7h-5.2V23.6z M22.2,23.6h5.2v-4.7h-5.2V23.6z M28.3,23.6h5.2v-4.7h-5.2V23.6z"/>
</svg>
