<?xml version="1.0" encoding="utf-8"?>
<!-- Generator: Adobe Illustrator 23.0.3, SVG Export Plug-In . SVG Version: 6.00 Build 0)  -->
<svg version="1.1" id="Layer_1" xmlns="http://www.w3.org/2000/svg" xmlns:xlink="http://www.w3.org/1999/xlink" x="0px" y="0px"
	 viewBox="0 0 50 50" style="enable-background:new 0 0 50 50;" xml:space="preserve">
<style type="text/css">
	.st0{fill:none;}
	.st1{fill:#194073;}
	.st2{fill:#282B3A;}
	.st3{fill:#025291;}
	.st4{fill:#152C53;}
</style>
<circle class="st0" cx="-22.8" cy="21" r="4.2"/>
<circle class="st0" cx="-43.6" cy="21" r="4.2"/>
<g>
	<path class="st1" d="M18.8,34.4l1.8-1.8l-3.1-3.1l-1.8,1.8c-0.7-0.4-1.5-0.7-2.3-1v-2.5H8.9l0,2.5c-0.8,0.2-1.6,0.5-2.3,1l-1.8-1.8
		l-3.1,3.1l1.8,1.8c-0.4,0.7-0.7,1.5-1,2.3H0v4.4l2.5,0c0.2,0.8,0.5,1.6,1,2.3l-1.8,1.8l3.1,3.1l1.8-1.8c0.7,0.4,1.5,0.7,2.3,1
		l0,2.5h4.4v-2.5c0.8-0.2,1.6-0.5,2.3-1l1.8,1.8l3.1-3.1l-1.8-1.8c0.4-0.7,0.7-1.5,1-2.3l2.5,0v-4.4h-2.5
		C19.5,35.9,19.2,35.1,18.8,34.4z M11.1,42.6c-2,0-3.7-1.7-3.7-3.7s1.7-3.7,3.7-3.7c2,0,3.7,1.7,3.7,3.7S13.2,42.6,11.1,42.6z"/>
	<path class="st2" d="M22.2,41.1v-4.4h-2.5c-0.2-0.8-0.5-1.6-1-2.3l1.8-1.8l-3.1-3.1l-1.8,1.8c-0.7-0.4-1.5-0.7-2.3-1v-2.5h-2.2v7.4
		c0,0,0,0,0,0c2,0,3.7,1.7,3.7,3.7c0,2-1.7,3.7-3.7,3.7c0,0,0,0,0,0V50h2.2v-2.5c0.8-0.2,1.6-0.5,2.3-1l1.8,1.8l3.1-3.1l-1.8-1.8
		c0.4-0.7,0.7-1.5,1-2.3L22.2,41.1z"/>
	<path class="st3" d="M50,20l0-6.7l-3.8,0c-0.3-1.2-0.8-2.4-1.4-3.4l2.7-2.7l-4.7-4.7l-2.7,2.7c-1.1-0.6-2.2-1.1-3.4-1.4V0H30v3.8
		c-1.2,0.3-2.4,0.8-3.4,1.4l-2.7-2.7l-4.7,4.7l2.7,2.7c-0.6,1.1-1.1,2.2-1.4,3.4h-3.8V20h3.8c0.3,1.2,0.8,2.4,1.4,3.4l-2.7,2.7
		l4.7,4.7l2.7-2.7c1.1,0.6,2.2,1.1,3.4,1.4v3.8h6.7v-3.8c1.2-0.3,2.4-0.8,3.4-1.4l2.7,2.7l4.7-4.7l-2.7-2.7c0.6-1.1,1.1-2.2,1.4-3.4
		L50,20L50,20z M33.3,22.2c-3.1,0-5.6-2.5-5.6-5.6s2.5-5.6,5.6-5.6s5.6,2.5,5.6,5.6S36.4,22.2,33.3,22.2z"/>
	<path class="st4" d="M50,20l0-6.7l-3.8,0c-0.3-1.2-0.8-2.4-1.4-3.4l2.7-2.7l-4.7-4.7l-2.7,2.7c-1.1-0.6-2.2-1.1-3.4-1.4V0h-3.3
		v11.1c3.1,0,5.6,2.5,5.6,5.6s-2.5,5.6-5.6,5.6v11.1h3.3v-3.8c1.2-0.3,2.4-0.8,3.4-1.4l2.7,2.7l4.7-4.7l-2.7-2.7
		c0.6-1.1,1.1-2.2,1.4-3.4L50,20L50,20z"/>
</g>
</svg>
