<?xml version="1.0" encoding="utf-8"?>
<!-- Generator: Adobe Illustrator 23.0.3, SVG Export Plug-In . SVG Version: 6.00 Build 0)  -->
<svg version="1.1" id="Layer_1" xmlns="http://www.w3.org/2000/svg" xmlns:xlink="http://www.w3.org/1999/xlink" x="0px" y="0px"
	 viewBox="0 0 50 41" style="enable-background:new 0 0 50 41;" xml:space="preserve">
<style type="text/css">
	.st0{display:none;}
	.st1{fill:#FFFFFF;}
	.st2{fill:#48729D;}
	.st3{fill:#282B3A;}
</style>
<g id="Guides" class="st0">
</g>
<g>
	<polygon class="st1" points="40.2,9.7 40.2,5.4 21.9,5.4 17.4,1.2 5.9,1.2 5.9,24.7 11.4,9.7 	"/>
	<path class="st2" d="M46.7,10.8H12.2L6.1,28h34.5L46.7,10.8z M27.7,25.4h-1.1v-1.1h1.1V25.4z M31.1,25.4H30v-1.1h1.1V25.4z
		 M34.6,25.4h-1.1v-1.1h1.1V25.4z M38,25.4h-1.1v-1.1H38V25.4z"/>
	<path class="st1" d="M17.5,40h14v-5.2h-14V40z M26.5,36.8h1.1v1.1h-1.1V36.8z M23.8,36.8h1.1v1.1h-1.1V36.8z M21.1,36.8h1.1v1.1
		h-1.1V36.8z"/>
	<g>
		<path class="st3" d="M41.4,29.1l6.9-19.5h-6.9V4.1h-19L17.8,0H4.7v29h19.1v4.6h-7.6v3.1H1.7v1.1h14.6V41h16.3v-3.1h14.6v-1.1H32.6
			v-3.1h-7.6v-4.6H41.4z M5.9,1.2h11.5l4.6,4.1h18.3v4.4H11.4l-5.5,15V1.2z M31.5,34.8V40h-14v-5.2H31.5z M6.1,28l6.1-17.2h34.5
			L40.6,28H6.1z"/>
	</g>
	<g>
		<rect x="21.1" y="36.8" class="st3" width="1.1" height="1.1"/>
	</g>
	<g>
		<rect x="26.5" y="36.8" class="st3" width="1.1" height="1.1"/>
	</g>
	<g>
		<rect x="23.8" y="36.8" class="st3" width="1.1" height="1.1"/>
	</g>
	<g>
		<rect x="26.5" y="24.2" class="st3" width="1.1" height="1.1"/>
	</g>
	<g>
		<rect x="30" y="24.2" class="st3" width="1.1" height="1.1"/>
	</g>
	<g>
		<rect x="36.9" y="24.2" class="st3" width="1.1" height="1.1"/>
	</g>
	<g>
		<rect x="33.4" y="24.2" class="st3" width="1.1" height="1.1"/>
	</g>
</g>
</svg>
