<?xml version="1.0" encoding="utf-8"?>
<!-- Generator: Adobe Illustrator 23.0.3, SVG Export Plug-In . SVG Version: 6.00 Build 0)  -->
<svg version="1.1" id="Layer_1" xmlns="http://www.w3.org/2000/svg" xmlns:xlink="http://www.w3.org/1999/xlink" x="0px" y="0px"
	 viewBox="0 0 50 50" style="enable-background:new 0 0 50 50;" xml:space="preserve">
<style type="text/css">
	.st0{fill:url(#SVGID_1_);}
	.st1{fill-rule:evenodd;clip-rule:evenodd;fill:#FCFCFC;}
</style>
<linearGradient id="SVGID_1_" gradientUnits="userSpaceOnUse" x1="4.2232" y1="-550.6176" x2="45.1164" y2="-521.847" gradientTransform="matrix(6.123234e-17 1 1 -6.123234e-17 561 0)">
	<stop  offset="1.385225e-07" style="stop-color:#282B3A"/>
	<stop  offset="1" style="stop-color:#48729D"/>
</linearGradient>
<path class="st0" d="M0,45.8V4.2C0,1.9,1.9,0,4.2,0h41.6C48.1,0,50,1.9,50,4.2v41.6c0,2.3-1.9,4.2-4.2,4.2H4.2C1.9,50,0,48.1,0,45.8
	z"/>
<path class="st1" d="M16.6,26h15.6c1.7,0,3.1-1.4,3.1-3.1v-2.2c-2.9-0.5-5.2-3.1-5.2-6.1c0-3.4,2.8-6.2,6.2-6.2s6.2,2.8,6.2,6.2
	c0,3.1-2.2,5.7-5.2,6.1v2.2c0,2.9-2.3,5.2-5.2,5.2H16.6v5.3c2.9,0.5,5.2,3.1,5.2,6.1c0,3.4-2.8,6.2-6.2,6.2s-6.2-2.8-6.2-6.2
	c0-3.1,2.2-5.7,5.2-6.1V20.7c-2.9-0.5-5.2-3.1-5.2-6.1c0-3.4,2.8-6.2,6.2-6.2s6.2,2.8,6.2,6.2c0,3.1-2.2,5.7-5.2,6.1
	C16.6,20.7,16.6,26,16.6,26z M15.6,10.4c-2.3,0-4.2,1.9-4.2,4.2s1.9,4.2,4.2,4.2s4.2-1.9,4.2-4.2S17.9,10.4,15.6,10.4z M36.4,10.4
	c-2.3,0-4.2,1.9-4.2,4.2s1.9,4.2,4.2,4.2s4.2-1.9,4.2-4.2S38.7,10.4,36.4,10.4z M15.6,35.3c-2.3,0-4.2,1.9-4.2,4.2s1.9,4.2,4.2,4.2
	s4.2-1.9,4.2-4.2S17.9,35.3,15.6,35.3z"/>
</svg>
