<?xml version="1.0" encoding="utf-8"?>
<!-- Generator: Adobe Illustrator 23.0.3, SVG Export Plug-In . SVG Version: 6.00 Build 0)  -->
<svg version="1.1" id="Layer_1" xmlns="http://www.w3.org/2000/svg" xmlns:xlink="http://www.w3.org/1999/xlink" x="0px" y="0px"
	 viewBox="0 0 50 50" style="enable-background:new 0 0 50 50;" xml:space="preserve">
<style type="text/css">
	.st0{fill:#277A9F;}
</style>
<g id="Page-1">
	<g id="logo_x40_2x" transform="translate(-152.000000, -162.000000)">
		<g id="logo" transform="translate(149.000000, 162.000000)">
			<g id="helm" transform="translate(22.377622, 0.000000)">
				
					<g id="rungs-bottom" transform="translate(41.500000, 108.500000) scale(1, -1) translate(-41.500000, -108.500000) translate(0.000000, 91.000000)">
					<g id="Oval-1">
						<path class="st0" d="M15.4,88.6c0.8,0.6,2.7-0.7,4.1-2.8c1.5-2.1,2-4.3,1.2-4.8c-0.8-0.6-2.7,0.7-4.1,2.8
							C15.1,85.8,14.6,88,15.4,88.6z"/>
					</g>
					<g id="Oval-1-Copy">
						<path class="st0" d="M-4,88.6c-0.8,0.6-2.7-0.7-4.1-2.8c-1.5-2.1-2-4.3-1.2-4.8c0.8-0.6,2.7,0.7,4.1,2.8S-3.1,88-4,88.6z"/>
					</g>
					<g id="Oval-1-Copy-4">
						<path class="st0" d="M5.7,85.3c-1,0-1.8-2.1-1.8-4.6S4.7,76,5.7,76s1.8,2.1,1.8,4.6S6.7,85.3,5.7,85.3z"/>
					</g>
				</g>
				<g id="rungs-top">
					<g id="Oval-1_1_">
						<path class="st0" d="M15.4,12.6c0.8,0.6,2.7-0.7,4.1-2.8c1.5-2.1,2-4.3,1.2-4.8c-0.8-0.6-2.7,0.7-4.1,2.8S14.6,12,15.4,12.6z"
							/>
					</g>
					<g id="Oval-1-Copy_1_">
						<path class="st0" d="M-4,12.6c-0.8,0.6-2.7-0.7-4.1-2.8s-2-4.3-1.2-4.8c0.8-0.6,2.7,0.7,4.1,2.8S-3.1,12-4,12.6z"/>
					</g>
					<g id="Oval-1-Copy-4_1_">
						<path class="st0" d="M5.7,9.3c-1,0-1.8-2.1-1.8-4.6S4.7,0,5.7,0s1.8,2.1,1.8,4.6S6.7,9.3,5.7,9.3z"/>
					</g>
				</g>
				<g id="Oval-1_2_">
					<path class="st0" d="M5.4,42.7c-5.8,0-11.2-2.8-14.5-7.6l1.9-1.3c2.9,4.1,7.5,6.6,12.6,6.6c5,0,9.7-2.5,12.6-6.6l1.9,1.3
						C16.6,39.9,11.2,42.7,5.4,42.7z M18.5,17.3c-2.8-4.6-7.7-7.4-13.1-7.4c-5.2,0-10,2.6-12.8,7l-2-1.3c3.3-5,8.8-8.1,14.8-8.1
						c3.1,0,6.1,0.8,8.8,2.3c2.6,1.5,4.8,3.6,6.3,6.1L18.5,17.3z"/>
				</g>
			</g>
			<g id="HELM">
				<path class="st0" d="M4,18.9h3.4v4.8h3.9v-4.8h3.4v13h-3.4v-5.2H7.4v5.2H4V18.9z M17.6,18.9H26v2.9h-5v2h4.2v2.9h-4.2V29h5.2
					v2.9h-8.6V18.9z M28.8,18.9h3.4V29h4.9v2.9h-8.4L28.8,18.9L28.8,18.9z M39.4,18.9h3.6l2,5.4l0.7,2.1h0.1l0.7-2.1l2-5.4H52v13
					h-3.2v-3.8c0-0.3,0-0.7,0-1.1c0-0.4,0.1-0.8,0.1-1.2c0-0.4,0.1-0.8,0.1-1.2c0.1-0.4,0.1-0.8,0.1-1.1h-0.1l-1.1,3l-1.8,4.4H45
					l-1.8-4.4l-1-3h-0.1c0,0.3,0.1,0.7,0.1,1.1c0.1,0.4,0.1,0.8,0.1,1.2c0,0.4,0.1,0.8,0.1,1.2c0,0.4,0,0.8,0,1.1v3.8h-3.2
					L39.4,18.9L39.4,18.9z"/>
			</g>
		</g>
	</g>
</g>
</svg>
