<?xml version="1.0" encoding="utf-8"?>
<!-- Generator: Adobe Illustrator 23.0.3, SVG Export Plug-In . SVG Version: 6.00 Build 0)  -->
<svg version="1.1" id="Layer_1" xmlns="http://www.w3.org/2000/svg" xmlns:xlink="http://www.w3.org/1999/xlink" x="0px" y="0px"
	 viewBox="0 0 50 50" style="enable-background:new 0 0 50 50;" xml:space="preserve">
<style type="text/css">
	.st0{fill:url(#SVGID_1_);}
	.st1{fill:#FFFFFF;}
</style>
<linearGradient id="SVGID_1_" gradientUnits="userSpaceOnUse" x1="4.2232" y1="599.6176" x2="45.1164" y2="570.847" gradientTransform="matrix(1 0 0 1 0 -560)">
	<stop  offset="1.385225e-07" style="stop-color:#282B3A"/>
	<stop  offset="1" style="stop-color:#48729D"/>
</linearGradient>
<path class="st0" d="M45.8,50H4.2C1.9,50,0,48.1,0,45.8V4.2C0,1.9,1.9,0,4.2,0h41.6C48.1,0,50,1.9,50,4.2v41.6
	C50,48.1,48.1,50,45.8,50z"/>
<path class="st1" d="M26.3,23.7v9.3c0,0.7-0.6,1.3-1.3,1.3c-0.7,0-1.3-0.6-1.3-1.3v-9.3c0-0.7,0.6-1.3,1.3-1.3
	C25.7,22.4,26.3,23,26.3,23.7z M25,9.3c3.5,0,6.4,2.9,6.4,6.4v2.5c1.9,0.2,3.4,1.6,3.5,3.5h1.7c0.7,0,1.2-0.5,1.2-1.2V17
	c0-0.7,0.6-1.3,1.3-1.3s1.3,0.6,1.3,1.3v3.5c0,2-1.6,3.7-3.7,3.7h-1.7V26h6.4c0.7,0,1.3,0.6,1.3,1.3s-0.6,1.3-1.3,1.3h-6.4v1.8h1.7
	c2,0,3.7,1.6,3.7,3.7v3.5c0,0.7-0.6,1.3-1.3,1.3s-1.3-0.6-1.3-1.3V34c0-0.7-0.5-1.2-1.2-1.2h-2c-1,3.6-4.4,6.2-8.3,6.2h-2.4
	c-4,0-7.3-2.7-8.3-6.3h-2c-0.7,0-1.2,0.5-1.2,1.2v3.5c0,0.7-0.6,1.3-1.3,1.3S9.8,38,9.8,37.3v-3.5c0-2,1.6-3.7,3.7-3.7h1.7v-1.7H8.8
	c-0.7,0-1.3-0.6-1.3-1.3C7.5,26.5,8,26,8.8,26h6.4V24h-1.7c-2,0-3.7-1.6-3.7-3.7v-3.5c0-0.7,0.6-1.3,1.3-1.3c0.7,0,1.3,0.6,1.3,1.3
	v3.5c0,0.7,0.5,1.2,1.2,1.2h1.7c0.2-1.9,1.8-3.5,3.8-3.5h9.9v-2.4c0-2.1-1.8-3.9-3.9-3.9s-3.9,1.8-3.9,3.9c0,0.7-0.6,1.3-1.3,1.3
	c-0.7,0-1.3-0.6-1.3-1.3C18.6,12.1,21.5,9.3,25,9.3z M31.1,20.6H18.9c-0.7,0-1.3,0.6-1.3,1.3v8.3c0,3.5,2.8,6.2,6.2,6.2h2.4
	c3.5,0,6.2-2.8,6.2-6.2v-8.3C32.3,21.2,31.8,20.6,31.1,20.6z"/>
</svg>
