<?xml version="1.0" encoding="utf-8"?>
<!-- Generator: Adobe Illustrator 23.0.3, SVG Export Plug-In . SVG Version: 6.00 Build 0)  -->
<svg version="1.1" id="Layer_1" xmlns="http://www.w3.org/2000/svg" xmlns:xlink="http://www.w3.org/1999/xlink" x="0px" y="0px"
	 viewBox="0 0 50 50" style="enable-background:new 0 0 50 50;" xml:space="preserve">
<style type="text/css">
	.st0{fill:#D33833;}
	.st1{fill:#EF3D3A;}
	.st2{fill:#231F20;}
	.st3{fill:#F0D6B7;}
	.st4{fill:#335061;}
	.st5{fill:#6D6B6D;}
	.st6{fill:#DCD9D8;}
	.st7{fill:#F7E4CD;}
	.st8{fill:#49728B;}
	.st9{fill:#FFFFFF;}
	.st10{fill:#81B0C4;}
	.st11{fill:#1D1919;}
</style>
<g>
	<path id="XMLID_3_" class="st0" d="M42.5,24.1C42.5,34,34.7,42,25,42c-9.7,0-17.5-8-17.5-17.9c0-9.9,7.9-17.9,17.5-17.9
		C34.7,6.2,42.5,14.2,42.5,24.1"/>
	<path id="XMLID_4_" class="st1" d="M8.2,28.5c0,0-1.3-18.7,16-19.2l-1.2-2l-9.4,3.1l-2.7,3.1L8.6,18l-1.3,5.2l0.4,3.5"/>
	<path id="XMLID_7_" class="st2" d="M13,11.9C9.9,15,8,19.4,8,24.2c0,4.8,1.9,9.2,5,12.3c3.1,3.1,7.3,5.1,12,5.1
		c4.7,0,8.9-1.9,12-5.1c3.1-3.1,5-7.5,5-12.3c0-4.8-1.9-9.2-5-12.3c-3.1-3.1-7.3-5.1-12-5.1C20.3,6.8,16.1,8.7,13,11.9z M12.2,37.2
		c-3.3-3.3-5.3-8-5.3-13.1c0-5.1,2-9.7,5.3-13.1C15.5,7.8,20,5.7,25,5.7c5,0,9.5,2.1,12.8,5.4c3.3,3.3,5.3,8,5.3,13.1
		c0,5.1-2,9.7-5.3,13.1c-3.3,3.3-7.8,5.4-12.8,5.4C20,42.6,15.5,40.6,12.2,37.2"/>
	<polyline id="XMLID_8_" class="st3" points="32.4,24.2 29.7,24.6 26.1,25 23.8,25.1 21.5,25 19.8,24.5 18.2,22.8 17,19.4 
		16.7,18.6 15.1,18.1 14.2,16.6 13.5,14.4 14.3,12.4 16,11.8 17.4,12.5 18.1,14 18.9,13.8 19.2,13.5 18.9,12 18.8,10 19.2,7.4 
		19.2,5.8 20.4,3.9 22.6,2.3 26.3,0.7 30.4,1.3 34.1,4 35.7,6.6 36.8,8.6 37.1,13.4 36.3,17.5 34.8,21.2 33.4,23.1 	"/>
	<polyline id="XMLID_9_" class="st4" points="30.1,35.8 20.6,36.2 20.6,37.8 21.4,43.4 21,43.8 14.3,41.6 13.8,40.8 13.1,33.2 
		11.6,28.7 11.3,27.6 16.6,23.9 18.3,23.3 19.8,25.1 21,26.2 22.5,26.7 23.2,26.9 24,30.3 24.6,31.1 26.1,30.5 25,32.6 30.8,35.3 
		30.1,35.8 	"/>
	<polyline id="XMLID_10_" class="st5" points="14.3,12.4 16,11.8 17.4,12.5 18.1,14 18.9,13.8 19.1,13 18.7,11.5 19.1,7.8 18.8,5.8 
		20,4.4 22.6,2.3 21.8,1.3 18.2,3.1 16.6,4.4 15.7,6.2 14.4,8 14,10.2 14.3,12.4 	"/>
	<path id="XMLID_11_" class="st6" d="M17,6.2c0,0,1-2.5,5-3.7c4-1.2,0.2-0.9,0.2-0.9l-4.3,1.7L16.2,5l-0.7,1.3L17,6.2"/>
	<path id="XMLID_12_" class="st6" d="M15,12c0,0-1.4-4.7,3.9-5.3l-0.2-0.8l-3.7,0.9L14,10.2l0.3,2.3L15,12"/>
	<path id="XMLID_13_" class="st7" d="M17.2,18.2l0.9-0.8c0,0,0.4,0,0.5,0.5c0.1,0.5,0.3,4.7,3.1,6.9c0.3,0.2-2.1-0.3-2.1-0.3
		l-2.1-3.3"/>
	<path id="XMLID_14_" class="st7" d="M29.4,16.9c0,0,0.2-2,0.7-1.9c0.5,0.2,0.5,0.7,0.5,0.7S29.4,16.6,29.4,16.9"/>
	<path id="XMLID_15_" class="st7" d="M35,9.5c0,0-1.1,0.2-1.2,1.2c-0.1,1,1.2,0.2,1.4,0.1"/>
	<path id="XMLID_16_" class="st7" d="M26.9,9.6c0,0-1.5,0.2-1.5,1.1c0,0.9,1.7,0.9,2.1,0.5"/>
	<path id="XMLID_17_" class="st7" d="M17.8,13.9c0,0-2.5-1.5-2.8-0.1c-0.3,1.5-0.9,2.5,0.4,4.1l-0.9-0.3l-0.8-2.1l-0.3-2L15,12
		l1.7,0.1l1,0.8L17.8,13.9"/>
	<path id="XMLID_18_" class="st7" d="M19,9.7c0,0,1.1-5.9,6.9-7c4.7-0.9,7.2,0.2,8.2,1.3c0,0-4.2-5-8.2-3.5c-4,1.5-6.9,4.3-6.9,6.1
		C19.1,9.7,19,9.7,19,9.7"/>
	<path id="XMLID_19_" class="st7" d="M34.5,4.6c0,0-1.9-0.1-2,1.7c0,0,0,0.3,0.1,0.5c0,0,1.5-1.7,2.5-0.8"/>
	<path id="XMLID_20_" class="st7" d="M26,7c0,0-0.3-2.7-2.6-1.1c-1.5,1-1.3,2.4-1.1,2.7c0.3,0.3,0.2,0.8,0.4,0.4
		c0.2-0.4,0.1-1.6,0.9-1.9C24.4,6.8,25.6,6.4,26,7"/>
	<path id="XMLID_21_" class="st8" d="M19.8,25.1l-6.3,2.8c0,0,2.6,10.4,1.3,13.6l-0.9-0.3l-0.1-3.9L12,29.7l-0.7-2.1l6.5-4.4
		L19.8,25.1"/>
	<path id="XMLID_22_" class="st8" d="M20.4,30.8l0.9,1.1v4h-1.1c0,0-0.1-2.8-0.1-3.1c0-0.3,0.1-1.5,0.1-1.5"/>
	<polyline id="XMLID_23_" class="st8" points="20.4,36.5 17.4,36.6 18.3,37.2 20.4,37.6 	"/>
	<polyline id="XMLID_24_" class="st4" points="30.7,35.8 33.2,35.8 33.8,41.9 31.2,42.2 30.7,35.8 	"/>
	<path id="XMLID_25_" class="st4" d="M31.4,35.8l3.7-0.2c0,0,1.5-3.9,1.5-4.1c0-0.2,1.3-5.6,1.3-5.6l-3-3.1l-0.6-0.5l-1.6,1.6v6.2
		L31.4,35.8"/>
	<path id="XMLID_26_" class="st8" d="M33,35.3l-2.3,0.5l0.3,1.9c0.9,0.4,2.3-0.7,2.3-0.7"/>
	<polyline id="XMLID_27_" class="st8" points="33.1,23.7 37.8,27.1 37.9,25.5 34.4,22.3 33.1,23.7 	"/>
	<polyline id="XMLID_28_" class="st9" points="22.7,49 21.4,43.4 20.7,39.2 20.6,36.2 26.8,35.8 30.7,35.8 30.4,42.8 31,48.2 
		30.9,49.2 25.8,49.6 22.7,49 	"/>
	<path id="XMLID_29_" class="st6" d="M29.8,35.8c0,0-0.3,6.9,0.7,11.9c0,0-2,1.3-4.9,1.6l5.6-0.2l0.7-0.4l-0.8-11l-0.2-2.3"/>
	<polyline id="XMLID_30_" class="st9" points="33.9,41.4 36.5,40.6 41.4,40.4 42.2,38.1 40.8,34.1 39.3,33.9 37.2,34.6 35.1,35.6 
		34,35.4 33.2,35.8 	"/>
	<path id="XMLID_31_" class="st6" d="M33.9,40c0,0,1.7-0.8,2-0.7l-0.7-3.7l0.9-0.3c0,0,0.6,3.5,0.6,3.9c0,0,3.7,0.2,4.1,0.2
		c0,0,0.8-1.5,0.6-3.1l0.7,2.1l0.1,1.2L41,41.2l-1.2,0.3l-2-0.1l-0.7-0.9l-2.3,0.3l-0.7,0.3"/>
	<path id="XMLID_32_" class="st9" d="M31.2,35.3l-1.5-3.7l-1.5-2.2c0,0,0.3-0.9,0.8-0.9c0.5,0,1.5,0,1.5,0l1.5,0.5l-0.1,2.5
		L31.2,35.3"/>
	<path id="XMLID_33_" class="st6" d="M31.5,34c0,0-1.9-3.6-1.9-4.1c0,0,0.3-0.8,0.8-0.6c0.5,0.2,1.5,0.7,1.5,0.7v-1.3l-2.3-0.5
		l-1.5,0.2l2.6,6.1l0.5,0.1"/>
	<polyline id="XMLID_34_" class="st9" points="23.3,25.2 21.5,25 19.8,24.5 19.8,25.1 20.6,26 23.3,27.2 	"/>
	<path id="XMLID_35_" class="st6" d="M20.4,25.4c0,0,2.1,0.9,2.7,0.7l0.1,0.8l-1.9-0.4l-1.1-0.8L20.4,25.4"/>
	<path id="XMLID_36_" class="st0" d="M33.9,28.6c-1.1,0-2.2-0.2-3.1-0.4c0.1-0.4-0.1-0.7,0-1c0.2-0.2,0.7-0.2,1-0.2
		c-0.3-0.2-0.8-0.2-1.2-0.1c0-0.3-0.1-0.4-0.2-0.6c0.6-0.2,2.1-1.7,3-1.2c0.4,0.2,0.6,1.6,0.6,2.2C34.2,27.8,34.1,28.3,33.9,28.6"/>
	<path id="XMLID_37_" class="st0" d="M33.9,28.6l0-0.2c-1.1,0-2.1-0.2-3-0.4l0,0.2l0.2,0c0-0.1,0-0.2,0-0.3c0-0.2,0-0.3,0-0.5
		c0-0.1,0-0.2,0-0.2l-0.2-0.1l0.1,0.1c0.1-0.1,0.2-0.1,0.4-0.1c0.2,0,0.4,0,0.6-0.1l0.5-0.1L32,26.9c-0.2-0.1-0.6-0.2-0.9-0.2
		c-0.1,0-0.3,0-0.4,0l0,0.2l0.2,0c0-0.2,0-0.3-0.1-0.4c0-0.1-0.1-0.2-0.1-0.3l-0.2,0.1l0.1,0.2c0.2-0.1,0.3-0.2,0.6-0.3
		c0.3-0.2,0.7-0.5,1-0.7c0.4-0.2,0.7-0.3,1-0.3c0.1,0,0.2,0,0.3,0.1l0,0c0,0,0.1,0,0.1,0.1c0.1,0.1,0.1,0.2,0.2,0.4
		c0.2,0.5,0.2,1.2,0.3,1.6c0,0.1,0,0.1,0,0.2c0,0.2,0,0.4-0.1,0.6c0,0.2-0.1,0.3-0.2,0.4L33.9,28.6l0-0.2L33.9,28.6l0.1,0.1
		c0.1-0.2,0.2-0.3,0.2-0.6c0-0.2,0.1-0.5,0.1-0.7c0-0.1,0-0.1,0-0.2c0-0.3-0.1-0.8-0.2-1.3c-0.1-0.2-0.1-0.4-0.2-0.6
		c0-0.1-0.1-0.2-0.1-0.2c-0.1-0.1-0.1-0.1-0.2-0.2l0,0c-0.1-0.1-0.3-0.1-0.5-0.1c-0.3,0-0.5,0.1-0.8,0.2c-0.4,0.2-0.8,0.4-1.1,0.7
		c-0.2,0.1-0.3,0.2-0.5,0.3c-0.1,0.1-0.3,0.2-0.3,0.2l-0.1,0.1l0.1,0.2c0,0.1,0.1,0.2,0.1,0.3c0,0.1,0.1,0.2,0.1,0.3l0,0.2l0.2,0
		c0.1,0,0.2,0,0.3,0c0.3,0,0.5,0.1,0.7,0.2l0.1-0.1l0-0.2c-0.2,0-0.4,0-0.6,0.1c-0.2,0-0.4,0.1-0.5,0.2l0,0l0,0c0,0.1,0,0.2,0,0.3
		c0,0.2,0,0.3,0,0.5c0,0.1,0,0.2,0,0.2l0,0.1l0.1,0c0.9,0.3,1.9,0.4,3.1,0.4l0.1,0l0-0.1L33.9,28.6z"/>
	<path id="XMLID_38_" class="st0" d="M28.5,26.8c0,0.1,0,0.2,0,0.3c-0.4,0.2-0.9,0.2-1.3,0.4c0.6,0,1,0.2,1.4,0.4c0,0.2,0,0.4,0,0.6
		c-0.6,0.4-1.2,1.1-2,1.5c-0.4,0.2-1.6,0.7-2,0.6c-0.2-0.1-0.2-0.3-0.3-0.6c-0.2-0.5-0.6-1.4-0.6-2.2c0-1-0.2-2.8,1-2.6
		c0.9,0.2,1.9,0.6,2.6,1C27.6,26.4,27.8,26.7,28.5,26.8"/>
	<path id="XMLID_39_" class="st0" d="M28.5,26.8l-0.2,0c0,0.1,0,0.2,0,0.3l0.2,0l-0.1-0.1c-0.1,0.1-0.4,0.2-0.6,0.2
		c-0.2,0.1-0.5,0.1-0.7,0.2l-0.5,0.3l0.6,0c0.6,0,1,0.2,1.3,0.3l0.1-0.1l-0.2,0c0,0.2,0,0.4,0,0.6l0.2,0l-0.1-0.1
		c-0.3,0.2-0.6,0.5-1,0.8c-0.3,0.3-0.7,0.5-1,0.7c-0.2,0.1-0.5,0.2-0.9,0.4c-0.2,0.1-0.4,0.1-0.5,0.2c-0.2,0-0.3,0.1-0.4,0.1
		c0,0-0.1,0-0.1,0c0,0,0,0,0,0c0,0-0.1-0.1-0.1-0.2c0-0.1,0-0.2-0.1-0.3l0,0c-0.1-0.3-0.2-0.6-0.4-1c-0.1-0.4-0.2-0.8-0.3-1.2
		c0-0.3,0-0.5,0-0.8c0-0.4,0-0.8,0.1-1.1c0.1-0.1,0.1-0.3,0.2-0.3c0.1-0.1,0.2-0.1,0.3-0.1c0,0,0.1,0,0.1,0c0.9,0.2,1.9,0.6,2.6,1
		c0.2,0.1,0.4,0.2,0.6,0.4c0.2,0.1,0.5,0.2,0.8,0.2L28.5,26.8l-0.2,0L28.5,26.8l0-0.2c-0.3,0-0.5-0.1-0.7-0.2
		c-0.2-0.1-0.4-0.2-0.6-0.4c-0.7-0.4-1.8-0.8-2.7-1c-0.1,0-0.1,0-0.2,0c-0.2,0-0.4,0.1-0.5,0.2c-0.2,0.2-0.3,0.5-0.4,0.7
		c-0.1,0.3-0.1,0.6-0.1,1c0,0.3,0,0.6,0,0.8c0,0.4,0.1,0.9,0.3,1.3c0.1,0.4,0.3,0.7,0.4,1l0,0c0,0.1,0.1,0.2,0.1,0.4
		c0,0.1,0.1,0.1,0.1,0.2c0.1,0.1,0.1,0.1,0.2,0.1c0,0,0.1,0,0.1,0c0.1,0,0.3,0,0.5-0.1c0.3-0.1,0.6-0.2,0.8-0.3
		c0.3-0.1,0.5-0.2,0.6-0.3c0.4-0.2,0.7-0.5,1.1-0.8c0.3-0.3,0.6-0.5,0.9-0.8l0.1,0l0-0.1c0-0.2,0-0.4,0-0.6l0-0.1l-0.1,0
		c-0.4-0.2-0.9-0.3-1.5-0.4l0,0.2l0.1,0.1c0.2-0.1,0.4-0.1,0.6-0.2c0.2-0.1,0.5-0.1,0.7-0.2l0.1,0l0-0.1c0-0.1,0-0.2,0-0.3l0-0.2
		l-0.2,0L28.5,26.8z"/>
	<path id="XMLID_40_" class="st0" d="M29.1,28c-0.1-0.6-0.2-0.7-0.2-1.2C30.5,25.8,30.7,28.5,29.1,28"/>
	<path id="XMLID_41_" class="st0" d="M29.1,28l0.2,0c0-0.2-0.1-0.4-0.1-0.6c0-0.1-0.1-0.3-0.1-0.4c0-0.1,0-0.1,0-0.2l-0.2,0l0.1,0.1
		c0.2-0.1,0.4-0.2,0.5-0.2c0.1,0,0.1,0,0.2,0c0.1,0,0.2,0.1,0.2,0.2c0,0.1,0.1,0.2,0.1,0.3c0,0.2,0,0.3-0.1,0.4
		c-0.1,0.1-0.2,0.2-0.4,0.2c-0.1,0-0.2,0-0.3-0.1L29.1,28l0.2,0L29.1,28l0,0.2c0.2,0,0.3,0.1,0.4,0.1c0.3,0,0.5-0.1,0.7-0.3
		c0.1-0.2,0.2-0.4,0.2-0.6c0-0.2-0.1-0.4-0.2-0.6c-0.1-0.1-0.2-0.2-0.3-0.2c-0.1-0.1-0.2-0.1-0.3-0.1c-0.2,0-0.5,0.1-0.7,0.3l-0.1,0
		l0,0.1c0,0.1,0,0.2,0,0.2c0,0.2,0,0.3,0.1,0.5c0,0.2,0.1,0.3,0.1,0.5l0,0.1l0.1,0L29.1,28z"/>
	<path id="XMLID_42_" class="st1" d="M31.3,28.5c0,0-0.5-0.7-0.1-0.9c0.3-0.2,0.7,0,0.9-0.3c0.2-0.3,0-0.5,0.1-0.9
		c0.1-0.4,0.4-0.5,0.7-0.5c0.3-0.1,1.3-0.2,1.4,0.1l-0.4-1.2L33,24.5l-2.5,1.5l-0.1,0.7v1.5"/>
	<path id="XMLID_43_" class="st1" d="M24.3,30.7c-0.1-1-0.2-2.1-0.3-3.1c-0.1-1.6,0.4-1.3,1.7-1.3c0.2,0,1.3,0.2,1.3,0.4
		c0.4,0.7-0.6,0.6,0.4,1.1c0.9,0.5,2.4-0.3,2.1-1.3c-0.2-0.2-1-0.1-1.3-0.2c-0.5-0.3-1-0.5-1.6-0.8c-0.7-0.3-2.2-0.8-2.9-0.4
		c-1.8,1.2,0.1,4.3,0.8,5.5"/>
	<path id="XMLID_44_" class="st2" d="M26,7c-1.8-0.4-2.7,0.8-3.3,2c-0.5-0.1-0.3-0.8-0.2-1.1c0.3-0.9,1.6-2.1,2.7-1.9
		C25.8,6,26.4,6.4,26,7"/>
	<path id="XMLID_45_" class="st2" d="M34.9,9.1C34.9,9.1,35,9.1,34.9,9.1c0.5,0.9,0.9,1.8,1.4,2.5c-0.3,0.8-2.6,1.5-2.6,0.1
		c0.5-0.2,1.3,0,1.8-0.3C35.2,10.7,34.8,10.1,34.9,9.1"/>
	<path id="XMLID_46_" class="st2" d="M27,9.1c0.4,0.7,0.5,1.5,1.1,2c0.2,0.2,0.7,0.5,0.5,1.2c-0.1,0.2-0.5,0.5-0.7,0.6
		c-0.9,0.3-2.9,0.1-2.2-1c0.7,0,1.7,0.5,2.2-0.1C27.4,11.2,26.7,9.9,27,9.1"/>
	<path id="XMLID_47_" class="st2" d="M34.6,16.4c-1.3,0.8-2.8,1.8-4.9,1.5c-0.5-0.4-0.6-1.3-0.2-1.9c0.2,0.4,0.1,1.1,0.7,1.2
		c1.2,0.2,2.6-0.7,3.5-1.1c0.5-0.9,0-1.2-0.5-1.8c-1-1.2-2.3-2.7-2.3-4.5c0.4-0.3,0.4,0.4,0.5,0.6c0.5,1.2,1.8,2.8,2.8,3.8
		c0.2,0.3,0.6,0.5,0.7,0.7C35,15.5,34.5,16,34.6,16.4"/>
	<path id="XMLID_48_" class="st2" d="M17.4,15.5c-0.4-0.2-0.5-1.3-1-1.3c-0.7,0-0.6,1.3-0.6,2.1c-0.5-0.4-0.6-1.8-0.2-2.4
		c-0.4-0.2-0.6,0.2-0.8,0.4C15.1,12.2,17.8,13.3,17.4,15.5"/>
	<path id="XMLID_49_" class="st2" d="M35.4,17.2c-0.6,1.2-1.5,2.4-3.3,2.5c0-0.4-0.1-0.9,0-1.2C33.5,18.4,34.4,17.7,35.4,17.2"/>
	<path id="XMLID_50_" class="st2" d="M26.9,18c1.1,0.6,3.2,0.7,4.8,0.6c0.1,0.3,0.1,0.8,0.1,1.2C29.7,19.9,27.4,19.4,26.9,18"/>
	<path id="XMLID_51_" class="st2" d="M26.6,19.1c0.8,2,3.5,1.7,5.8,1.7c-0.1,0.3-0.3,0.6-0.6,0.7c-0.7,0.3-2.7,0.5-3.8,0
		c-0.6-0.3-1.1-1.1-1.4-1.6C26.5,19.7,25.6,19.1,26.6,19.1"/>
	<path id="XMLID_52_" class="st10" d="M34.5,30c-0.9,1.6-1.8,3.2-2.9,4.6c0.5-1.4,0.7-3.6,0.7-5.3C33.3,28.8,34.1,29.4,34.5,30"/>
	<path id="XMLID_53_" class="st2" d="M39.5,35.7c-1,0.2-1.8,1.2-2.8,1.1C37.2,36,38.2,35.7,39.5,35.7"/>
	<path id="XMLID_54_" class="st2" d="M39.9,37.3c-0.8,0.1-1.8,0.2-2.7,0.2C37.6,36.8,39.2,37,39.9,37.3"/>
	<path id="XMLID_55_" class="st2" d="M40.2,38.7c-0.9,0-2.1,0-3-0.1C37.7,38,39.6,38.4,40.2,38.7"/>
	<path id="XMLID_56_" class="st6" d="M32.7,42.5c0.1,1.2,0.6,2.4,0.5,3.7c-0.5,0.2-0.8,0.3-1.5,0.3c0-1.1-0.2-2.8-0.2-3.9
		C31.9,42.7,32.4,42.4,32.7,42.5"/>
	<path id="XMLID_57_" class="st3" d="M31.2,25c-0.5,0.3-0.9,0.7-1.3,1c-1,0.1-1.6-0.1-2.3-0.7c0,0,0.1,0,0.1-0.1
		C28.7,25.8,30.1,25.1,31.2,25"/>
	<path id="XMLID_58_" class="st10" d="M25.5,32.4c0.3-1.3,1.5-2,2.5-2.7c1.1,1.4,1.8,3.2,2.5,4.9C28.8,34.1,27,33.2,25.5,32.4"/>
	<path id="XMLID_78_" class="st2" d="M31.6,42.7c0,1.1,0.1,2.7,0.2,3.9c0.7,0,1-0.2,1.5-0.3c0.1-1.3-0.4-2.5-0.5-3.7
		C32.4,42.4,31.9,42.7,31.6,42.7z M20.6,36.7c0.5,4.3,1.1,7.8,2.4,11.6c2.7,0.8,6,0.9,8.4,0.2c-0.4-2.1-0.2-4.7-0.5-7
		c-0.2-1.7-0.1-3.4-0.4-5.2C27.6,35.7,23.5,36.1,20.6,36.7z M31.3,36.3c0,1.8,0.1,3.6,0.2,5.5c0.7-0.1,1.2-0.2,1.8-0.3
		c-0.2-1.8-0.2-3.7-0.6-5.3C32.2,36.2,31.8,36.1,31.3,36.3z M34.8,36c-0.3-0.1-0.7,0-1,0c0.1,1.5,0.5,3.1,0.6,4.7
		c0.5,0,0.8-0.2,1.2-0.3C35.6,39,35.5,37.2,34.8,36L34.8,36z M40.2,40.9c1-0.3,1.7-1.5,1.4-2.8c-0.2-0.9-0.5-2.5-0.9-3.1
		c-0.3-0.4-1-1-1.6-0.6c-1,0.6-2.7,0.8-3.4,1.6c0.4,1.2,0.5,2.8,0.6,4.3c1.2,0.1,2.7-0.3,3.7,0.1c-0.7,0.2-1.6,0.2-2.2,0.6
		C38.3,41.2,39.4,41.1,40.2,40.9L40.2,40.9z M30.5,34.6c-0.7-1.7-1.4-3.5-2.5-4.9c-1.1,0.7-2.2,1.4-2.5,2.7
		C27,33.2,28.8,34.1,30.5,34.6z M32.3,29.3c-0.1,1.7-0.3,4-0.7,5.3c1.1-1.4,2-3,2.9-4.6C34.1,29.4,33.3,28.8,32.3,29.3z M30.3,28.5
		c-0.4,0-0.8,0.5-1.3,0.3c-0.1,0.1-0.2,0.3-0.4,0.4c1.2,1.4,1.7,3.5,2.7,5.2c0.5-1.6,0.4-3.4,0.5-5.2C31.1,29.2,30.7,28.6,30.3,28.5
		z M28.9,26.8c0,0.5,0.1,0.7,0.2,1.2C30.7,28.5,30.5,25.8,28.9,26.8z M27.2,26.2c-0.7-0.4-1.7-0.8-2.6-1c-1.1-0.2-1,1.5-1,2.6
		c0,0.8,0.5,1.7,0.6,2.2c0.1,0.3,0.1,0.5,0.3,0.6c0.4,0.1,1.7-0.4,2-0.6c0.8-0.4,1.4-1.1,2-1.5c0-0.2,0-0.4,0-0.6
		c-0.4-0.2-0.8-0.3-1.4-0.4c0.4-0.2,1-0.2,1.3-0.4c0-0.1,0-0.2,0-0.3C27.8,26.7,27.6,26.4,27.2,26.2z M20.5,25
		c-0.6,0.6,1.6,1.4,2.3,1.4c0-0.4,0.2-0.7,0.2-1C22.2,25.3,21.1,25.4,20.5,25z M27.6,25.3C27.6,25.3,27.5,25.3,27.6,25.3
		c0.7,0.7,1.2,0.8,2.2,0.7c0.5-0.3,0.9-0.7,1.3-1C30.1,25.1,28.7,25.8,27.6,25.3z M34.2,27.3c0-0.7-0.2-2-0.6-2.2
		c-0.8-0.5-2.4,1-3,1.2c0.1,0.2,0.2,0.4,0.2,0.6c0.4-0.1,0.8,0,1.2,0.1c-0.4,0-0.8,0-1,0.2c-0.1,0.3,0,0.6,0,1
		c0.9,0.3,1.9,0.4,3.1,0.4C34.1,28.3,34.2,27.8,34.2,27.3z M19.5,25.6c-0.2-0.1-1.4-1.7-1.6-1.7c-2.2,0.9-4.3,2.4-6.2,3.8
		c1.8,3.8,2.5,8.5,2.6,12.9c2,0.9,3.8,2.3,6.6,2.5c-0.3-2.3-0.6-4.3-0.8-6.4c-0.7-0.3-1.7,0-2.3-0.1c0-0.8,1-0.3,1.1-0.9
		c0.1-0.4-0.5-0.4-0.3-1.1c0.5,0.2,0.8,0.6,1.3,0.7c0.5-1.1,0-3,0.1-3.9c0-0.2,0.1-0.9,0.5-0.8c0.3,0.1,0,2,0,2.9
		c0,0.8-0.1,1.5,0.2,2c2.7-0.4,5.4-0.6,8.2-0.7c-0.6-0.3-1.4-0.5-2.2-1c-0.4-0.3-1.9-0.8-2-1.2c-0.2-0.7,0.5-1,0.7-1.6
		c-1.3,0.7-1.6-0.7-1.9-1.7c-0.3-0.9-0.5-1.6-0.5-2.1C21.8,26.8,20.5,26.3,19.5,25.6L19.5,25.6z M33,24.1c1.9-0.9,2.2,3.4,1.5,4.7
		c0.1,0.4,0.5,0.6,0.7,0.9c-1,1.9-2.2,3.6-3.2,5.4c0.8-0.5,1.9-0.1,2.8-0.5c0.3-0.1,0.6-0.9,0.8-1.5c0.7-1.7,1.4-3.8,1.8-5.5
		c0.1-0.4,0.3-1.2,0.2-1.5c-0.1-0.6-0.9-1-1.3-1.4c-0.7-0.7-1.2-1.3-2-1.9C33.9,23.4,33.2,23.7,33,24.1L33,24.1z M15.3,7.7
		c-0.9,1-0.7,2.8-0.6,4.1c1.6-1,3.7,0.1,3.7,1.8c0.8,0,0.3-1,0.1-1.6c-0.5-2,0.8-4.1,0.1-5.9C17.2,6.2,16.1,6.8,15.3,7.7L15.3,7.7z
		 M21.6,2c-2,0.6-4.6,2-5.4,3.8c0.6-0.1,1.1-0.4,1.7-0.5c0.2,0,0.5,0.1,0.8,0c0.5-0.1,1-1.4,1.4-1.8c0.4-0.4,0.9-0.6,1.2-1
		c0.2-0.1,0.5-0.1,0.5-0.4C21.8,2.1,21.7,2,21.6,2z M32,2.6c-2.1-1.2-5.6-2.1-7.8-1c-1.8,0.9-4.2,2.4-5,4.2c0.8,1.8-0.2,3.4-0.3,5.3
		c0,1,0.5,1.8,0.5,2.9c-0.3,0.4-1.1,0.5-1.6,0.5c-0.2-0.9-0.5-2-1.5-2.1c-1.4-0.1-2.4,1-2.4,2.2c-0.1,1.4,1.1,3.7,2.7,3.5
		c0.6-0.1,0.8-0.7,1.5-0.7c0.4,0.7-0.6,1-0.7,1.5c0,0.1,0.1,0.7,0.1,0.9c0.3,1.2,0.9,2.8,1.6,3.7c0.8,1.2,2.4,1.3,4.1,1.5
		c0.3-0.7,1.4-0.6,2.2-0.4c-0.9-0.4-1.7-1.2-2.4-2c-0.8-0.9-1.6-1.8-1.6-2.9c1.5,2.1,2.7,3.8,5.4,4.7c2,0.7,4.4-0.3,6-1.4
		c0.6-0.5,1-1.2,1.5-1.8c1.7-2.5,2.5-6,2.4-9.5c-0.1-1.4-0.1-2.8-0.5-3.8c-0.5-1-2.2-1.9-3.2-1c-0.2-1,0.8-1.6,2-1.2
		C34.1,4.5,33.2,3.2,32,2.6L32,2.6z M35.9,34.5c1.6-0.8,4.6-2.2,5.7,0c0.4,0.8,0.8,2.2,1,3c0.3,1.2-0.3,3.6-1.5,4
		c-1.1,0.3-2.3,0.3-3.6,0.1c-0.2-0.1-0.3-0.3-0.4-0.6c-0.9,0-1.8,0-2.5,0.4c0.1,0.7-0.4,0.8-0.8,0.9c-0.3,1.3,0.6,2.9,0.4,4
		c-0.2,0.8-1.2,0.9-1.9,1.1c0,0.5,0,0.8,0.1,1.2c-0.2,0.6-0.9,1-1.6,1.1c-2.4,0.3-5.9,0.4-8.2-0.4c-0.6-1.6-1.1-3.4-1.7-5.2
		c-2.2,0.2-4-1-5.7-1.7c-0.6-0.3-1.4-0.4-1.6-0.9c-0.2-0.4-0.1-1.3-0.2-2.1c-0.1-2.1-0.2-4.1-0.8-6.2c-0.2-1-0.7-1.8-1-2.7
		c-0.3-0.9-0.8-1.9-0.9-2.8c-0.2-1.3,1-1.3,1.8-1.9c1.2-0.8,2.1-1.3,3.4-2.1c0.4-0.2,1.5-0.8,1.6-1.1c0.3-0.5-0.4-1.3-0.6-1.7
		c-0.3-0.6-0.4-1.2-0.5-1.8c-1.1-0.2-1.9-0.8-2.4-1.5c-0.8-1.2-1.4-3.4-0.7-5c0.1-0.1,0.3-0.4,0.4-0.6c0.1-0.4-0.1-0.9-0.2-1.3
		c-0.1-2.2,0.4-4,1.8-4.7c0.6-2.4,2.7-3.1,4.7-4.3c0.7-0.4,1.6-0.7,2.4-1c3-1.1,7.7-0.9,10.3,1c1.1,0.8,2.8,2.5,3.4,3.8
		c1.6,3.3,1.5,8.7,0.4,12.7c-0.2,0.5-0.4,1.3-0.7,2c-0.2,0.4-0.9,1.3-0.8,1.7c0.1,0.4,1.5,1.5,1.8,1.8c0.6,0.5,1.6,1.2,1.7,1.9
		c0.1,0.7-0.3,1.7-0.5,2.4C37.3,30.3,36.7,32.5,35.9,34.5"/>
	<path id="XMLID_79_" class="st7" d="M25.1,18.5c0.1-0.1,0.6-0.3,1.2,0c0,0-0.8,0.1-0.7,1.5l-0.3-0.1C25.2,19.9,24.9,18.7,25.1,18.5
		"/>
	<path id="XMLID_80_" class="st11" d="M30.9,30c0,0.2-0.2,0.4-0.4,0.4c-0.2,0-0.4-0.2-0.4-0.4c0-0.2,0.2-0.4,0.4-0.4
		C30.7,29.6,30.9,29.8,30.9,30"/>
	<path id="XMLID_81_" class="st11" d="M31.3,31.7c0,0.2-0.2,0.4-0.4,0.4c-0.2,0-0.4-0.2-0.4-0.4c0-0.2,0.2-0.4,0.4-0.4
		C31.1,31.3,31.3,31.5,31.3,31.7"/>
</g>
</svg>
