<?xml version="1.0" encoding="utf-8"?>
<!-- Generator: Adobe Illustrator 23.0.3, SVG Export Plug-In . SVG Version: 6.00 Build 0)  -->
<svg version="1.1" id="Layer_1" xmlns="http://www.w3.org/2000/svg" xmlns:xlink="http://www.w3.org/1999/xlink" x="0px" y="0px"
	 viewBox="0 0 50 50" style="enable-background:new 0 0 50 50;" xml:space="preserve">
<style type="text/css">
	.st0{fill:url(#SVGID_1_);}
	.st1{fill:#FCFCFC;}
</style>
<linearGradient id="SVGID_1_" gradientUnits="userSpaceOnUse" x1="6.2232" y1="-550.6176" x2="47.1164" y2="-521.847" gradientTransform="matrix(-1 0 0 1 52 561)">
	<stop  offset="1.385225e-07" style="stop-color:#282B3A"/>
	<stop  offset="1" style="stop-color:#48729D"/>
</linearGradient>
<path class="st0" d="M4.2,0h41.6C48.1,0,50,1.9,50,4.2v41.6c0,2.3-1.9,4.2-4.2,4.2H4.2C1.9,50,0,48.1,0,45.8V4.2C0,1.9,1.9,0,4.2,0z
	"/>
<path class="st1" d="M26.2,20.2c0-2.7,0-5.4,0-8.1c0-0.2-0.1-0.5,0.1-0.6s0.4,0.2,0.5,0.4c0.7,0.7,1.4,1.4,2.1,2.1
	c0.3,0.3,0.7,0.6,1.2,0.5c0.4-0.1,0.7-0.3,0.8-0.7c0.1-0.5,0-0.9-0.3-1.2c-1.7-1.6-3.3-3.3-5-5c-0.4-0.4-0.6-0.3-0.9,0
	c-1.6,1.6-3.2,3.2-4.8,4.8c-0.6,0.6-0.6,1.3-0.2,1.7c0.5,0.5,1.1,0.4,1.7-0.2c0.7-0.7,1.4-1.4,2.1-2.1c0.1-0.1,0.2-0.4,0.4-0.2
	c0.2,0.1,0.1,0.3,0.1,0.5c0,5.5,0,10.9,0,16.4c0,0.2,0.1,0.4-0.1,0.4c-0.2,0.1-0.3-0.1-0.4-0.2c-2.6-2.6-5.3-5.3-7.9-7.9
	c-0.1-0.1-0.3-0.2-0.2-0.4c0.1-0.2,0.3-0.2,0.5-0.2c0.9,0,1.9,0,2.8,0c0.8,0,1.3-0.4,1.3-1s-0.5-1.1-1.2-1.1c-2.4,0-4.7,0-7.1,0
	c-0.3,0-0.5,0.1-0.5,0.5c0,2.5,0,4.9,0,7.4c0,0.8,0.8,1.2,1.5,0.9c0.5-0.3,0.6-0.8,0.6-1.3c0-1,0-2.1,0-3.1c0-0.2-0.1-0.5,0.1-0.6
	c0.2-0.1,0.3,0.2,0.4,0.3c3.2,3.2,6.5,6.5,9.7,9.7c0.3,0.3,0.5,0.7,0.5,1.1c0,1.3,0,2.7,0,4c0,0.6-0.2,1-0.8,1.3
	c-1.5,0.8-2,2.7-1.5,4.2c0.6,1.6,2.3,2.5,3.9,2.2s2.6-1.4,2.9-3c0.3-1.4-0.4-2.8-1.8-3.5c-0.5-0.3-0.7-0.6-0.7-1.1c0-1.3,0-2.7,0-4
	c0-0.4,0-0.7,0.3-1c3.3-3.3,6.5-6.5,9.8-9.8c0.1-0.1,0.2-0.3,0.4-0.2c0.2,0.1,0.1,0.3,0.1,0.5c0,1,0,2,0,3.1c0,0.8,0.4,1.3,1,1.3
	s1.1-0.4,1.1-1.2c0-2.4,0-4.7,0-7.1c0-0.3-0.1-0.5-0.5-0.5c-2.4,0-4.8,0-7.2,0c-0.8,0-1.2,0.5-1.1,1.1c0,0.6,0.4,1,1.2,1
	c1,0,1.9,0,2.9,0c0.2,0,0.5-0.1,0.6,0.1c0.1,0.3-0.2,0.4-0.3,0.5c-2.6,2.6-5.1,5.1-7.7,7.7c-0.2,0.2-0.3,0.5-0.5,0.3
	c-0.2-0.1-0.1-0.4-0.1-0.6C26.2,25.6,26.2,22.9,26.2,20.2z"/>
</svg>
