<?xml version="1.0" encoding="utf-8"?>
<!-- Generator: Adobe Illustrator 23.0.3, SVG Export Plug-In . SVG Version: 6.00 Build 0)  -->
<svg version="1.1" id="Layer_1" xmlns="http://www.w3.org/2000/svg" xmlns:xlink="http://www.w3.org/1999/xlink" x="0px" y="0px"
	 viewBox="0 0 50 24.2" style="enable-background:new 0 0 50 24.2;" xml:space="preserve">
<style type="text/css">
	.st0{display:none;}
	.st1{fill:url(#path64_2_);}
	.st2{fill:url(#path78_2_);}
	.st3{fill:url(#path88_2_);}
	.st4{fill:url(#path104_2_);}
	.st5{fill:#1B9CF8;}
</style>
<g id="Guides" class="st0">
</g>
<g id="Guides_1_" class="st0">
</g>
<g>
	<g id="g48_1_">
		
			<linearGradient id="path64_2_" gradientUnits="userSpaceOnUse" x1="19.9996" y1="-148.7318" x2="5.447" y2="-134.1791" gradientTransform="matrix(1.0024 0 0 -0.9907 -9.7669 -125.5676)">
			<stop  offset="0" style="stop-color:#00A0FF"/>
			<stop  offset="6.599999e-03" style="stop-color:#00A1FF"/>
			<stop  offset="0.2601" style="stop-color:#00BEFF"/>
			<stop  offset="0.5122" style="stop-color:#00D2FF"/>
			<stop  offset="0.7604" style="stop-color:#00DFFF"/>
			<stop  offset="1" style="stop-color:#00E3FF"/>
		</linearGradient>
		<path id="path64_1_" class="st1" d="M0.4,1.4C0.1,1.6,0,2.1,0,2.6v19c0,0.5,0.1,0.9,0.4,1.2l0.1,0.1l10.8-10.6V12L0.4,1.4L0.4,1.4
			z"/>
	</g>
	<g id="g66_1_">
		
			<linearGradient id="path78_2_" gradientUnits="userSpaceOnUse" x1="30.4362" y1="-138.9407" x2="9.4541" y2="-138.9407" gradientTransform="matrix(1.0024 0 0 -0.9907 -9.7669 -125.5676)">
			<stop  offset="0" style="stop-color:#FFE000"/>
			<stop  offset="0.4087" style="stop-color:#FFBD00"/>
			<stop  offset="0.7754" style="stop-color:#FFA500"/>
			<stop  offset="1" style="stop-color:#FF9C00"/>
		</linearGradient>
		<path id="path78_1_" class="st2" d="M14.8,15.8l-3.6-3.5V12l3.6-3.5l0.1,0l4.3,2.4c1.2,0.7,1.2,1.8,0,2.5L14.8,15.8
			C14.9,15.7,14.8,15.8,14.8,15.8z"/>
	</g>
	<g id="g80_1_">
		
			<linearGradient id="path88_2_" gradientUnits="userSpaceOnUse" x1="15.3897" y1="-144.1855" x2="-4.3449" y2="-124.4509" gradientTransform="matrix(1.0024 0 0 -0.9907 -9.7669 -125.5676)">
			<stop  offset="0" style="stop-color:#FF3A44"/>
			<stop  offset="1" style="stop-color:#C31162"/>
		</linearGradient>
		<path id="path88_1_" class="st3" d="M14.9,15.7l-3.7-3.6L0.4,22.8c0.4,0.4,1.1,0.5,1.8,0.1L14.9,15.7"/>
	</g>
	<g id="g90_1_">
		
			<linearGradient id="path104_2_" gradientUnits="userSpaceOnUse" x1="0.1909" y1="-148.8967" x2="9.0033" y2="-140.0844" gradientTransform="matrix(1.0024 0 0 -0.9907 -9.7669 -125.5676)">
			<stop  offset="0" style="stop-color:#32A071"/>
			<stop  offset="6.850000e-02" style="stop-color:#2DA771"/>
			<stop  offset="0.4762" style="stop-color:#15CF74"/>
			<stop  offset="0.8009" style="stop-color:#06E775"/>
			<stop  offset="1" style="stop-color:#00F076"/>
		</linearGradient>
		<path id="path104_1_" class="st4" d="M14.9,8.5L2.2,1.3C1.5,0.9,0.8,1,0.4,1.4l10.8,10.7L14.9,8.5z"/>
	</g>
</g>
<g>
	<g>
		<path class="st5" d="M26.9,18.3h13.9l-2.1-3.7h-4L41,3.8c0.2-0.4,0.3-0.9,0.2-1.4c-0.1-0.5-0.4-0.9-0.9-1.1
			c-0.9-0.5-2-0.2-2.5,0.7l-0.3,0.5L37.2,2c-0.5-0.9-1.6-1.2-2.5-0.7h0c-0.9,0.5-1.2,1.6-0.7,2.5l1.3,2.3l-4.9,8.5h-3.6
			c-1,0-1.8,0.8-1.8,1.8S25.9,18.3,26.9,18.3z"/>
		<path class="st5" d="M38.4,11.2l6.4,11c0.2,0.4,0.6,0.7,1.1,0.9c0.2,0,0.3,0.1,0.5,0.1c0.3,0,0.6-0.1,0.9-0.2
			c0.9-0.5,1.2-1.6,0.7-2.5l-1.2-2.1h1.5c1,0,1.8-0.8,1.8-1.8s-0.8-1.8-1.8-1.8h-3.6l-4.1-7.1L38.4,11.2z"/>
		<path class="st5" d="M27.2,20.4c-0.5,0.9-0.2,2,0.7,2.5c0.3,0.2,0.6,0.2,0.9,0.2c0.6,0,1.2-0.3,1.6-0.9l1.4-2.5h-4.2L27.2,20.4z"
			/>
	</g>
</g>
</svg>
