<?xml version="1.0" encoding="utf-8"?>
<!-- Generator: Adobe Illustrator 23.0.3, SVG Export Plug-In . SVG Version: 6.00 Build 0)  -->
<svg version="1.1" id="Layer_1" xmlns="http://www.w3.org/2000/svg" xmlns:xlink="http://www.w3.org/1999/xlink" x="0px" y="0px"
	 viewBox="0 0 50 50" style="enable-background:new 0 0 50 50;" xml:space="preserve">
<style type="text/css">
	.st0{fill:url(#SVGID_1_);}
	.st1{fill:#FCFCFC;}
	.st2{fill:none;}
</style>
<linearGradient id="SVGID_1_" gradientUnits="userSpaceOnUse" x1="6.2232" y1="-548.6176" x2="47.1164" y2="-519.847" gradientTransform="matrix(6.123234e-17 -1 -1 -6.123234e-17 -509 52)">
	<stop  offset="1.385225e-07" style="stop-color:#282B3A"/>
	<stop  offset="1" style="stop-color:#48729D"/>
</linearGradient>
<path class="st0" d="M50,4.2v41.6c0,2.3-1.9,4.2-4.2,4.2H4.2C1.9,50,0,48.1,0,45.8V4.2C0,1.9,1.9,0,4.2,0h41.6C48.1,0,50,1.9,50,4.2
	z"/>
<g>
	<path class="st1" d="M16.9,7.4c-0.8,0-1.5,0.7-1.5,1.5v4.4L8.6,6.7C8,6.1,7.1,6.1,6.5,6.7s-0.6,1.6,0,2.2l6.6,6.5H8.7
		c-0.8,0-1.5,0.7-1.5,1.5s0.7,1.5,1.5,1.5h8.1c0.8,0,1.5-0.7,1.5-1.5V9C18.4,8.1,17.7,7.4,16.9,7.4z"/>
	<path class="st1" d="M36.9,34.5h4.4c0.8,0,1.5-0.7,1.5-1.5s-0.7-1.5-1.5-1.5h-8.1c-0.8,0-1.5,0.7-1.5,1.5v8c0,0.8,0.7,1.5,1.5,1.5
		s1.5-0.7,1.5-1.5v-4.4l6.7,6.6c0.3,0.3,0.7,0.4,1.1,0.4c0.4,0,0.8-0.2,1.1-0.5c0.6-0.6,0.6-1.6,0-2.2L36.9,34.5z"/>
	<path class="st1" d="M18.4,32.7c-0.1-0.7-0.8-1.2-1.5-1.2H8.7c-0.8,0-1.5,0.7-1.5,1.5s0.7,1.5,1.5,1.5h4.4L6.5,41
		c-0.6,0.6-0.6,1.6,0,2.2c0.3,0.3,0.7,0.5,1.1,0.5c0.4,0,0.8-0.1,1.1-0.4l6.7-6.6V41c0,0.8,0.7,1.5,1.5,1.5s1.5-0.7,1.5-1.5v-8
		C18.4,32.9,18.4,32.8,18.4,32.7z"/>
	<path class="st1" d="M33.1,18.5h8.1c0.8,0,1.5-0.7,1.5-1.5s-0.7-1.5-1.5-1.5h-4.4L43.4,9c0.6-0.6,0.6-1.6,0-2.2s-1.6-0.6-2.2,0
		l-6.7,6.6V9c0-0.8-0.7-1.5-1.5-1.5S31.5,8.2,31.5,9v8c0,0.1,0,0.2,0,0.3C31.7,18,32.4,18.5,33.1,18.5z"/>
</g>
<circle class="st2" cx="-22.8" cy="21" r="4.2"/>
<circle class="st2" cx="-43.6" cy="21" r="4.2"/>
<path class="st1" d="M26,19.3c-0.3-0.1-0.6-0.1-1-0.1s-0.6,0-0.9,0.1c-2.7,0.5-4.8,2.8-4.8,5.7c0,3.2,2.6,5.8,5.8,5.8
	s5.8-2.6,5.8-5.8C30.8,22.1,28.7,19.8,26,19.3z M25,21.2c2.1,0,3.8,1.7,3.8,3.8s-1.7,3.8-3.8,3.8s-3.8-1.7-3.8-3.8
	S22.9,21.2,25,21.2z"/>
</svg>
