<?xml version="1.0" encoding="utf-8"?>
<!-- Generator: Adobe Illustrator 23.0.3, SVG Export Plug-In . SVG Version: 6.00 Build 0)  -->
<svg version="1.1" id="Layer_1" xmlns="http://www.w3.org/2000/svg" xmlns:xlink="http://www.w3.org/1999/xlink" x="0px" y="0px"
	 viewBox="0 0 50 50" style="enable-background:new 0 0 50 50;" xml:space="preserve">
<style type="text/css">
	.st0{fill:#672A7A;}
</style>
<path class="st0" d="M5.1,30c2.6,0,4.8-2,5.1-4.5h4.2c0.1,2.5,1.1,4.8,2.7,6.6l-5,5c-2.3-1.9-5.8-1.8-7.9,0.4
	c-2.3,2.3-2.3,6.1,0,8.4c1.2,1.2,2.7,1.8,4.2,1.8c1.5,0,3-0.6,4.2-1.7c2.2-2.2,2.3-5.6,0.4-7.9l5-5c1.7,1.5,3.8,2.5,6.2,2.6v4.1
	c-2.5,0.3-4.5,2.5-4.5,5.1c0,2.8,2.3,5.1,5.2,5.1c2.8,0,5.2-2.3,5.2-5.1c0-2.6-2-4.8-4.5-5.1v-4.1c2.5-0.1,4.9-1.1,6.7-2.7l5,5
	c-1.9,2.3-1.8,5.8,0.4,7.9c1.1,1.1,2.6,1.7,4.2,1.7c0,0,0,0,0,0c1.6,0,3.1-0.6,4.2-1.8c2.3-2.3,2.3-6.1,0-8.4
	c-1.1-1.1-2.6-1.7-4.2-1.7c-1.4,0-2.7,0.5-3.7,1.3l-5-5c1.6-1.7,2.5-4,2.7-6.4h4c0.3,2.5,2.5,4.5,5.1,4.5c2.8,0,5.1-2.3,5.1-5.2
	c0-2.8-2.3-5.2-5.1-5.2c-2.6,0-4.8,2-5.1,4.5h-4c-0.1-2.5-1.1-4.7-2.7-6.5l5-5c1.1,0.9,2.4,1.3,3.8,1.3c1.5,0,3-0.6,4.2-1.7
	c2.3-2.3,2.3-6.1,0-8.4c-2.3-2.3-6.1-2.3-8.4,0c-2.2,2.2-2.3,5.6-0.4,7.9l-5,5c-1.7-1.5-4-2.5-6.4-2.6v-4.3c2.5-0.3,4.5-2.5,4.5-5.1
	c0-2.8-2.3-5.1-5.2-5.1C22.3,0,20,2.3,20,5.1c0,2.6,2,4.8,4.5,5.1v4.3c-2.5,0.1-4.7,1.1-6.4,2.6l-5-5c1.9-2.3,1.8-5.8-0.4-7.9
	c-2.3-2.3-6.1-2.3-8.4,0c-2.3,2.3-2.3,6.1,0,8.4c1.2,1.2,2.7,1.7,4.2,1.7c1.3,0,2.7-0.4,3.8-1.3l5,5c-1.5,1.7-2.5,3.9-2.7,6.3h-4.3
	c-0.3-2.5-2.5-4.5-5.1-4.5c-2.8,0-5.1,2.3-5.1,5.2C0,27.7,2.3,30,5.1,30z M11.8,45.1C10,46.9,7,46.9,5.1,45c-1.8-1.8-1.8-4.8,0-6.6
	C6,37.5,7.2,37,8.4,37c1.2,0,2.4,0.5,3.3,1.4C13.6,40.3,13.6,43.2,11.8,45.1z M28.8,44.9c0,2.1-1.8,3.9-3.9,3.9S21,47,21,44.9
	s1.8-3.9,3.9-3.9S28.8,42.7,28.8,44.9z M41.8,37C41.8,37,41.8,37,41.8,37c1.3,0,2.4,0.5,3.3,1.4c1.8,1.8,1.8,4.8,0,6.6
	c-0.9,0.9-2.1,1.4-3.3,1.4c0,0,0,0,0,0c-1.2,0-2.4-0.5-3.3-1.4c-1.8-1.8-1.8-4.8,0-6.6C39.3,37.5,40.5,37,41.8,37z M44.9,21.2
	c2.1,0,3.9,1.8,3.9,3.9S47,29,44.9,29S41,27.3,41,25.1S42.7,21.2,44.9,21.2z M38.4,5.1c0.9-0.9,2.1-1.4,3.3-1.4
	c1.2,0,2.4,0.5,3.3,1.4c1.8,1.8,1.8,4.8,0,6.6c-1.8,1.8-4.8,1.8-6.6,0C36.6,9.9,36.6,6.9,38.4,5.1z M21.2,5.1c0-2.1,1.8-3.9,3.9-3.9
	S29,3,29,5.1S27.3,9,25.1,9S21.2,7.3,21.2,5.1z M5.1,11.7c-1.8-1.8-1.8-4.8,0-6.6c0.9-0.9,2.1-1.4,3.3-1.4c1.2,0,2.4,0.5,3.3,1.4
	c1.8,1.8,1.8,4.8,0,6.6C9.9,13.6,6.9,13.6,5.1,11.7z M25.1,15.7c5.2,0,9.4,4.2,9.4,9.3c0,0,0,0.1,0,0.1c0,0,0,0.1,0,0.1
	c-0.1,5.1-4.3,9.3-9.4,9.3c-5.2,0-9.4-4.2-9.4-9.4S19.9,15.7,25.1,15.7z M5.1,21C7.3,21,9,22.7,9,24.9s-1.7,3.9-3.9,3.9
	S1.3,27,1.3,24.9S3,21,5.1,21z"/>
<circle class="st0" cx="25" cy="25" r="10"/>
<circle class="st0" cx="25.1" cy="5.1" r="4.5"/>
<circle class="st0" cx="25.1" cy="44.9" r="4.5"/>
<circle class="st0" cx="5.1" cy="24.9" r="4.5"/>
<circle class="st0" cx="44.9" cy="24.9" r="4.5"/>
<circle class="st0" cx="41.8" cy="8.4" r="5.5"/>
<circle class="st0" cx="8.4" cy="8.4" r="5.5"/>
<circle class="st0" cx="8.4" cy="41.7" r="5.5"/>
<circle class="st0" cx="41.8" cy="41.7" r="5.5"/>
</svg>
