<?xml version="1.0" encoding="utf-8"?>
<!-- Generator: Adobe Illustrator 23.0.3, SVG Export Plug-In . SVG Version: 6.00 Build 0)  -->
<svg version="1.1" id="Layer_1" xmlns="http://www.w3.org/2000/svg" xmlns:xlink="http://www.w3.org/1999/xlink" x="0px" y="0px"
	 viewBox="0 0 50 50" style="enable-background:new 0 0 50 50;" xml:space="preserve">
<style type="text/css">
	.st0{fill:none;}
	.st1{fill:url(#SVGID_1_);}
	.st2{fill:url(#SVGID_2_);}
	.st3{fill:url(#SVGID_3_);}
	.st4{fill:url(#SVGID_4_);}
	.st5{fill:url(#SVGID_5_);}
	.st6{fill:url(#SVGID_6_);}
	.st7{fill:url(#SVGID_7_);}
	.st8{fill:url(#SVGID_8_);}
	.st9{fill:url(#SVGID_9_);}
	.st10{fill:url(#SVGID_10_);}
	.st11{fill:url(#SVGID_11_);}
	.st12{fill:url(#SVGID_12_);}
	.st13{fill:url(#SVGID_13_);}
	.st14{fill:url(#SVGID_14_);}
	.st15{fill:url(#SVGID_15_);}
	.st16{fill:url(#SVGID_16_);}
	.st17{fill:url(#SVGID_17_);}
	.st18{fill:url(#SVGID_18_);}
	.st19{fill:url(#SVGID_19_);}
	.st20{fill:url(#SVGID_20_);}
	.st21{fill:url(#SVGID_21_);}
	.st22{fill:url(#SVGID_22_);}
	.st23{fill:url(#SVGID_23_);}
	.st24{fill:url(#SVGID_24_);}
	.st25{fill:url(#SVGID_25_);}
	.st26{fill:url(#SVGID_26_);}
	.st27{fill:url(#SVGID_27_);}
	.st28{fill:url(#SVGID_28_);}
	.st29{fill:url(#SVGID_29_);}
	.st30{fill:url(#SVGID_30_);}
	.st31{fill:url(#SVGID_31_);}
	.st32{fill:url(#SVGID_32_);}
	.st33{fill:url(#SVGID_33_);}
	.st34{fill:url(#SVGID_34_);}
	.st35{fill:url(#SVGID_35_);}
	.st36{fill:url(#SVGID_36_);}
	.st37{fill:url(#SVGID_37_);}
	.st38{fill:url(#SVGID_38_);}
	.st39{fill:url(#SVGID_39_);}
	.st40{fill:url(#SVGID_40_);}
	.st41{fill:url(#SVGID_41_);}
	.st42{fill:url(#SVGID_42_);}
	.st43{fill:url(#SVGID_43_);}
	.st44{fill:url(#SVGID_44_);}
	.st45{fill:url(#SVGID_45_);}
	.st46{fill:url(#SVGID_46_);}
	.st47{fill:url(#SVGID_47_);}
	.st48{fill:url(#SVGID_48_);}
	.st49{fill:url(#SVGID_49_);}
</style>
<g>
	<path class="st0" d="M46.9,36.7L46.9,36.7L46.9,36.7C46.9,36.8,46.9,36.8,46.9,36.7z"/>
	
		<linearGradient id="SVGID_1_" gradientUnits="userSpaceOnUse" x1="-12.0504" y1="61.0511" x2="-11.4925" y2="61.0511" gradientTransform="matrix(-50.7531 103.536 103.536 50.7531 -6903.2485 -1859.5309)">
		<stop  offset="0.3" style="stop-color:#3E863D"/>
		<stop  offset="0.5" style="stop-color:#55934F"/>
		<stop  offset="0.8" style="stop-color:#5AAD45"/>
	</linearGradient>
	<path class="st1" d="M25.2,0c-0.1,0-0.1,0-0.2,0c0,0,0,0,0,0c0,0,0,0,0,0C25.1,0,25.1,0,25.2,0z"/>
	
		<linearGradient id="SVGID_2_" gradientUnits="userSpaceOnUse" x1="-12.0504" y1="61.0296" x2="-11.4925" y2="61.0296" gradientTransform="matrix(-50.7531 103.536 103.536 50.7531 -6903.2485 -1859.5309)">
		<stop  offset="0.3" style="stop-color:#3E863D"/>
		<stop  offset="0.5" style="stop-color:#55934F"/>
		<stop  offset="0.8" style="stop-color:#5AAD45"/>
	</linearGradient>
	<path class="st2" d="M3.8,38c0,0-0.1-0.1-0.1-0.1C3.7,37.9,3.7,38,3.8,38z"/>
	
		<linearGradient id="SVGID_3_" gradientUnits="userSpaceOnUse" x1="-12.0504" y1="60.9832" x2="-11.4925" y2="60.9832" gradientTransform="matrix(-50.7531 103.536 103.536 50.7531 -6903.2485 -1859.5309)">
		<stop  offset="0.3" style="stop-color:#3E863D"/>
		<stop  offset="0.5" style="stop-color:#55934F"/>
		<stop  offset="0.8" style="stop-color:#5AAD45"/>
	</linearGradient>
	<path class="st3" d="M11.3,24.4l-7-12.8l-0.1,0c-0.7,0.4-1.2,1.2-1.2,2v22.6c0,0.5,0.2,1,0.5,1.4L11.3,24.4z"/>
	
		<linearGradient id="SVGID_4_" gradientUnits="userSpaceOnUse" x1="-12.0504" y1="61.0816" x2="-11.4925" y2="61.0816" gradientTransform="matrix(-50.7531 103.536 103.536 50.7531 -6903.2485 -1859.5309)">
		<stop  offset="0.3" style="stop-color:#3E863D"/>
		<stop  offset="0.5" style="stop-color:#55934F"/>
		<stop  offset="0.8" style="stop-color:#5AAD45"/>
	</linearGradient>
	<path class="st4" d="M30.9,3.1l-4.7-2.7c-0.2-0.1-0.4-0.2-0.6-0.2c0.2,0.1,0.4,0.1,0.6,0.2L30.9,3.1z"/>
	
		<linearGradient id="SVGID_5_" gradientUnits="userSpaceOnUse" x1="-12.0504" y1="61.2212" x2="-11.4925" y2="61.2212" gradientTransform="matrix(-50.7531 103.536 103.536 50.7531 -6903.2485 -1859.5309)">
		<stop  offset="0.3" style="stop-color:#3E863D"/>
		<stop  offset="0.5" style="stop-color:#55934F"/>
		<stop  offset="0.8" style="stop-color:#5AAD45"/>
	</linearGradient>
	<path class="st5" d="M21.3,48.2l2.5,1.5c0.2,0.1,0.4,0.2,0.6,0.2c-0.2-0.1-0.4-0.1-0.6-0.2L21.3,48.2z"/>
	
		<linearGradient id="SVGID_6_" gradientUnits="userSpaceOnUse" x1="-12.0504" y1="61.0545" x2="-11.4925" y2="61.0545" gradientTransform="matrix(-50.7531 103.536 103.536 50.7531 -6903.2485 -1859.5309)">
		<stop  offset="0.3" style="stop-color:#3E863D"/>
		<stop  offset="0.5" style="stop-color:#55934F"/>
		<stop  offset="0.8" style="stop-color:#5AAD45"/>
	</linearGradient>
	<path class="st6" d="M25.5,0.1C25.5,0.1,25.5,0.1,25.5,0.1L25.5,0.1L25.5,0.1z"/>
	
		<linearGradient id="SVGID_7_" gradientUnits="userSpaceOnUse" x1="-12.0504" y1="61.2598" x2="-11.4925" y2="61.2598" gradientTransform="matrix(-50.7531 103.536 103.536 50.7531 -6903.2485 -1859.5309)">
		<stop  offset="0.3" style="stop-color:#3E863D"/>
		<stop  offset="0.5" style="stop-color:#55934F"/>
		<stop  offset="0.8" style="stop-color:#5AAD45"/>
	</linearGradient>
	<path class="st7" d="M45.9,11.7c0.2,0.1,0.3,0.2,0.4,0.3C46.2,11.9,46,11.8,45.9,11.7z"/>
	
		<linearGradient id="SVGID_8_" gradientUnits="userSpaceOnUse" x1="-12.0504" y1="61.0463" x2="-11.4925" y2="61.0463" gradientTransform="matrix(-50.7531 103.536 103.536 50.7531 -6903.2485 -1859.5309)">
		<stop  offset="0.3" style="stop-color:#3E863D"/>
		<stop  offset="0.5" style="stop-color:#55934F"/>
		<stop  offset="0.8" style="stop-color:#5AAD45"/>
	</linearGradient>
	<path class="st8" d="M24.3,0.1c0.1,0,0.1,0,0.2,0C24.5,0.1,24.4,0.1,24.3,0.1z"/>
	
		<linearGradient id="SVGID_9_" gradientUnits="userSpaceOnUse" x1="-12.0504" y1="60.9964" x2="-11.4925" y2="60.9964" gradientTransform="matrix(-50.7531 103.536 103.536 50.7531 -6903.2485 -1859.5309)">
		<stop  offset="0.3" style="stop-color:#3E863D"/>
		<stop  offset="0.5" style="stop-color:#55934F"/>
		<stop  offset="0.8" style="stop-color:#5AAD45"/>
	</linearGradient>
	<path class="st9" d="M23.9,0.3C23.9,0.3,23.8,0.3,23.9,0.3L23.9,0.3L7.3,9.9L23.9,0.3C23.8,0.3,23.9,0.3,23.9,0.3z"/>
	
		<linearGradient id="SVGID_10_" gradientUnits="userSpaceOnUse" x1="-12.0504" y1="61.362" x2="-11.4925" y2="61.362" gradientTransform="matrix(-50.7531 103.536 103.536 50.7531 -6903.2485 -1859.5309)">
		<stop  offset="0.3" style="stop-color:#3E863D"/>
		<stop  offset="0.5" style="stop-color:#55934F"/>
		<stop  offset="0.8" style="stop-color:#5AAD45"/>
	</linearGradient>
	<path class="st10" d="M46.7,37.4C46.7,37.5,46.6,37.5,46.7,37.4C46.6,37.5,46.7,37.5,46.7,37.4z"/>
	
		<linearGradient id="SVGID_11_" gradientUnits="userSpaceOnUse" x1="-12.0504" y1="61.2401" x2="-11.4925" y2="61.2401" gradientTransform="matrix(-50.7531 103.536 103.536 50.7531 -6903.2485 -1859.5309)">
		<stop  offset="0.3" style="stop-color:#3E863D"/>
		<stop  offset="0.5" style="stop-color:#55934F"/>
		<stop  offset="0.8" style="stop-color:#5AAD45"/>
	</linearGradient>
	<path class="st11" d="M24.6,50c0.2,0,0.3,0,0.5,0C24.9,50,24.8,50,24.6,50z"/>
	
		<linearGradient id="SVGID_12_" gradientUnits="userSpaceOnUse" x1="-12.0504" y1="61.3617" x2="-11.4925" y2="61.3617" gradientTransform="matrix(-50.7531 103.536 103.536 50.7531 -6903.2485 -1859.5309)">
		<stop  offset="0.3" style="stop-color:#3E863D"/>
		<stop  offset="0.5" style="stop-color:#55934F"/>
		<stop  offset="0.8" style="stop-color:#5AAD45"/>
	</linearGradient>
	<path class="st12" d="M46.9,36.9C46.9,36.9,46.9,37,46.9,36.9C46.9,37,46.9,36.9,46.9,36.9z"/>
	
		<linearGradient id="SVGID_13_" gradientUnits="userSpaceOnUse" x1="-12.0504" y1="61.3091" x2="-11.4925" y2="61.3091" gradientTransform="matrix(-50.7531 103.536 103.536 50.7531 -6903.2485 -1859.5309)">
		<stop  offset="0.3" style="stop-color:#3E863D"/>
		<stop  offset="0.5" style="stop-color:#55934F"/>
		<stop  offset="0.8" style="stop-color:#5AAD45"/>
	</linearGradient>
	<path class="st13" d="M46.3,12.1l-6.7,12.2l7.3,12.4c0-0.1,0.1-0.3,0.1-0.4V13.7C47,13.1,46.7,12.5,46.3,12.1z"/>
	
		<linearGradient id="SVGID_14_" gradientUnits="userSpaceOnUse" x1="-12.0504" y1="61.361" x2="-11.4925" y2="61.361" gradientTransform="matrix(-50.7531 103.536 103.536 50.7531 -6903.2485 -1859.5309)">
		<stop  offset="0.3" style="stop-color:#3E863D"/>
		<stop  offset="0.5" style="stop-color:#55934F"/>
		<stop  offset="0.8" style="stop-color:#5AAD45"/>
	</linearGradient>
	<path class="st14" d="M46.3,37.9C46.3,38,46.3,38,46.3,37.9C46.3,38,46.3,38,46.3,37.9z"/>
	
		<linearGradient id="SVGID_15_" gradientUnits="userSpaceOnUse" x1="-12.0504" y1="61.246" x2="-11.7269" y2="61.246" gradientTransform="matrix(-50.7531 103.536 103.536 50.7531 -6903.2485 -1859.5309)">
		<stop  offset="0.3" style="stop-color:#3E863D"/>
		<stop  offset="0.5" style="stop-color:#55934F"/>
		<stop  offset="0.8" style="stop-color:#5AAD45"/>
	</linearGradient>
	<polygon class="st15" points="25.7,49.9 25.7,49.9 25.7,49.9 	"/>
	
		<linearGradient id="SVGID_16_" gradientUnits="userSpaceOnUse" x1="-12.0504" y1="61.2454" x2="-11.4925" y2="61.2454" gradientTransform="matrix(-50.7531 103.536 103.536 50.7531 -6903.2485 -1859.5309)">
		<stop  offset="0.3" style="stop-color:#3E863D"/>
		<stop  offset="0.5" style="stop-color:#55934F"/>
		<stop  offset="0.8" style="stop-color:#5AAD45"/>
	</linearGradient>
	<path class="st16" d="M25.6,49.9c0,0-0.1,0-0.1,0C25.6,49.9,25.6,49.9,25.6,49.9z"/>
	
		<linearGradient id="SVGID_17_" gradientUnits="userSpaceOnUse" x1="-12.5446" y1="64.1585" x2="-12.1826" y2="64.1585" gradientTransform="matrix(142.4074 -105.2221 -105.2221 -142.4074 8535.0586 7858.8364)">
		<stop  offset="0.57" style="stop-color:#3E863D"/>
		<stop  offset="0.72" style="stop-color:#619857"/>
		<stop  offset="1" style="stop-color:#76AC64"/>
	</linearGradient>
	<path class="st17" d="M3.5,37.8c0,0.1,0.1,0.1,0.1,0.2C3.6,37.9,3.6,37.8,3.5,37.8L3.5,37.8z"/>
	
		<linearGradient id="SVGID_18_" gradientUnits="userSpaceOnUse" x1="-12.5446" y1="64.2563" x2="-12.1826" y2="64.2563" gradientTransform="matrix(142.4074 -105.2221 -105.2221 -142.4074 8535.0586 7858.8364)">
		<stop  offset="0.57" style="stop-color:#3E863D"/>
		<stop  offset="0.72" style="stop-color:#619857"/>
		<stop  offset="1" style="stop-color:#76AC64"/>
	</linearGradient>
	<path class="st18" d="M25.6,0.1L25.6,0.1C25.6,0.1,25.6,0.1,25.6,0.1C25.6,0.1,25.6,0.1,25.6,0.1z"/>
	
		<linearGradient id="SVGID_19_" gradientUnits="userSpaceOnUse" x1="-12.5446" y1="64.0331" x2="-12.1826" y2="64.0331" gradientTransform="matrix(142.4074 -105.2221 -105.2221 -142.4074 8535.0586 7858.8364)">
		<stop  offset="0.57" style="stop-color:#3E863D"/>
		<stop  offset="0.72" style="stop-color:#619857"/>
		<stop  offset="1" style="stop-color:#76AC64"/>
	</linearGradient>
	<path class="st19" d="M24.6,50c-0.1,0-0.1,0-0.2,0C24.5,49.9,24.6,49.9,24.6,50z"/>
	
		<linearGradient id="SVGID_20_" gradientUnits="userSpaceOnUse" x1="-12.5446" y1="64.1322" x2="-12.1826" y2="64.1322" gradientTransform="matrix(142.4074 -105.2221 -105.2221 -142.4074 8535.0586 7858.8364)">
		<stop  offset="0.57" style="stop-color:#3E863D"/>
		<stop  offset="0.72" style="stop-color:#619857"/>
		<stop  offset="1" style="stop-color:#76AC64"/>
	</linearGradient>
	<path class="st20" d="M46.3,12.1C46.3,12.1,46.3,12,46.3,12.1C46.3,12,46.3,12.1,46.3,12.1L46.3,12.1z"/>
	
		<linearGradient id="SVGID_21_" gradientUnits="userSpaceOnUse" x1="-12.5446" y1="64.0296" x2="-12.1826" y2="64.0296" gradientTransform="matrix(142.4074 -105.2221 -105.2221 -142.4074 8535.0586 7858.8364)">
		<stop  offset="0.57" style="stop-color:#3E863D"/>
		<stop  offset="0.72" style="stop-color:#619857"/>
		<stop  offset="1" style="stop-color:#76AC64"/>
	</linearGradient>
	<path class="st21" d="M25.7,49.9L25.7,49.9C25.7,49.9,25.6,49.9,25.7,49.9C25.6,49.9,25.7,49.9,25.7,49.9z"/>
	
		<linearGradient id="SVGID_22_" gradientUnits="userSpaceOnUse" x1="-12.5446" y1="64.1045" x2="-12.1826" y2="64.1045" gradientTransform="matrix(142.4074 -105.2221 -105.2221 -142.4074 8535.0586 7858.8364)">
		<stop  offset="0.57" style="stop-color:#3E863D"/>
		<stop  offset="0.72" style="stop-color:#619857"/>
		<stop  offset="1" style="stop-color:#76AC64"/>
	</linearGradient>
	<path class="st22" d="M4.2,38.4c-0.2-0.1-0.3-0.2-0.4-0.3C3.9,38.1,4.1,38.3,4.2,38.4L21,48.1l0.3,0.1L4.2,38.4z"/>
	
		<linearGradient id="SVGID_23_" gradientUnits="userSpaceOnUse" x1="-12.5446" y1="64.0307" x2="-12.1826" y2="64.0307" gradientTransform="matrix(142.4074 -105.2221 -105.2221 -142.4074 8535.0586 7858.8364)">
		<stop  offset="0.57" style="stop-color:#3E863D"/>
		<stop  offset="0.72" style="stop-color:#619857"/>
		<stop  offset="1" style="stop-color:#76AC64"/>
	</linearGradient>
	<path class="st23" d="M25.1,50C25.1,50,25.2,50,25.1,50c0.1,0,0.2,0,0.2,0l0,0C25.3,50,25.2,50,25.1,50z"/>
	
		<linearGradient id="SVGID_24_" gradientUnits="userSpaceOnUse" x1="-12.5446" y1="64.0299" x2="-12.1826" y2="64.0299" gradientTransform="matrix(142.4074 -105.2221 -105.2221 -142.4074 8535.0586 7858.8364)">
		<stop  offset="0.57" style="stop-color:#3E863D"/>
		<stop  offset="0.72" style="stop-color:#619857"/>
		<stop  offset="1" style="stop-color:#76AC64"/>
	</linearGradient>
	<path class="st24" d="M25.5,49.9C25.5,49.9,25.5,49.9,25.5,49.9C25.5,49.9,25.5,49.9,25.5,49.9C25.5,49.9,25.5,49.9,25.5,49.9z"/>
	
		<linearGradient id="SVGID_25_" gradientUnits="userSpaceOnUse" x1="-12.5446" y1="64.18" x2="-12.1826" y2="64.18" gradientTransform="matrix(142.4074 -105.2221 -105.2221 -142.4074 8535.0586 7858.8364)">
		<stop  offset="0.57" style="stop-color:#3E863D"/>
		<stop  offset="0.72" style="stop-color:#619857"/>
		<stop  offset="1" style="stop-color:#76AC64"/>
	</linearGradient>
	<path class="st25" d="M45.9,11.7C45.8,11.7,45.8,11.6,45.9,11.7L32.9,4.2l-2-1.2L45.9,11.7C45.8,11.6,45.8,11.7,45.9,11.7z"/>
	
		<linearGradient id="SVGID_26_" gradientUnits="userSpaceOnUse" x1="-12.0504" y1="61.1355" x2="-11.4925" y2="61.1355" gradientTransform="matrix(-50.7531 103.536 103.536 50.7531 -6903.2485 -1859.5309)">
		<stop  offset="0.3" style="stop-color:#3E863D"/>
		<stop  offset="0.5" style="stop-color:#55934F"/>
		<stop  offset="0.8" style="stop-color:#5AAD45"/>
	</linearGradient>
	<path class="st26" d="M25.3,50l-14-25.5L3.5,37.7c0,0.1,0.1,0.1,0.1,0.2c0,0,0.1,0.1,0.1,0.1c0.1,0.1,0.3,0.2,0.4,0.3l17.1,9.9
		l2.5,1.5c0.2,0.1,0.4,0.2,0.6,0.2c0.1,0,0.1,0,0.2,0c0.2,0,0.3,0,0.5,0C25.2,50,25.3,50,25.3,50z"/>
	
		<linearGradient id="SVGID_27_" gradientUnits="userSpaceOnUse" x1="-12.5446" y1="64.1119" x2="-12.1826" y2="64.1119" gradientTransform="matrix(142.4074 -105.2221 -105.2221 -142.4074 8535.0586 7858.8364)">
		<stop  offset="0.57" style="stop-color:#3E863D"/>
		<stop  offset="0.72" style="stop-color:#619857"/>
		<stop  offset="1" style="stop-color:#76AC64"/>
	</linearGradient>
	<path class="st27" d="M25.3,50l-14-25.5L3.5,37.7c0,0.1,0.1,0.1,0.1,0.2c0,0,0.1,0.1,0.1,0.1c0.1,0.1,0.3,0.2,0.4,0.3l17.1,9.9
		l2.5,1.5c0.2,0.1,0.4,0.2,0.6,0.2c0.1,0,0.1,0,0.2,0c0.2,0,0.3,0,0.5,0C25.2,50,25.3,50,25.3,50z"/>
	
		<linearGradient id="SVGID_28_" gradientUnits="userSpaceOnUse" x1="-12.0504" y1="61.2455" x2="-11.4925" y2="61.2455" gradientTransform="matrix(-50.7531 103.536 103.536 50.7531 -6903.2485 -1859.5309)">
		<stop  offset="0.3" style="stop-color:#3E863D"/>
		<stop  offset="0.5" style="stop-color:#55934F"/>
		<stop  offset="0.8" style="stop-color:#5AAD45"/>
	</linearGradient>
	<path class="st28" d="M25.5,49.9C25.5,49.9,25.5,49.9,25.5,49.9c0,0,0.1,0,0.1,0c0,0,0,0,0,0l0,0C25.6,49.9,25.6,49.9,25.5,49.9z"
		/>
	
		<linearGradient id="SVGID_29_" gradientUnits="userSpaceOnUse" x1="-12.5446" y1="64.0297" x2="-12.1826" y2="64.0297" gradientTransform="matrix(142.4074 -105.2221 -105.2221 -142.4074 8535.0586 7858.8364)">
		<stop  offset="0.57" style="stop-color:#3E863D"/>
		<stop  offset="0.72" style="stop-color:#619857"/>
		<stop  offset="1" style="stop-color:#76AC64"/>
	</linearGradient>
	<path class="st29" d="M25.5,49.9C25.5,49.9,25.5,49.9,25.5,49.9c0,0,0.1,0,0.1,0c0,0,0,0,0,0l0,0C25.6,49.9,25.6,49.9,25.5,49.9z"
		/>
	
		<linearGradient id="SVGID_30_" gradientUnits="userSpaceOnUse" x1="-12.0504" y1="61.1587" x2="-11.4925" y2="61.1587" gradientTransform="matrix(-50.7531 103.536 103.536 50.7531 -6903.2485 -1859.5309)">
		<stop  offset="0.3" style="stop-color:#3E863D"/>
		<stop  offset="0.5" style="stop-color:#55934F"/>
		<stop  offset="0.8" style="stop-color:#5AAD45"/>
	</linearGradient>
	<path class="st30" d="M39.6,24.3l6.7-12.2c0,0,0,0,0,0c-0.1-0.1-0.3-0.2-0.4-0.3c0,0-0.1-0.1-0.1-0.1L30.9,3.1l-4.8-2.7
		c-0.2-0.1-0.4-0.2-0.6-0.2c0,0,0,0,0,0l0,0.1L39.6,24.3z"/>
	
		<linearGradient id="SVGID_31_" gradientUnits="userSpaceOnUse" x1="-12.5446" y1="64.1776" x2="-12.1826" y2="64.1776" gradientTransform="matrix(142.4074 -105.2221 -105.2221 -142.4074 8535.0586 7858.8364)">
		<stop  offset="0.57" style="stop-color:#3E863D"/>
		<stop  offset="0.72" style="stop-color:#619857"/>
		<stop  offset="1" style="stop-color:#76AC64"/>
	</linearGradient>
	<path class="st31" d="M39.6,24.3l6.7-12.2c0,0,0,0,0,0c-0.1-0.1-0.3-0.2-0.4-0.3c0,0-0.1-0.1-0.1-0.1L30.9,3.1l-4.8-2.7
		c-0.2-0.1-0.4-0.2-0.6-0.2c0,0,0,0,0,0l0,0.1L39.6,24.3z"/>
	
		<linearGradient id="SVGID_32_" gradientUnits="userSpaceOnUse" x1="-13.0506" y1="63.7563" x2="-12.7223" y2="63.7563" gradientTransform="matrix(129.8891 0 0 -129.8891 1699.411 8325.1943)">
		<stop  offset="0.16" style="stop-color:#6BBF47"/>
		<stop  offset="0.38" style="stop-color:#79B461"/>
		<stop  offset="0.47" style="stop-color:#75AC64"/>
		<stop  offset="0.7" style="stop-color:#659E5A"/>
		<stop  offset="0.9" style="stop-color:#3E863D"/>
	</linearGradient>
	<path class="st32" d="M26.2,49.7c-0.2,0.1-0.3,0.2-0.5,0.2C25.9,49.8,26,49.8,26.2,49.7l19.6-11.3c0.2-0.1,0.3-0.2,0.5-0.4
		c-0.1,0.1-0.3,0.3-0.5,0.4L26.2,49.7z"/>
	
		<linearGradient id="SVGID_33_" gradientUnits="userSpaceOnUse" x1="-13.0506" y1="63.8041" x2="-12.7223" y2="63.8041" gradientTransform="matrix(129.8891 0 0 -129.8891 1699.411 8325.1943)">
		<stop  offset="0.16" style="stop-color:#6BBF47"/>
		<stop  offset="0.38" style="stop-color:#79B461"/>
		<stop  offset="0.47" style="stop-color:#75AC64"/>
		<stop  offset="0.7" style="stop-color:#659E5A"/>
		<stop  offset="0.9" style="stop-color:#3E863D"/>
	</linearGradient>
	<path class="st33" d="M46.6,37.5c-0.1,0.1-0.2,0.3-0.3,0.4C46.4,37.8,46.5,37.7,46.6,37.5z"/>
	
		<linearGradient id="SVGID_34_" gradientUnits="userSpaceOnUse" x1="-13.0506" y1="63.8082" x2="-12.7223" y2="63.8082" gradientTransform="matrix(129.8891 0 0 -129.8891 1699.411 8325.1943)">
		<stop  offset="0.16" style="stop-color:#6BBF47"/>
		<stop  offset="0.38" style="stop-color:#79B461"/>
		<stop  offset="0.47" style="stop-color:#75AC64"/>
		<stop  offset="0.7" style="stop-color:#659E5A"/>
		<stop  offset="0.9" style="stop-color:#3E863D"/>
	</linearGradient>
	<path class="st34" d="M46.9,37c0,0.2-0.1,0.3-0.2,0.5C46.7,37.3,46.8,37.1,46.9,37z"/>
	
		<linearGradient id="SVGID_35_" gradientUnits="userSpaceOnUse" x1="-13.0506" y1="63.8113" x2="-12.7223" y2="63.8113" gradientTransform="matrix(129.8891 0 0 -129.8891 1699.411 8325.1943)">
		<stop  offset="0.16" style="stop-color:#6BBF47"/>
		<stop  offset="0.38" style="stop-color:#79B461"/>
		<stop  offset="0.47" style="stop-color:#75AC64"/>
		<stop  offset="0.7" style="stop-color:#659E5A"/>
		<stop  offset="0.9" style="stop-color:#3E863D"/>
	</linearGradient>
	<path class="st35" d="M46.9,36.8L46.9,36.8L46.9,36.8c0,0,0,0.1,0,0.1C46.9,36.9,46.9,36.8,46.9,36.8z"/>
	
		<linearGradient id="SVGID_36_" gradientUnits="userSpaceOnUse" x1="-13.0506" y1="64.0932" x2="-12.7223" y2="64.0932" gradientTransform="matrix(129.8891 0 0 -129.8891 1699.411 8325.1943)">
		<stop  offset="0.16" style="stop-color:#6BBF47"/>
		<stop  offset="0.38" style="stop-color:#79B461"/>
		<stop  offset="0.47" style="stop-color:#75AC64"/>
		<stop  offset="0.7" style="stop-color:#659E5A"/>
		<stop  offset="0.9" style="stop-color:#3E863D"/>
	</linearGradient>
	<path class="st36" d="M23.9,0.3c0.1-0.1,0.3-0.1,0.4-0.2C24.2,0.1,24,0.2,23.9,0.3z"/>
	
		<linearGradient id="SVGID_37_" gradientUnits="userSpaceOnUse" x1="-13.0506" y1="64.0944" x2="-12.7223" y2="64.0944" gradientTransform="matrix(129.8891 0 0 -129.8891 1699.411 8325.1943)">
		<stop  offset="0.16" style="stop-color:#6BBF47"/>
		<stop  offset="0.38" style="stop-color:#79B461"/>
		<stop  offset="0.47" style="stop-color:#75AC64"/>
		<stop  offset="0.7" style="stop-color:#659E5A"/>
		<stop  offset="0.9" style="stop-color:#3E863D"/>
	</linearGradient>
	<path class="st37" d="M24.8,0L24.8,0c-0.1,0-0.2,0-0.2,0C24.7,0,24.8,0,25,0C24.9,0,24.8,0,24.8,0z"/>
	
		<linearGradient id="SVGID_38_" gradientUnits="userSpaceOnUse" x1="-13.0506" y1="63.71" x2="-12.7223" y2="63.71" gradientTransform="matrix(129.8891 0 0 -129.8891 1699.411 8325.1943)">
		<stop  offset="0.16" style="stop-color:#6BBF47"/>
		<stop  offset="0.38" style="stop-color:#79B461"/>
		<stop  offset="0.47" style="stop-color:#75AC64"/>
		<stop  offset="0.7" style="stop-color:#659E5A"/>
		<stop  offset="0.9" style="stop-color:#3E863D"/>
	</linearGradient>
	<path class="st38" d="M25.3,50c0.1,0,0.1,0,0.2,0C25.5,49.9,25.4,50,25.3,50L25.3,50z"/>
	
		<linearGradient id="SVGID_39_" gradientUnits="userSpaceOnUse" x1="-13.0506" y1="64.0943" x2="-12.7223" y2="64.0943" gradientTransform="matrix(129.8891 0 0 -129.8891 1699.411 8325.1943)">
		<stop  offset="0.16" style="stop-color:#6BBF47"/>
		<stop  offset="0.38" style="stop-color:#79B461"/>
		<stop  offset="0.47" style="stop-color:#75AC64"/>
		<stop  offset="0.7" style="stop-color:#659E5A"/>
		<stop  offset="0.9" style="stop-color:#3E863D"/>
	</linearGradient>
	<path class="st39" d="M25.5,0.1c-0.1,0-0.2,0-0.2,0C25.3,0,25.4,0,25.5,0.1L25.5,0.1z"/>
	
		<linearGradient id="SVGID_40_" gradientUnits="userSpaceOnUse" x1="-13.0506" y1="64.012" x2="-12.7223" y2="64.012" gradientTransform="matrix(129.8891 0 0 -129.8891 1699.411 8325.1943)">
		<stop  offset="0.16" style="stop-color:#6BBF47"/>
		<stop  offset="0.38" style="stop-color:#79B461"/>
		<stop  offset="0.47" style="stop-color:#75AC64"/>
		<stop  offset="0.7" style="stop-color:#659E5A"/>
		<stop  offset="0.9" style="stop-color:#3E863D"/>
	</linearGradient>
	<polygon class="st40" points="4.3,11.6 4.3,11.6 7.3,9.9 	"/>
	
		<linearGradient id="SVGID_41_" gradientUnits="userSpaceOnUse" x1="-12.0504" y1="61.304" x2="-11.4925" y2="61.304" gradientTransform="matrix(-50.7531 103.536 103.536 50.7531 -6903.2485 -1859.5309)">
		<stop  offset="0.3" style="stop-color:#3E863D"/>
		<stop  offset="0.5" style="stop-color:#55934F"/>
		<stop  offset="0.8" style="stop-color:#5AAD45"/>
	</linearGradient>
	<path class="st41" d="M25.7,49.9C25.7,49.9,25.7,49.9,25.7,49.9c0.2-0.1,0.4-0.1,0.5-0.2l19.6-11.3c0.2-0.1,0.3-0.2,0.5-0.4
		c0,0,0,0,0.1-0.1c0.1-0.1,0.2-0.3,0.3-0.4c0,0,0-0.1,0.1-0.1c0.1-0.1,0.1-0.3,0.2-0.5c0,0,0-0.1,0-0.1c0-0.1,0-0.1,0-0.2l-7.3-12.4
		L25.7,49.9z"/>
	
		<linearGradient id="SVGID_42_" gradientUnits="userSpaceOnUse" x1="-13.0506" y1="63.809" x2="-12.7223" y2="63.809" gradientTransform="matrix(129.8891 0 0 -129.8891 1699.411 8325.1943)">
		<stop  offset="0.16" style="stop-color:#6BBF47"/>
		<stop  offset="0.38" style="stop-color:#79B461"/>
		<stop  offset="0.47" style="stop-color:#75AC64"/>
		<stop  offset="0.7" style="stop-color:#659E5A"/>
		<stop  offset="0.9" style="stop-color:#3E863D"/>
	</linearGradient>
	<path class="st42" d="M25.7,49.9C25.7,49.9,25.7,49.9,25.7,49.9c0.2-0.1,0.4-0.1,0.5-0.2l19.6-11.3c0.2-0.1,0.3-0.2,0.5-0.4
		c0,0,0,0,0.1-0.1c0.1-0.1,0.2-0.3,0.3-0.4c0,0,0-0.1,0.1-0.1c0.1-0.1,0.1-0.3,0.2-0.5c0,0,0-0.1,0-0.1c0-0.1,0-0.1,0-0.2l-7.3-12.4
		L25.7,49.9z"/>
	
		<linearGradient id="SVGID_43_" gradientUnits="userSpaceOnUse" x1="-12.0504" y1="60.994" x2="-11.4925" y2="60.994" gradientTransform="matrix(-50.7531 103.536 103.536 50.7531 -6903.2485 -1859.5309)">
		<stop  offset="0.3" style="stop-color:#3E863D"/>
		<stop  offset="0.5" style="stop-color:#55934F"/>
		<stop  offset="0.8" style="stop-color:#5AAD45"/>
	</linearGradient>
	<path class="st43" d="M25.5,0.1L25.5,0.1C25.4,0,25.3,0,25.2,0c-0.1,0-0.2,0-0.2,0c0,0,0,0,0,0c-0.1,0-0.3,0-0.4,0.1
		c-0.1,0-0.1,0-0.2,0c-0.1,0-0.3,0.1-0.4,0.2c0,0-0.1,0-0.1,0L7.3,9.9l-3,1.7l7,12.8L25.5,0.1z"/>
	
		<linearGradient id="SVGID_44_" gradientUnits="userSpaceOnUse" x1="-13.0506" y1="64.0006" x2="-12.7223" y2="64.0006" gradientTransform="matrix(129.8891 0 0 -129.8891 1699.411 8325.1943)">
		<stop  offset="0.16" style="stop-color:#6BBF47"/>
		<stop  offset="0.38" style="stop-color:#79B461"/>
		<stop  offset="0.47" style="stop-color:#75AC64"/>
		<stop  offset="0.7" style="stop-color:#659E5A"/>
		<stop  offset="0.9" style="stop-color:#3E863D"/>
	</linearGradient>
	<path class="st44" d="M25.5,0.1L25.5,0.1C25.4,0,25.3,0,25.2,0c-0.1,0-0.2,0-0.2,0c0,0,0,0,0,0c-0.1,0-0.3,0-0.4,0.1
		c-0.1,0-0.1,0-0.2,0c-0.1,0-0.3,0.1-0.4,0.2c0,0-0.1,0-0.1,0L7.3,9.9l-3,1.7l7,12.8L25.5,0.1z"/>
	
		<linearGradient id="SVGID_45_" gradientUnits="userSpaceOnUse" x1="-12.5446" y1="64.0302" x2="-12.1826" y2="64.0302" gradientTransform="matrix(142.4074 -105.2221 -105.2221 -142.4074 8535.0586 7858.8364)">
		<stop  offset="0.57" style="stop-color:#3E863D"/>
		<stop  offset="0.72" style="stop-color:#619857"/>
		<stop  offset="1" style="stop-color:#76AC64"/>
	</linearGradient>
	<path class="st45" d="M25.3,50L25.3,50c0.1,0,0.1,0,0.2,0c0,0,0,0,0,0C25.5,49.9,25.4,49.9,25.3,50z"/>
	
		<linearGradient id="SVGID_46_" gradientUnits="userSpaceOnUse" x1="-13.0506" y1="63.7101" x2="-12.7223" y2="63.7101" gradientTransform="matrix(129.8891 0 0 -129.8891 1699.411 8325.1943)">
		<stop  offset="0.16" style="stop-color:#6BBF47"/>
		<stop  offset="0.38" style="stop-color:#79B461"/>
		<stop  offset="0.47" style="stop-color:#75AC64"/>
		<stop  offset="0.7" style="stop-color:#659E5A"/>
		<stop  offset="0.9" style="stop-color:#3E863D"/>
	</linearGradient>
	<path class="st46" d="M25.3,50L25.3,50c0.1,0,0.1,0,0.2,0c0,0,0,0,0,0C25.5,49.9,25.4,49.9,25.3,50z"/>
	
		<linearGradient id="SVGID_47_" gradientUnits="userSpaceOnUse" x1="-12.0504" y1="61.1471" x2="-11.4925" y2="61.1471" gradientTransform="matrix(-50.7531 103.536 103.536 50.7531 -6903.2485 -1859.5309)">
		<stop  offset="0.3" style="stop-color:#3E863D"/>
		<stop  offset="0.5" style="stop-color:#55934F"/>
		<stop  offset="0.8" style="stop-color:#5AAD45"/>
	</linearGradient>
	<path class="st47" d="M11.3,24.4l14,25.5c0.1,0,0.1,0,0.2,0c0,0,0.1,0,0.1,0l14-25.6L25.5,0.1L11.3,24.4z"/>
	
		<linearGradient id="SVGID_48_" gradientUnits="userSpaceOnUse" x1="-12.5446" y1="64.1428" x2="-12.1826" y2="64.1428" gradientTransform="matrix(142.4074 -105.2221 -105.2221 -142.4074 8535.0586 7858.8364)">
		<stop  offset="0.57" style="stop-color:#3E863D"/>
		<stop  offset="0.72" style="stop-color:#619857"/>
		<stop  offset="1" style="stop-color:#76AC64"/>
	</linearGradient>
	<path class="st48" d="M11.3,24.4l14,25.5c0.1,0,0.1,0,0.2,0c0,0,0.1,0,0.1,0l14-25.6L25.5,0.1L11.3,24.4z"/>
	
		<linearGradient id="SVGID_49_" gradientUnits="userSpaceOnUse" x1="-13.0506" y1="63.9018" x2="-12.7223" y2="63.9018" gradientTransform="matrix(129.8891 0 0 -129.8891 1699.411 8325.1943)">
		<stop  offset="0.16" style="stop-color:#6BBF47"/>
		<stop  offset="0.38" style="stop-color:#79B461"/>
		<stop  offset="0.47" style="stop-color:#75AC64"/>
		<stop  offset="0.7" style="stop-color:#659E5A"/>
		<stop  offset="0.9" style="stop-color:#3E863D"/>
	</linearGradient>
	<path class="st49" d="M11.3,24.4l14,25.5c0.1,0,0.1,0,0.2,0c0,0,0.1,0,0.1,0l14-25.6L25.5,0.1L11.3,24.4z"/>
</g>
</svg>
