<?xml version="1.0" encoding="utf-8"?>
<!-- Generator: Adobe Illustrator 23.0.3, SVG Export Plug-In . SVG Version: 6.00 Build 0)  -->
<svg version="1.1" id="Layer_1" xmlns="http://www.w3.org/2000/svg" xmlns:xlink="http://www.w3.org/1999/xlink" x="0px" y="0px"
	 viewBox="0 0 75 56.4" style="enable-background:new 0 0 75 56.4;" xml:space="preserve">
<style type="text/css">
	.st0{fill:none;}
	.st1{fill:#282B3A;}
	.st2{fill:#48729D;}
	.st3{fill:#FFFFFF;}
</style>
<path class="st0" d="M34.3,6.3c2.1-0.5,4.2-0.5,6.3,0C39.9,3.1,35.3,3.1,34.3,6.3z"/>
<g>
	<path class="st1" d="M55.9,24.4c0-7.9-4.9-14.6-11.8-17.1c0.5-8.6-13.4-8.6-13,0c-6.9,2.5-11.8,9.3-11.8,17.1v10h36.6V24.4z
		 M34.3,6.3c0.9-3.2,5.6-3.2,6.3,0C38.5,5.9,36.4,5.9,34.3,6.3z"/>
</g>
<path class="st2" d="M12.3,33c-2.5-2.5-2.5-6.9,0-9.7c1.4-1.4-0.7-3.5-2.1-2.1c-3.9,3.9-3.9,10.2,0,13.9c0.2,0.5,0.7,0.5,0.9,0.5
	C12.6,35.5,13.3,33.9,12.3,33z"/>
<path class="st2" d="M7,19.3c1.6-1.6-0.7-3.9-2.3-2.3c-6.3,6-6.3,16.2,0,22.2c0.2,0.5,0.7,0.7,1.2,0.7c1.4,0,2.3-1.9,1.2-3
	C2.1,32.1,2.1,24.2,7,19.3z"/>
<g>
	<path class="st1" d="M55.9,37.6H19.3c-5.8,2.5-9,11.8-5.1,11.8h15.8c1.9,8.1,13.4,8.1,15.3,0H61C64.7,49.4,61.7,40.2,55.9,37.6z"/>
</g>
<path class="st3" d="M37.6,52.5c-1.9,0-4.1-1-4.7-3.8l-0.5-2.3H15.6c0.5-1.7,2.1-4.5,4.4-5.8h35.2c2.3,1.3,3.9,4.1,4.3,5.8H42.8
	l-0.5,2.3C41.7,51.5,39.5,52.5,37.6,52.5z"/>
<path class="st2" d="M70.5,17c-1.6-1.6-3.9,0.7-2.3,2.3c4.6,4.9,4.9,12.7,0,17.6c-1.2,1.2-0.5,3,1.2,3c0.5,0,0.9-0.2,1.2-0.7
	C76.5,33.2,76.5,23,70.5,17z"/>
<path class="st2" d="M64.9,21.2c-1.4-1.4-3.5,0.7-2.1,2.1c2.5,2.8,2.5,7.2,0,9.7c-0.9,0.9-0.2,2.5,1.2,2.5c0.2,0,0.7,0,0.9-0.5
	C68.9,31.4,68.9,25.1,64.9,21.2z"/>
<path class="st3" d="M22.3,31.4v-7c0-6.4,4-12.1,9.8-14.3c2.7-1,6.1-1.8,11,0c6,2.2,9.7,7.9,9.7,14.3v7H22.3z"/>
</svg>
