<?xml version="1.0" encoding="utf-8"?>
<!-- Generator: Adobe Illustrator 23.0.3, SVG Export Plug-In . SVG Version: 6.00 Build 0)  -->
<svg version="1.1" id="Layer_1" xmlns="http://www.w3.org/2000/svg" xmlns:xlink="http://www.w3.org/1999/xlink" x="0px" y="0px"
	 viewBox="0 0 50 33.4" style="enable-background:new 0 0 50 33.4;" xml:space="preserve">
<style type="text/css">
	.st0{display:none;}
	.st1{fill:url(#SVGID_1_);}
	.st2{opacity:7.000000e-02;clip-path:url(#SVGID_3_);enable-background:new    ;}
	.st3{fill:#FFFFFF;}
	.st4{fill:#6762A6;}
	.st5{clip-path:url(#SVGID_5_);fill:#FFA000;}
	.st6{opacity:0.12;clip-path:url(#SVGID_7_);fill:url(#SVGID_8_);enable-background:new    ;}
	.st7{clip-path:url(#SVGID_10_);fill:#F57C00;}
	.st8{opacity:0.2;clip-path:url(#SVGID_12_);fill:url(#SVGID_13_);enable-background:new    ;}
	.st9{clip-path:url(#SVGID_15_);fill:#FFCA28;}
	.st10{clip-path:url(#SVGID_17_);fill:#FFFFFF;fill-opacity:0.2;}
	.st11{opacity:0.2;clip-path:url(#SVGID_19_);fill:#A52714;enable-background:new    ;}
	.st12{clip-path:url(#SVGID_21_);fill:url(#SVGID_22_);}
</style>
<g id="Guides" class="st0">
</g>
<g>
	<g id="BASE">
		
			<linearGradient id="SVGID_1_" gradientUnits="userSpaceOnUse" x1="9.2791" y1="79.8057" x2="9.2791" y2="96.2876" gradientTransform="matrix(1 0 0 1 0 -79.8557)">
			<stop  offset="0" style="stop-color:#4387FD"/>
			<stop  offset="1" style="stop-color:#4683EA"/>
		</linearGradient>
		<path class="st1" d="M4.1,15.6L0.2,9c-0.3-0.5-0.3-1.1,0-1.6l3.8-6.6c0.2-0.5,0.8-0.9,1.4-0.9h7.6c0.5,0,1.1,0.3,1.4,0.9l3.8,6.6
			c0.3,0.5,0.3,1.1,0,1.6l-3.8,6.6c-0.3,0.5-0.9,0.9-1.4,0.9H5.5C4.8,16.5,4.3,16.2,4.1,15.6z"/>
	</g>
	<g id="shadow">
		<g>
			<g>
				<g>
					<defs>
						<path id="SVGID_2_" d="M4.1,15.6L0.2,9c-0.3-0.5-0.3-1.1,0-1.6l3.8-6.6c0.2-0.5,0.8-0.9,1.4-0.9h7.6c0.5,0,1.1,0.3,1.4,0.9
							l3.8,6.6c0.3,0.5,0.3,1.1,0,1.6l-3.8,6.6c-0.3,0.5-0.9,0.9-1.4,0.9H5.5C4.8,16.5,4.3,16.2,4.1,15.6z"/>
					</defs>
					<clipPath id="SVGID_3_">
						<use xlink:href="#SVGID_2_"  style="overflow:visible;"/>
					</clipPath>
					<polygon class="st2" points="17.6,10.8 14.7,8 14.6,7.8 9.6,2.8 8.5,4.3 9.3,5.2 7.1,6 6.3,8.2 5.4,7.4 4,8.7 11.7,16.6 
						14.2,16.6 					"/>
				</g>
			</g>
		</g>
	</g>
	<g id="art">
		<g>
			<path class="st3" d="M9.3,4.9C7.5,4.9,6,6.4,6,8.2c0,1.9,1.5,3.3,3.3,3.3c1.9,0,3.3-1.5,3.3-3.3C12.6,6.3,11.1,4.9,9.3,4.9
				 M9.3,10.7c-1.4,0-2.5-1.1-2.5-2.5s1.1-2.5,2.5-2.5s2.5,1.1,2.5,2.5S10.6,10.7,9.3,10.7"/>
			<path class="st3" d="M14.5,7.8l-1.3-0.4c0,0.2,0,0.5,0,0.8c0,0.2,0,0.4,0,0.5h1.3c0.1,0,0.2-0.1,0.2-0.2V8.1
				C14.7,8,14.6,7.8,14.5,7.8"/>
			<path class="st3" d="M9.3,4.2c0.2,0,0.5,0.1,0.8,0.1L9.6,3c0-0.1-0.1-0.2-0.2-0.2H9.1C9,2.8,8.9,2.9,8.9,3L8.5,4.3
				C8.8,4.3,9,4.2,9.3,4.2"/>
			<path class="st3" d="M5.4,8.2c0-0.3,0-0.5,0.1-0.9L4.1,7.8C4,7.8,3.9,8,3.9,8.1v0.5c0,0.1,0.1,0.1,0.2,0.2h1.3
				C5.4,8.6,5.4,8.4,5.4,8.2"/>
			<path class="st3" d="M10.4,7.1l-0.2,0.3l0,0C10,7.2,9.7,7.1,9.3,7.1C9,7.1,8.7,7.2,8.5,7.4C8,7.8,8,8.6,8.5,9.2L8.1,9.5
				c0.3,0.3,0.7,0.4,1.2,0.4c0.9,0,1.6-0.8,1.6-1.6C11,7.8,10.8,7.4,10.4,7.1 M9.9,8.7C9.7,8.9,9.4,8.9,9.3,8.9
				c-0.2,0-0.4,0-0.5-0.2C8.5,8.4,8.5,8,8.8,7.6c0.1-0.1,0.3-0.2,0.5-0.2c0.1,0,0.3,0.1,0.5,0.2C10.1,8,10.1,8.4,9.9,8.7"/>
		</g>
	</g>
</g>
<g>
	<path class="st4" d="M48.5,16.5H38.3c-0.9,0-1.5-0.7-1.5-1.5V1.5c0-0.9,0.7-1.5,1.5-1.5h10.1C49.4,0,50,0.7,50,1.5v13.3
		C50,15.8,49.4,16.5,48.5,16.5L48.5,16.5z"/>
	<path class="st3" d="M45.1,14.2V7.7c0,0,0.4-1.5-5.3,0.7V2.3h1.9v3.9c0,0,5.2-2.1,5.2,1.5v6.5H45.1L45.1,14.2z M46.1,4.6h-2
		c0.7-0.9,1.3-2.3,1.3-2.3h2C47.5,2.3,47.2,3.2,46.1,4.6L46.1,4.6z M39.8,14.2v-3.7l1.9,1.9L39.8,14.2L39.8,14.2z"/>
</g>
<g>
	<g>
		<g>
			<defs>
				<path id="SVGID_4_" d="M33,16.3c0-0.2-0.3-0.5-0.6-0.5c-0.1,0-0.2,0.1-0.2,0.1l-2.6,2.6l-2.1-4c-0.1-0.2-0.5-0.3-0.7-0.2
					c-0.1,0-0.1,0.1-0.2,0.2l-1.1,2.2l-2.8-5.2c-0.1-0.2-0.5-0.3-0.7-0.2c-0.1,0.1-0.2,0.2-0.2,0.3L19,29.1l7.3,4.1
					c0.5,0.2,1,0.2,1.5,0l7.4-4.1L33,16.3z"/>
			</defs>
			<clipPath id="SVGID_5_">
				<use xlink:href="#SVGID_4_"  style="overflow:visible;"/>
			</clipPath>
			<path class="st5" d="M18.9,29.2l2.7-17.5c0-0.2,0.3-0.5,0.6-0.5c0.1,0,0.3,0.1,0.3,0.2l2.8,5.2l1.1-2.2c0.1-0.2,0.5-0.3,0.7-0.2
				c0.1,0,0.1,0.1,0.2,0.2l7.6,14.6H18.9V29.2z"/>
		</g>
		<g>
			<defs>
				<path id="SVGID_6_" d="M33,16.3c0-0.2-0.3-0.5-0.6-0.5c-0.1,0-0.2,0.1-0.2,0.1l-2.6,2.6l-2.1-4c-0.1-0.2-0.5-0.3-0.7-0.2
					c-0.1,0-0.1,0.1-0.2,0.2l-1.1,2.2l-2.8-5.2c-0.1-0.2-0.5-0.3-0.7-0.2c-0.1,0.1-0.2,0.2-0.2,0.3L19,29.1l7.3,4.1
					c0.5,0.2,1,0.2,1.5,0l7.4-4.1L33,16.3z"/>
			</defs>
			<clipPath id="SVGID_7_">
				<use xlink:href="#SVGID_6_"  style="overflow:visible;"/>
			</clipPath>
			
				<linearGradient id="SVGID_8_" gradientUnits="userSpaceOnUse" x1="22.0531" y1="266.8004" x2="21.0402" y2="267.3297" gradientTransform="matrix(1 0 0 -1 0 289.9936)">
				<stop  offset="0" style="stop-color:#A52714"/>
				<stop  offset="0.4" style="stop-color:#A52714;stop-opacity:0.5"/>
				<stop  offset="0.8" style="stop-color:#A52714;stop-opacity:0"/>
			</linearGradient>
			<path class="st6" d="M28.3,11.4l-13.4-1.1v24.3l4.1-5.4L28.3,11.4z"/>
		</g>
		<g>
			<defs>
				<path id="SVGID_9_" d="M33,16.3c0-0.2-0.3-0.5-0.6-0.5c-0.1,0-0.2,0.1-0.2,0.1l-2.6,2.6l-2.1-4c-0.1-0.2-0.5-0.3-0.7-0.2
					c-0.1,0-0.1,0.1-0.2,0.2l-1.1,2.2l-2.8-5.2c-0.1-0.2-0.5-0.3-0.7-0.2c-0.1,0.1-0.2,0.2-0.2,0.3L19,29.1l7.3,4.1
					c0.5,0.2,1,0.2,1.5,0l7.4-4.1L33,16.3z"/>
			</defs>
			<clipPath id="SVGID_10_">
				<use xlink:href="#SVGID_9_"  style="overflow:visible;"/>
			</clipPath>
			<path class="st7" d="M28.4,22.4l-3-5.6l-6.5,12.4L28.4,22.4z"/>
		</g>
		<g>
			<defs>
				<path id="SVGID_11_" d="M33,16.3c0-0.2-0.3-0.5-0.6-0.5c-0.1,0-0.2,0.1-0.2,0.1l-2.6,2.6l-2.1-4c-0.1-0.2-0.5-0.3-0.7-0.2
					c-0.1,0-0.1,0.1-0.2,0.2l-1.1,2.2l-2.8-5.2c-0.1-0.2-0.5-0.3-0.7-0.2c-0.1,0.1-0.2,0.2-0.2,0.3L19,29.1l7.3,4.1
					c0.5,0.2,1,0.2,1.5,0l7.4-4.1L33,16.3z"/>
			</defs>
			<clipPath id="SVGID_12_">
				<use xlink:href="#SVGID_11_"  style="overflow:visible;"/>
			</clipPath>
			
				<linearGradient id="SVGID_13_" gradientUnits="userSpaceOnUse" x1="26.3486" y1="268.2356" x2="25.8954" y2="268.6888" gradientTransform="matrix(1 0 0 -1 0 289.9936)">
				<stop  offset="0" style="stop-color:#A52714;stop-opacity:0.8"/>
				<stop  offset="0.5" style="stop-color:#A52714;stop-opacity:0.21"/>
				<stop  offset="1" style="stop-color:#A52714;stop-opacity:0"/>
			</linearGradient>
			<path class="st8" d="M14.8,10.2h24.3v24.3H14.8C14.8,34.6,14.8,10.2,14.8,10.2z"/>
		</g>
		<g>
			<defs>
				<path id="SVGID_14_" d="M33,16.3c0-0.2-0.3-0.5-0.6-0.5c-0.1,0-0.2,0.1-0.2,0.1l-2.6,2.6l-2.1-4c-0.1-0.2-0.5-0.3-0.7-0.2
					c-0.1,0-0.1,0.1-0.2,0.2l-1.1,2.2l-2.8-5.2c-0.1-0.2-0.5-0.3-0.7-0.2c-0.1,0.1-0.2,0.2-0.2,0.3L19,29.1l7.3,4.1
					c0.5,0.2,1,0.2,1.5,0l7.4-4.1L33,16.3z"/>
			</defs>
			<clipPath id="SVGID_15_">
				<use xlink:href="#SVGID_14_"  style="overflow:visible;"/>
			</clipPath>
			<path class="st9" d="M35.1,29.2l-2.2-13c0-0.2-0.3-0.5-0.6-0.5c-0.1,0-0.2,0.1-0.2,0.1L18.9,29.2l7.3,4.1c0.5,0.2,1,0.2,1.5,0
				L35.1,29.2z"/>
		</g>
		<g>
			<defs>
				<path id="SVGID_16_" d="M33,16.3c0-0.2-0.3-0.5-0.6-0.5c-0.1,0-0.2,0.1-0.2,0.1l-2.6,2.6l-2.1-4c-0.1-0.2-0.5-0.3-0.7-0.2
					c-0.1,0-0.1,0.1-0.2,0.2l-1.1,2.2l-2.8-5.2c-0.1-0.2-0.5-0.3-0.7-0.2c-0.1,0.1-0.2,0.2-0.2,0.3L19,29.1l7.3,4.1
					c0.5,0.2,1,0.2,1.5,0l7.4-4.1L33,16.3z"/>
			</defs>
			<clipPath id="SVGID_17_">
				<use xlink:href="#SVGID_16_"  style="overflow:visible;"/>
			</clipPath>
			<path class="st10" d="M33,16.3c0-0.2-0.3-0.5-0.6-0.5c-0.1,0-0.2,0.1-0.2,0.1l-2.6,2.6l-2.1-4c-0.1-0.2-0.5-0.3-0.7-0.2
				c-0.1,0-0.1,0.1-0.2,0.2l-1.1,2.2l-2.8-5.2c-0.1-0.2-0.5-0.3-0.7-0.2c-0.1,0.1-0.2,0.2-0.2,0.3L19,29.1l0,0l0,0h0.1l10.4-10.4
				l2.6-2.6c0.2-0.2,0.6-0.2,0.7,0c0.1,0.1,0.1,0.1,0.1,0.2L35,29.2l0,0L33,16.3z M18.9,29.2l2.7-17.4c0-0.2,0.3-0.5,0.6-0.5
				c0.1,0,0.3,0.1,0.3,0.2l2.8,5.2l1.1-2.2c0.1-0.2,0.5-0.3,0.7-0.2c0.1,0,0.1,0.1,0.2,0.2l2.1,3.9L18.9,29.2z"/>
		</g>
		<g>
			<defs>
				<path id="SVGID_18_" d="M33,16.3c0-0.2-0.3-0.5-0.6-0.5c-0.1,0-0.2,0.1-0.2,0.1l-2.6,2.6l-2.1-4c-0.1-0.2-0.5-0.3-0.7-0.2
					c-0.1,0-0.1,0.1-0.2,0.2l-1.1,2.2l-2.8-5.2c-0.1-0.2-0.5-0.3-0.7-0.2c-0.1,0.1-0.2,0.2-0.2,0.3L19,29.1l7.3,4.1
					c0.5,0.2,1,0.2,1.5,0l7.4-4.1L33,16.3z"/>
			</defs>
			<clipPath id="SVGID_19_">
				<use xlink:href="#SVGID_18_"  style="overflow:visible;"/>
			</clipPath>
			<path class="st11" d="M27.7,33.2c-0.5,0.2-1,0.2-1.5,0l-7.3-4.1v0.1l7.3,4.1c0.5,0.2,1,0.2,1.5,0l7.4-4.1v-0.1L27.7,33.2z"/>
		</g>
		<g>
			<defs>
				<path id="SVGID_20_" d="M33,16.3c0-0.2-0.3-0.5-0.6-0.5c-0.1,0-0.2,0.1-0.2,0.1l-2.6,2.6l-2.1-4c-0.1-0.2-0.5-0.3-0.7-0.2
					c-0.1,0-0.1,0.1-0.2,0.2l-1.1,2.2l-2.8-5.2c-0.1-0.2-0.5-0.3-0.7-0.2c-0.1,0.1-0.2,0.2-0.2,0.3L19,29.1l7.3,4.1
					c0.5,0.2,1,0.2,1.5,0l7.4-4.1L33,16.3z"/>
			</defs>
			<clipPath id="SVGID_21_">
				<use xlink:href="#SVGID_20_"  style="overflow:visible;"/>
			</clipPath>
			
				<linearGradient id="SVGID_22_" gradientUnits="userSpaceOnUse" x1="-628.2943" y1="1378.2006" x2="-621.9554" y2="1384.5397" gradientTransform="matrix(2.67 0 0 2.67 1696.0619 -3664.6799)">
				<stop  offset="0" style="stop-color:#FFFFFF;stop-opacity:0.1"/>
				<stop  offset="1" style="stop-color:#FFFFFF;stop-opacity:0"/>
			</linearGradient>
			<path class="st12" d="M33,16.3c0-0.2-0.3-0.5-0.6-0.5c-0.1,0-0.2,0.1-0.2,0.1l-2.6,2.6l-2.1-4c-0.1-0.2-0.5-0.3-0.7-0.2
				c-0.1,0-0.1,0.1-0.2,0.2l-1.1,2.2l-2.8-5.2c-0.1-0.2-0.5-0.3-0.7-0.2c-0.1,0.1-0.2,0.2-0.2,0.3L19,29.1l7.3,4.1
				c0.5,0.2,1,0.2,1.5,0l7.4-4.1L33,16.3z"/>
		</g>
	</g>
</g>
</svg>
