<?xml version="1.0" encoding="utf-8"?>
<!-- Generator: Adobe Illustrator 23.0.3, SVG Export Plug-In . SVG Version: 6.00 Build 0)  -->
<svg version="1.1" id="Layer_1" xmlns="http://www.w3.org/2000/svg" xmlns:xlink="http://www.w3.org/1999/xlink" x="0px" y="0px"
	 viewBox="0 0 50 20" style="enable-background:new 0 0 50 20;" xml:space="preserve">
<style type="text/css">
	.st0{display:none;}
	.st1{fill:url(#SVGID_1_);}
	.st2{opacity:7.000000e-02;clip-path:url(#SVGID_3_);enable-background:new    ;}
	.st3{fill:#FFFFFF;}
	.st4{fill:#6762A6;}
	.st5{clip-path:url(#SVGID_5_);fill:#FFA000;}
	.st6{opacity:0.12;clip-path:url(#SVGID_5_);fill:url(#SVGID_6_);enable-background:new    ;}
	.st7{clip-path:url(#SVGID_5_);fill:#F57C00;}
	.st8{opacity:0.2;clip-path:url(#SVGID_5_);fill:url(#SVGID_7_);enable-background:new    ;}
	.st9{clip-path:url(#SVGID_5_);fill:#FFCA28;}
	.st10{clip-path:url(#SVGID_5_);fill:#FFFFFF;fill-opacity:0.2;}
	.st11{opacity:0.2;clip-path:url(#SVGID_5_);fill:#A52714;enable-background:new    ;}
	.st12{clip-path:url(#SVGID_5_);fill:url(#SVGID_8_);}
</style>
<g id="Guides" class="st0">
</g>
<g>
	<g id="BASE">
		
			<linearGradient id="SVGID_1_" gradientUnits="userSpaceOnUse" x1="8.4579" y1="-4.8557" x2="8.4579" y2="-19.889" gradientTransform="matrix(1 0 0 -1 0 -4.8557)">
			<stop  offset="0" style="stop-color:#4387FD"/>
			<stop  offset="1" style="stop-color:#4683EA"/>
		</linearGradient>
		<path class="st1" d="M3.7,14.3l-3.5-6c-0.3-0.5-0.3-1,0-1.5l3.5-6C3.9,0.3,4.4,0,5,0h6.9c0.5,0,1,0.3,1.3,0.8l3.5,6
			c0.3,0.5,0.3,1,0,1.5l-3.5,6c-0.3,0.5-0.8,0.8-1.3,0.8H5C4.4,15.1,3.9,14.8,3.7,14.3z"/>
	</g>
	<g id="shadow">
		<g>
			<g>
				<defs>
					<path id="SVGID_2_" d="M3.7,14.3l-3.5-6c-0.3-0.5-0.3-1,0-1.5l3.5-6C3.9,0.3,4.4,0,5,0h6.9c0.5,0,1,0.3,1.3,0.8l3.5,6
						c0.3,0.5,0.3,1,0,1.5l-3.5,6c-0.3,0.5-0.8,0.8-1.3,0.8H5C4.4,15.1,3.9,14.8,3.7,14.3z"/>
				</defs>
				<clipPath id="SVGID_3_">
					<use xlink:href="#SVGID_2_"  style="overflow:visible;"/>
				</clipPath>
				<polygon class="st2" points="16,9.9 13.4,7.3 13.3,7.2 8.7,2.6 7.7,4 8.5,4.8 6.5,5.5 5.7,7.5 4.9,6.8 3.6,8 10.7,15.2 
					12.9,15.2 				"/>
			</g>
		</g>
	</g>
	<g id="art">
		<g>
			<path class="st3" d="M8.5,4.5c-1.7,0-3,1.4-3,3c0,1.7,1.4,3,3,3c1.7,0,3-1.4,3-3C11.5,5.8,10.1,4.5,8.5,4.5 M8.5,9.8
				c-1.3,0-2.3-1-2.3-2.3c0-1.3,1-2.3,2.3-2.3c1.3,0,2.3,1,2.3,2.3C10.8,8.8,9.7,9.8,8.5,9.8"/>
			<path class="st3" d="M13.2,7.2L12,6.8C12,7,12,7.3,12,7.5c0,0.2,0,0.4,0,0.5h1.2c0.1,0,0.2-0.1,0.2-0.2V7.4
				C13.4,7.3,13.3,7.2,13.2,7.2"/>
			<path class="st3" d="M8.5,3.9C8.7,3.9,9,4,9.2,4L8.7,2.8c0-0.1-0.1-0.2-0.2-0.2H8.3c-0.1,0-0.2,0.1-0.2,0.2L7.7,4
				C8,4,8.2,3.9,8.5,3.9"/>
			<path class="st3" d="M4.9,7.5c0-0.3,0-0.5,0.1-0.8L3.7,7.2c-0.1,0-0.2,0.1-0.2,0.2v0.5C3.5,8,3.6,8,3.7,8.1h1.2
				C4.9,7.9,4.9,7.7,4.9,7.5"/>
			<path class="st3" d="M9.5,6.5L9.3,6.8v0C9.1,6.6,8.8,6.5,8.5,6.5c-0.3,0-0.6,0.1-0.8,0.3c-0.4,0.4-0.4,1.1,0,1.6L7.4,8.7
				c0.3,0.3,0.6,0.4,1.1,0.4c0.8,0,1.5-0.7,1.5-1.5C10,7.2,9.8,6.8,9.5,6.5 M9,8C8.8,8.2,8.6,8.2,8.5,8.2C8.3,8.2,8.1,8.2,8,8
				C7.7,7.7,7.7,7.3,8,7c0.1-0.1,0.3-0.2,0.5-0.2C8.6,6.8,8.8,6.9,9,7C9.2,7.3,9.2,7.7,9,8"/>
		</g>
	</g>
</g>
<g id="Guides_1_" class="st0">
</g>
<g>
	<path class="st4" d="M48.6,15h-9.2c-0.8,0-1.4-0.6-1.4-1.4V1.4c0-0.8,0.6-1.4,1.4-1.4h9.2C49.4,0,50,0.6,50,1.4v12.1
		C50,14.4,49.4,15,48.6,15L48.6,15z"/>
	<path class="st3" d="M45.5,12.9V7c0,0,0.4-1.4-4.8,0.6c0,0,0-5.5,0-5.5l1.7,0v3.5c0,0,4.7-1.9,4.7,1.4v5.9H45.5L45.5,12.9z
		 M46.4,4.2h-1.8c0.6-0.8,1.2-2.1,1.2-2.1h1.8C47.7,2.1,47.4,2.9,46.4,4.2L46.4,4.2z M40.7,12.9V9.5l1.7,1.7L40.7,12.9L40.7,12.9z"
		/>
</g>
<g>
	<g>
		<defs>
			<path id="SVGID_4_" d="M32.3,4.8c0-0.2-0.3-0.4-0.5-0.4c-0.1,0-0.2,0.1-0.2,0.1l-2.3,2.3l-1.8-3.5c-0.1-0.2-0.4-0.3-0.6-0.2
				c-0.1,0-0.1,0.1-0.2,0.2l-1,1.9l-2.5-4.6c-0.1-0.2-0.4-0.3-0.6-0.2c-0.1,0.1-0.2,0.2-0.2,0.3l-2.4,15.4l6.4,3.6
				c0.4,0.2,0.9,0.2,1.3,0l6.5-3.6L32.3,4.8z"/>
		</defs>
		<clipPath id="SVGID_5_">
			<use xlink:href="#SVGID_4_"  style="overflow:visible;"/>
		</clipPath>
		<path class="st5" d="M19.9,16.2l2.4-15.4c0-0.2,0.3-0.4,0.5-0.4c0.1,0,0.3,0.1,0.3,0.2l2.5,4.6l1-1.9c0.1-0.2,0.4-0.3,0.6-0.2
			c0.1,0,0.1,0.1,0.2,0.2l6.7,12.8H19.9z"/>
		
			<linearGradient id="SVGID_6_" gradientUnits="userSpaceOnUse" x1="22.6297" y1="-244.0493" x2="21.7405" y2="-244.5139" gradientTransform="matrix(1 0 0 1 0 254.9936)">
			<stop  offset="0" style="stop-color:#A52714"/>
			<stop  offset="0.4" style="stop-color:#A52714;stop-opacity:0.5"/>
			<stop  offset="0.8" style="stop-color:#A52714;stop-opacity:0"/>
		</linearGradient>
		<path class="st6" d="M28.1,0.5l-11.8-1v21.3l3.6-4.7L28.1,0.5z"/>
		<path class="st7" d="M28.2,10.2l-2.6-4.9l-5.7,10.9L28.2,10.2z"/>
		
			<linearGradient id="SVGID_7_" gradientUnits="userSpaceOnUse" x1="26.4073" y1="-245.3419" x2="26.0094" y2="-245.7398" gradientTransform="matrix(1 0 0 1 0 254.9936)">
			<stop  offset="0" style="stop-color:#A52714;stop-opacity:0.8"/>
			<stop  offset="0.5" style="stop-color:#A52714;stop-opacity:0.21"/>
			<stop  offset="1" style="stop-color:#A52714;stop-opacity:0"/>
		</linearGradient>
		<path class="st8" d="M16.3-0.5h21.3v21.3H16.3C16.3,20.9,16.3-0.5,16.3-0.5z"/>
		<path class="st9" d="M34.1,16.2L32.2,4.8c0-0.2-0.3-0.4-0.5-0.4c-0.1,0-0.2,0.1-0.2,0.1L19.9,16.2l6.4,3.6c0.4,0.2,0.9,0.2,1.3,0
			L34.1,16.2z"/>
		<path class="st10" d="M32.3,4.8c0-0.2-0.3-0.4-0.5-0.4c-0.1,0-0.2,0.1-0.2,0.1l-2.3,2.3l-1.8-3.5c-0.1-0.2-0.4-0.3-0.6-0.2
			c-0.1,0-0.1,0.1-0.2,0.2l-1,1.9l-2.5-4.6c-0.1-0.2-0.4-0.3-0.6-0.2c-0.1,0.1-0.2,0.2-0.2,0.3l-2.4,15.4h0l0,0l0.1,0L29.2,7
			l2.3-2.3c0.2-0.2,0.5-0.2,0.6,0c0.1,0.1,0.1,0.1,0.1,0.2l1.8,11.3l0,0L32.3,4.8z M19.9,16.2l2.4-15.3c0-0.2,0.3-0.4,0.5-0.4
			c0.1,0,0.3,0.1,0.3,0.2l2.5,4.6l1-1.9c0.1-0.2,0.4-0.3,0.6-0.2c0.1,0,0.1,0.1,0.2,0.2l1.8,3.4L19.9,16.2z"/>
		<path class="st11" d="M27.6,19.7c-0.4,0.2-0.9,0.2-1.3,0l-6.4-3.6l0,0.1l6.4,3.6c0.4,0.2,0.9,0.2,1.3,0l6.5-3.6l0-0.1L27.6,19.7z"
			/>
		
			<linearGradient id="SVGID_8_" gradientUnits="userSpaceOnUse" x1="-620.4298" y1="-1311.5009" x2="-614.8649" y2="-1317.0659" gradientTransform="matrix(2.67 0 0 -2.67 1676.0219 -3497.8298)">
			<stop  offset="0" style="stop-color:#FFFFFF;stop-opacity:0.1"/>
			<stop  offset="1" style="stop-color:#FFFFFF;stop-opacity:0"/>
		</linearGradient>
		<path class="st12" d="M32.3,4.8c0-0.2-0.3-0.4-0.5-0.4c-0.1,0-0.2,0.1-0.2,0.1l-2.3,2.3l-1.8-3.5c-0.1-0.2-0.4-0.3-0.6-0.2
			c-0.1,0-0.1,0.1-0.2,0.2l-1,1.9l-2.5-4.6c-0.1-0.2-0.4-0.3-0.6-0.2c-0.1,0.1-0.2,0.2-0.2,0.3l-2.4,15.4l6.4,3.6
			c0.4,0.2,0.9,0.2,1.3,0l6.5-3.6L32.3,4.8z"/>
	</g>
</g>
</svg>
