<?xml version="1.0" encoding="utf-8"?>
<!-- Generator: Adobe Illustrator 23.0.3, SVG Export Plug-In . SVG Version: 6.00 Build 0)  -->
<svg version="1.1" id="Layer_1" xmlns="http://www.w3.org/2000/svg" xmlns:xlink="http://www.w3.org/1999/xlink" x="0px" y="0px"
	 viewBox="0 0 75 75" style="enable-background:new 0 0 75 75;" xml:space="preserve">
<style type="text/css">
	.st0{fill:#FFFFFF;}
	.st1{fill:#282B3A;}
	.st2{fill:#48729D;}
</style>
<g>
	<g>
		<path class="st0" d="M37.5,74c-0.9,0-1.8-0.2-2.6-0.7L6.8,57.6c-1.7-0.9-2.7-2.7-2.7-4.6V22c0-1.9,1-3.7,2.7-4.6L34.9,1.7
			C35.7,1.2,36.6,1,37.5,1c0.9,0,1.8,0.2,2.6,0.7l28.1,15.7c1.7,0.9,2.7,2.7,2.7,4.6V53c0,1.9-1,3.7-2.7,4.6L40.1,73.3
			C39.3,73.8,38.4,74,37.5,74z"/>
		<g>
			<path class="st1" d="M37.5,2c0.7,0,1.4,0.2,2.1,0.5l28.1,15.7c1.3,0.7,2.2,2.2,2.2,3.7V53c0,1.5-0.8,3-2.2,3.7L39.6,72.5
				c-0.6,0.4-1.3,0.5-2.1,0.5c-0.7,0-1.4-0.2-2.1-0.5L7.3,56.7C6,56,5.1,54.6,5.1,53V22c0-1.5,0.8-3,2.2-3.7L35.4,2.5
				C36.1,2.2,36.8,2,37.5,2 M37.5,0c-1.1,0-2.1,0.3-3,0.8L6.3,16.5c-2,1.1-3.2,3.2-3.2,5.5V53c0,2.3,1.2,4.3,3.2,5.5l28.1,15.7
				c0.9,0.5,2,0.8,3,0.8s2.1-0.3,3-0.8l28.1-15.7c2-1.1,3.2-3.2,3.2-5.5V22c0-2.3-1.2-4.3-3.2-5.5L40.5,0.8C39.6,0.3,38.6,0,37.5,0
				L37.5,0z"/>
		</g>
	</g>
	<g>
		<g>
			<path class="st2" d="M13.1,27.4l22.8,12.2c1,0.5,2.2,0.5,3.1,0l22.8-12.2c2-1.3,2-4.2,0-5.4L39.1,9.8c-1-0.5-2.2-0.5-3.1,0
				L13.1,22C11.1,23.3,11.1,26.2,13.1,27.4z"/>
		</g>
		<g>
			<path class="st1" d="M61.9,34.8L58,32.7L39.1,42.8c-1,0.5-2.2,0.5-3.1,0L17,32.7l-3.9,2.1c-2,1.3-2,4.2,0,5.4l22.8,12.2
				c1,0.5,2.2,0.5,3.1,0l22.8-12.2C63.9,39,63.9,36,61.9,34.8z"/>
		</g>
		<g>
			<path class="st2" d="M61.9,47.6L58,45.5L39.1,55.6c-1,0.5-2.2,0.5-3.1,0L17,45.5l-3.9,2.1c-2,1.3-2,4.2,0,5.4l22.8,12.2
				c1,0.5,2.2,0.5,3.1,0L61.9,53C63.9,51.7,63.9,48.8,61.9,47.6z"/>
		</g>
	</g>
</g>
</svg>
