<?xml version="1.0" encoding="utf-8"?>
<!-- Generator: Adobe Illustrator 23.0.3, SVG Export Plug-In . SVG Version: 6.00 Build 0)  -->
<svg version="1.1" id="Layer_1" xmlns="http://www.w3.org/2000/svg" xmlns:xlink="http://www.w3.org/1999/xlink" x="0px" y="0px"
	 viewBox="0 0 75 75" style="enable-background:new 0 0 75 75;" xml:space="preserve">
<style type="text/css">
	.st0{fill:#48729D;}
	.st1{fill:#FFFFFF;}
	.st2{fill:#282B3A;}
</style>
<g>
	<g>
		<path class="st0" d="M68.8,34.6c-1.6,0-2.9,1.3-2.9,2.9c0,1.6,1.3,2.9,2.9,2.9s2.9-1.3,2.9-2.9C71.7,35.9,70.4,34.6,68.8,34.6z"/>
		<path class="st1" d="M6.4,34.6c-1.6,0-2.9,1.3-2.9,2.9s1.3,2.9,2.9,2.9s2.9-1.3,2.9-2.9S8,34.6,6.4,34.6z"/>
		<path class="st0" d="M27.1,34.6c-1.6,0-2.9,1.3-2.9,2.9s1.3,2.9,2.9,2.9c1.6,0,2.9-1.3,2.9-2.9S28.8,34.6,27.1,34.6z"/>
		<path class="st1" d="M47.9,34.6c-1.6,0-2.9,1.3-2.9,2.9c0,1.6,1.3,2.9,2.9,2.9s2.9-1.3,2.9-2.9C50.9,35.9,49.6,34.6,47.9,34.6z"/>
		<path class="st2" d="M68.8,31.3c-2.9,0-5.3,2-6,4.6H54c-0.7-2.6-3.2-4.6-6-4.6c-2.9,0-5.3,2-6,4.6h-8.7c-0.7-2.6-3.2-4.6-6-4.6
			c-2.9,0-5.3,2-6,4.6h-8.7c-0.7-2.6-3.2-4.6-6-4.6c-3.4,0-6.2,2.8-6.2,6.2c0,3.4,2.8,6.2,6.2,6.2c2.9,0,5.3-2,6-4.6h8.7
			c0.7,2.6,3.2,4.6,6,4.6c2.9,0,5.3-2,6-4.6h8.7c0.7,2.6,3.2,4.6,6,4.6c2.9,0,5.3-2,6-4.6h8.8c0.7,2.6,3.2,4.6,6,4.6
			c3.4,0,6.3-2.8,6.3-6.2C75,34.1,72.2,31.3,68.8,31.3z M6.4,40.4c-1.6,0-2.9-1.3-2.9-2.9s1.3-2.9,2.9-2.9s2.9,1.3,2.9,2.9
			S8,40.4,6.4,40.4z M27.1,40.4c-1.6,0-2.9-1.3-2.9-2.9s1.3-2.9,2.9-2.9c1.6,0,2.9,1.3,2.9,2.9S28.8,40.4,27.1,40.4z M47.9,40.4
			c-1.6,0-2.9-1.3-2.9-2.9c0-1.6,1.3-2.9,2.9-2.9s2.9,1.3,2.9,2.9C50.9,39.1,49.6,40.4,47.9,40.4z M68.8,40.4
			c-1.6,0-2.9-1.3-2.9-2.9c0-1.6,1.3-2.9,2.9-2.9s2.9,1.3,2.9,2.9C71.7,39.1,70.4,40.4,68.8,40.4z"/>
	</g>
	<g>
		<path class="st0" d="M6.3,9.9c1.6,0,2.9-1.3,2.9-2.9S7.9,4.1,6.3,4.1S3.3,5.3,3.3,7S4.6,9.9,6.3,9.9z"/>
		<path class="st0" d="M38,9.9c1.6,0,2.9-1.3,2.9-2.9S39.6,4.1,38,4.1c-1.6,0-2.9,1.3-2.9,2.9S36.4,9.9,38,9.9z"/>
		<path class="st1" d="M68.8,9.9c1.6,0,2.9-1.3,2.9-2.9c0-1.6-1.3-2.9-2.9-2.9S65.8,5.3,65.8,7C65.8,8.6,67.1,9.9,68.8,9.9z"/>
		<path class="st2" d="M68.8,0.7c-2.9,0-5.3,1.9-6,4.6H44c-0.7-2.6-3.2-4.6-6-4.6c-2.9,0-5.3,1.9-6,4.6H12.3c-0.7-2.6-3.2-4.6-6-4.6
			C2.8,0.7,0,3.5,0,7c0,2.9,2,5.3,4.6,6v0c0.5,0.1,1.1,0.2,1.7,0.2c0.6,0,1.1-0.1,1.7-0.2v0c2.1-0.6,3.8-2.3,4.3-4.3H32
			c0.7,2.6,3.2,4.6,6,4.6c2.9,0,5.3-2,6-4.6h18.7c0.6,2.1,2.3,3.8,4.3,4.3v0c0.5,0.1,1.1,0.2,1.7,0.2c0.6,0,1.1-0.1,1.7-0.2v0
			C73,12.2,75,9.8,75,7l0,0C75,3.5,72.2,0.7,68.8,0.7z M6.3,9.9C4.6,9.9,3.3,8.6,3.3,7s1.3-2.9,2.9-2.9S9.2,5.3,9.2,7
			S7.9,9.9,6.3,9.9z M38,9.9c-1.6,0-2.9-1.3-2.9-2.9s1.3-2.9,2.9-2.9c1.6,0,2.9,1.3,2.9,2.9S39.6,9.9,38,9.9z M68.8,9.9
			c-1.6,0-2.9-1.3-2.9-2.9c0-1.6,1.3-2.9,2.9-2.9s2.9,1.3,2.9,2.9C71.7,8.6,70.4,9.9,68.8,9.9z"/>
	</g>
	<g>
		<path class="st0" d="M6.3,70.9c1.6,0,2.9-1.3,2.9-2.9c0-1.6-1.3-2.9-2.9-2.9S3.3,66.4,3.3,68C3.3,69.6,4.6,70.9,6.3,70.9z"/>
		<path class="st1" d="M68.8,70.9c1.6,0,2.9-1.3,2.9-2.9c0-1.6-1.3-2.9-2.9-2.9s-2.9,1.3-2.9,2.9C65.8,69.6,67.1,70.9,68.8,70.9z"/>
		<path class="st2" d="M68.8,61.7c-2.9,0-5.3,1.9-6,4.6H12.3c-0.7-2.6-3.2-4.6-6-4.6C2.8,61.7,0,64.6,0,68c0,2.9,2,5.3,4.6,6v0
			c0.5,0.1,1.1,0.2,1.7,0.2c0.6,0,1.1-0.1,1.7-0.2v0c2.1-0.6,3.8-2.3,4.3-4.3h50.5c0.6,2.1,2.3,3.8,4.3,4.3v0
			c0.5,0.1,1.1,0.2,1.7,0.2c0.6,0,1.1-0.1,1.7-0.2v0c2.6-0.7,4.6-3.2,4.6-6l0,0C75,64.6,72.2,61.7,68.8,61.7z M6.3,70.9
			c-1.6,0-2.9-1.3-2.9-2.9c0-1.6,1.3-2.9,2.9-2.9s2.9,1.3,2.9,2.9C9.2,69.6,7.9,70.9,6.3,70.9z M68.8,70.9c-1.6,0-2.9-1.3-2.9-2.9
			c0-1.6,1.3-2.9,2.9-2.9s2.9,1.3,2.9,2.9C71.7,69.6,70.4,70.9,68.8,70.9z"/>
	</g>
</g>
</svg>
