<?xml version="1.0" encoding="utf-8"?>
<!-- Generator: Adobe Illustrator 23.0.3, SVG Export Plug-In . SVG Version: 6.00 Build 0)  -->
<svg version="1.1" id="Layer_1" xmlns="http://www.w3.org/2000/svg" xmlns:xlink="http://www.w3.org/1999/xlink" x="0px" y="0px"
	 viewBox="0 0 75 75" style="enable-background:new 0 0 75 75;" xml:space="preserve">
<style type="text/css">
	.st0{fill:#48729D;}
	.st1{fill:#282B3A;}
	.st2{fill:#FFFFFF;}
</style>
<g>
	<g>
		<g>
			<path class="st0" d="M8.2,74c-3.2,0-5.8-2.6-5.8-5.8V15.5c0-3.2,2.6-5.8,5.8-5.8h1.4V13c0,3.4,2.8,6.2,6.2,6.2
				c3.4,0,6.2-2.8,6.2-6.2V9.6h31V13c0,3.4,2.8,6.2,6.2,6.2s6.2-2.8,6.2-6.2V9.6h1.4c3.2,0,5.8,2.6,5.8,5.8v52.7
				c0,3.2-2.6,5.8-5.8,5.8H8.2z M10.9,25.5c-2.2,0-3.9,1.6-3.9,3.6v36.3c0,2,1.8,3.6,3.9,3.6h53.2c2.2,0,3.9-1.6,3.9-3.6l0-36.3
				c0-2-1.8-3.6-3.9-3.6H10.9z"/>
			<path class="st1" d="M66.8,10.6c2.7,0,4.8,2.2,4.8,4.8v52.7c0,2.7-2.2,4.8-4.8,4.8H8.2c-2.7,0-4.8-2.2-4.8-4.8V15.5
				c0-2.7,2.2-4.8,4.8-4.8h0.4V13c0,4,3.2,7.2,7.2,7.2c4,0,7.2-3.2,7.2-7.2v-2.3h29V13c0,4,3.2,7.2,7.2,7.2s7.2-3.2,7.2-7.2v-2.3
				H66.8 M10.9,70.1h53.2c2.7,0,4.9-2.1,4.9-4.6V29.1c0-2.6-2.2-4.6-4.9-4.6H10.9c-2.7,0-4.9,2.1-4.9,4.6v36.3
				C6,68,8.2,70.1,10.9,70.1 M66.8,8.6h-2.4V13c0,2.9-2.3,5.2-5.2,5.2c-2.9,0-5.2-2.3-5.2-5.2V8.6H21V13c0,2.9-2.3,5.2-5.2,5.2
				c-2.9,0-5.2-2.3-5.2-5.2V8.6H8.2c-3.8,0-6.8,3.1-6.8,6.8v52.7c0,3.8,3.1,6.8,6.8,6.8h58.6c3.8,0,6.8-3.1,6.8-6.8V15.5
				C73.6,11.7,70.6,8.6,66.8,8.6L66.8,8.6z M10.9,68.1c-1.6,0-2.9-1.2-2.9-2.6V29.1c0-1.5,1.3-2.6,2.9-2.6h53.2
				c1.6,0,2.9,1.2,2.9,2.6v36.3h0c0,1.4-1.3,2.6-2.9,2.6H10.9L10.9,68.1z"/>
		</g>
		<g>
			<path class="st1" d="M15.8,15.5c1.4,0,2.5-1.1,2.5-2.5V8.6V2.5c0-1.4-1.1-2.5-2.5-2.5s-2.5,1.1-2.5,2.5v6.1V13
				C13.3,14.3,14.4,15.5,15.8,15.5z"/>
		</g>
		<g>
			<path class="st1" d="M59.2,15.5c1.4,0,2.5-1.1,2.5-2.5V8.6V2.5c0-1.4-1.1-2.5-2.5-2.5c-1.4,0-2.5,1.1-2.5,2.5v6.1V13
				C56.7,14.3,57.8,15.5,59.2,15.5z"/>
		</g>
	</g>
	<g>
		<rect x="48.4" y="48.7" class="st1" width="14" height="14.3"/>
		<g>
			<rect x="13.6" y="32.2" class="st2" width="12" height="12.3"/>
			<path class="st1" d="M24.6,33.2v10.3h-10V33.2H24.6 M26.6,31.2h-14v14.3h14V31.2L26.6,31.2z"/>
		</g>
		<g>
			<rect x="31.2" y="32.2" class="st2" width="12" height="12.3"/>
			<path class="st1" d="M42.2,33.2v10.3h-10V33.2H42.2 M44.2,31.2h-14v14.3h14V31.2L44.2,31.2z"/>
		</g>
		<g>
			<rect x="13.6" y="49.7" class="st2" width="12" height="12.3"/>
			<path class="st1" d="M24.6,50.7V61h-10V50.7H24.6 M26.6,48.7h-14V63h14V48.7L26.6,48.7z"/>
		</g>
		<g>
			<rect x="31.2" y="49.7" class="st2" width="12" height="12.3"/>
			<path class="st1" d="M42.2,50.7V61h-10V50.7H42.2 M44.2,48.7h-14V63h14V48.7L44.2,48.7z"/>
		</g>
		<g>
			<rect x="49.4" y="32.2" class="st2" width="12" height="12.3"/>
			<path class="st1" d="M60.4,33.2v10.3h-10V33.2H60.4 M62.4,31.2h-14v14.3h14V31.2L62.4,31.2z"/>
		</g>
	</g>
</g>
</svg>
