<?xml version="1.0" encoding="utf-8"?>
<!-- Generator: Adobe Illustrator 23.0.3, SVG Export Plug-In . SVG Version: 6.00 Build 0)  -->
<svg version="1.1" id="Layer_1" xmlns="http://www.w3.org/2000/svg" xmlns:xlink="http://www.w3.org/1999/xlink" x="0px" y="0px"
	 viewBox="0 0 50 50" style="enable-background:new 0 0 50 50;" xml:space="preserve">
<style type="text/css">
	.st0{fill:#48729D;}
	.st1{fill:#FFFFFF;}
	.st2{fill:#282B3A;}
</style>
<g>
	<path class="st0" d="M42.9,11.9h-9.5V2.4H7.1v45.2h35.7V11.9z M19,4.8H31v2.4H19V4.8z M21.4,45.2H9.5v-2.4h11.9V45.2z M21.4,40.5
		H9.5v-2.4h11.9V40.5z M21.4,35.7H9.5v-2.4h11.9V35.7z M21.4,31H9.5v-2.4h11.9V31z M17.9,26.2c-4.6,0-8.3-3.7-8.3-8.3
		c0-4.6,3.7-8.3,8.3-8.3c4.6,0,8.3,3.7,8.3,8.3C26.2,22.5,22.5,26.2,17.9,26.2z M40.5,45.2H23.8V28.6h2.4v9l3.6-3.6l2.4,2.4l6.3-6.3
		l1.7,1.7l-8,8l-2.4-2.4L26.2,41v1.9h14.3V45.2z M40.5,21.4H28.6V19h11.9V21.4z M40.5,16.7H28.6v-2.4h11.9V16.7z"/>
	<path class="st1" d="M17.8,21.4c-2,0-3.6-1.6-3.6-3.6c0-0.5,0.1-1.1,0.4-1.5l-1.7-1.7c-0.6,1-1,2.1-1,3.3c0,3.3,2.7,5.9,6,5.9
		c2.8,0,5.3-2,5.8-4.8h-2.5C20.7,20.5,19.4,21.4,17.8,21.4z"/>
	<path class="st1" d="M14.6,12.9l1.7,1.7c0.5-0.2,1-0.4,1.5-0.4c1.5,0,2.8,1,3.4,2.4h2.5c-0.2-0.8-0.4-1.5-0.9-2.1
		C21,11.8,17.3,11.1,14.6,12.9z"/>
	<circle class="st1" cx="17.9" cy="17.9" r="1.2"/>
	<polygon class="st0" points="35.7,4.1 35.7,9.5 41.2,9.5 	"/>
	<path class="st2" d="M4.8,14.3v8.5V50h40.5V38.4V14.3v-2.4v-1.7L35,0H4.8v11.9V14.3z M35.7,4.1l5.5,5.5h-5.5V4.1z M7.1,2.4h26.2
		v9.5h9.5v35.7H7.1V2.4z"/>
	<path class="st2" d="M17.9,9.5c-4.6,0-8.3,3.7-8.3,8.3c0,4.6,3.7,8.3,8.3,8.3s8.3-3.7,8.3-8.3C26.2,13.3,22.5,9.5,17.9,9.5z
		 M17.9,23.8c-3.3,0-5.9-2.7-6-5.9c0-1.2,0.3-2.3,1-3.3l1.7,1.7c-0.2,0.5-0.4,1-0.4,1.5c0,2,1.6,3.6,3.6,3.6c1.5,0,2.9-1,3.4-2.4
		h2.5C23.1,21.8,20.7,23.8,17.9,23.8z M16.7,17.9c0-0.7,0.5-1.2,1.2-1.2s1.2,0.5,1.2,1.2c0,0.7-0.5,1.2-1.2,1.2S16.7,18.5,16.7,17.9
		z M21.2,16.7c-0.5-1.4-1.8-2.4-3.4-2.4c-0.5,0-1.1,0.1-1.5,0.4l-1.7-1.7c2.7-1.8,6.4-1.1,8.2,1.7c0.4,0.6,0.7,1.4,0.9,2.1H21.2z"/>
	<rect x="28.6" y="14.3" class="st2" width="11.9" height="2.4"/>
	<rect x="28.6" y="16.7" class="st1" width="11.9" height="2.4"/>
	<rect x="28.6" y="19" class="st2" width="11.9" height="2.4"/>
	<rect x="19" y="4.8" class="st2" width="11.9" height="2.4"/>
	<rect x="9.5" y="28.6" class="st2" width="11.9" height="2.4"/>
	<rect x="9.5" y="31" class="st1" width="11.9" height="2.4"/>
	<rect x="9.5" y="33.3" class="st2" width="11.9" height="2.4"/>
	<rect x="9.5" y="35.7" class="st1" width="11.9" height="2.4"/>
	<rect x="9.5" y="38.1" class="st2" width="11.9" height="2.4"/>
	<rect x="9.5" y="40.5" class="st1" width="11.9" height="2.4"/>
	<rect x="26.2" y="28.6" class="st1" width="14.1" height="14.1"/>
	<polygon class="st2" points="26.2,41 29.8,37.4 32.1,39.8 40.1,31.8 38.4,30.1 32.1,36.4 29.8,34 26.2,37.6 26.2,28.6 23.8,28.6 
		23.8,45.2 40.5,45.2 40.5,42.9 26.2,42.9 	"/>
	<rect x="9.5" y="42.9" class="st2" width="11.9" height="2.4"/>
</g>
</svg>
