<?xml version="1.0" encoding="utf-8"?>
<!-- Generator: Adobe Illustrator 23.0.3, SVG Export Plug-In . SVG Version: 6.00 Build 0)  -->
<svg version="1.1" id="Layer_1" xmlns="http://www.w3.org/2000/svg" xmlns:xlink="http://www.w3.org/1999/xlink" x="0px" y="0px"
	 viewBox="0 0 75 56.4" style="enable-background:new 0 0 75 56.4;" xml:space="preserve">
<style type="text/css">
	.st0{fill:#FFFFFF;}
	.st1{fill:#48729D;}
	.st2{fill:#282B3A;}
</style>
<g>
	<path class="st0" d="M52.2,5.4c-3.1-0.2-6.3,0.4-9.3,1.8C35,10.9,30.8,19.5,32.6,28c2.4,0.9,4.5,2.3,6.1,4c2.6,2.7,3.9,5.9,4.1,8.9
		c7.6,3.7,16.8,1.8,22.4-4.7c5.7-6.7,6-16.6,0.6-23.6C62.4,8.3,57.4,5.7,52.2,5.4z M64.3,26.8H48.2v-5.4V10.7h5.4v10.7h10.7V26.8z"
		/>
	<polygon class="st1" points="53.6,10.7 48.2,10.7 48.2,21.4 48.2,26.8 64.3,26.8 64.3,21.4 53.6,21.4 	"/>
	<path class="st2" d="M51.5,0c-1,0-2,0-3,0.1c-2.7,0.3-5.4,1-8,2.2C31.1,6.8,25.8,16.8,27,26.9c-0.2,0-0.4-0.1-0.6-0.1h-5.6H10.1
		l10.1-10.4l-3.8-3.7L0,29.5l16.4,16.8l3.8-3.7L10.1,32.2h10.7h5.6c3.8,0,6.5,1.5,8.4,3.5c1.9,2,2.7,4.6,2.7,6v14.7h5.4v-9.6
		c9.3,3.3,19.8,0.6,26.4-7.1c7.4-8.6,7.7-21.3,0.8-30.3C65.5,3.5,58.6,0.2,51.5,0z M65.2,36.3c-5.6,6.5-14.7,8.4-22.4,4.7
		c-0.2-3-1.6-6.2-4.1-8.9c-1.6-1.7-3.6-3.1-6.1-4C30.8,19.5,35,10.9,42.8,7.2c3-1.4,6.2-2,9.3-1.8c5.2,0.4,10.2,2.9,13.6,7.3
		C71.2,19.7,70.9,29.5,65.2,36.3z"/>
</g>
</svg>
