<?xml version="1.0" encoding="utf-8"?>
<!-- Generator: Adobe Illustrator 23.0.3, SVG Export Plug-In . SVG Version: 6.00 Build 0)  -->
<svg version="1.1" id="Layer_1" xmlns="http://www.w3.org/2000/svg" xmlns:xlink="http://www.w3.org/1999/xlink" x="0px" y="0px"
	 viewBox="0 0 50 50" style="enable-background:new 0 0 50 50;" xml:space="preserve">
<style type="text/css">
	.st0{fill:#282B3A;}
	.st1{fill:#48729D;}
	.st2{fill:#FFFFFF;}
</style>
<rect x="0.1" y="18.6" class="st0" width="49.7" height="31.4"/>
<polygon class="st1" points="49.9,17.1 0.1,17.1 7.7,5.2 42.3,5.2 "/>
<g>
	<path class="st2" d="M16.6,36.8c0,1.2-0.4,2-1.2,2.6c-0.7,0.7-1.9,1-3.3,1c-1.3,0-2.5-0.3-3.5-0.7v-2.3c0.9,0.4,1.4,0.6,2,0.7
		c0.6,0.1,1,0.3,1.6,0.3c0.6,0,1-0.1,1.3-0.3c0.3-0.1,0.4-0.6,0.4-1c0-0.3,0-0.4-0.1-0.6s-0.3-0.4-0.6-0.6c-0.3-0.1-0.7-0.4-1.6-0.9
		c-0.6-0.4-1.2-0.7-1.6-1s-0.7-0.7-0.9-1.2c-0.3-0.4-0.3-0.9-0.3-1.4c0-1,0.4-1.9,1.2-2.5c0.7-0.6,1.7-0.9,3-0.9
		c0.6,0,1.2,0.1,1.7,0.3c0.6,0.1,1.2,0.3,1.7,0.6l-0.9,2c-0.6-0.3-1.2-0.4-1.6-0.6c-0.4-0.1-0.9-0.1-1.3-0.1c-0.4,0-0.9,0.1-1.2,0.3
		c-0.3,0.3-0.4,0.6-0.4,0.9c0,0.3,0,0.4,0.1,0.6c0.1,0.1,0.3,0.3,0.4,0.4c0.3,0.1,0.7,0.4,1.6,0.9c1.2,0.6,1.9,1,2.3,1.6
		C16.5,35.4,16.6,36.1,16.6,36.8z"/>
	<path class="st2" d="M28.9,34.1c0,2-0.6,3.5-1.7,4.6c-1.2,1-2.7,1.6-4.9,1.6h-3.5V28.1h3.8c2,0,3.5,0.6,4.6,1.6
		C28.3,30.7,28.9,32.2,28.9,34.1z M26.2,34.1c0-2.6-1.2-3.9-3.5-3.9h-1.3V38h1.2C25,38.1,26.2,36.8,26.2,34.1z"/>
	<path class="st2" d="M41.2,40.3h-2.9l-3.2-5.1l-1,0.7v4.3h-2.6V28.1h2.6v5.5l1-1.4l3.3-4h2.9l-4.2,5.4L41.2,40.3z"/>
</g>
</svg>
