<?xml version="1.0" encoding="utf-8"?>
<!-- Generator: Adobe Illustrator 23.0.3, SVG Export Plug-In . SVG Version: 6.00 Build 0)  -->
<svg version="1.1" id="Layer_1" xmlns="http://www.w3.org/2000/svg" xmlns:xlink="http://www.w3.org/1999/xlink" x="0px" y="0px"
	 viewBox="0 0 50 50" style="enable-background:new 0 0 50 50;" xml:space="preserve">
<style type="text/css">
	.st0{fill:url(#SVGID_1_);}
	.st1{fill:#0CB0F2;}
	.st2{fill:url(#SVGID_2_);}
	.st3{fill:url(#SVGID_3_);}
	.st4{fill:url(#SVGID_4_);}
	.st5{fill:#FFFFFF;}
</style>
<g>
	<g>
		
			<linearGradient id="SVGID_1_" gradientUnits="userSpaceOnUse" x1="26.0614" y1="-612.4164" x2="10.3093" y2="-592.9537" gradientTransform="matrix(1 0 0 -1 0 -582.01)">
			<stop  offset="6.000000e-02" style="stop-color:#0CB0F2"/>
			<stop  offset="0.21" style="stop-color:#10ADF2"/>
			<stop  offset="0.37" style="stop-color:#1EA5F3"/>
			<stop  offset="0.54" style="stop-color:#3497F5"/>
			<stop  offset="0.71" style="stop-color:#5283F7"/>
			<stop  offset="0.88" style="stop-color:#796AF9"/>
			<stop  offset="0.97" style="stop-color:#905CFB"/>
		</linearGradient>
		<path class="st0" d="M17.9,1.1c-0.7-0.4-1.4-0.6-2.1-0.8C5.7-2-1.7,7.8,2.4,16.8c0,0,7.3,16,8.5,18.5c0,0,13.4-6.1,16.1-12.4
			c2.5-5.9-1.7-16.6-2.5-18.2L17.9,1.1z"/>
		<path class="st1" d="M48.1,18.9c-0.9-1.3-2-2.4-3.4-3.1c0,0-9.4-5.2-9.4-5.2S3.2,29.3,3.1,29.3C-0.5,33.5-1.3,40,2.8,45.7
			c1.2,1.7,3,3,5.1,3.6c3.8,1.2,7.1,0.7,10-0.8c0.1,0,26.4-14,26.5-14.1C49.6,31.8,51.9,24.9,48.1,18.9z"/>
		
			<linearGradient id="SVGID_2_" gradientUnits="userSpaceOnUse" x1="8.162" y1="-629.4071" x2="16.0556" y2="-611.1514" gradientTransform="matrix(1 0 0 -1 0 -582.01)">
			<stop  offset="6.000000e-02" style="stop-color:#0CB0F2"/>
			<stop  offset="0.2" style="stop-color:#0DB2EE"/>
			<stop  offset="0.35" style="stop-color:#12B7E0"/>
			<stop  offset="0.51" style="stop-color:#19C0CA"/>
			<stop  offset="0.68" style="stop-color:#23CCAC"/>
			<stop  offset="0.85" style="stop-color:#30DC85"/>
			<stop  offset="0.97" style="stop-color:#3BEA62"/>
		</linearGradient>
		<path class="st2" d="M15,14.8L6.4,25.4c0,0-3.3,3.9-3.3,4C-0.6,33.5-1.4,40,2.8,45.7c1.2,1.7,3,3,5.1,3.6c3.8,1.2,7.2,0.7,10-0.8
			c0,0,0.7-0.4,1.8-1c3.6-1.9,8.5-14.9,11.8-24.9L15,14.8z"/>
		
			<linearGradient id="SVGID_3_" gradientUnits="userSpaceOnUse" x1="18.9844" y1="-605.4155" x2="34.4124" y2="-585.6247" gradientTransform="matrix(1 0 0 -1 0 -582.01)">
			<stop  offset="6.000000e-02" style="stop-color:#0CB0F2"/>
			<stop  offset="0.2" style="stop-color:#0DB2EE"/>
			<stop  offset="0.35" style="stop-color:#12B7E0"/>
			<stop  offset="0.51" style="stop-color:#19C0CA"/>
			<stop  offset="0.68" style="stop-color:#23CCAC"/>
			<stop  offset="0.85" style="stop-color:#30DC85"/>
			<stop  offset="0.97" style="stop-color:#3BEA62"/>
		</linearGradient>
		<path class="st3" d="M28.5,25l6.8-14.4c0,0,0,0,0,0c0-0.1,0.6-1.5,0.6-1.6c0.8-2.1,0.5-4.4-0.7-6.2c-0.8-1.2-2-2.1-3.5-2.5
			c-2.5-0.7-5.1,0.2-6.7,2.2c0,0-1.5,1.8-1.5,1.8L12.7,17.7L28.5,25z"/>
	</g>
	<g>
		
			<linearGradient id="SVGID_4_" gradientUnits="userSpaceOnUse" x1="24.9919" y1="-591.7493" x2="24.9919" y2="-622.9959" gradientTransform="matrix(1 0 0 -1 0 -582.01)">
			<stop  offset="0" style="stop-color:#000000"/>
			<stop  offset="1" style="stop-color:#000000"/>
		</linearGradient>
		<rect x="9.4" y="9.3" class="st4" width="31.2" height="31.2"/>
		<polygon class="st5" points="16.7,16.3 12.5,16.3 12.5,13.5 23.9,13.5 23.9,16.3 19.8,16.3 19.8,27 16.7,27 		"/>
		<path class="st5" d="M23.9,20.3L23.9,20.3c0-3.9,2.9-7.1,7.1-7.1c2.5,0,4.1,0.9,5.4,2.1l-1.9,2.2C33.4,16.6,32.3,16,31,16
			c-2.3,0-3.9,1.9-3.9,4.2v0c0,2.3,1.6,4.3,3.9,4.3c1.6,0,2.5-0.6,3.6-1.6l1.9,1.9c-1.4,1.5-2.9,2.4-5.5,2.4c-3.7,0.1-6.9-2.9-7-6.6
			C23.9,20.5,23.9,20.4,23.9,20.3"/>
		<rect x="12.5" y="34.3" class="st5" width="11.4" height="2.1"/>
	</g>
</g>
</svg>
