<?xml version="1.0" encoding="utf-8"?>
<!-- Generator: Adobe Illustrator 23.0.3, SVG Export Plug-In . SVG Version: 6.00 Build 0)  -->
<svg version="1.1" id="Layer_1" xmlns="http://www.w3.org/2000/svg" xmlns:xlink="http://www.w3.org/1999/xlink" x="0px" y="0px"
	 viewBox="0 0 50 50" style="enable-background:new 0 0 50 50;" xml:space="preserve">
<style type="text/css">
	.st0{fill:#282B3A;}
	.st1{fill:#B8B9C1;}
	.st2{fill:#8689A1;}
</style>
<g>
	<path class="st0" d="M45.8,11L27,0.5c-1.3-0.7-2.8-0.7-4.1,0L4.2,11c-1.3,0.7-2.1,2.1-2.1,3.6v20.7c0,1.5,0.8,2.9,2.1,3.6L23,49.5
		c1.3,0.7,2.8,0.7,4.1,0L45.8,39c1.3-0.7,2.1-2.1,2.1-3.6V14.6C47.9,13.1,47.1,11.7,45.8,11z"/>
	<path class="st1" d="M35.4,20.9v8.7v1.2l-8.8,4.9v7l14-7.8c0.7-0.4,1.1-1.1,1.1-1.8V17.3L35.4,20.9z"/>
	<path class="st2" d="M9.4,15.1c-0.7,0.4-1.1,1.1-1.1,1.8v15.8l6.2-3.6v-8.7v-1.2l8.8-4.9v-7L9.4,15.1z"/>
</g>
</svg>
