<?xml version="1.0" encoding="utf-8"?>
<!-- Generator: Adobe Illustrator 23.0.3, SVG Export Plug-In . SVG Version: 6.00 Build 0)  -->
<svg version="1.1" id="Layer_1" xmlns="http://www.w3.org/2000/svg" xmlns:xlink="http://www.w3.org/1999/xlink" x="0px" y="0px"
	 viewBox="0 0 75 75" style="enable-background:new 0 0 75 75;" xml:space="preserve">
<style type="text/css">
	.st0{fill:#282B3A;}
	.st1{fill:#48729D;}
</style>
<g>
	<g>
		<g>
			<g>
				<g>
					<circle class="st0" cx="33.1" cy="31" r="5"/>
					<path class="st0" d="M24.3,40.5c0.5-1.8,1.7-3.4,3.1-4.6c0.4-0.3,0.7-0.5,1.2-0.8c1.1,1.2,2.7,1.9,4.5,1.9
						c1.7,0,3.3-0.7,4.5-1.9c2.8,1.6,4.7,4.5,4.7,8H24C24,42.2,24.1,41.3,24.3,40.5z"/>
					
						<ellipse transform="matrix(0.7071 -0.7071 0.7071 0.7071 -9.1329 40.1889)" class="st0" cx="43.9" cy="31.1" rx="3.8" ry="3.8"/>
					<path class="st0" d="M42.6,40.4H51c0-2.6-1.4-4.9-3.6-6.1c-0.9,0.9-2.1,1.4-3.4,1.4c-1.3,0-2.6-0.6-3.4-1.4
						c-0.3,0.2-0.6,0.4-0.9,0.6c-0.2,0.1-0.3,0.3-0.5,0.4C40.9,36.6,42.1,38.4,42.6,40.4z"/>
				</g>
			</g>
		</g>
		<g>
			<g>
				<path class="st1" d="M37.5,74c-0.2,0-0.3,0-0.3,0c-9.7-3.7-18.6-10.6-25.1-19.5C8.8,50,7,44.9,7,39.4c-0.1-5.3,0-11.1,0-16.8
					c0-3.5,0-6.9,0-10.2c0-1.3,0.3-1.3,0.8-1.3c10.5-0.5,19.6-3.6,27.9-9.3C36.4,1.2,37,1,37.5,1c0.5,0,1.1,0.2,1.9,0.8
					c8.3,5.7,17.4,8.8,27.8,9.3c0.6,0,0.8,0,0.8,1.3c0,3.3,0,6.7,0,10.1c0,5.7,0,11.5,0,16.9C68,44.9,66.2,50,62.9,54.5
					C56.3,63.3,47.4,70.3,37.8,74C37.8,74,37.7,74,37.5,74C37.6,74,37.5,74,37.5,74z M37,8.1c-7.1,4.5-14.7,7.3-23.2,8.4L13,16.6
					l0,5.9c0,5.4,0,11.4,0,16.8c0,4.3,1.3,8.1,3.9,11.6c5.3,7.2,12.5,13,20.2,16.5l0.4,0.2l0.4-0.2c7.7-3.5,14.8-9.3,20.1-16.5
					c2.6-3.5,3.9-7.3,3.9-11.6c0.1-5.3,0-11,0-16.6l0-6l-0.9-0.1c-8.4-1.2-16-3.9-23.1-8.4l-0.5-0.3L37,8.1z"/>
			</g>
			<g>
				<path class="st0" d="M37.5,0v2c0.3,0,0.7,0.2,1.3,0.6c8.4,5.8,17.6,8.9,28.2,9.5c0,0.1,0,0.2,0,0.3c0,3.2,0,6.7,0,10.1
					c0,5.7,0,11.5,0,16.9c-0.1,5.3-1.7,10.2-4.9,14.5C55.7,62.6,47,69.3,37.6,73c0,0,0,0,0,0l-0.1,0C28,69.3,19.3,62.5,12.9,53.9
					C9.7,49.5,8,44.7,8,39.4c-0.1-5.3,0-11.1,0-16.7c0-3.5,0-6.9,0-10.2c0-0.1,0-0.2,0-0.3c10.6-0.6,19.9-3.7,28.3-9.5
					c0.6-0.4,1-0.6,1.3-0.6L37.5,0 M37.5,68.7l0.8-0.4c7.8-3.5,15.1-9.5,20.5-16.8c2.7-3.7,4.1-7.7,4.1-12.2c0.1-5.3,0-11.1,0-16.6
					l0-0.2l0-0.1c0-1.6,0-3.3,0-4.9v-1.7l-1.7-0.2c-8.3-1.2-15.7-3.9-22.7-8.3l-1.1-0.7l-1.1,0.7c-7,4.4-14.4,7.1-22.8,8.3L12,15.8
					l0,1.7l0,5c0,5.3,0,11.3,0,16.8c0,4.5,1.4,8.5,4.1,12.2c5.4,7.3,12.7,13.3,20.6,16.8L37.5,68.7 M37.5,0C37.5,0,37.5,0,37.5,0
					C37.5,0,37.5,0,37.5,0c-0.8,0-1.6,0.3-2.5,1c-8.2,5.7-17.1,8.6-27.3,9.1c-1.5,0.1-1.8,1-1.8,2.3c0,8.6,0,18.4,0,27
					c0.1,5.8,1.9,11,5.3,15.7c6.5,8.8,15.5,16,25.5,19.8C37,75,37.2,75,37.5,75c0,0,0.1,0,0.1,0c0,0,0,0,0,0c0.1,0,0.5,0,0.6-0.1
					c10-3.9,19-11,25.5-19.8c3.4-4.7,5.3-9.9,5.3-15.7c0.1-8.6,0-18.4,0-27c0-1.3-0.3-2.2-1.8-2.3C57.1,9.5,48.2,6.6,40,1
					C39,0.3,38.3,0,37.5,0L37.5,0z M37.5,66.5c-7.6-3.4-14.5-9.1-19.8-16.2c-2.5-3.4-3.7-7-3.8-11c-0.1-5.3,0-11.1,0-16.7
					c0-1.7,0-3.4,0-5c8.6-1.2,16.4-4,23.6-8.6c7.2,4.6,15,7.4,23.5,8.6c0,1.6,0,3.3,0,4.9c0,5.7,0,11.5,0,16.8c0,4.1-1.3,7.7-3.8,11
					C52,57.4,45.1,63.1,37.5,66.5L37.5,66.5z"/>
			</g>
		</g>
	</g>
</g>
</svg>
