<?xml version="1.0" encoding="utf-8"?>
<!-- Generator: Adobe Illustrator 23.0.3, SVG Export Plug-In . SVG Version: 6.00 Build 0)  -->
<svg version="1.1" id="Layer_1" xmlns="http://www.w3.org/2000/svg" xmlns:xlink="http://www.w3.org/1999/xlink" x="0px" y="0px"
	 viewBox="0 0 50 50" style="enable-background:new 0 0 50 50;" xml:space="preserve">
<style type="text/css">
	.st0{fill:url(#SVGID_1_);}
	.st1{fill:#FCFCFC;}
</style>
<linearGradient id="SVGID_1_" gradientUnits="userSpaceOnUse" x1="4.2232" y1="599.6176" x2="45.1164" y2="570.847" gradientTransform="matrix(1 0 0 1 0 -560)">
	<stop  offset="1.385225e-07" style="stop-color:#282B3A"/>
	<stop  offset="1" style="stop-color:#48729D"/>
</linearGradient>
<path class="st0" d="M45.8,50H4.2C1.9,50,0,48.1,0,45.8V4.2C0,1.9,1.9,0,4.2,0h41.6C48.1,0,50,1.9,50,4.2v41.6
	C50,48.1,48.1,50,45.8,50z"/>
<g>
	<path class="st1" d="M35.9,26.3c0-0.2,0-0.4,0-0.5c0-3.4-1.5-6.5-4.2-8.6c-0.5-0.4-0.6-1.1-0.2-1.6c0.4-0.5,1.1-0.6,1.6-0.2
		c3.2,2.5,5.1,6.3,5.1,10.4c0,0.2,0,0.4,0,0.6c0,0.1,0,0.1,0,0.2c0,0.1,0,0.3,0,0.4c0,0.1,0,0.2,0,0.2c0,0.1,0,0.2,0,0.4
		c1.4,0.9,2.3,2.4,2.3,4.2c0,2.7-2.2,5-5,5c-0.6,0-1.2-0.5-1.2-1.2s0.5-1.2,1.2-1.2c1.5,0,2.7-1.2,2.7-2.7c0-1.5-1.2-2.7-2.7-2.7
		s-2.7,1.2-2.7,2.7c0,0.6-0.5,1.2-1.2,1.2c-0.6,0-1.2-0.5-1.2-1.2c0-2.7,2.2-5,5-5c0.1,0,0.3,0,0.4,0c0,0,0,0,0-0.1
		c0-0.1,0-0.2,0-0.4C35.9,26.5,35.9,26.4,35.9,26.3z M23.4,11.3c0.6-0.4,1.3-0.5,2-0.3c0.7,0.2,1.3,0.6,1.6,1.2
		c0.3,0.6,1.1,0.7,1.6,0.4c0.6-0.3,0.7-1.1,0.4-1.6c-0.7-1.2-1.8-1.9-3.1-2.3c-1.3-0.3-2.6-0.1-3.7,0.6c-1.5,0.9-2.4,2.5-2.4,4.2
		c-0.6,0.2-1.1,0.5-1.6,0.9c-3.5,2.1-5.8,5.7-6.3,9.7c-0.1,0.6,0.4,1.2,1,1.3c0,0,0.1,0,0.1,0c0.6,0,1.1-0.4,1.2-1
		c0.4-3.4,2.3-6.3,5.2-8c0.3-0.2,0.7-0.4,1-0.5c0.1,0.1,0.1,0.2,0.2,0.4c0.7,1.2,1.8,1.9,3.1,2.3c0.4,0.1,0.8,0.1,1.2,0.1
		c0.9,0,1.8-0.2,2.6-0.7c0.6-0.3,0.7-1.1,0.4-1.6c-0.3-0.6-1.1-0.7-1.6-0.4c-0.6,0.4-1.3,0.5-2,0.3c-0.7-0.2-1.3-0.6-1.6-1.2
		C21.8,13.7,22.2,12.1,23.4,11.3z M10.2,29.5c-0.7,1.2-0.8,2.5-0.5,3.8c0.4,1.3,1.2,2.3,2.4,3c0.8,0.4,1.6,0.6,2.4,0.6
		s1.6-0.2,2.4-0.6c0.1,0.1,0.2,0.1,0.3,0.2c0.1,0,0.1,0.1,0.2,0.1c0.1,0.1,0.3,0.2,0.4,0.3c0.1,0,0.1,0.1,0.2,0.1
		c0.2,0.1,0.4,0.2,0.6,0.3c2,1.1,4.2,1.7,6.5,1.7c1.7,0,3.5-0.3,5.1-1c0.6-0.2,0.9-0.9,0.6-1.5s-0.9-0.9-1.5-0.6
		c-3.2,1.3-6.7,1.1-9.7-0.6c-0.3-0.1-0.5-0.3-0.7-0.5c0,0-0.1-0.1-0.1-0.1c0,0,0,0-0.1-0.1c0.1-0.1,0.2-0.2,0.2-0.4
		c0.7-1.2,0.8-2.5,0.5-3.8c-0.4-1.3-1.2-2.3-2.4-3c-0.6-0.3-1.2-0.1-1.6,0.4c-0.3,0.6-0.1,1.2,0.4,1.6c0.6,0.4,1.1,0.9,1.2,1.6
		c0.2,0.7,0.1,1.4-0.2,2c-0.7,1.3-2.3,1.7-3.6,1c-0.6-0.4-1.1-0.9-1.2-1.6c-0.2-0.7-0.1-1.4,0.2-2c0.3-0.6,0.1-1.2-0.4-1.6
		C11.2,28.7,10.5,28.9,10.2,29.5z"/>
</g>
</svg>
