<svg version="1.1" viewBox="0 0 100 100" xmlns="http://www.w3.org/2000/svg" xmlns:xlink="http://www.w3.org/1999/xlink" id="Layer_1" overflow="hidden"><g><g><path d=" M 11.7 68.5 L 11.7 68.5 C 11.7 68.5 11.7 68.5 11.7 68.5 L 14.4 57.6 C 14.4 57.6 14.4 57.6 14.5 57.5 C 14.5 57.5 14.6 57.5 14.6 57.5 L 25.3 60.7 C 25.4 60.7 25.4 60.9 25.4 60.9 C 25.4 61 25.4 61 25.3 61 L 23 62.4 L 22.1 62.9 L 22.6 63.8 L 28.8 74.7 L 21.8 78.7 L 15.6 67.8 L 15.1 66.9 L 14.2 67.4 L 11.9 68.7 C 11.9 68.7 11.8 68.7 11.8 68.7 C 11.8 68.7 11.7 68.6 11.7 68.5 M 10.7 68.5 C 10.7 69.3 11.6 70 12.4 69.5 L 14.7 68.2 L 21.4 80 L 30.1 75 L 23.4 63.2 L 25.7 61.9 C 26.1 61.7 26.3 61.3 26.3 60.9 C 26.3 60.4 26 59.9 25.5 59.7 L 14.8 56.5 C 14.2 56.3 13.5 56.7 13.4 57.3 L 10.7 68.2 C 10.7 68.4 10.7 68.5 10.7 68.5 L 10.7 68.5 Z" fill="#282B3A"/></g><g><path d=" M 71.1 75.3 L 77.5 64.6 L 78 63.7 L 77.1 63.2 L 74.8 61.8 C 74.8 61.8 74.7 61.8 74.7 61.7 C 74.7 61.7 74.7 61.6 74.8 61.5 L 85.6 58.5 C 85.6 58.5 85.6 58.5 85.7 58.5 C 85.7 58.5 85.8 58.5 85.8 58.6 L 88.2 69.5 C 88.2 69.5 88.2 69.5 88.2 69.5 C 88.2 69.6 88.1 69.6 88.1 69.6 C 88 69.6 88 69.6 88 69.6 L 85.7 68.2 L 84.8 67.7 L 84.3 68.6 L 77.9 79.3 L 71.1 75.3 M 69.7 75.7 L 78.3 80.9 L 85.3 69.3 L 87.6 70.7 C 88.4 71.2 89.4 70.5 89.4 69.7 C 89.4 69.6 89.4 69.5 89.4 69.4 L 87 58.5 C 86.9 57.9 86.2 57.5 85.6 57.6 L 74.8 60.6 C 74.2 60.8 73.9 61.3 73.9 61.8 C 73.9 62.2 74.1 62.6 74.4 62.8 L 76.7 64.2 L 69.7 75.7 L 69.7 75.7 Z" fill="#282B3A"/></g><g><path d=" M 35.8 77.9 C 35.8 77.1 35.4 76.4 34.7 75.9 L 34.6 75.8 L 29.4 73.2 C 28.9 72.9 28.3 72.7 27.7 72.7 C 27.1 72.7 26.5 72.9 26 73.2 L 20.8 75.8 L 20.7 75.9 C 20 76.4 19.7 77.1 19.7 77.9 L 19.7 84.4 C 19.7 85.2 20.1 85.9 20.7 86.4 L 20.8 86.5 L 26 89.1 C 26.5 89.4 27.1 89.6 27.7 89.6 C 28.3 89.6 28.9 89.4 29.4 89.1 L 34.6 86.5 L 34.7 86.4 C 35.4 85.9 35.7 85.2 35.7 84.4 L 35.8 77.9 Z" stroke="#282B3A" stroke-miterlimit="10" fill="#FFFFFF"/><g><path d=" M 33.6 77.3 L 28.5 74.7 C 28.1 74.4 27.3 74.4 26.9 74.7 L 21.8 77.3 C 21.4 77.6 21.4 78.2 21.8 78.5 L 26.9 81.1 C 27.3 81.4 28.1 81.4 28.5 81.1 L 33.6 78.5 C 34.1 78.2 34.1 77.7 33.6 77.3 Z" fill="#282B3A"/><path d=" M 27.7 82.1 C 27.2 82.1 26.7 82 26.3 81.7 L 23 79.9 L 21.8 80.5 C 21.4 80.8 21.4 81.4 21.8 81.7 L 26.9 84.3 C 27.3 84.6 28.1 84.6 28.5 84.3 L 33.6 81.7 C 34 81.4 34 80.8 33.6 80.5 L 32.4 79.9 L 29 81.6 C 28.7 81.9 28.2 82.1 27.7 82.1 Z" fill="#282B3A"/><path d=" M 27.7 85.3 C 27.2 85.3 26.7 85.2 26.3 84.9 L 23 83.2 L 21.8 83.8 C 21.4 84.1 21.4 84.7 21.8 85 L 26.9 87.6 C 27.3 87.9 28.1 87.9 28.5 87.6 L 33.6 85 C 34 84.7 34 84.1 33.6 83.8 L 32.4 83.2 L 29 84.9 C 28.7 85.2 28.2 85.3 27.7 85.3 Z" fill="#282B3A"/></g></g><g><path d=" M 80.2 77.9 C 80.2 77.1 79.8 76.4 79.1 75.9 L 79 75.8 L 73.8 73.2 C 73.3 72.9 72.7 72.7 72.1 72.7 C 71.5 72.7 70.9 72.9 70.4 73.2 L 65.2 75.8 L 65.1 75.9 C 64.4 76.4 64.1 77.1 64.1 77.9 L 64.1 84.4 C 64.1 85.2 64.5 85.9 65.1 86.4 L 65.2 86.5 L 70.4 89.1 C 70.9 89.4 71.5 89.6 72.1 89.6 C 72.7 89.6 73.3 89.4 73.8 89.1 L 79 86.5 L 79.1 86.4 C 79.8 85.9 80.1 85.2 80.1 84.4 L 80.2 77.9 Z" stroke="#282B3A" stroke-miterlimit="10" fill="#FFFFFF"/><g><path d=" M 78.1 77.3 L 73 74.7 C 72.6 74.4 71.8 74.4 71.4 74.7 L 66.3 77.3 C 65.9 77.6 65.9 78.2 66.3 78.5 L 71.4 81.1 C 71.8 81.4 72.6 81.4 73 81.1 L 78.1 78.5 C 78.5 78.2 78.5 77.7 78.1 77.3 Z" fill="#282B3A"/><path d=" M 72.1 82.1 C 71.6 82.1 71.1 82 70.7 81.7 L 67.3 80 L 66.1 80.6 C 65.7 80.9 65.7 81.5 66.1 81.8 L 71.2 84.4 C 71.6 84.7 72.4 84.7 72.8 84.4 L 77.9 81.8 C 78.3 81.5 78.3 80.9 77.9 80.6 L 76.7 80 L 73.3 81.7 C 73.1 81.9 72.6 82.1 72.1 82.1 Z" fill="#282B3A"/><path d=" M 72.1 85.3 C 71.6 85.3 71.1 85.2 70.7 84.9 L 67.3 83.2 L 66.1 83.8 C 65.7 84.1 65.7 84.7 66.1 85 L 71.2 87.6 C 71.6 87.9 72.4 87.9 72.8 87.6 L 77.9 85 C 78.3 84.7 78.3 84.1 77.9 83.8 L 76.7 83.2 L 73.3 84.9 C 73.1 85.2 72.6 85.3 72.1 85.3 Z" fill="#282B3A"/></g></g><path d=" M 41.2 52.3 L 41.2 52.3 C 41.2 52.2 41.2 52.2 41.3 52.1 L 49.8 43.1 C 49.8 43.1 49.9 43 50 43 C 50 43 50.1 43 50.2 43.1 L 58.8 52.1 C 58.8 52.1 58.9 52.2 58.9 52.3 C 58.9 52.4 58.8 52.6 58.6 52.6 L 55.6 52.6 L 54.6 52.6 L 54.6 53.6 L 54.6 90.1 L 45.4 90.1 L 45.4 53.6 L 45.4 52.6 L 44.4 52.6 L 41.5 52.6 C 41.5 52.6 41.4 52.6 41.3 52.5 C 41.2 52.5 41.2 52.4 41.2 52.3 M 40.2 52.3 C 40.2 53 40.7 53.6 41.5 53.6 L 44.4 53.6 L 44.4 91.1 L 55.6 91.1 L 55.6 53.6 L 58.6 53.6 C 59.4 53.6 59.9 52.9 59.9 52.3 C 59.9 52 59.8 51.7 59.5 51.4 L 51 42.4 C 50.5 41.9 49.7 41.9 49.2 42.4 L 40.7 51.4 C 40.3 51.7 40.2 52 40.2 52.3 L 40.2 52.3 Z" fill="#282B3A"/><g><path d=" M 58.1 87.9 C 58.1 87.1 57.7 86.4 57 85.9 L 56.9 85.8 L 51.7 83.2 C 51.2 82.9 50.6 82.7 50 82.7 C 49.4 82.7 48.8 82.9 48.3 83.2 L 43.1 85.8 L 43 85.8 C 42.3 86.3 42 87 42 87.8 L 42 94.3 C 42 95.1 42.4 95.8 43 96.3 L 43.1 96.4 L 48.3 99 C 48.8 99.3 49.4 99.5 50 99.5 C 50.6 99.5 51.2 99.3 51.7 99 L 56.9 96.4 L 57 96.3 C 57.7 95.8 58 95.1 58 94.3 L 58.1 87.9 Z" stroke="#282B3A" stroke-miterlimit="10" fill="#FFFFFF"/><g><path d=" M 55.9 87.3 L 50.8 84.7 C 50.4 84.4 49.6 84.4 49.2 84.7 L 44.1 87.3 C 43.7 87.6 43.7 88.2 44.1 88.5 L 49.2 91.1 C 49.6 91.4 50.4 91.4 50.8 91.1 L 55.9 88.5 C 56.4 88.1 56.4 87.6 55.9 87.3 Z" fill="#282B3A"/><path d=" M 50 92 C 49.5 92 49 91.9 48.6 91.6 L 45.2 89.9 L 44 90.5 C 43.6 90.8 43.6 91.4 44 91.7 L 49.1 94.3 C 49.5 94.6 50.3 94.6 50.7 94.3 L 55.8 91.7 C 56.2 91.4 56.2 90.8 55.8 90.5 L 54.6 89.9 L 51.2 91.6 C 51 91.9 50.5 92 50 92 Z" fill="#282B3A"/><path d=" M 50 95.2 C 49.5 95.2 49 95.1 48.6 94.8 L 45.2 93.1 L 44 93.7 C 43.6 94 43.6 94.6 44 94.9 L 49.1 97.5 C 49.5 97.8 50.3 97.8 50.7 97.5 L 55.8 94.9 C 56.2 94.6 56.2 94 55.8 93.7 L 54.6 93.1 L 51.2 94.8 C 51 95.1 50.5 95.2 50 95.2 Z" fill="#282B3A"/></g></g></g><path d=" M 242.8 -53 L 202.3 -31.9 L 202.3 20.3 L 243 41.6 L 284.2 20.1 L 284.2 -31.6 Z" fill="#FFFFFF"/><g><g><g><g><path d=" M 242.6 -22.5 L 208.9 -15.1 L 208.9 -27.8 L 242.6 -45.3 Z" fill="#282B3A"/><path d=" M 242.6 5.7 L 208.9 0.6 L 208.9 -12.1 L 242.6 -17.1 Z" fill="#282B3A"/><path d=" M 242.6 33.9 L 208.9 16.3 L 208.9 3.6 L 242.6 11.1 Z" fill="#282B3A"/></g><g><path d=" M 277.6 -14.9 L 243.7 -22.3 L 243.7 -45 L 277.6 -27.5 Z" fill="#282B3A"/><path d=" M 277.6 0.6 L 243.7 5.7 L 243.7 -16.9 L 277.6 -12 Z" fill="#282B3A"/><path d=" M 277.6 16.1 L 243.7 33.8 L 243.7 11.1 L 277.6 3.5 Z" fill="#282B3A"/></g></g></g></g><path d=" M 180.1 -21.6 L 129.5 4.7 L 129.5 70 L 180.4 96.6 L 232 69.7 L 232 5.1 Z" fill="#FFFFFF"/><path d=" M 305.2 -21.6 L 254.5 4.7 L 254.5 70 L 305.4 96.6 L 357 69.7 L 357 5.1 Z" fill="#FFFFFF"/><g><g><g><g><path d=" M 179.9 16.5 L 137.8 25.7 L 137.8 9.9 L 179.9 -12 Z" fill="#282B3A"/><path d=" M 179.9 51.8 L 137.8 45.4 L 137.8 29.5 L 179.9 23.2 Z" fill="#282B3A"/><path d=" M 179.9 87 L 137.8 65 L 137.8 49.1 L 179.9 58.5 Z" fill="#282B3A"/></g><g><path d=" M 223.6 26 L 181.3 16.8 L 181.3 -11.6 L 223.6 10.3 Z" fill="#282B3A"/><path d=" M 223.6 45.3 L 181.3 51.8 L 181.3 23.4 L 223.6 29.6 Z" fill="#282B3A"/><path d=" M 223.6 64.7 L 181.3 86.8 L 181.3 58.5 L 223.6 49 Z" fill="#282B3A"/></g></g></g></g><g><g><g><g><path d=" M 304.9 16.5 L 262.9 25.7 L 262.9 9.9 L 304.9 -12 Z" fill="#282B3A"/><path d=" M 304.9 51.8 L 262.9 45.4 L 262.9 29.5 L 304.9 23.2 Z" fill="#282B3A"/><path d=" M 304.9 87 L 262.9 65 L 262.9 49.1 L 304.9 58.5 Z" fill="#282B3A"/></g><g><path d=" M 348.7 26 L 306.3 16.8 L 306.3 -11.6 L 348.7 10.3 Z" fill="#282B3A"/><path d=" M 348.7 45.3 L 306.3 51.8 L 306.3 23.4 L 348.7 29.6 Z" fill="#282B3A"/><path d=" M 348.7 64.7 L 306.3 86.8 L 306.3 58.5 L 348.7 49 Z" fill="#282B3A"/></g></g></g></g><path d=" M 242.6 20.5 L 189.9 47.9 L 189.9 115.9 L 242.9 143.7 L 296.7 115.7 L 296.7 48.3 Z" fill="#FFFFFF"/><g><g><g><g><path d=" M 49.7 9.8 L 37.1 12.6 L 37.1 7.8 L 49.7 1.2 Z" fill="#282B3A"/><path d=" M 49.7 20.4 L 37.1 18.5 L 37.1 13.7 L 49.7 11.8 Z" fill="#282B3A"/><path d=" M 49.7 31 L 37.1 24.4 L 37.1 19.6 L 49.7 22.4 Z" fill="#282B3A"/></g><g><path d=" M 62.9 12.6 L 50.2 9.9 L 50.2 1.3 L 62.9 7.9 Z" fill="#282B3A"/><path d=" M 62.9 18.5 L 50.2 20.4 L 50.2 11.9 L 62.9 13.7 Z" fill="#282B3A"/><path d=" M 62.9 24.3 L 50.2 30.9 L 50.2 22.4 L 62.9 19.6 Z" fill="#282B3A"/></g></g></g></g><g><path d=" M 30 40.9 C 30 38.4 28.2 36.4 25.7 36.4 C 25.7 36.4 25.8 36.4 25.8 36.4 C 25.4 32.2 22 29 17.7 29 C 14.7 29 12.1 30.6 10.7 33 C 10.4 32.9 10.2 32.9 9.9 32.9 C 8.1 32.9 6.6 34.4 6.6 36.2 C 6.6 36.3 6.6 36.3 6.6 36.4 C 6.5 36.4 6.4 36.4 6.3 36.4 C 3.8 36.4 1.3 38.4 1.3 40.9 C 1.3 43.3 2.9 45.3 5 45.4 L 25.1 45.4 C 27.6 45.4 30 43.4 30 40.9 Z" fill="#282B3A"/></g><g><path d=" M 169.4 428.7 C 154 428.6 140.9 416.3 140.9 401.8 C 140.9 390.4 147.5 380.8 157.1 376.9 C 162.3 360.9 177.2 349.6 194.6 349.6 C 206.2 349.6 216.9 354.6 224.4 363.2 C 232.3 364.1 239 369.2 242.2 376.1 C 254 379.4 262.8 389.9 262.8 401.9 C 262.8 416.2 252.8 427.7 239.5 428.7 L 239.1 428.7 L 169.4 428.7 L 169.4 428.7 Z" fill="#FFFFFF"/><path d=" M 152.2 401.8 C 152.2 393.2 158.3 386.1 167 386.1 C 167 386.1 166.6 386.1 166.6 386.1 C 168.1 371.8 180 360.7 194.6 360.7 C 204.9 360.7 213.9 366.2 218.9 374.5 C 219.8 374.3 220.7 374.1 221.7 374.1 C 228 374.1 233.2 379.2 233.2 385.6 C 233.2 385.8 233.2 385.9 233.2 386.1 C 233.6 386.1 234 386.1 234.4 386.1 C 243 386.1 251.7 393.1 251.7 401.8 C 251.7 410.1 246.3 416.9 238.8 417.4 L 169.6 417.4 C 160.5 417.4 152.2 410.4 152.2 401.8 Z" fill="#282B3A"/></g><text fill="#282B3A" font-family="opensans" font-size="30.2619" transform="matrix(1,0,0,1,205.365,467.616)">Cloud</text><g><g><g><path d=" M 74.3 46.4 L 76.3 46.4 L 95 46.4 L 97 46.4 C 98.1 46.4 99.1 45.5 99.1 44.3 L 99.1 43 L 97.4 43 L 97.3 43 L 97.3 29.9 C 97.3 28.9 96.5 28 95.4 28 L 75.8 28 C 74.8 28 73.9 28.8 73.9 29.9 L 73.9 43.1 L 73.8 43.1 L 72.1 43.1 L 72.1 44.4 C 72.2 45.5 73.1 46.4 74.3 46.4 Z M 76.5 30.6 L 94.7 30.6 L 94.7 43.1 L 88.1 43.1 L 88.1 43.2 C 88.1 43.6 87.8 43.9 87.4 43.9 L 83.8 43.9 C 83.4 43.9 83.1 43.6 83.1 43.2 L 83.1 43.1 L 76.5 43.1 L 76.5 30.6 Z" fill="#282B3A"/></g></g></g></svg>