<svg version="1.1" viewBox="0 0 100 100" xmlns="http://www.w3.org/2000/svg" xmlns:xlink="http://www.w3.org/1999/xlink" id="Layer_1" overflow="hidden"><g><g><path d=" M 50.8 1.4 L 50.8 1.4 C 50.9 1.4 50.9 1.4 50.8 1.4 L 66 5.2 C 66 5.2 66.1 5.2 66.1 5.3 C 66.1 5.3 66.1 5.4 66.1 5.5 L 61.6 20.4 C 61.6 20.5 61.4 20.6 61.4 20.6 C 61.3 20.6 61.3 20.6 61.2 20.5 L 59.4 17.2 L 58.7 16 L 57.5 16.7 L 42.3 25.3 L 36.8 15.5 L 52 6.9 L 53.2 6.2 L 52.5 5 L 50.7 1.8 C 50.7 1.8 50.7 1.7 50.7 1.6 C 50.7 1.5 50.8 1.4 50.8 1.4 M 50.8 0 C 49.6 0 48.7 1.3 49.4 2.4 L 51.2 5.6 L 34.8 15 L 41.7 27.2 L 58.2 17.9 L 60 21.2 C 60.3 21.7 60.8 22 61.4 22 C 62.1 22 62.8 21.6 63 20.8 L 67.5 5.9 C 67.8 5 67.3 4.1 66.4 3.9 L 51.2 0 C 51.1 0 51 0 50.8 0 L 50.8 0 Z" fill="#282B3A"/></g><g><path d=" M 41.4 74.5 L 56.4 83.5 L 57.6 84.2 L 58.3 83 L 60.2 79.8 C 60.2 79.8 60.2 79.7 60.3 79.7 C 60.3 79.7 60.5 79.7 60.5 79.9 L 64.8 95 C 64.8 95 64.8 95.1 64.8 95.1 C 64.8 95.1 64.7 95.2 64.7 95.2 L 49.5 98.6 C 49.5 98.6 49.5 98.6 49.5 98.6 C 49.4 98.6 49.3 98.5 49.3 98.5 C 49.2 98.4 49.3 98.4 49.3 98.3 L 51.2 95.1 L 51.9 93.9 L 50.7 93.2 L 35.7 84.2 L 41.4 74.5 M 40.9 72.5 L 33.7 84.6 L 49.9 94.3 L 48 97.5 C 47.3 98.6 48.2 100 49.4 100 C 49.5 100 49.6 100 49.8 100 L 65 96.6 C 65.9 96.4 66.5 95.5 66.2 94.6 L 62 79.5 C 61.8 78.7 61.1 78.3 60.4 78.3 C 59.9 78.3 59.3 78.5 59 79.1 L 57.1 82.3 L 40.9 72.5 L 40.9 72.5 Z" fill="#282B3A"/></g><g><path d=" M 44.5 18.3 C 44.5 17.2 43.9 16.2 43 15.5 L 42.8 15.4 L 35.6 11.7 C 34.9 11.3 34.1 11 33.2 11 C 32.3 11 31.5 11.2 30.8 11.7 L 23.6 15.4 L 23.4 15.5 C 22.5 16.2 21.9 17.2 21.9 18.3 L 21.9 27.3 C 21.9 28.4 22.4 29.4 23.4 30.1 L 23.6 30.2 L 30.8 33.9 C 31.5 34.3 32.3 34.6 33.2 34.6 C 34.1 34.6 34.9 34.4 35.6 33.9 L 42.8 30.2 L 43 30.1 C 43.9 29.4 44.5 28.4 44.5 27.3 L 44.5 18.3 Z" stroke="#282B3A" stroke-miterlimit="10" fill="#FFFFFF"/><g><path d=" M 41.5 17.4 L 34.3 13.7 C 33.7 13.2 32.7 13.2 32.1 13.7 L 24.9 17.4 C 24.3 17.9 24.3 18.6 24.9 19.1 L 32.1 22.8 C 32.7 23.3 33.7 23.3 34.3 22.8 L 41.5 19.1 C 42.1 18.6 42.1 17.9 41.5 17.4 Z" fill="#282B3A"/><path d=" M 33.2 24.1 C 32.5 24.1 31.8 23.9 31.3 23.5 L 26.6 21.1 L 24.9 22 C 24.3 22.5 24.3 23.2 24.9 23.7 L 32.1 27.4 C 32.7 27.9 33.7 27.9 34.3 27.4 L 41.5 23.7 C 42.1 23.2 42.1 22.5 41.5 22 L 39.8 21.1 L 35.1 23.5 C 34.6 23.9 33.9 24.1 33.2 24.1 Z" fill="#282B3A"/><path d=" M 33.2 28.6 C 32.5 28.6 31.8 28.4 31.3 28 L 26.6 25.6 L 24.9 26.5 C 24.3 27 24.3 27.7 24.9 28.2 L 32.1 31.9 C 32.7 32.4 33.7 32.4 34.3 31.9 L 41.5 28.2 C 42.1 27.7 42.1 27 41.5 26.5 L 39.8 25.6 L 35.1 28 C 34.6 28.4 33.9 28.6 33.2 28.6 Z" fill="#282B3A"/></g></g><g><path d=" M 44.5 71.5 C 44.5 70.4 43.9 69.4 43 68.7 L 42.8 68.6 L 35.6 64.9 C 34.9 64.5 34.1 64.2 33.2 64.2 C 32.3 64.2 31.5 64.4 30.8 64.9 L 23.6 68.6 L 23.4 68.7 C 22.5 69.4 21.9 70.4 21.9 71.5 L 21.9 80.5 C 21.9 81.6 22.4 82.6 23.4 83.3 L 23.6 83.4 L 30.8 87.1 C 31.5 87.5 32.3 87.8 33.2 87.8 C 34.1 87.8 34.9 87.6 35.6 87.1 L 42.8 83.4 L 43 83.3 C 43.9 82.6 44.5 81.6 44.5 80.5 L 44.5 71.5 Z" stroke="#282B3A" stroke-miterlimit="10" fill="#FFFFFF"/><g><path d=" M 41.5 70.6 L 34.3 66.9 C 33.7 66.4 32.7 66.4 32.1 66.9 L 24.9 70.6 C 24.3 71.1 24.3 71.8 24.9 72.3 L 32.1 76 C 32.7 76.5 33.7 76.5 34.3 76 L 41.5 72.3 C 42.1 71.8 42.1 71.1 41.5 70.6 Z" fill="#282B3A"/><path d=" M 33.2 77.2 C 32.5 77.2 31.8 77 31.3 76.6 L 26.6 74.2 L 24.9 75.1 C 24.3 75.6 24.3 76.3 24.9 76.8 L 32.1 80.5 C 32.7 81 33.7 81 34.3 80.5 L 41.5 76.8 C 42.1 76.3 42.1 75.6 41.5 75.1 L 39.8 74.2 L 35.1 76.6 C 34.6 77.1 33.9 77.2 33.2 77.2 Z" fill="#282B3A"/><path d=" M 33.2 81.8 C 32.5 81.8 31.8 81.6 31.3 81.2 L 26.6 78.8 L 24.9 79.7 C 24.3 80.2 24.3 80.9 24.9 81.4 L 32.1 85.1 C 32.7 85.6 33.7 85.6 34.3 85.1 L 41.5 81.4 C 42.1 80.9 42.1 80.2 41.5 79.7 L 39.8 78.8 L 35.1 81.2 C 34.6 81.6 33.9 81.8 33.2 81.8 Z" fill="#282B3A"/></g></g><path d=" M 80.6 37.2 L 80.6 37.2 C 80.7 37.2 80.8 37.3 80.9 37.3 L 93.5 49.3 C 93.6 49.4 93.6 49.4 93.6 49.5 C 93.6 49.6 93.6 49.7 93.5 49.8 L 80.9 61.8 C 80.9 61.8 80.8 61.9 80.6 61.9 C 80.5 61.9 80.2 61.8 80.2 61.5 L 80.2 57.3 L 80.2 55.9 L 78.8 55.9 L 17.8 55.9 L 17.8 43.1 L 78.8 43.1 L 80.2 43.1 L 80.2 41.7 L 80.2 37.6 C 80.2 37.5 80.2 37.4 80.3 37.4 C 80.4 37.2 80.5 37.2 80.6 37.2 M 80.6 35.8 C 79.7 35.8 78.7 36.5 78.7 37.6 L 78.7 41.7 L 16.3 41.7 L 16.3 57.4 L 78.8 57.4 L 78.8 61.6 C 78.8 62.7 79.7 63.4 80.7 63.4 C 81.1 63.4 81.6 63.2 81.9 62.9 L 94.5 50.9 C 95.2 50.2 95.3 49 94.5 48.3 L 81.9 36.3 C 81.5 35.9 81 35.8 80.6 35.8 L 80.6 35.8 Z" fill="#282B3A"/><g><path d=" M 27.6 44.9 C 27.6 43.8 27 42.8 26.1 42.1 L 25.9 42 L 18.7 38.3 C 18 37.9 17.2 37.6 16.3 37.6 C 15.4 37.6 14.6 37.8 13.9 38.3 L 6.6 42 L 6.4 42.1 C 5.5 42.8 5 43.8 5 44.9 L 5 53.9 C 5 55 5.5 56 6.5 56.7 L 6.7 56.8 L 13.9 60.5 C 14.6 60.9 15.4 61.2 16.3 61.2 C 17.2 61.2 18 61 18.7 60.5 L 25.9 56.8 L 26.1 56.7 C 27 56 27.6 55 27.6 53.9 L 27.6 44.9 Z" stroke="#282B3A" stroke-miterlimit="10" fill="#FFFFFF"/><g><path d=" M 24.6 44.1 L 17.4 40.4 C 16.8 39.9 15.8 39.9 15.2 40.4 L 8 44.1 C 7.4 44.6 7.4 45.3 8 45.8 L 15.2 49.5 C 15.8 50 16.8 50 17.4 49.5 L 24.6 45.8 C 25.2 45.3 25.2 44.5 24.6 44.1 Z" fill="#282B3A"/><path d=" M 16.3 50.7 C 15.6 50.7 14.9 50.5 14.4 50.1 L 9.7 47.7 L 8 48.6 C 7.4 49.1 7.4 49.8 8 50.3 L 15.2 54 C 15.8 54.5 16.8 54.5 17.4 54 L 24.6 50.3 C 25.2 49.8 25.2 49.1 24.6 48.6 L 22.9 47.7 L 18.2 50.1 C 17.7 50.5 17 50.7 16.3 50.7 Z" fill="#282B3A"/><path d=" M 16.3 55.2 C 15.6 55.2 14.9 55 14.4 54.6 L 9.7 52.2 L 8 53.1 C 7.4 53.6 7.4 54.3 8 54.8 L 15.2 58.5 C 15.8 59 16.8 59 17.4 58.5 L 24.6 54.8 C 25.2 54.3 25.2 53.6 24.6 53.1 L 22.9 52.2 L 18.2 54.6 C 17.7 55 17 55.2 16.3 55.2 Z" fill="#282B3A"/></g></g></g></svg>